<svg width="25" height="25" fill="none" xmlns="http://www.w3.org/2000/svg"><path d="M24.009 6.127a9.237 9.237 0 0 0-.24-2.192C23.45 2.624 22.706 1.623 21.587.89A5.024 5.024 0 0 0 19.71.163c-.517-.089-1.04-.14-1.565-.15-.04-.003-.083-.01-.124-.013H5.99c-.152.01-.304.017-.456.026-.747.043-1.49.123-2.194.4C2.003.956 1.039 1.88.473 3.208c-.192.449-.292.926-.363 1.41a10.62 10.62 0 0 0-.1 1.18c0 .033-.007.063-.01.094v12.232c.01.14.017.283.027.424.05.816.154 1.626.497 2.375.65 1.421 1.74 2.355 3.236 2.804.42.127.857.187 1.294.228.555.053 1.11.06 1.668.06H17.76c.525 0 1.05-.034 1.57-.1.823-.107 1.598-.35 2.297-.811a5.05 5.05 0 0 0 1.881-2.209c.186-.42.293-.87.37-1.325.114-.675.139-1.359.138-2.041-.002-3.803 0-7.601-.003-11.402h-.003Zm-6.427 3.993v5.716c0 .418-.058.828-.244 1.207-.29.59-.76.963-1.39 1.141-.35.1-.706.157-1.07.173a1.868 1.868 0 0 1-1.765-2.723c.187-.366.49-.66.86-.838.323-.16.67-.25 1.018-.324.378-.082.759-.153 1.135-.24.274-.063.457-.23.51-.516a.909.909 0 0 0 .02-.193c0-1.817 0-3.633-.002-5.448a.729.729 0 0 0-.026-.185c-.04-.15-.15-.243-.304-.234-.16.01-.318.035-.475.066-.76.15-1.521.303-2.282.456l-2.326.47-1.375.279c-.016.003-.032.01-.048.013-.277.077-.377.203-.39.49-.002.042 0 .086 0 .13-.002 2.604 0 5.208-.003 7.812 0 .42-.047.836-.215 1.227-.279.641-.77 1.041-1.435 1.235-.35.1-.71.16-1.076.172-.96.036-1.756-.6-1.921-1.546-.14-.812.23-1.686 1.155-2.076.357-.15.73-.232 1.108-.31.287-.06.576-.117.86-.178.384-.083.584-.323.601-.714v-.15c0-2.963 0-5.927.002-8.89 0-.122.013-.25.042-.37.07-.285.273-.448.547-.518.255-.066.515-.112.774-.165.733-.15 1.467-.296 2.201-.444l2.272-.46 2.011-.404c.22-.043.442-.088.663-.106.31-.025.524.17.555.482.008.073.012.148.012.223.002 1.912.002 3.825 0 5.737v.003Z" fill="#FA2E46"/></svg>