<svg width="123" height="123" fill="none" xmlns="http://www.w3.org/2000/svg"><g filter="url('#filter0_d_116_2')"><path d="M118.421 57.503c0 9.072-2.122 17.64-5.904 25.252-.042.097-.091.194-.139.292-7.558 15.03-21.572 26.236-38.402 29.994-.073.018-.14.03-.213.048a56.576 56.576 0 0 1-12.263 1.332c-31.44.006-56.921-25.483-56.921-56.918a56.749 56.749 0 0 1 4.992-23.342 54.982 54.982 0 0 1 2.128-4.232 56.998 56.998 0 0 1 7.168-10.13c.122-.14.243-.274.377-.413a56.893 56.893 0 0 1 11.145-9.553C39.332 3.978 50.015.58 61.494.58c14.3 0 27.36 5.272 37.356 13.979a52.086 52.086 0 0 1 3.204 3.022 56.852 56.852 0 0 1 6.213 7.497 57.17 57.17 0 0 1 2.518 3.946c4.851 8.378 7.63 18.107 7.63 28.486l.006-.006Z" fill="#fff"/></g><path d="M113 57.5c0 8.207-1.92 15.958-5.341 22.846-.039.087-.083.175-.127.263-6.838 13.599-19.517 23.737-34.744 27.137-.066.016-.127.027-.193.044a51.223 51.223 0 0 1-11.095 1.204C33.054 109 10 85.94 10 57.5a51.34 51.34 0 0 1 4.516-21.118 49.808 49.808 0 0 1 1.926-3.829 51.571 51.571 0 0 1 6.485-9.164c.11-.127.22-.248.341-.374a51.478 51.478 0 0 1 10.084-8.643C41.444 9.076 51.109 6 61.495 6c12.938 0 24.754 4.77 33.797 12.647a46.99 46.99 0 0 1 2.9 2.734 51.42 51.42 0 0 1 5.621 6.782 51.558 51.558 0 0 1 2.278 3.57c4.39 7.58 6.903 16.382 6.903 25.772L113 57.5Z" fill="#47A4FB"/><path d="M93.076 23.548c.247-1.144.533-2.3 1.083-3.339.473-.897 1.584-2.464 2.79-2.206.445.094.775.484.962.902.924 2.047-.226 4.693-1.095 6.552-.467.99-4.236 8.295-4.934 8.059-.605-.204.968-8.9 1.194-9.968ZM100.887 29.847c.952-.677 1.947-1.337 3.053-1.733.952-.347 2.833-.748 3.548.258.264.375.242.88.099 1.315-.699 2.135-3.333 3.306-5.231 4.093-1.012.418-8.725 3.262-9.082 2.618-.308-.56 6.722-5.913 7.607-6.546l.006-.005ZM104.809 39.853c1.161.148 2.338.336 3.422.792.935.39 2.591 1.37 2.437 2.591-.055.451-.418.814-.815 1.034-1.963 1.095-4.692.176-6.623-.528-1.028-.38-8.63-3.51-8.455-4.224.154-.622 8.95.197 10.034.335ZM27.053 82.05c-.583 1.013-1.216 2.025-2.052 2.85-.726.71-2.26 1.86-3.334 1.244-.396-.226-.588-.699-.638-1.156-.253-2.233 1.65-4.395 3.048-5.902.748-.803 6.574-6.601 7.162-6.161.512.38-3.641 8.18-4.192 9.12l.006.006ZM21.541 73.667c-1.117.352-2.26.677-3.438.716-1.012.033-2.921-.154-3.3-1.332-.138-.434.038-.913.307-1.281 1.32-1.821 4.187-2.13 6.233-2.294 1.095-.088 9.308-.435 9.445.286.121.627-8.207 3.575-9.247 3.9v.005ZM20.87 62.935c-1.056-.495-2.123-1.034-3.015-1.799-.77-.66-2.046-2.096-1.529-3.212.193-.413.65-.644 1.095-.737 2.2-.446 4.522 1.265 6.139 2.53.864.677 7.14 5.98 6.755 6.607-.335.544-8.46-2.927-9.45-3.389h.005Z" fill="#9ECFFD"/><path d="m65.054 8.905-12.51 11.843 7.344-1.133-7.157 11.365 13.34-14.54-6.166.518 5.149-8.053ZM77.194 101.502 62.32 92.805l3.146 6.733-12.91-3.69 17.685 8.74-2.222-5.781 9.175 2.695Z" fill="#FBF300"/><path d="m95.226 55.267 2.966-1.079a3.124 3.124 0 0 0 2.057-2.91l.033-4.18c0-.094.137-.11.159-.017l.853 3.686a3.114 3.114 0 0 0 3.081 2.415l2.084-.022c.088 0 .116.12.028.154l-2.239.858a3.124 3.124 0 0 0-1.997 3.092l.193 3.355c0 .094-.127.121-.154.033l-1.156-3.212a3.118 3.118 0 0 0-2.987-2.063l-2.888.044c-.088 0-.115-.127-.027-.154h-.006ZM90.683 70.34l1.776-1.475a2.277 2.277 0 0 0 .694-2.508l-1.013-2.888c-.022-.066.066-.11.105-.05l1.502 2.327c.583.902 1.71 1.276 2.717.902l1.43-.533c.06-.022.11.055.06.099l-1.325 1.144a2.28 2.28 0 0 0-.61 2.624l.962 2.26c.028.061-.055.11-.099.061l-1.59-1.925a2.282 2.282 0 0 0-2.569-.682l-1.98.748c-.06.022-.11-.055-.06-.1v-.005ZM102.048 70.34l1.776-1.475a2.277 2.277 0 0 0 .694-2.508l-1.013-2.888c-.022-.066.066-.11.105-.05l1.502 2.327c.583.902 1.71 1.276 2.717.902l1.43-.533c.061-.022.11.055.061.099l-1.326 1.144a2.28 2.28 0 0 0-.61 2.624l.962 2.26c.028.061-.055.11-.099.061l-1.59-1.925a2.282 2.282 0 0 0-2.569-.682l-1.98.748c-.06.022-.11-.055-.06-.1v-.005ZM35.948 20.737l2.597-.946a2.73 2.73 0 0 0 1.798-2.547l.033-3.664c0-.082.121-.093.138-.016l.748 3.229a2.74 2.74 0 0 0 2.696 2.118l1.826-.022c.077 0 .099.11.027.137l-1.958.754a2.734 2.734 0 0 0-1.75 2.706l.166 2.938c0 .082-.11.104-.138.027l-1.012-2.816a2.739 2.739 0 0 0-2.618-1.81l-2.53.039c-.078 0-.1-.11-.028-.138l.005.011ZM31.965 33.94l1.557-1.293a2.003 2.003 0 0 0 .61-2.2l-.885-2.531c-.022-.055.06-.094.094-.044l1.314 2.04a2.006 2.006 0 0 0 2.382.793l1.255-.468c.054-.022.093.05.049.088l-1.16 1.001a1.998 1.998 0 0 0-.534 2.3l.841 1.98c.022.055-.05.1-.088.055l-1.391-1.689a2 2 0 0 0-2.25-.6l-1.733.655c-.055.022-.094-.05-.05-.088h-.01ZM41.922 33.94l1.557-1.293a2.003 2.003 0 0 0 .61-2.2l-.885-2.531c-.022-.055.06-.094.093-.044l1.315 2.04a2.007 2.007 0 0 0 2.382.793l1.254-.468c.055-.022.094.05.05.088l-1.16 1.001a1.998 1.998 0 0 0-.535 2.3l.842 1.98c.022.055-.05.1-.088.055l-1.392-1.689a2 2 0 0 0-2.25-.6l-1.732.655c-.055.022-.094-.05-.05-.088h-.01Z" fill="#FEF6CF"/><path d="M49.57 85.775c-1.43.383-2.79.203-4.08-.542-1.29-.745-2.127-1.833-2.512-3.264L33.225 45.57c-.383-1.43-.202-2.79.545-4.081.746-1.29 1.833-2.128 3.261-2.512l36.398-9.753c1.43-.383 2.791-.202 4.084.544 1.292.746 2.128 1.834 2.51 3.262l9.752 36.398c.383 1.43.203 2.791-.541 4.083-.745 1.292-1.833 2.129-3.265 2.51L49.57 85.775Zm2.414-11.793 18.199-4.876-1.393-5.2-18.2 4.877 1.394 5.2Zm-2.787-10.399 25.999-6.966-1.393-5.2-25.999 6.966 1.393 5.2Zm-2.786-10.4 25.998-6.966-1.393-5.2-25.999 6.967 1.394 5.2Z" fill="#F8D424"/><defs><filter id="filter0_d_116_2" x=".579" y=".579" width="121.842" height="121.842" filterUnits="userSpaceOnUse" color-interpolation-filters="sRGB"><feFlood flood-opacity="0" result="BackgroundImageFix"/><feColorMatrix in="SourceAlpha" values="0 0 0 0 0 0 0 0 0 0 0 0 0 0 0 0 0 0 127 0" result="hardAlpha"/><feOffset dy="4"/><feGaussianBlur stdDeviation="2"/><feComposite in2="hardAlpha" operator="out"/><feColorMatrix values="0 0 0 0 0 0 0 0 0 0 0 0 0 0 0 0 0 0 0.25 0"/><feBlend in2="BackgroundImageFix" result="effect1_dropShadow_116_2"/><feBlend in="SourceGraphic" in2="effect1_dropShadow_116_2" result="shape"/></filter></defs></svg>