<svg width="158" height="154" fill="none" xmlns="http://www.w3.org/2000/svg"><g filter="url('#filter0_d_108_947')"><path d="M118.421 57.503c0 9.072-2.122 17.639-5.904 25.252-.042.097-.091.194-.139.291-7.558 15.031-21.572 26.237-38.402 29.995-.073.018-.14.03-.213.048a56.576 56.576 0 0 1-12.263 1.332c-31.44.006-56.921-25.483-56.921-56.918A56.75 56.75 0 0 1 9.571 34.16a55.019 55.019 0 0 1 2.128-4.231 57.001 57.001 0 0 1 7.168-10.13c.122-.14.243-.274.377-.414a56.896 56.896 0 0 1 11.145-9.552C39.332 3.978 50.015.58 61.494.58c14.3 0 27.36 5.272 37.356 13.978a52.118 52.118 0 0 1 3.204 3.022 56.852 56.852 0 0 1 6.213 7.497 57.145 57.145 0 0 1 2.518 3.947c4.851 8.378 7.63 18.107 7.63 28.486l.006-.006Z" fill="#fff"/></g><path d="M113 57.5c0 8.207-1.92 15.958-5.341 22.846-.039.087-.083.175-.127.263-6.838 13.599-19.517 23.737-34.744 27.137-.066.016-.127.027-.193.044a51.223 51.223 0 0 1-11.095 1.204C33.054 109 10 85.94 10 57.5a51.34 51.34 0 0 1 4.516-21.118 49.808 49.808 0 0 1 1.926-3.829 51.571 51.571 0 0 1 6.485-9.164c.11-.127.22-.248.341-.374a51.478 51.478 0 0 1 10.084-8.643C41.444 9.076 51.109 6 61.495 6c12.938 0 24.754 4.77 33.797 12.647a46.99 46.99 0 0 1 2.9 2.734 51.42 51.42 0 0 1 5.621 6.782 51.558 51.558 0 0 1 2.278 3.57c4.39 7.58 6.903 16.382 6.903 25.772L113 57.5Z" fill="#47A4FB"/><path d="m46.09 37.932-2.712-8.295 2.252-.736 2.119 6.48 3.354-1.096.593 1.815-5.606 1.832Zm6.056-11.162 2.712 8.296-2.252.736-2.712-8.295 2.252-.737Zm3.336-1.09 3.613 5.293.065-.022-.211-6.405 2.544-.831-.026 9.19-3.079 1.006-5.45-7.4 2.544-.831Zm9.522 6.069-2.713-8.296L68.27 21.5l.593 1.815-3.726 1.218.466 1.425 3.418-1.117.594 1.814-3.419 1.118.466 1.426 3.71-1.213.594 1.814-5.962 1.95Z" fill="#F8D424"/><circle cx="35" cy="36.611" r="4" fill="#F8D424"/><path d="M101.247 86.547c-.025.056 1.101 2.375 1.073 2.43-6.4 7.179-14.08 13.823-22.4 16.383l-3.225-7.059-1.005-2.145-2.2-4.704s-11.2 1.886-13.44-2.475c-2.394-4.669-3.74-10.107-5.334-15.085-1.508-4.707-3.07-9.59-4.409-14.426-.71-2.558-1.369-5.137-1.937-7.73-.094-.43-.205-.873-.295-1.32-.28-1.425-.326-2.857 1.15-3.72 1.325-.773 3.169-1.677 4.798-1.456.26.039.516.104.763.201.405.163.759.44 1.026.86.29.458.69 1.293 1.144 2.357.058.128.114.257.17.392.928 2.2 2.062 5.234 3.056 7.958.025.07.049.135.07.201 1.22 3.349 2.197 6.19 2.274 6.406a3.146 3.146 0 0 1-.025-.749v-.014c.077-.967.565-2.63 2.857-3.823.665-.343 1.247-.59 1.757-.76l.007-.003c2.114-.714 2.953-.18 2.953-.18s.471-2.593 3.653-3.774a9.559 9.559 0 0 1 1.654-.455c.024 0 .052-.01.076-.017 1.782-.305 3.023.038 3.432.18l.007.004c.03.007.058.02.09.035.017 0 .03.01.048.017-.977-2.572-3.608-6.666-1.948-9.362.85-1.377 3.983-3.05 5.251-1.366.735.977 6.569 14.374 12.018 27.054.059.138.118.28.18.42 1.324 3.077 2.617 6.106 3.813 8.897.041.104.087.204.132.308 1.026 2.399 1.965 4.614 2.776 6.517l-.01.003Z" fill="#F8D424"/><path d="m58.193 81.113 2.593-6.205c.215-.513.54-.974.953-1.348l6.596-5.962a3.016 3.016 0 0 1 3.986-.052l2.51 2.149a3.016 3.016 0 0 1 .332 4.246l-4.239 5.49M73.399 76.33a26.471 26.471 0 0 1 12.482 1.025M64.293 71.033l-1.767-7.959s-.62-2.828 3.712-4.51c0 0 1.65-.765 3.83-.47" stroke="#0081F9" stroke-miterlimit="10"/><path d="M72.9 67.996c-.728-1.507-1.387-2.953-1.907-4.544-.956-2.94-1.854-6.187 1.186-8.18 1.948-1.28 4.596-2.135 6.85-1.186M75.375 73.89s.294 1.59 2.828.647c2.534-.943 6.073-2.357 5.72-4.007-.354-1.65-3.536-12.142-3.536-12.142M64.574 70.977c2.26 1.092 5.078.877 7.037-.69a51.595 51.595 0 0 0-2.926-2.914" stroke="#0081F9" stroke-linecap="round" stroke-linejoin="round"/><path d="M74.432 69.293c.097-1.251.79-2.19 1.93-2.721a3.624 3.624 0 0 1 3.578.343c1.106.797 1.653 2.146 2.055 3.449l-6.208 2.877" stroke="#0081F9" stroke-linecap="round" stroke-linejoin="round"/><path d="M93.076 23.548c.247-1.144.533-2.3 1.083-3.34.473-.896 1.584-2.463 2.79-2.205.445.093.775.484.962.902.924 2.046-.226 4.692-1.095 6.552-.467.99-4.236 8.295-4.934 8.059-.605-.204.968-8.9 1.194-9.968ZM100.887 29.846c.952-.676 1.947-1.336 3.053-1.732.952-.347 2.833-.748 3.548.258.264.374.242.88.099 1.315-.699 2.134-3.333 3.306-5.231 4.093-1.012.418-8.725 3.262-9.082 2.618-.308-.56 6.722-5.913 7.607-6.546l.006-.006ZM104.809 39.853c1.161.148 2.338.335 3.422.792.935.39 2.591 1.37 2.437 2.59-.055.452-.418.815-.815 1.035-1.963 1.095-4.692.176-6.623-.528-1.028-.38-8.63-3.51-8.455-4.225.154-.621 8.95.198 10.034.336ZM27.053 82.05c-.583 1.013-1.216 2.025-2.052 2.85-.726.71-2.26 1.86-3.334 1.243-.396-.225-.588-.698-.638-1.155-.253-2.233 1.65-4.395 3.048-5.902.748-.803 6.574-6.601 7.162-6.161.512.38-3.641 8.18-4.192 9.12l.006.006ZM21.541 73.667c-1.117.352-2.26.677-3.438.715-1.012.033-2.921-.154-3.3-1.33-.138-.435.038-.914.307-1.283 1.32-1.82 4.187-2.128 6.233-2.293 1.095-.088 9.308-.435 9.445.286.121.627-8.207 3.575-9.247 3.9v.005ZM20.87 62.935c-1.056-.495-2.123-1.034-3.015-1.799-.77-.66-2.046-2.096-1.529-3.212.193-.413.65-.644 1.095-.737 2.2-.446 4.522 1.265 6.139 2.53.864.677 7.14 5.98 6.755 6.607-.335.544-8.46-2.927-9.45-3.389h.005Z" fill="#9ECFFD"/><path d="M85.549 21 80 26.365l3.257-.513L80.083 31 86 24.414l-2.735.234L85.549 21ZM77.194 101.502 62.32 92.805l3.146 6.733-12.91-3.69 17.685 8.74-2.222-5.781 9.175 2.695Z" fill="#F8D424"/><path d="m95.226 55.267 2.966-1.079a3.124 3.124 0 0 0 2.057-2.91l.033-4.18c0-.094.137-.11.159-.017l.853 3.686a3.114 3.114 0 0 0 3.081 2.415l2.084-.022c.088 0 .116.12.028.154l-2.239.858a3.124 3.124 0 0 0-1.997 3.092l.193 3.355c0 .094-.127.121-.154.033l-1.156-3.212a3.118 3.118 0 0 0-2.987-2.063l-2.888.044c-.088 0-.115-.127-.027-.154h-.006ZM90.683 70.34l1.776-1.475a2.277 2.277 0 0 0 .694-2.508l-1.013-2.888c-.022-.066.066-.11.105-.05l1.502 2.327c.583.902 1.71 1.276 2.717.902l1.43-.533c.06-.022.11.055.06.099l-1.325 1.144a2.28 2.28 0 0 0-.61 2.624l.962 2.26c.028.061-.055.11-.099.061l-1.59-1.925a2.282 2.282 0 0 0-2.569-.682l-1.98.748c-.06.022-.11-.055-.06-.1v-.005ZM102.048 70.34l1.776-1.475a2.277 2.277 0 0 0 .694-2.508l-1.013-2.888c-.022-.066.066-.11.105-.05l1.502 2.327c.583.902 1.71 1.276 2.717.902l1.43-.533c.061-.022.11.055.061.099l-1.326 1.144a2.28 2.28 0 0 0-.61 2.624l.962 2.26c.028.061-.055.11-.099.061l-1.59-1.925a2.282 2.282 0 0 0-2.569-.682l-1.98.748c-.06.022-.11-.055-.06-.1v-.005ZM32.049 63.225l2.596-.946a2.73 2.73 0 0 0 1.8-2.547l.032-3.663c0-.083.121-.094.138-.017l.748 3.23a2.74 2.74 0 0 0 2.695 2.117l1.827-.022c.077 0 .099.11.027.138l-1.958.753a2.734 2.734 0 0 0-1.75 2.707l.166 2.937c0 .083-.11.105-.138.028l-1.012-2.817a2.74 2.74 0 0 0-2.619-1.81l-2.53.039c-.077 0-.099-.11-.027-.137l.005.01Z" fill="#FEF6CF"/><defs><filter id="filter0_d_108_947" x=".579" y=".579" width="121.842" height="121.842" filterUnits="userSpaceOnUse" color-interpolation-filters="sRGB"><feFlood flood-opacity="0" result="BackgroundImageFix"/><feColorMatrix in="SourceAlpha" values="0 0 0 0 0 0 0 0 0 0 0 0 0 0 0 0 0 0 127 0" result="hardAlpha"/><feOffset dy="4"/><feGaussianBlur stdDeviation="2"/><feComposite in2="hardAlpha" operator="out"/><feColorMatrix values="0 0 0 0 0 0 0 0 0 0 0 0 0 0 0 0 0 0 0.25 0"/><feBlend in2="BackgroundImageFix" result="effect1_dropShadow_108_947"/><feBlend in="SourceGraphic" in2="effect1_dropShadow_108_947" result="shape"/></filter></defs></svg>