<svg width="553" height="330" fill="none" xmlns="http://www.w3.org/2000/svg"><g clip-path="url('#clip0_223_257')" opacity=".9"><g opacity=".3" clip-path="url('#clip1_223_257')"><path fill-rule="evenodd" clip-rule="evenodd" d="m138.765 98.258.344.2c5.654 3.263 10.132 5.849 13.364 8.342 3.324 2.568 5.654 5.274 6.629 8.905.971 3.632.307 7.141-1.289 11.026-1.554 3.778-4.137 8.254-7.401 13.907l-7.303 12.648c-3.264 5.653-5.849 10.132-8.343 13.363-2.567 3.325-5.273 5.654-8.904 6.63-3.632.97-7.141.306-11.026-1.289-3.778-1.554-8.254-4.138-13.907-7.402l-.345-.199c-5.653-3.264-10.132-5.849-13.363-8.343-3.325-2.567-5.654-5.273-6.63-8.904-.97-3.632-.306-7.141 1.29-11.026 1.553-3.779 4.137-8.254 7.401-13.907l7.302-12.648c3.264-5.654 5.85-10.132 8.343-13.364 2.567-3.324 5.274-5.654 8.905-6.629 3.632-.97 7.14-.306 11.026 1.289 3.778 1.554 8.253 4.138 13.907 7.401Zm-15.936-2.474c-3.334-1.371-5.569-1.62-7.624-1.072-2.049.552-3.861 1.885-6.062 4.74-2.25 2.916-4.661 7.077-8.047 12.943l-7.104 12.303c-3.386 5.866-5.787 10.037-7.188 13.444-1.37 3.331-1.618 5.566-1.068 7.619.55 2.052 1.883 3.863 4.737 6.065 2.917 2.25 7.079 4.661 12.944 8.047 5.866 3.387 10.037 5.787 13.444 7.188 3.331 1.369 5.566 1.618 7.618 1.068 2.053-.55 3.864-1.883 6.066-4.737 2.248-2.914 4.66-7.078 8.047-12.944l7.103-12.303c3.387-5.866 5.785-10.034 7.188-13.444 1.37-3.331 1.618-5.566 1.068-7.619-.55-2.052-1.882-3.863-4.737-6.065-2.917-2.25-7.078-4.661-12.944-8.047-5.865-3.387-10.031-5.783-13.441-7.186Zm7.229 17.953a4.438 4.438 0 0 0-6.065 1.625 4.442 4.442 0 0 0 1.625 6.065 4.438 4.438 0 0 0 6.065-1.625 4.438 4.438 0 0 0-1.625-6.065Zm-10.678-1.039a9.764 9.764 0 0 1 13.342-3.575 9.769 9.769 0 0 1-2.356 17.893 9.764 9.764 0 0 1-11.962-6.906 9.763 9.763 0 0 1 .976-7.412Zm-1.753 22.57a7.988 7.988 0 0 0-10.916 2.925 7.993 7.993 0 0 0 2.925 10.916 7.992 7.992 0 0 0 10.916-2.925 7.99 7.99 0 0 0-2.925-10.916Zm-15.53.261a13.316 13.316 0 0 1 18.194-4.875 13.321 13.321 0 0 1-3.212 24.4 13.322 13.322 0 0 1-16.313-9.418 13.323 13.323 0 0 1 1.331-10.107Z" fill="#fff"/></g><g opacity=".3" clip-path="url('#clip2_223_257')"><path fill-rule="evenodd" clip-rule="evenodd" d="m369.12 231.254.345.199c5.653 3.264 10.131 5.85 13.363 8.343 3.324 2.567 5.654 5.274 6.629 8.904.971 3.633.307 7.141-1.288 11.027-1.554 3.778-4.138 8.253-7.402 13.907l-7.302 12.648c-3.264 5.653-5.85 10.131-8.343 13.363-2.568 3.324-5.274 5.654-8.905 6.629-3.632.971-7.141.307-11.026-1.289-3.778-1.553-8.254-4.137-13.907-7.401l-.345-.199c-5.653-3.264-10.131-5.85-13.363-8.343-3.324-2.567-5.654-5.274-6.629-8.905-.971-3.632-.307-7.14 1.289-11.026 1.553-3.778 4.137-8.253 7.401-13.907l7.302-12.648c3.264-5.653 5.85-10.131 8.343-13.363 2.568-3.324 5.274-5.654 8.905-6.629 3.632-.971 7.141-.307 11.026 1.288 3.778 1.554 8.254 4.138 13.907 7.402Zm-15.935-2.474c-3.334-1.372-5.57-1.62-7.625-1.072-2.049.551-3.86 1.884-6.062 4.739-2.25 2.917-4.661 7.078-8.047 12.944l-7.104 12.303c-3.386 5.866-5.786 10.037-7.187 13.444-1.37 3.331-1.619 5.566-1.069 7.618.55 2.053 1.883 3.864 4.738 6.066 2.917 2.25 7.078 4.66 12.943 8.047 5.866 3.386 10.037 5.786 13.444 7.188 3.331 1.369 5.566 1.618 7.619 1.068 2.052-.55 3.863-1.883 6.065-4.738 2.248-2.913 4.661-7.078 8.047-12.943l7.104-12.304c3.386-5.865 5.784-10.034 7.187-13.444 1.37-3.331 1.619-5.566 1.069-7.618-.55-2.052-1.883-3.863-4.738-6.065-2.917-2.25-7.078-4.661-12.943-8.047-5.866-3.387-10.031-5.784-13.441-7.186Zm7.228 17.953a4.438 4.438 0 0 0-6.508 4.994 4.438 4.438 0 0 0 5.437 3.139 4.44 4.44 0 0 0 1.071-8.133Zm-10.678-1.039a9.77 9.77 0 0 1 13.342-3.575 9.769 9.769 0 0 1-9.767 16.917 9.762 9.762 0 0 1-3.575-13.342Zm-1.753 22.57a7.993 7.993 0 0 0-10.916 2.925 7.988 7.988 0 0 0 2.925 10.916 7.988 7.988 0 0 0 10.916-2.925 7.993 7.993 0 0 0-2.925-10.916Zm-15.53.261a13.322 13.322 0 0 1 18.194-4.875 13.322 13.322 0 0 1 4.875 18.194 13.316 13.316 0 0 1-18.194 4.875 13.316 13.316 0 0 1-4.875-18.194Z" fill="#fff"/></g><g opacity=".3" clip-path="url('#clip3_223_257')"><path fill-rule="evenodd" clip-rule="evenodd" d="m22.388 143.726.345.199c5.653 3.264 10.131 5.849 13.363 8.343 3.325 2.567 5.654 5.273 6.63 8.904.97 3.632.306 7.141-1.29 11.026-1.553 3.779-4.137 8.254-7.401 13.907l-7.302 12.648c-3.264 5.654-5.85 10.132-8.343 13.364-2.568 3.324-5.274 5.653-8.905 6.629-3.632.971-7.14.306-11.026-1.289-3.778-1.554-8.254-4.138-13.907-7.402l-.345-.198c-5.653-3.264-10.131-5.85-13.363-8.343-3.324-2.568-5.654-5.274-6.63-8.905-.97-3.632-.306-7.141 1.29-11.026 1.553-3.778 4.137-8.254 7.401-13.907l7.303-12.648c3.264-5.653 5.85-10.132 8.343-13.363 2.567-3.325 5.273-5.654 8.904-6.63 3.632-.97 7.14-.306 11.026 1.289 3.778 1.554 8.254 4.138 13.907 7.402Zm-15.935-2.475c-3.334-1.371-5.57-1.62-7.625-1.072-2.049.552-3.86 1.885-6.062 4.74-2.25 2.916-4.66 7.078-8.047 12.943l-7.104 12.304c-3.386 5.865-5.786 10.037-7.187 13.444-1.37 3.331-1.619 5.566-1.069 7.618.55 2.052 1.883 3.864 4.738 6.065 2.917 2.25 7.078 4.661 12.943 8.047 5.866 3.387 10.037 5.787 13.444 7.188 3.331 1.37 5.567 1.618 7.619 1.069 2.052-.55 3.863-1.883 6.065-4.738 2.248-2.914 4.66-7.078 8.047-12.944l7.104-12.303c3.386-5.866 5.784-10.034 7.187-13.444 1.37-3.331 1.619-5.566 1.069-7.618-.55-2.053-1.883-3.864-4.738-6.066-2.917-2.25-7.078-4.66-12.943-8.047-5.866-3.386-10.031-5.783-13.441-7.186Zm7.228 17.953a4.442 4.442 0 0 0-6.508 4.994 4.439 4.439 0 1 0 6.508-4.994Zm-10.678-1.038a9.764 9.764 0 0 1 13.342-3.575 9.766 9.766 0 0 1-2.356 17.893 9.77 9.77 0 0 1-11.962-6.907 9.766 9.766 0 0 1 .976-7.411ZM1.25 180.735a7.994 7.994 0 0 0-11.715 8.989 7.991 7.991 0 1 0 11.715-8.989Zm-15.53.262a13.32 13.32 0 1 1 23.07 13.318 13.32 13.32 0 0 1-23.07-13.318Z" fill="#fff"/></g><g opacity=".3" clip-path="url('#clip4_223_257')"><path fill-rule="evenodd" clip-rule="evenodd" d="m-26.394 228.219.344.199c5.654 3.264 10.132 5.85 13.364 8.343 3.324 2.568 5.654 5.274 6.63 8.905.97 3.632.306 7.141-1.29 11.026-1.553 3.778-4.137 8.254-7.401 13.907l-7.303 12.648c-3.264 5.653-5.85 10.132-8.342 13.363-2.568 3.325-5.274 5.654-8.905 6.63-3.632.97-7.14.306-11.026-1.289-3.778-1.554-8.254-4.138-13.907-7.402l-.345-.199c-5.653-3.264-10.132-5.849-13.363-8.343-3.325-2.567-5.654-5.273-6.63-8.904-.97-3.632-.306-7.141 1.29-11.026 1.553-3.779 4.137-8.254 7.401-13.907l7.302-12.648c3.264-5.654 5.85-10.132 8.343-13.364 2.568-3.324 5.274-5.654 8.905-6.629 3.632-.971 7.14-.307 11.026 1.289 3.778 1.554 8.254 4.137 13.907 7.401Zm-15.936-2.474c-3.334-1.371-5.569-1.62-7.624-1.072-2.05.552-3.86 1.885-6.062 4.739-2.25 2.917-4.66 7.078-8.047 12.944l-7.104 12.303c-3.386 5.866-5.786 10.037-7.188 13.444-1.369 3.331-1.618 5.566-1.068 7.619.55 2.052 1.883 3.863 4.738 6.065 2.916 2.25 7.078 4.661 12.943 8.047 5.866 3.387 10.037 5.787 13.444 7.188 3.331 1.369 5.566 1.618 7.619 1.068 2.052-.55 3.863-1.883 6.065-4.737 2.248-2.914 4.66-7.078 8.047-12.944l7.103-12.303c3.387-5.866 5.785-10.034 7.188-13.444 1.37-3.331 1.618-5.566 1.068-7.619-.55-2.052-1.882-3.863-4.737-6.065-2.917-2.25-7.078-4.661-12.944-8.047-5.865-3.387-10.03-5.783-13.44-7.186Zm7.229 17.953a4.437 4.437 0 0 0-6.065 1.625 4.44 4.44 0 1 0 6.065-1.625Zm-10.678-1.039a9.766 9.766 0 0 1 13.342-3.575 9.77 9.77 0 0 1 3.575 13.343 9.766 9.766 0 0 1-13.342 3.575 9.77 9.77 0 0 1-3.575-13.343Zm-1.753 22.57a7.988 7.988 0 0 0-10.916 2.925 7.992 7.992 0 1 0 10.916-2.925Zm-15.53.261a13.318 13.318 0 0 1 24.4 3.213 13.317 13.317 0 0 1-19.525 14.981 13.318 13.318 0 0 1-4.875-18.194Z" fill="#fff"/></g><g opacity=".3" clip-path="url('#clip5_223_257')"><path fill-rule="evenodd" clip-rule="evenodd" d="m252.743 276.721.345.199c5.653 3.264 10.132 5.85 13.363 8.343 3.325 2.567 5.654 5.274 6.63 8.905.97 3.632.306 7.14-1.289 11.026-1.554 3.778-4.138 8.253-7.402 13.907l-7.302 12.648c-3.264 5.653-5.85 10.132-8.343 13.363-2.567 3.325-5.274 5.654-8.905 6.63-3.632.97-7.14.306-11.026-1.289-3.778-1.554-8.253-4.138-13.907-7.402l-.344-.199c-5.654-3.264-10.132-5.849-13.364-8.343-3.324-2.567-5.653-5.273-6.629-8.904-.971-3.632-.306-7.141 1.289-11.026 1.554-3.779 4.138-8.254 7.402-13.907l7.302-12.648c3.264-5.654 5.849-10.132 8.343-13.364 2.567-3.324 5.273-5.654 8.904-6.629 3.632-.971 7.141-.307 11.026 1.289 3.779 1.554 8.254 4.137 13.907 7.401Zm-15.935-2.474c-3.334-1.371-5.569-1.62-7.625-1.072-2.049.552-3.86 1.885-6.062 4.739-2.25 2.917-4.66 7.078-8.047 12.944l-7.103 12.303c-3.387 5.866-5.787 10.037-7.188 13.444-1.37 3.331-1.618 5.566-1.068 7.619.55 2.052 1.882 3.863 4.737 6.065 2.917 2.25 7.078 4.661 12.944 8.047 5.865 3.387 10.037 5.787 13.444 7.188 3.331 1.369 5.566 1.618 7.618 1.068 2.052-.55 3.864-1.883 6.065-4.737 2.249-2.914 4.661-7.078 8.047-12.944l7.104-12.303c3.386-5.866 5.785-10.034 7.188-13.444 1.369-3.331 1.618-5.566 1.068-7.619-.55-2.052-1.883-3.863-4.738-6.065-2.916-2.25-7.078-4.661-12.943-8.047-5.866-3.387-10.031-5.783-13.441-7.186Zm7.228 17.953a4.435 4.435 0 0 0-3.368-.443 4.443 4.443 0 0 0-1.071 8.133 4.442 4.442 0 0 0 6.064-1.625 4.438 4.438 0 0 0-1.625-6.065Zm-10.678-1.039a9.766 9.766 0 1 1 16.915 9.767 9.766 9.766 0 0 1-16.915-9.767Zm-1.752 22.57a7.99 7.99 0 1 0-7.995 13.84 7.99 7.99 0 0 0 7.995-13.84Zm-15.531.261a13.321 13.321 0 0 1 24.4 3.213 13.322 13.322 0 0 1-19.525 14.981 13.316 13.316 0 0 1-4.875-18.194Z" fill="#fff"/></g><g opacity=".3" clip-path="url('#clip6_223_257')"><path d="M45.976 60.135a24.802 24.802 0 0 0-33.88 9.078l-1.772 3.069 4.603 2.657a1.772 1.772 0 0 1 .648 2.42L4.946 95.77a1.772 1.772 0 0 1-2.42.65l-1.534-.887a7.086 7.086 0 0 1-2.594-9.68l10.63-18.41a28.345 28.345 0 1 1 49.094 28.345l-10.629 18.41a7.084 7.084 0 0 1-9.68 2.594l-1.534-.886a1.77 1.77 0 0 1-.649-2.42l10.63-18.41a1.772 1.772 0 0 1 2.42-.649l4.602 2.658 1.772-3.069a24.802 24.802 0 0 0-9.078-33.88Zm-11.753 23.9a1.772 1.772 0 0 0-3.068-1.772l-12.401 21.479a1.77 1.77 0 1 0 3.068 1.771l12.401-21.479Zm-11.862-.713a1.771 1.771 0 0 1 .648 2.42l-7.086 12.274a1.772 1.772 0 0 1-3.069-1.772l7.087-12.273a1.772 1.772 0 0 1 2.42-.649ZM38.35 94.6a1.772 1.772 0 0 0-3.068-1.771l-7.086 12.273a1.773 1.773 0 0 0 1.992 2.597c.454-.121.841-.418 1.076-.825L38.351 94.6Z" fill="#fff"/></g><g opacity=".3" clip-path="url('#clip7_223_257')"><path d="M276.331 193.131a24.803 24.803 0 0 0-33.88 9.078l-1.771 3.068 4.602 2.658a1.775 1.775 0 0 1 .649 2.42l-10.63 18.41a1.775 1.775 0 0 1-2.42.649l-1.534-.886a7.087 7.087 0 0 1-2.594-9.68l10.63-18.411a28.348 28.348 0 0 1 38.72-10.375 28.343 28.343 0 0 1 10.375 38.72l-10.63 18.411a7.084 7.084 0 0 1-9.68 2.594l-1.534-.886a1.769 1.769 0 0 1-.648-2.42l10.629-18.411a1.772 1.772 0 0 1 2.42-.648l4.603 2.657 1.771-3.068a24.804 24.804 0 0 0-9.078-33.88Zm-11.752 23.899a1.774 1.774 0 0 0-.649-2.42 1.769 1.769 0 0 0-2.42.648l-12.401 21.479a1.772 1.772 0 0 0 3.069 1.772l12.401-21.479Zm-11.863-.712a1.769 1.769 0 0 1 .648 2.42l-7.086 12.274a1.772 1.772 0 0 1-3.068-1.772l7.086-12.274a1.769 1.769 0 0 1 2.42-.648Zm15.991 11.278a1.775 1.775 0 0 0-1.993-2.597 1.769 1.769 0 0 0-1.076.825l-7.086 12.274a1.769 1.769 0 0 0 .648 2.42 1.775 1.775 0 0 0 2.42-.649l7.087-12.273Z" fill="#fff"/></g><g opacity=".3" clip-path="url('#clip8_223_257')"><path d="M102.143 205.221a24.803 24.803 0 0 0-33.88 9.078l-1.771 3.069 4.602 2.657a1.772 1.772 0 0 1 .649 2.42l-10.63 18.411a1.769 1.769 0 0 1-2.42.648l-1.534-.886a7.083 7.083 0 0 1-2.594-9.68l10.63-18.41a28.344 28.344 0 1 1 49.095 28.345l-10.63 18.41a7.087 7.087 0 0 1-9.68 2.594l-1.534-.886a1.773 1.773 0 0 1-.648-2.42l10.629-18.41a1.774 1.774 0 0 1 2.42-.649l4.603 2.658 1.771-3.069a24.803 24.803 0 0 0-9.078-33.88ZM90.391 229.12a1.77 1.77 0 1 0-3.069-1.771l-12.4 21.479a1.77 1.77 0 1 0 3.068 1.771l12.4-21.479Zm-11.863-.712a1.772 1.772 0 0 1 .648 2.42l-7.086 12.274a1.768 1.768 0 0 1-2.42.648 1.77 1.77 0 0 1-.648-2.42l7.086-12.273a1.773 1.773 0 0 1 2.42-.649Zm15.99 11.278a1.77 1.77 0 1 0-3.068-1.772l-7.086 12.274a1.773 1.773 0 0 0 .648 2.42 1.77 1.77 0 0 0 2.42-.648l7.087-12.274Z" fill="#fff"/></g><g opacity=".3" clip-path="url('#clip9_223_257')"><path d="M332.498 338.217a24.803 24.803 0 0 0-33.88 9.078l-1.771 3.069 4.602 2.657a1.774 1.774 0 0 1 .649 2.42l-10.63 18.411a1.771 1.771 0 0 1-2.42.648l-1.534-.886a7.083 7.083 0 0 1-3.301-4.303 7.082 7.082 0 0 1 .708-5.377l10.629-18.41a28.346 28.346 0 1 1 49.095 28.345l-10.629 18.41a7.09 7.09 0 0 1-9.68 2.594l-1.535-.886a1.769 1.769 0 0 1-.648-2.42l10.629-18.41a1.774 1.774 0 0 1 2.42-.649l4.603 2.657 1.771-3.068a24.799 24.799 0 0 0-9.078-33.88Zm-11.752 23.899a1.773 1.773 0 0 0-1.993-2.597 1.774 1.774 0 0 0-1.076.826l-12.401 21.479a1.774 1.774 0 0 0 1.993 2.597 1.774 1.774 0 0 0 1.076-.826l12.401-21.479Zm-11.863-.712a1.774 1.774 0 0 1 .649 2.42l-7.087 12.274a1.771 1.771 0 1 1-3.068-1.772l7.086-12.274a1.776 1.776 0 0 1 2.42-.648Zm15.991 11.278a1.774 1.774 0 0 0-.649-2.42 1.769 1.769 0 0 0-2.42.648l-7.086 12.274a1.774 1.774 0 0 0 .649 2.42 1.768 1.768 0 0 0 2.42-.648l7.086-12.274Z" fill="#fff"/></g><g opacity=".3" clip-path="url('#clip10_223_257')"><path d="M111.172 323.092a24.8 24.8 0 0 0-33.88 9.078l-1.772 3.068 4.603 2.657a1.772 1.772 0 0 1 .648 2.42l-10.629 18.411a1.768 1.768 0 0 1-2.42.648l-1.534-.885a7.088 7.088 0 0 1-2.594-9.68l10.63-18.411a28.346 28.346 0 0 1 49.094 28.345l-10.629 18.411a7.085 7.085 0 0 1-9.68 2.593l-1.534-.885a1.774 1.774 0 0 1-.649-2.42l10.63-18.411a1.769 1.769 0 0 1 2.42-.648l4.602 2.657 1.772-3.068a24.8 24.8 0 0 0-9.078-33.88Zm-11.753 23.899a1.773 1.773 0 0 0-1.992-2.597c-.454.121-.841.418-1.076.825L83.95 366.698a1.771 1.771 0 0 0 3.069 1.772l12.4-21.479Zm-11.862-.712a1.767 1.767 0 0 1 .648 2.42l-7.086 12.273a1.774 1.774 0 0 1-2.42.649 1.772 1.772 0 0 1-.648-2.42l7.086-12.274a1.768 1.768 0 0 1 2.42-.648Zm15.99 11.277a1.769 1.769 0 0 0-.648-2.42 1.773 1.773 0 0 0-2.42.649l-7.086 12.274a1.77 1.77 0 1 0 3.068 1.771l7.086-12.274Z" fill="#fff"/></g><path opacity=".3" d="m219.743 177.833-4.878 8.449a16.263 16.263 0 0 1-22.213 5.952l-11.265-6.505a16.258 16.258 0 0 1-5.952-22.212l4.878-8.449m5.08 36.73-4.878 8.449m-8.449-4.878 16.898 9.757m18.004-57.201 5.633 3.253a9.753 9.753 0 0 1 3.571 13.327l-8.13 14.082a9.758 9.758 0 0 1-13.328 3.571l-5.633-3.252a9.759 9.759 0 0 1-3.571-13.327l8.13-14.083a9.757 9.757 0 0 1 13.328-3.571ZM450.098 310.828l-4.878 8.45a16.262 16.262 0 0 1-22.213 5.951l-11.266-6.504a16.262 16.262 0 0 1-5.951-22.212l4.878-8.45m5.08 36.731-4.878 8.449m-8.449-4.878 16.898 9.756m18.004-57.2 5.633 3.252a9.759 9.759 0 0 1 3.571 13.328l-8.13 14.082a9.758 9.758 0 0 1-13.328 3.571l-5.633-3.252a9.759 9.759 0 0 1-3.571-13.328l8.13-14.082a9.758 9.758 0 0 1 13.328-3.571ZM183.412 269.515l-4.878 8.449a16.259 16.259 0 0 1-22.213 5.952l-11.265-6.504a16.263 16.263 0 0 1-5.952-22.213l4.878-8.449m5.081 36.73-4.879 8.45m-8.449-4.879 16.899 9.757m18.003-57.2 5.633 3.252a9.753 9.753 0 0 1 3.571 13.327l-8.13 14.082a9.759 9.759 0 0 1-13.328 3.572l-5.633-3.253a9.753 9.753 0 0 1-3.571-13.327l8.131-14.082a9.753 9.753 0 0 1 13.327-3.571ZM54.584 307.794l-4.878 8.449a16.259 16.259 0 0 1-22.213 5.952l-11.265-6.505a16.26 16.26 0 0 1-5.952-22.212l4.878-8.449m5.08 36.73-4.878 8.449m-8.45-4.878 16.9 9.757m18.003-57.201 5.633 3.252a9.757 9.757 0 0 1 3.571 13.328l-8.13 14.082a9.758 9.758 0 0 1-13.328 3.571l-5.633-3.252a9.758 9.758 0 0 1-3.57-13.327l8.13-14.083a9.756 9.756 0 0 1 13.327-3.571Z" stroke="#fff" stroke-width="5" stroke-linecap="round" stroke-linejoin="round"/></g><defs><clipPath id="clip0_223_257"><rect width="553" height="330" rx="24" fill="#fff"/></clipPath><clipPath id="clip1_223_257"><path fill="#fff" transform="rotate(30 -84.475 231.13)" d="M0 0h85.24v85.24H0z"/></clipPath><clipPath id="clip2_223_257"><path fill="#fff" transform="rotate(30 -217.472 727.475)" d="M0 0h85.24v85.24H0z"/></clipPath><clipPath id="clip3_223_257"><path fill="#fff" transform="rotate(30 -227.506 36.7)" d="M0 0h85.24v85.24H0z"/></clipPath><clipPath id="clip4_223_257"><path fill="#fff" transform="rotate(30 -409.565 -12.082)" d="M0 0h85.24v85.24H0z"/></clipPath><clipPath id="clip5_223_257"><path fill="#fff" transform="rotate(30 -360.503 533.046)" d="M0 0h85.24v85.24H0z"/></clipPath><clipPath id="clip6_223_257"><path fill="#fff" transform="rotate(30 -51.676 55.059)" d="M0 0h70.862v70.862H0z"/></clipPath><clipPath id="clip7_223_257"><path fill="#fff" transform="rotate(30 -184.672 551.405)" d="M0 0h70.862v70.862H0z"/></clipPath><clipPath id="clip8_223_257"><path fill="#fff" transform="rotate(30 -294.326 232.411)" d="M0 0h70.862v70.862H0z"/></clipPath><clipPath id="clip9_223_257"><path fill="#fff" transform="rotate(30 -427.322 728.759)" d="M0 0h70.862v70.862H0z"/></clipPath><clipPath id="clip10_223_257"><path fill="#fff" transform="rotate(30 -509.76 308.194)" d="M0 0h70.862v70.862H0z"/></clipPath></defs></svg>