<svg width="323" height="192" fill="none" xmlns="http://www.w3.org/2000/svg"><g filter="url('#filter0_i_85_104')"><path d="M0 187.554V24C0 10.745 10.745 0 24 0h274.593c13.254 0 24 10.745 24 24v163.554l-3.262-2.875a110.548 110.548 0 0 0-73.107-27.625 30.09 30.09 0 0 0-17.842 5.861l-25.178 18.539-2.691 1.633c-16.072 9.755-36.99 4.926-47.159-10.886-6.924-10.766-21.694-13.072-31.57-4.93l-11.654 9.608-5.878 4.222c-14.836 10.656-34.202 12.885-51.104 5.958a53.173 53.173 0 0 0-28.237-3.355L0 187.554Z" fill="#F8D424"/></g><defs><filter id="filter0_i_85_104" x="0" y="0" width="322.593" height="191.03" filterUnits="userSpaceOnUse" color-interpolation-filters="sRGB"><feFlood flood-opacity="0" result="BackgroundImageFix"/><feBlend in="SourceGraphic" in2="BackgroundImageFix" result="shape"/><feColorMatrix in="SourceAlpha" values="0 0 0 0 0 0 0 0 0 0 0 0 0 0 0 0 0 0 127 0" result="hardAlpha"/><feOffset/><feGaussianBlur stdDeviation="1.5"/><feComposite in2="hardAlpha" operator="arithmetic" k2="-1" k3="1"/><feColorMatrix values="0 0 0 0 0 0 0 0 0 0 0 0 0 0 0 0 0 0 0.82 0"/><feBlend in2="shape" result="effect1_innerShadow_85_104"/></filter></defs></svg>