<svg width="359" height="28" fill="none" xmlns="http://www.w3.org/2000/svg"><g clip-path="url('#clip0_41_922')"><path fill="#fff" d="M0 5h359v18H0z"/><path d="M4.842 20.234C2.214 20.234.72 18.596.72 15.68c0-2.898 1.512-4.536 4.086-4.536 2.448 0 3.708 1.494 3.708 4.158 0 .144-.018.594-.054.864H2.988c0 1.458.846 2.214 2.322 2.214 1.026 0 2.016-.306 2.754-.846l.234 1.71c-.828.648-2.052.99-3.456.99ZM2.988 14.87h3.24c0-1.188-.522-1.872-1.512-1.872-1.098 0-1.656.738-1.728 1.872Zm12.307-3.726c1.458 0 2.412.9 2.412 2.322V20H15.51v-5.688c0-.738-.486-1.206-1.188-1.206-.576 0-1.242.36-1.746.936l-.054-.288.036.288V20h-2.196v-8.622h1.8l.18 1.224c.81-.9 1.8-1.458 2.952-1.458Zm8.285 9.09c-2.628 0-4.122-1.638-4.122-4.554 0-2.898 1.512-4.536 4.086-4.536 2.448 0 3.708 1.494 3.708 4.158 0 .144-.018.594-.054.864h-5.472c0 1.458.846 2.214 2.322 2.214 1.026 0 2.016-.306 2.754-.846l.234 1.71c-.828.648-2.052.99-3.456.99Zm-1.854-5.364h3.24c0-1.188-.522-1.872-1.512-1.872-1.098 0-1.656.738-1.728 1.872Zm17.437-3.726c1.476 0 2.412.9 2.412 2.322V20H39.38v-5.688c0-.738-.486-1.206-1.188-1.206-.576 0-1.242.36-1.746.954V20H34.25v-5.688c0-.738-.486-1.206-1.188-1.206-.576 0-1.242.36-1.746.936l-.054-.288.036.288V20h-2.196v-8.622h1.8l.18 1.224c.81-.9 1.8-1.458 2.952-1.458s1.998.558 2.286 1.494c.54-.882 1.71-1.494 2.844-1.494Zm7.316 9.036c-1.098 0-2.358-.324-2.97-.756l.126-.81c.648.432 1.962.756 2.934.756 1.278 0 2.106-.504 2.106-1.548 0-.99-1.134-1.458-2.304-1.8-1.314-.378-2.682-.864-2.682-2.394 0-1.512 1.314-2.268 2.862-2.268.81 0 1.89.216 2.448.54l-.09.774c-.612-.27-1.62-.54-2.394-.54-1.134 0-1.98.558-1.98 1.458 0 .99 1.044 1.296 2.178 1.62 1.404.396 2.826.936 2.826 2.502 0 1.566-1.116 2.466-3.06 2.466Zm5.954-9.81c-.468 0-.738-.252-.738-.72 0-.468.27-.72.738-.72.468 0 .738.252.738.72 0 .468-.27.72-.738.72ZM52.001 20v-8.46h.846V20h-.846Zm13.74-8.64c1.53 0 2.502.918 2.502 2.43V20h-.846v-6.12c0-1.08-.757-1.728-1.819-1.728-1.008 0-2.034.576-2.898 1.512V20h-.846v-6.12c0-1.08-.756-1.728-1.818-1.728-1.008 0-2.051.576-2.898 1.512V20h-.846v-8.46h.666l.108 1.242c.828-.9 1.98-1.422 3.133-1.422 1.188 0 2.033.54 2.357 1.494.828-.936 2.016-1.494 3.204-1.494Zm11.033.18h.846V20h-.666l-.108-1.242c-.828.9-1.98 1.422-3.132 1.422-1.53 0-2.502-.918-2.502-2.43v-6.21h.846v6.12c0 1.08.756 1.728 1.818 1.728 1.008 0 2.052-.576 2.898-1.512V11.54ZM81.04 20V6.86h.846V20h-.846Zm7.118-8.64c1.53 0 2.592.9 2.592 2.25V20h-.666l-.108-1.062c-.846.738-2.07 1.242-3.096 1.242-1.422 0-2.376-.954-2.376-2.322 0-1.998 1.944-3.132 5.4-3.132V13.7c0-.954-.594-1.548-1.854-1.548-1.008 0-1.944.324-2.826.792l-.288-.666c1.044-.612 2.286-.918 3.222-.918Zm-2.772 6.462c0 .9.576 1.566 1.602 1.566.936 0 2.088-.54 2.916-1.332V15.5c-2.898 0-4.518.846-4.518 2.322ZM99.593 6.86h.846V20h-.666l-.108-1.062c-.612.792-1.638 1.242-2.826 1.242-2.304 0-3.564-1.656-3.564-4.32 0-2.754 1.332-4.5 3.546-4.5.936 0 1.926.324 2.772 1.188V6.86Zm-2.646 12.528c1.026 0 2.016-.504 2.646-1.44V13.61c-.63-.918-1.656-1.458-2.718-1.458-1.692 0-2.718 1.386-2.718 3.6 0 2.466 1.152 3.636 2.79 3.636Zm9.969.792c-2.412 0-3.78-1.584-3.78-4.41s1.368-4.41 3.78-4.41 3.78 1.584 3.78 4.41-1.368 4.41-3.78 4.41Zm0-.792c1.854 0 2.898-1.296 2.898-3.618s-1.044-3.618-2.898-3.618-2.898 1.296-2.898 3.618 1.044 3.618 2.898 3.618ZM116.842 20.234c-2.628 0-4.122-1.638-4.122-4.554 0-2.898 1.512-4.536 4.086-4.536 2.448 0 3.708 1.494 3.708 4.158 0 .144-.018.594-.054.864h-5.472c0 1.458.846 2.214 2.322 2.214 1.026 0 2.016-.306 2.754-.846l.234 1.71c-.828.648-2.052.99-3.456.99Zm-1.854-5.364h3.24c0-1.188-.522-1.872-1.512-1.872-1.098 0-1.656.738-1.728 1.872Zm12.307-3.726c1.458 0 2.412.9 2.412 2.322V20h-2.196v-5.688c0-.738-.486-1.206-1.188-1.206-.576 0-1.242.36-1.746.936l-.054-.288.036.288V20h-2.196v-8.622h1.8l.18 1.224c.81-.9 1.8-1.458 2.952-1.458Zm8.285 9.09c-2.628 0-4.122-1.638-4.122-4.554 0-2.898 1.512-4.536 4.086-4.536 2.448 0 3.708 1.494 3.708 4.158 0 .144-.018.594-.054.864h-5.472c0 1.458.846 2.214 2.322 2.214 1.026 0 2.016-.306 2.754-.846l.234 1.71c-.828.648-2.052.99-3.456.99Zm-1.854-5.364h3.24c0-1.188-.522-1.872-1.512-1.872-1.098 0-1.656.738-1.728 1.872Zm17.437-3.726c1.476 0 2.412.9 2.412 2.322V20h-2.196v-5.688c0-.738-.486-1.206-1.188-1.206-.576 0-1.242.36-1.746.954V20h-2.196v-5.688c0-.738-.486-1.206-1.188-1.206-.576 0-1.242.36-1.746.936l-.054-.288.036.288V20h-2.196v-8.622h1.8l.18 1.224c.81-.9 1.8-1.458 2.952-1.458s1.998.558 2.286 1.494c.54-.882 1.71-1.494 2.844-1.494Zm7.316 9.036c-1.098 0-2.358-.324-2.97-.756l.126-.81c.648.432 1.962.756 2.934.756 1.278 0 2.106-.504 2.106-1.548 0-.99-1.134-1.458-2.304-1.8-1.314-.378-2.682-.864-2.682-2.394 0-1.512 1.314-2.268 2.862-2.268.81 0 1.89.216 2.448.54l-.09.774c-.612-.27-1.62-.54-2.394-.54-1.134 0-1.98.558-1.98 1.458 0 .99 1.044 1.296 2.178 1.62 1.404.396 2.826.936 2.826 2.502 0 1.566-1.116 2.466-3.06 2.466Zm5.954-9.81c-.468 0-.738-.252-.738-.72 0-.468.27-.72.738-.72.468 0 .738.252.738.72 0 .468-.27.72-.738.72Zm-.432 9.63v-8.46h.846V20h-.846Zm13.74-8.64c1.53 0 2.502.918 2.502 2.43V20h-.846v-6.12c0-1.08-.756-1.728-1.818-1.728-1.008 0-2.034.576-2.898 1.512V20h-.846v-6.12c0-1.08-.756-1.728-1.818-1.728-1.008 0-2.052.576-2.898 1.512V20h-.846v-8.46h.665l.109 1.242c.828-.9 1.98-1.422 3.132-1.422 1.188 0 2.034.54 2.358 1.494.828-.936 2.016-1.494 3.204-1.494Zm11.033.18h.846V20h-.666l-.108-1.242c-.828.9-1.98 1.422-3.132 1.422-1.53 0-2.502-.918-2.502-2.43v-6.21h.846v6.12c0 1.08.756 1.728 1.818 1.728 1.008 0 2.052-.576 2.898-1.512V11.54ZM193.04 20V6.86h.846V20h-.846Zm7.118-8.64c1.53 0 2.592.9 2.592 2.25V20h-.666l-.108-1.062c-.846.738-2.07 1.242-3.096 1.242-1.422 0-2.376-.954-2.376-2.322 0-1.998 1.944-3.132 5.4-3.132V13.7c0-.954-.594-1.548-1.854-1.548-1.008 0-1.944.324-2.826.792l-.288-.666c1.044-.612 2.286-.918 3.222-.918Zm-2.772 6.462c0 .9.576 1.566 1.602 1.566.936 0 2.088-.54 2.916-1.332V15.5c-2.898 0-4.518.846-4.518 2.322ZM211.593 6.86h.846V20h-.666l-.108-1.062c-.612.792-1.638 1.242-2.826 1.242-2.304 0-3.564-1.656-3.564-4.32 0-2.754 1.332-4.5 3.546-4.5.936 0 1.926.324 2.772 1.188V6.86Zm-2.646 12.528c1.026 0 2.016-.504 2.646-1.44V13.61c-.63-.918-1.656-1.458-2.718-1.458-1.692 0-2.718 1.386-2.718 3.6 0 2.466 1.152 3.636 2.79 3.636Zm9.969.792c-2.412 0-3.78-1.584-3.78-4.41s1.368-4.41 3.78-4.41 3.78 1.584 3.78 4.41-1.368 4.41-3.78 4.41Zm0-.792c1.854 0 2.898-1.296 2.898-3.618s-1.044-3.618-2.898-3.618-2.898 1.296-2.898 3.618 1.044 3.618 2.898 3.618ZM228.842 20.234c-2.628 0-4.122-1.638-4.122-4.554 0-2.898 1.512-4.536 4.086-4.536 2.448 0 3.708 1.494 3.708 4.158 0 .144-.018.594-.054.864h-5.472c0 1.458.846 2.214 2.322 2.214 1.026 0 2.016-.306 2.754-.846l.234 1.71c-.828.648-2.052.99-3.456.99Zm-1.854-5.364h3.24c0-1.188-.522-1.872-1.512-1.872-1.098 0-1.656.738-1.728 1.872Zm12.307-3.726c1.458 0 2.412.9 2.412 2.322V20h-2.196v-5.688c0-.738-.486-1.206-1.188-1.206-.576 0-1.242.36-1.746.936l-.054-.288.036.288V20h-2.196v-8.622h1.8l.18 1.224c.81-.9 1.8-1.458 2.952-1.458Zm8.285 9.09c-2.628 0-4.122-1.638-4.122-4.554 0-2.898 1.512-4.536 4.086-4.536 2.448 0 3.708 1.494 3.708 4.158 0 .144-.018.594-.054.864h-5.472c0 1.458.846 2.214 2.322 2.214 1.026 0 2.016-.306 2.754-.846l.234 1.71c-.828.648-2.052.99-3.456.99Zm-1.854-5.364h3.24c0-1.188-.522-1.872-1.512-1.872-1.098 0-1.656.738-1.728 1.872Zm17.437-3.726c1.476 0 2.412.9 2.412 2.322V20h-2.196v-5.688c0-.738-.486-1.206-1.188-1.206-.576 0-1.242.36-1.746.954V20h-2.196v-5.688c0-.738-.486-1.206-1.188-1.206-.576 0-1.242.36-1.746.936l-.054-.288.036.288V20h-2.196v-8.622h1.8l.18 1.224c.81-.9 1.8-1.458 2.952-1.458s1.998.558 2.286 1.494c.54-.882 1.71-1.494 2.844-1.494Zm7.316 9.036c-1.098 0-2.358-.324-2.97-.756l.126-.81c.648.432 1.962.756 2.934.756 1.278 0 2.106-.504 2.106-1.548 0-.99-1.134-1.458-2.304-1.8-1.314-.378-2.682-.864-2.682-2.394 0-1.512 1.314-2.268 2.862-2.268.81 0 1.89.216 2.448.54l-.09.774c-.612-.27-1.62-.54-2.394-.54-1.134 0-1.98.558-1.98 1.458 0 .99 1.044 1.296 2.178 1.62 1.404.396 2.826.936 2.826 2.502 0 1.566-1.116 2.466-3.06 2.466Zm5.954-9.81c-.468 0-.738-.252-.738-.72 0-.468.27-.72.738-.72.468 0 .738.252.738.72 0 .468-.27.72-.738.72Zm-.432 9.63v-8.46h.846V20h-.846Zm13.74-8.64c1.53 0 2.502.918 2.502 2.43V20h-.846v-6.12c0-1.08-.756-1.728-1.818-1.728-1.008 0-2.034.576-2.898 1.512V20h-.846v-6.12c0-1.08-.756-1.728-1.818-1.728-1.008 0-2.052.576-2.898 1.512V20h-.846v-8.46h.665l.109 1.242c.828-.9 1.98-1.422 3.132-1.422 1.188 0 2.034.54 2.358 1.494.828-.936 2.016-1.494 3.204-1.494Zm11.033.18h.846V20h-.666l-.108-1.242c-.828.9-1.98 1.422-3.132 1.422-1.53 0-2.502-.918-2.502-2.43v-6.21h.846v6.12c0 1.08.756 1.728 1.818 1.728 1.008 0 2.052-.576 2.898-1.512V11.54ZM305.04 20V6.86h.846V20h-.846Zm7.118-8.64c1.53 0 2.592.9 2.592 2.25V20h-.666l-.108-1.062c-.846.738-2.07 1.242-3.096 1.242-1.422 0-2.376-.954-2.376-2.322 0-1.998 1.944-3.132 5.4-3.132V13.7c0-.954-.594-1.548-1.854-1.548-1.008 0-1.944.324-2.826.792l-.288-.666c1.044-.612 2.286-.918 3.222-.918Zm-2.772 6.462c0 .9.576 1.566 1.602 1.566.936 0 2.088-.54 2.916-1.332V15.5c-2.898 0-4.518.846-4.518 2.322ZM323.593 6.86h.846V20h-.666l-.108-1.062c-.612.792-1.638 1.242-2.826 1.242-2.304 0-3.564-1.656-3.564-4.32 0-2.754 1.332-4.5 3.546-4.5.936 0 1.926.324 2.772 1.188V6.86Zm-2.646 12.528c1.026 0 2.016-.504 2.646-1.44V13.61c-.63-.918-1.656-1.458-2.718-1.458-1.692 0-2.718 1.386-2.718 3.6 0 2.466 1.152 3.636 2.79 3.636Zm9.969.792c-2.412 0-3.78-1.584-3.78-4.41s1.368-4.41 3.78-4.41 3.78 1.584 3.78 4.41-1.368 4.41-3.78 4.41Zm0-.792c1.854 0 2.898-1.296 2.898-3.618s-1.044-3.618-2.898-3.618-2.898 1.296-2.898 3.618 1.044 3.618 2.898 3.618ZM340.842 20.234c-2.628 0-4.122-1.638-4.122-4.554 0-2.898 1.512-4.536 4.086-4.536 2.448 0 3.708 1.494 3.708 4.158 0 .144-.018.594-.054.864h-5.472c0 1.458.846 2.214 2.322 2.214 1.026 0 2.016-.306 2.754-.846l.234 1.71c-.828.648-2.052.99-3.456.99Zm-1.854-5.364h3.24c0-1.188-.522-1.872-1.512-1.872-1.098 0-1.656.738-1.728 1.872Zm12.307-3.726c1.458 0 2.412.9 2.412 2.322V20h-2.196v-5.688c0-.738-.486-1.206-1.188-1.206-.576 0-1.242.36-1.746.936l-.054-.288.036.288V20h-2.196v-8.622h1.8l.18 1.224c.81-.9 1.8-1.458 2.952-1.458Zm8.285 9.09c-2.628 0-4.122-1.638-4.122-4.554 0-2.898 1.512-4.536 4.086-4.536 2.448 0 3.708 1.494 3.708 4.158 0 .144-.018.594-.054.864h-5.472c0 1.458.846 2.214 2.322 2.214 1.026 0 2.016-.306 2.754-.846l.234 1.71c-.828.648-2.052.99-3.456.99Zm-1.854-5.364h3.24c0-1.188-.522-1.872-1.512-1.872-1.098 0-1.656.738-1.728 1.872Zm17.437-3.726c1.476 0 2.412.9 2.412 2.322V20h-2.196v-5.688c0-.738-.486-1.206-1.188-1.206-.576 0-1.242.36-1.746.954V20h-2.196v-5.688c0-.738-.486-1.206-1.188-1.206-.576 0-1.242.36-1.746.936l-.054-.288.036.288V20h-2.196v-8.622h1.8l.18 1.224c.81-.9 1.8-1.458 2.952-1.458s1.998.558 2.286 1.494c.54-.882 1.71-1.494 2.844-1.494Zm7.316 9.036c-1.098 0-2.358-.324-2.97-.756l.126-.81c.648.432 1.962.756 2.934.756 1.278 0 2.106-.504 2.106-1.548 0-.99-1.134-1.458-2.304-1.8-1.314-.378-2.682-.864-2.682-2.394 0-1.512 1.314-2.268 2.862-2.268.81 0 1.89.216 2.448.54l-.09.774c-.612-.27-1.62-.54-2.394-.54-1.134 0-1.98.558-1.98 1.458 0 .99 1.044 1.296 2.178 1.62 1.404.396 2.826.936 2.826 2.502 0 1.566-1.116 2.466-3.06 2.466Zm5.954-9.81c-.468 0-.738-.252-.738-.72 0-.468.27-.72.738-.72.468 0 .738.252.738.72 0 .468-.27.72-.738.72Zm-.432 9.63v-8.46h.846V20h-.846Zm13.74-8.64c1.53 0 2.502.918 2.502 2.43V20h-.846v-6.12c0-1.08-.756-1.728-1.818-1.728-1.008 0-2.034.576-2.898 1.512V20h-.846v-6.12c0-1.08-.756-1.728-1.818-1.728-1.008 0-2.052.576-2.898 1.512V20h-.846v-8.46h.665l.109 1.242c.828-.9 1.98-1.422 3.132-1.422 1.188 0 2.034.54 2.358 1.494.828-.936 2.016-1.494 3.204-1.494Zm11.033.18h.846V20h-.666l-.108-1.242c-.828.9-1.98 1.422-3.132 1.422-1.53 0-2.502-.918-2.502-2.43v-6.21h.846v6.12c0 1.08.756 1.728 1.818 1.728 1.008 0 2.052-.576 2.898-1.512V11.54ZM417.04 20V6.86h.846V20h-.846Zm7.118-8.64c1.53 0 2.592.9 2.592 2.25V20h-.666l-.108-1.062c-.846.738-2.07 1.242-3.096 1.242-1.422 0-2.376-.954-2.376-2.322 0-1.998 1.944-3.132 5.4-3.132V13.7c0-.954-.594-1.548-1.854-1.548-1.008 0-1.944.324-2.826.792l-.288-.666c1.044-.612 2.286-.918 3.222-.918Zm-2.772 6.462c0 .9.576 1.566 1.602 1.566.936 0 2.088-.54 2.916-1.332V15.5c-2.898 0-4.518.846-4.518 2.322ZM435.593 6.86h.846V20h-.666l-.108-1.062c-.612.792-1.638 1.242-2.826 1.242-2.304 0-3.564-1.656-3.564-4.32 0-2.754 1.332-4.5 3.546-4.5.936 0 1.926.324 2.772 1.188V6.86Zm-2.646 12.528c1.026 0 2.016-.504 2.646-1.44V13.61c-.63-.918-1.656-1.458-2.718-1.458-1.692 0-2.718 1.386-2.718 3.6 0 2.466 1.152 3.636 2.79 3.636Zm9.969.792c-2.412 0-3.78-1.584-3.78-4.41s1.368-4.41 3.78-4.41 3.78 1.584 3.78 4.41-1.368 4.41-3.78 4.41Zm0-.792c1.854 0 2.898-1.296 2.898-3.618s-1.044-3.618-2.898-3.618-2.898 1.296-2.898 3.618 1.044 3.618 2.898 3.618Z" fill="#F9CA51"/></g><defs><clipPath id="clip0_41_922"><path fill="#fff" d="M0 0h359v28H0z"/></clipPath></defs></svg>