<svg width="1363" height="1415" fill="none" xmlns="http://www.w3.org/2000/svg"><path d="M218.808 800.314c-21.584 34.98-29.851 77.313-27.552 118.048 2.512 44.544 15.323 97.738 58.621 119.668 19.961 10.12 43.396 11.84 63.434.96 17.806-9.67 31.382-29.08 30.95-49.787-.504-24.137-17.888-43.739-39.45-52.54-21.087-8.608-45.32-5.585-66.155 2.309-42.346 16.046-78.479 47.153-100.6 86.728-2.567 4.59-4.908 9.3-7.059 14.09-1.702 3.8-2.616 7.49-1.521 11.65.982 3.74 3.875 7.8 7.382 9.6 6.93 3.54 17.674 2.09 21.239-5.86 4.008-8.94 8.716-17.54 14.141-25.69 1.305-1.96 2.648-3.9 4.031-5.81.335-.46 2.405-3.27 1.049-1.44-1.279 1.72-.148.2.103-.12.566-.71 1.118-1.43 1.683-2.14 2.945-3.68 6.032-7.24 9.255-10.68 3.346-3.57 6.837-7.01 10.46-10.301a182.3 182.3 0 0 1 8.267-7.063c.423-.339.856-.672 1.275-1.015 1.699-1.382-2.486 1.861-.723.562 7.902-5.816 16.03-11.191 24.724-15.765 4.314-2.27 8.835-4.076 13.188-6.24.039-.019-3.116 1.237-1.437.604.491-.184.975-.387 1.466-.578a127.165 127.165 0 0 1 9.953-3.411c4.547-1.346 9.136-2.231 13.792-3.091 1.696-.313-1.424.165-1.427.165.662 0 1.398-.155 2.067-.216a76.625 76.625 0 0 1 3.103-.223 71.83 71.83 0 0 1 7.234-.019c1.033.051 2.06.148 3.09.222 2.664.191-.484-.038-.868-.158.474.146 1.046.162 1.537.242a55.3 55.3 0 0 1 6.81 1.583c.921.281 1.818.643 2.739.917 1.592.472-1.47-.639-1.44-.626.558.294 1.191.513 1.769.781a53.6 53.6 0 0 1 5.952 3.23c.82.517 1.611 1.066 2.412 1.612 2.267 1.544-2.716-2.238.204.223a49.185 49.185 0 0 1 4.495 4.299c.384.416 2.874 3.475 1.166 1.253-1.641-2.132.303.497.655 1.027 1.221 1.841 2.193 3.766 3.174 5.736.918 1.841-1.143-3.23-.539-1.266.136.446.317.882.459 1.324.287.892.539 1.796.755 2.707.146.617.743 4.351.411 1.712-.317-2.497.009.911.022 1.576.02.979-.039 1.948-.071 2.926-.013.375-.165.879-.103 1.244.013.068.629-3.385.248-1.899-.481 1.87-.842 3.743-1.398 5.6-.106.359-.378.801-.41 1.169-.01.101 1.45-3.162.73-1.773-.446.856-.804 1.761-1.253 2.616-.882 1.684-2.335 3.254-3.071 4.964-.049.11 2.244-2.73 1.166-1.55-.281.31-.527.66-.798.98-.633.76-1.292 1.49-1.973 2.21-1.379 1.44-2.913 2.67-4.363 4.03-1.208 1.13 1.763-1.33 1.624-1.25-.365.18-.697.52-1.036.75-.83.55-1.644 1.12-2.493 1.64-1.705 1.05-3.481 1.92-5.274 2.8-2.477 1.22 3.333-1.15.707-.3-.81.26-1.604.56-2.422.81-1.756.53-4.152.57-5.786 1.33.235-.11 4.094-.39 1.372-.18-.478.04-.956.08-1.434.11a52.662 52.662 0 0 1-6.187.04c-.669-.04-4.247-.45-1.802-.09 2.57.37-1.272-.24-1.77-.34-.93-.19-1.86-.4-2.78-.63-2.164-.54-4.266-1.24-6.365-1.99-2.661-.94 2.706 1.25.142.06-1.017-.48-2.035-.94-3.039-1.45a67.355 67.355 0 0 1-5.868-3.34 74.585 74.585 0 0 1-2.418-1.61c-2.887-2.01 1.86 1.57-.284-.17-1.764-1.42-3.495-2.88-5.142-4.44a74.723 74.723 0 0 1-6.274-6.705c-.287-.349-.572-.824-.911-1.121.837.737 1.502 2.035.355.404-3.142-4.461-5.983-9.076-8.409-13.973a109.852 109.852 0 0 1-1.808-3.833c-.249-.553-.478-1.115-.73-1.667-.785-1.725.423 1.056.433 1.059-.604-.336-1.311-3.417-1.515-3.979a140.997 140.997 0 0 1-1.392-4.031c-1.714-5.226-3.125-10.548-4.314-15.92a224.225 224.225 0 0 1-2.787-15.128 227.57 227.57 0 0 1-.429-2.982c-.068-.497-.133-.994-.2-1.495-.285-2.064.355 3.085.135 1.014-.252-2.335-.52-4.667-.726-7.009a228.977 228.977 0 0 1-.827-26.672c.126-4.525.394-9.047.807-13.552.197-2.168.443-4.328.694-6.489.336-2.868-.423 2.829.004-.026.197-1.321.394-2.642.607-3.963 1.453-8.869 3.513-17.642 6.226-26.21 1.305-4.122 2.948-8.104 4.363-12.184-1.411 4.07-.2.524.219-.442a163.318 163.318 0 0 1 4.234-9.015 163.314 163.314 0 0 1 6.614-11.75c4.285-6.944 1.443-17.512-5.858-21.243-7.738-3.956-16.657-1.569-21.24 5.859l-.016-.003ZM680.929 1401.88c16.121-46.67 14.696-98.46 1.308-145.61-14.639-51.55-43.612-110.53-100.125-124.88-26.054-6.61-53.975-2.48-74.604 15.54-18.332 16.01-29.154 42.32-23.209 66.48 6.924 28.17 32.449 46.58 60.033 51.23 26.978 4.55 54.589-5.35 76.935-20.08 45.427-29.92 79.613-75.87 95.155-128.07 1.802-6.05 3.31-12.18 4.573-18.37.998-4.9 1.098-9.47-1.272-14.06-2.135-4.12-6.591-8.13-11.171-9.31-9.055-2.33-21.268 2.19-23.36 12.45-2.351 11.52-5.613 22.84-9.834 33.82a210.608 210.608 0 0 1-3.2 7.87c-.271.63-1.96 4.47-.852 1.97 1.046-2.36.122-.28-.091.16-.475.98-.933 1.97-1.411 2.95a220.645 220.645 0 0 1-8.044 14.95 219.889 219.889 0 0 1-9.559 14.82 241.154 241.154 0 0 1-5.022 6.85c-.923 1.21-1.863 2.41-2.812 3.6-.407.51-.827 1.01-1.231 1.53-1.627 2.06 2.429-2.84.701-.85-7.734 8.89-15.853 17.32-24.843 24.97-4.463 3.79-9.288 7.09-13.821 10.77-.042.04 3.326-2.26 1.527-1.08-.526.34-1.04.71-1.566 1.06-1.05.71-2.106 1.4-3.171 2.07a142.361 142.361 0 0 1-7.599 4.54c-4.976 2.77-10.121 5.02-15.355 7.24-1.909.81 1.624-.56 1.63-.57-.775.17-1.598.55-2.363.8-1.186.38-2.377.74-3.578 1.07a84.794 84.794 0 0 1-8.474 1.92c-1.224.22-2.454.37-3.682.56-3.171.47.578-.08 1.06-.05-.595-.04-1.27.09-1.864.12-2.8.15-5.603.15-8.399-.06-1.153-.09-2.299-.28-3.452-.36-1.99-.13 1.889.37 1.853.36-.733-.2-1.53-.29-2.28-.45a64.363 64.363 0 0 1-7.824-2.23c-1.095-.39-2.17-.82-3.249-1.25-3.061-1.22 3.772 1.91-.297-.21a59.072 59.072 0 0 1-6.397-3.85c-.559-.39-4.282-3.32-1.696-1.17 2.48 2.07-.487-.5-1.036-1.03-1.912-1.84-3.559-3.83-5.228-5.89-1.557-1.91 2.186 3.49.965 1.34-.278-.49-.601-.95-.885-1.43a43.945 43.945 0 0 1-1.598-2.98c-.333-.68-2.012-4.9-.927-1.9 1.027 2.85-.252-1.06-.442-1.84-.281-1.14-.469-2.29-.688-3.45-.084-.44-.036-1.07-.207-1.48-.032-.07.152 4.14.207 2.29.071-2.32.003-4.61.168-6.93.032-.45.232-1.04.174-1.48-.016-.12-.872 4.09-.388 2.27.298-1.12.482-2.27.782-3.39.594-2.21 1.883-4.43 2.296-6.63.026-.14-1.912 3.79-.959 2.12.249-.44.446-.91.675-1.36a56.852 56.852 0 0 1 1.734-3.1c1.237-2.05 2.716-3.9 4.056-5.87 1.117-1.65-1.721 2.01-1.576 1.89.378-.31.681-.8 1.021-1.15.826-.87 1.63-1.75 2.493-2.58 1.724-1.68 3.574-3.16 5.444-4.67 2.584-2.08-3.607 2.22-.749.54.882-.51 1.734-1.08 2.625-1.58 1.919-1.09 4.718-1.77 6.436-3.08-.248.19-4.698 1.52-1.559.56.552-.16 1.098-.34 1.65-.51 1.101-.32 2.209-.61 3.326-.87 1.298-.31 2.603-.57 3.92-.79.792-.14 5.096-.59 2.138-.37-3.113.23 1.554-.05 2.164-.06 1.14-.03 2.283-.03 3.423 0 2.677.07 5.325.34 7.983.66 3.365.4-3.501-.75-.181-.03 1.317.29 2.632.57 3.94.9a80.878 80.878 0 0 1 11.015 3.64c3.911 1.59-2.59-1.35.378.11 2.441 1.21 4.85 2.46 7.191 3.86a90.95 90.95 0 0 1 5.855 3.8c1.105.78 2.193 1.59 3.262 2.42.429.33.885.81 1.362 1.07-1.172-.64-2.292-1.99-.519-.38 4.856 4.41 9.397 9.07 13.524 14.17 1.069 1.32 2.112 2.66 3.126 4.02.436.59.856 1.18 1.292 1.76 1.372 1.82-.775-1.13-.785-1.13.798.23 2.435 3.66 2.819 4.26.92 1.44 1.815 2.9 2.69 4.36 3.381 5.68 6.433 11.55 9.236 17.53a271.82 271.82 0 0 1 8.522 20.39c.21.56.417 1.13.627 1.7.875 2.34-1.228-3.53-.423-1.16.907 2.67 1.834 5.34 2.69 8.03a275.58 275.58 0 0 1 7.969 31.04c1.04 5.34 1.912 10.71 2.613 16.1.336 2.59.62 5.19.888 7.79.358 3.45-.249-3.43 0 .03.116 1.6.233 3.2.326 4.8.623 10.78.514 21.61-.416 32.36-.449 5.17-1.328 10.27-1.915 15.42.587-5.14.096-.66-.139.58a199.051 199.051 0 0 1-2.597 11.68 196.018 196.018 0 0 1-4.669 15.51c-3.2 9.26 2.906 20.9 12.442 23.36 10.108 2.61 19.935-2.53 23.361-12.44l.01.01ZM931.859 1143.76c10.018 7.66 20.264 13.53 32.032 18.12 10.511 4.09 21.597 6.29 32.81 7.34 22.259 2.1 45.519-2.6 65.089-13.46 39.76-22.05 61.75-70.08 53.43-114.56-8.16-43.615-48.77-76.382-92.22-79.512-22.4-1.615-51.562 6.017-61.447 28.458-11.865 26.934 8.205 53.144 30.578 66.694 19.979 12.09 43.749 15.5 66.619 12.43 23.21-3.13 44.89-15.44 61.04-32.2 33.44-34.7 44.25-86.183 31.46-132.153-12.14-43.603-47.34-90.262-95.9-93.511-13.41-.898-26.15 3.333-36.49 11.792-10.25 8.385-15.22 21.349-16.32 34.22-2.37 27.651 17.26 50.774 39.78 63.916 39.33 22.958 90.54 26.088 132.7 9.26 21.9-8.743 41.66-21.921 57.44-39.572 15.5-17.345 27.2-37.803 34.08-60.043 3.39-10.975 5.32-22.4 6.21-33.846.66-8.588-7.86-16.847-16.3-16.55-9.41.333-15.84 7.135-16.55 16.298-.17 2.261-.42 4.506-.67 6.757-.24 2.151.5-3.191.14-1.056-.09.513-.16 1.033-.24 1.547a115.7 115.7 0 0 1-.74 4.111 134.01 134.01 0 0 1-3.41 13.666 141.031 141.031 0 0 1-3.41 9.864c-.22.575-1.13 2.742-.17.481.96-2.27-.01.01-.21.469-1.94 4.476-4.1 8.853-6.48 13.106a143.944 143.944 0 0 1-9.62 14.929c-2.26 3.071 1.53-1.883-.27.352-1.53 1.899-3.07 3.792-4.67 5.626a140.695 140.695 0 0 1-15.26 14.974c-.94.785-1.89 1.544-2.83 2.313-2.2 1.782 2.85-2.11-.24.174a131.483 131.483 0 0 1-25.24 14.634c-.6.262-3.89 1.641-1.33.588 2.53-1.04-1.12.414-1.85.685a139.263 139.263 0 0 1-21.07 5.969c-2.22.445-4.45.833-6.69 1.172-.52.078-1.04.149-1.55.226-2.78.42.77-.093 1.12-.119-1.39.094-2.78.303-4.16.426a143.524 143.524 0 0 1-28.69-.358c-1.17-.133-4.84-1.027-.5-.036-1.01-.229-2.07-.316-3.09-.491-2.4-.407-4.79-.878-7.17-1.414a136.79 136.79 0 0 1-14.06-3.954c-2.14-.73-4.24-1.55-6.36-2.348-2.02-.765 2.96 1.289.98.41-.47-.213-.96-.41-1.43-.623a115.05 115.05 0 0 1-3.8-1.748c-4.79-2.299-9.45-4.893-13.86-7.88-.65-.446-1.29-.934-1.95-1.367-1.53-.994.94.685 1 .798-.46-.891-2.48-1.999-3.21-2.632a66.14 66.14 0 0 1-5.9-5.772c-.39-.436-.77-.888-1.16-1.327-2-2.226.31.293.49.736-.4-.992-1.42-1.983-2.01-2.891a52.964 52.964 0 0 1-2.11-3.553c-.37-.704-2.16-4.728-1.07-1.989 1.07 2.681-.13-.504-.34-1.147a41.746 41.746 0 0 1-.92-3.278c-.26-1.108-.42-2.232-.66-3.343-.37-1.709.2 1.893.21 1.815.02-.63-.12-1.305-.16-1.935-.12-2.235.34-4.541.18-6.74 0-.065-.63 3.459-.23 1.792.11-.462.17-.94.26-1.405.27-1.237.6-2.461 1-3.662.14-.449.32-.889.47-1.334.65-1.958-1.51 3.071-.49 1.279.46-.821.85-1.68 1.34-2.49.32-.54.71-1.05 1.02-1.593.85-1.463-1.18 1.509-1.16 1.486.97-.782 1.75-2.003 2.67-2.868.35-.336.76-.636 1.1-.985 1.18-1.228-1.58 1.169-1.6 1.175.94-.307 1.9-1.295 2.79-1.805.95-.54 2.04-.908 2.95-1.479.08-.052-3.58 1.253-1.9.81.6-.158 1.2-.397 1.79-.571 1.06-.307 2.13-.562 3.22-.766.47-.087.94-.148 1.41-.232 2.06-.378-3.47.239-1.37.2 2.3-.042 4.55-.152 6.85.026.5.038 1 .09 1.5.135 1.35.12 1.83.869-1.17-.164.93.319 2.04.365 3.01.578a65.53 65.53 0 0 1 7.49 2.128c.58.204 3.8 1.499 1.5.504-2.28-.982 1.25.572 1.92.895a76.205 76.205 0 0 1 6.52 3.482c2.06 1.227 3.98 2.916 6.08 4.027.06.032-2.72-2.173-1.35-1.024.39.327.8.633 1.19.956 1.07.876 2.12 1.777 3.16 2.694 3.62 3.201 7.04 6.625 10.25 10.236a126.6 126.6 0 0 1 4.33 5.145c.32.403.63.827.96 1.217.07.088-2.2-2.961-1.12-1.434.8 1.128 1.63 2.226 2.42 3.359a132.1 132.1 0 0 1 7.6 12.342c1.06 1.973 2.08 3.976 3.05 6.004.52 1.092 1.03 2.19 1.52 3.294.21.475.41.95.62 1.425.93 2.086-.22-.523-.46-1.205 1.65 4.561 3.37 9.053 4.69 13.733a134.22 134.22 0 0 1 3.18 14.154c.17 1.02.33 2.044.47 3.071.07.446.07 1.58.28 2.055.02.035-.36-3.437-.21-1.654.19 2.409.44 4.809.57 7.225.24 4.822.22 9.661-.09 14.48-.14 2.238-.37 4.466-.61 6.698-.11.995-.66 2.807.16-1.082-.11.504-.15 1.027-.23 1.538-.22 1.366-.46 2.726-.73 4.082-.93 4.777-2.15 9.496-3.67 14.121-.77 2.381-2.06 4.806-2.63 7.229 0-.007 1.3-2.988.55-1.344-.23.501-.44 1.011-.66 1.512a115.876 115.876 0 0 1-11.38 20.022c-.39.56-.99 1.19-1.28 1.77-.01.02 2.06-2.63.92-1.21-1.6 1.99-3.2 3.97-4.9 5.87-3.39 3.79-7.06 7.33-10.97 10.57-1 .84-4.27 2.74-.34.35-.92.56-1.76 1.29-2.64 1.91a94.888 94.888 0 0 1-6.88 4.36 87.138 87.138 0 0 1-6.28 3.29c-.95.46-1.92.88-2.88 1.31-2.55 1.15 1.13-.49 1.37-.55-.62.17-1.23.47-1.83.69-4.3 1.55-8.72 2.75-13.21 3.6-.96.18-1.93.34-2.9.5-.55.08-1.38.1-1.94.27-.09.03 3.57-.35 1.8-.23-2.45.18-4.88.41-7.34.45-2.12.05-4.24.01-6.36-.1-1.14-.06-2.28-.14-3.41-.24-.69-.06-4.44-.53-1.81-.16 2.62.37-1.04-.19-1.77-.32-.96-.18-1.91-.37-2.86-.58-2.38-.51-4.73-1.13-7.05-1.86-2-.62-3.93-1.49-5.93-2.1-.11-.04 3.25 1.43 1.65.67-.58-.27-1.18-.52-1.76-.79a85.21 85.21 0 0 1-3.03-1.5c-2-1.03-3.95-2.16-5.85-3.38-.81-.52-1.61-1.06-2.4-1.61-.42-.3-1.06-.9-1.56-1.13.56.26 2.79 2.26 1.09.81-1.6-1.37-3.21-2.71-4.717-4.18-.827-.8-1.638-1.62-2.419-2.47-.82-.89-1.683-2.52-2.674-3.13.019.01 2.057 2.93 1.13 1.42-.271-.44-.597-.85-.881-1.28a43.162 43.162 0 0 1-1.867-3.1c-.5-.91-.865-2.52-1.579-3.22.052.05 1.153 3.37.752 1.72-.155-.65-.416-1.28-.594-1.92-.174-.64-.252-1.32-.458-1.94-.52-1.57.148 1.71.142 1.78.071-1.13-.149-2.31-.1-3.45.019-.46.158-1.02.106-1.48.016.15-.723 3.19-.148 1.69.219-.57.403-1.27.516-1.88.343-1.82-1.472 2.82-.552 1.24.549-.94 1.069-1.91 1.612-2.85 1.398-2.42-2.251 2.42-.272.43.785-.79 1.534-1.59 2.371-2.32 2.841-2.503-2.926 1.92.355-.23 1.799-1.178 3.694-2.141 5.627-3.074 2.64-1.273-3.773 1.35.09.006 1.09-.381 2.2-.726 3.32-1.036a59.667 59.667 0 0 1 6.58-1.405c.46-.075.93-.13 1.39-.204 1.74-.287-2.06.22-1.91.233 1.17.113 2.52-.23 3.7-.294 2.01-.107 4.02-.129 6.03-.071 2.21.064 4.75.704 6.92.517.15-.013-3.58-.556-1.86-.259.45.081.91.142 1.37.22 1.07.181 2.13.384 3.19.607 2.12.449 4.22.982 6.29 1.595 2.09.617 4.14 1.315 6.17 2.09.43.165.86.365 1.3.507.15.049-3.32-1.45-1.72-.704 1.13.527 2.27 1.014 3.39 1.552 3.93 1.91 7.72 4.11 11.33 6.56.77.53 1.53 1.09 2.29 1.63 1.73 1.19-2.77-2.2-1.14-.89.37.3.74.58 1.11.87 1.7 1.37 3.35 2.81 4.95 4.3 3.23 3 5.9 6.39 8.88 9.62.14.16-2.33-3.14-1.26-1.64.27.38.56.75.83 1.13.64.88 1.26 1.78 1.86 2.69 1.29 1.94 2.49 3.94 3.61 5.99.96 1.78 1.86 3.59 2.69 5.44 1.53 3.43-1.03-2.85-.06-.19.38 1.03.76 2.05 1.1 3.09a78.15 78.15 0 0 1 3.14 13.17c.55 3.67-.2-2.7.02.09.08.97.17 1.93.22 2.89.14 2.26.19 4.51.15 6.77-.04 2.26-.17 4.52-.38 6.76-.1.97-.25 1.93-.33 2.89.37-4.81.05-.6-.17.63-.81 4.47-1.96 8.87-3.4 13.17-.31.93-.64 1.85-.98 2.76-.18.51-1.67 4.27-.63 1.68.99-2.45-.45.96-.77 1.64-.48 1.03-.98 2.05-1.49 3.07a98.255 98.255 0 0 1-7.03 11.7c-.29.4-.57.8-.85 1.19-1.58 2.24.64-.83.82-1.04-.64.73-1.2 1.53-1.82 2.28a93.448 93.448 0 0 1-4.87 5.46 85.885 85.885 0 0 1-4.55 4.4c-.84.76-1.7 1.5-2.57 2.23l-1.14.93c-1.77 1.47.69-.56 1.19-.89-3.88 2.51-7.52 5.19-11.63 7.35-1.91 1-3.86 1.93-5.84 2.8-3.77 1.64 2.72-.98-.06.02-1.25.46-2.49.92-3.75 1.33a96.618 96.618 0 0 1-12.99 3.32c-1.14.21-2.29.38-3.43.57-2.85.46 3.78-.38-.22.03-2.32.24-4.64.4-6.96.48-4.66.16-9.33.01-13.977-.45-.995-.1-1.99-.23-2.984-.34-2.112-.24 3.281.53 1.188.15-.491-.08-.988-.15-1.482-.24a100.71 100.71 0 0 1-6.866-1.4 105.954 105.954 0 0 1-13.379-4.14c-.468-.18-.93-.37-1.398-.55-1.666-.64 1.65.69 1.569.65-.997-.57-2.154-.95-3.193-1.44-1.961-.93-3.895-1.91-5.791-2.95a100.137 100.137 0 0 1-8.499-5.27c-.888-.61-4.663-3.44-.649-.37-3.562-2.73-6.759-4.72-11.429-4.75-4.078-.04-9.009 1.79-11.793 4.86-5.351 5.9-7.192 17.64.113 23.23h.019ZM932.47 879.811c20.383-26.172 29.335-59.946 26.251-92.814-3.013-32.092-19.415-60.889-42.976-82.345-12.536-11.418-27.882-20.287-43.973-25.603-8.72-2.881-19.58.701-22.748 9.999-2.938 8.624.682 19.674 9.998 22.752 3.1 1.024 6.155 2.16 9.152 3.452a107.3 107.3 0 0 1 7.838 3.757l-2.035-1.118c.879.969 3.074 1.764 4.221 2.471a113.515 113.515 0 0 1 15.698 11.647c.562.497 1.346 1.557 2.015 1.825-.297-.12-3.007-2.965-.911-.827 2.29 2.332 4.557 4.664 6.688 7.148a113.924 113.924 0 0 1 8.525 11.269c.272.41.769 1.453 1.185 1.825-1.44-2.336-1.672-2.697-.697-1.092l.552.937a108.159 108.159 0 0 1 9.175 20.257c.229.695.8 3.065.151.359-.752-3.127.139.546.259.991a106.15 106.15 0 0 1 2.515 12.203c.491 3.362.824 6.747 1.005 10.142.038.752.035 1.514.097 2.264-.378-4.571-.046-2.432-.055-1.312-.02 1.89-.039 3.779-.13 5.666-.329 6.821-1.346 13.526-2.78 20.196-.697 3.246.197-1.124.281-1.118-.09-.006-.778 2.836-.907 3.279a114.446 114.446 0 0 1-1.728 5.4 111.959 111.959 0 0 1-6.246 14.57c-.704 1.331-.7 1.337.013.029.281-2.044.268-.488-.3.501a99.735 99.735 0 0 1-1.744 2.916c-2.089 3.375-4.379 6.615-6.817 9.748-5.661 7.267-3.827 19.421 3.901 24.537 8.161 5.404 18.494 3.85 24.533-3.901l-.006-.01ZM1344.72 1195.55c-27.12 10.67-57.8 9.81-84.72-.97-26.29-10.52-46.47-31.5-58.68-56.7-6.5-13.4-10.16-28.54-10.63-43.42-.26-8.07 5.46-16.33 14.08-16.68 7.99-.33 16.4 5.46 16.68 14.08.09 2.87.29 5.72.63 8.57a95.91 95.91 0 0 0 .85 5.67c.12.63.24 1.25.36 1.87-.14-.66-.29-1.33-.43-1.99.6.98.72 3.03 1.03 4.17.37 1.38.78 2.76 1.21 4.12.87 2.73 1.86 5.43 2.95 8.07.55 1.33 1.14 2.64 1.74 3.94.28.59.98 1.52 1.04 2.15-.03-.28-1.75-3.27-.47-.97 1.39 2.51 2.79 5 4.35 7.41 1.56 2.41 3.22 4.75 4.98 7.01.78 1.01 1.58 2 2.4 2.98.27.33 1.03 1.01 1.24 1.45-1.61-1.8-1.86-2.09-.75-.86.22.23.44.46.65.7a95.873 95.873 0 0 0 14.79 12.77c.53.36 2.38 1.43.26.21-2.44-1.41.43.26.78.47.56.34 1.13.69 1.7 1.02 2.58 1.5 5.24 2.88 7.95 4.13s5.48 2.38 8.29 3.37c.62.22 1.27.41 1.88.65-3.75-1.46-2.03-.64-1.09-.37 1.6.45 3.19.9 4.81 1.3 5.83 1.42 11.73 2.23 17.7 2.68 2.91.22-.99-.12-1.01-.04.02-.08 2.58.05 2.99.05 1.66 0 3.32-.03 4.98-.11 3.31-.16 6.62-.49 9.9-.98.82-.12 1.64-.25 2.46-.4.49-.08.98-.17 1.47-.27 1.29-.26 1.3-.25.02.02-1.79-.27-.48.11.49-.13.97-.23 1.94-.48 2.89-.74 3.37-.92 6.67-2.04 9.91-3.32 7.53-2.96 17.31 1.61 19.7 9.39 2.53 8.22-1.35 16.55-9.39 19.71l.01-.01Z" fill="#fff"/><path d="M345.065 937.37c6.726 22.196 16.153 43.662 27.801 63.72 10.734 18.48 23.587 36.5 38.958 51.43 13.97 13.56 30.611 25.55 48.362 33.62 19.047 8.65 40.166 11.99 60.249 4.55 21.139-7.82 38.394-25.98 40.622-49.08 2.17-22.48-6.313-43.412-18.178-62.1-6.236-9.822-13.266-19.101-19.815-28.713-3.094-4.538-6.084-9.154-8.809-13.921a162.187 162.187 0 0 1-3.601-6.705c-1.489-2.91 1.221 2.794-.081-.197-.546-1.25-1.098-2.494-1.611-3.756-1.909-4.693-3.252-9.474-4.508-14.37-.465-1.812.274 1.457.271 1.499.035-.511-.197-1.199-.275-1.709a65.096 65.096 0 0 1-.423-3.433c-.258-2.671-.226-5.32-.265-7.998-.025-1.837-.122 1.657-.125 1.664.151-.475.113-1.14.174-1.638a52.699 52.699 0 0 1 1.192-6.498c.132-.536.287-1.066.419-1.599.888-3.598-1.046 2.558-.245.565.82-2.041 1.618-4.066 2.632-6.027.5-.965 1.107-1.883 1.598-2.848.833-1.641-1.062 1.534-1.101 1.563.63-.43 1.137-1.576 1.605-2.171 1.34-1.705 2.855-3.181 4.35-4.738 1.305-1.356-1.515 1.289-1.476 1.273.436-.204.882-.688 1.273-.976a36.12 36.12 0 0 1 3.126-2.07c.574-.339 1.388-.636 1.889-1.037-.049.039-3.281 1.337-1.56.801 1.03-.32 2.021-.785 3.052-1.111 1.03-.323 2.079-.549 3.119-.836 1.757-.485-1.679.326-1.686.326.611.093 1.512-.21 2.135-.275 1.253-.129 2.512-.2 3.775-.223.665-.013 4.24.181 1.602-.061-2.668-.249.975.12 1.608.2a57.93 57.93 0 0 1 3.794.611c2.355.455 4.625 1.15 6.94 1.747 1.828.472-1.653-.585-1.621-.568.484.229 1.04.371 1.544.562 1.33.497 2.651 1.03 3.952 1.602a70.946 70.946 0 0 1 7.373 3.782c.568.336 3.94 2.48 1.753 1.037-2.053-1.357-.274-.175.107.113.652.491 1.314.965 1.957 1.463 4.162 3.22 7.912 6.879 11.47 10.749 2.284 2.483-1.976-2.461.133.177.759.95 1.531 1.887 2.273 2.849a160.799 160.799 0 0 1 5.048 6.902c3.048 4.403 5.909 8.931 8.716 13.491 19.456 31.614 42.907 70.531 84.369 72.65 20.012 1.021 40.053-10.442 52.46-25.6 13.45-16.434 20.725-38.28 18.72-59.539-2.115-22.409-13.792-41.801-25.773-60.27-2.787-4.299-5.597-8.588-8.241-12.974a132.24 132.24 0 0 1-3.782-6.699c-.539-1.024-.962-2.254-1.624-3.197.026.038 1.401 3.087.649 1.317-.313-.736-.662-1.46-.982-2.196-2.076-4.787-3.836-9.712-5.176-14.757a90.353 90.353 0 0 1-.856-3.495c-.12-.533-.155-1.26-.378-1.754 1.201 2.691.388 2.226.191.805-.352-2.555-.682-5.094-.827-7.671a54.44 54.44 0 0 1-.1-3.075c0-.708.135-3.873-.033-.824-.174 3.175.12-.491.23-1.218.151-.988.339-1.967.558-2.942.188-.833.42-1.654.633-2.48.104-.404.294-.814.368-1.225.029-.168-1.508 3.731-.733 2.226.898-1.748 1.492-3.66 2.413-5.41.394-.746.826-1.47 1.24-2.206.126-.223.439-.953.662-1.076.326-.181-2.558 3.534-1.405 2.096 1.224-1.524 2.335-3.107 3.662-4.554.562-.61 1.14-1.208 1.734-1.786.549-.536 2.887-2.606.397-.429-2.476 2.164-.119.177.507-.285a40.216 40.216 0 0 1 2.713-1.837c.698-.43 1.411-.821 2.122-1.225.352-.2.742-.348 1.085-.562.193-.122-3.795 1.577-2.177 1.079 1.686-.517 3.281-1.279 4.999-1.734.481-.129 1.114-.2 1.589-.381.181-.068-3.979.549-2.312.455.817-.045 1.64-.223 2.46-.291.83-.067 1.664-.103 2.497-.109.42-.004.839.016 1.262.009 2.284-.022-1.495.007-1.85-.122 1.653.597 3.849.633 5.6 1.049.377.091.917.381 1.304.375-.055 0-3.468-1.292-1.601-.523 1.33.549 2.693 1.024 4.017 1.595 4.912 2.116 9.171 5.123 13.866 7.574-.019-.009-2.912-2.057-1.333-.865.484.365.994.701 1.485 1.056 1.15.83 2.283 1.686 3.407 2.555a165.217 165.217 0 0 1 6.152 5.016c4.059 3.462 7.973 7.089 11.855 10.752 7.77 7.328 15.4 14.835 23.742 21.524 9.08 7.283 19.049 14.027 29.948 18.265 11.08 4.305 22.121 6.479 33.982 6.921 10.447.391 21.101-1.337 31.057-4.441 8.612-2.687 14.234-13.142 10.986-21.756-3.339-8.853-12.559-13.856-21.753-10.988-2.118.662-4.25 1.211-6.404 1.744-3.074.762 3.12-.436-.013.026-1.459.213-2.916.445-4.382.604a79.66 79.66 0 0 1-9.943.458c-.72-.013-4.841-.184-2.222-.058 2.632.126-1.014-.145-1.656-.223a80.805 80.805 0 0 1-3.83-.558 77.893 77.893 0 0 1-7.021-1.544c-1.069-.288-2.121-.63-3.187-.93-1.821-.511 1.641.565 1.611.549-.458-.256-1.065-.388-1.556-.575a80.571 80.571 0 0 1-7.282-3.198 91.007 91.007 0 0 1-6.93-3.86c-.562-.345-3.875-2.496-1.663-1.02 2.07 1.379.297.194-.091-.087-.659-.475-1.324-.944-1.979-1.422-4.282-3.139-8.361-6.547-12.33-10.074-7.847-6.973-15.252-14.424-23.041-21.462-16.021-14.483-35.723-29.098-58.011-30.577-18.453-1.224-36.963 8.278-47.529 23.381-5.587 7.987-9.83 16.669-11.419 26.394-1.828 11.189-.352 22.445 2.322 33.365 5.17 21.107 17.551 38.697 28.915 56.8 2.716 4.328 5.344 8.714 7.721 13.24.533 1.01.959 2.18 1.589 3.126-.006-.01-1.431-3.156-.681-1.395.226.536.484 1.059.717 1.592a90.227 90.227 0 0 1 2.942 7.574 75.78 75.78 0 0 1 1.918 6.709c.135.568.245 1.143.378 1.711.445 1.89-.311-1.582-.311-1.586-.058 1.124.359 2.445.475 3.576.21 2.051.317 4.108.32 6.172 0 1.195-.132 2.413-.094 3.605 0 .087.362-3.65.097-1.828-.1.678-.142 1.369-.229 2.051a66.273 66.273 0 0 1-1.821 9.098c-.136.498-.288.992-.427 1.489-.62 2.238.175-.649.469-1.292-1.877 4.096-3.34 8.214-5.671 12.106-.265.439-.556.865-.811 1.311-.952 1.667 1.256-1.812 1.16-1.696-.649.785-1.189 1.68-1.809 2.491a60.327 60.327 0 0 1-4.676 5.426c-.713.733-1.459 1.434-2.193 2.144-2.276 2.21 2.92-2.28.401-.348-1.767 1.356-3.539 2.677-5.432 3.856a54.216 54.216 0 0 1-2.677 1.567c-.433.239-.991.439-1.385.736-.091.068 3.436-1.528 1.737-.83-2.089.859-4.14 1.715-6.313 2.345-.875.255-1.789.41-2.658.681-1.647.517 2.264-.394 2.135-.4-.417-.013-.888.148-1.305.194-1.857.19-3.694.361-5.567.342-.42-.003-.846-.049-1.263-.036-1.705.052 2.503.21 2.306.149-.875-.262-1.973-.229-2.887-.384-1.783-.301-3.504-.769-5.245-1.237-2.745-.737 3.701 1.472 1.085.342-.768-.333-1.556-.62-2.321-.963a54.855 54.855 0 0 1-5.284-2.703c-.746-.433-1.469-.898-2.205-1.34-2.545-1.531 3.345 2.428.952.633-1.53-1.15-3.071-2.277-4.546-3.498-3.02-2.5-5.858-5.204-8.558-8.043-.63-.665-1.253-1.334-1.87-2.012-.494-.542-2.7-3.065-.617-.659 2.083 2.406-.1-.142-.565-.71-.681-.827-1.356-1.66-2.021-2.5-3.059-3.87-5.92-7.888-8.645-11.996-12.255-18.475-22.308-38.122-37.651-54.384-16.114-17.08-39.084-27.974-62.697-28.052-23.519-.077-44.71 15.642-52.663 37.606-4.024 11.11-5.855 22.673-4.399 34.485 1.531 12.415 5.503 23.671 10.932 34.857 9.655 19.895 24.384 36.565 35.722 55.434 1.185 1.97 2.335 3.97 3.417 6.01.494.92.901 1.95 1.463 2.84.048.08-1.541-3.36-.775-1.62.358.82.742 1.63 1.098 2.45 1.766 4.08 3.255 8.28 4.353 12.6.164.64.865 4.13.394 1.44-.472-2.71.113.8.2 1.45.329 2.39.517 4.81.526 7.22 0 .66-.142 4.18.023 1.39.165-2.77-.136.71-.236 1.37-.333 2.22-1.111 4.33-1.502 6.51-.003.03 1.35-3.41.556-1.77-.223.46-.384.96-.591 1.44a36.972 36.972 0 0 1-1.586 3.19c-.345.63-2.234 3.64-.578 1.09 1.65-2.54-.623.69-1.136 1.3-1.305 1.55-2.858 2.84-4.211 4.33-.084.1 3.106-2.46 1.559-1.39-.413.29-.797.63-1.204.93-.953.71-1.935 1.38-2.939 2.02-1.011.63-2.054 1.21-3.09 1.8-2.687 1.54 3.2-1.31.326-.13-2.08.85-4.16 1.66-6.317 2.3-.998.3-2.002.56-3.013.8-.497.12-1.039.18-1.524.34-.058.02 3.591-.55 1.767-.37-2.422.25-4.806.6-7.247.65-1.04.02-2.076-.03-3.113-.02-1.831.03 1.873.15 1.812.14-.485-.11-1.047-.1-1.544-.16-2.054-.24-4.088-.6-6.103-1.07-1.996-.46-3.947-1.05-5.907-1.64-1.782-.54 2.099.72 1.925.64-.443-.2-.937-.34-1.392-.5a95.518 95.518 0 0 1-3.268-1.29c-4.024-1.67-7.938-3.59-11.755-5.69-2.054-1.13-4.078-2.3-6.074-3.53-.93-.57-1.854-1.15-2.774-1.74-.462-.29-.914-.6-1.376-.89-1.973-1.24 3.013 2.09 1.108.75-7.457-5.25-14.626-10.81-21.275-17.06-3.068-2.89-5.971-5.92-8.809-9.02-1.996-2.19 2.858 3.42.429.47-.81-.98-1.631-1.96-2.435-2.95a253.442 253.442 0 0 1-5.131-6.52 270.21 270.21 0 0 1-18.465-27.615 275.583 275.583 0 0 1-7.663-14.044c-.582-1.14-1.147-2.29-1.718-3.433-.181-.362-1.118-2.345-.149-.291 1.027 2.183-.155-.342-.404-.878a285.912 285.912 0 0 1-3.403-7.587c-4.208-9.777-7.835-19.793-10.922-29.98-2.616-8.637-13.188-14.218-21.752-10.988-8.91 3.362-13.78 12.535-10.987 21.756h.017ZM835.526 1232.93c-21.388-16.87-42.776-33.73-64.163-50.59-3.023-2.38-6.046-4.76-9.068-7.15-.607 8.96-1.211 17.92-1.818 26.87 25.518-9.64 51.036-19.29 76.557-28.93 3.607-1.37 7.211-2.73 10.818-4.09 9.081-3.44 11.496-17.61 4.805-24.24l-59.535-58.98-8.477-8.4-4.805 24.24c26.428-11.69 52.857-23.39 79.286-35.09l11.399-5.04c8.661-3.84 11.923-17.38 4.805-24.24-20.377-19.64-40.757-39.288-61.134-58.932l-8.544-8.237c-2.923 8.524-5.846 17.044-8.768 25.568l77.455-20.642c3.71-.988 7.421-1.977 11.131-2.968 7.857-2.093 14.403-9.664 12.346-18.249-1.857-7.742-9.814-14.596-18.246-12.348-25.818 6.883-51.636 13.763-77.455 20.642-3.71.989-7.421 1.977-11.131 2.968-5.416 1.444-9.824 4.668-11.745 10.126-1.731 4.916-.937 11.666 2.977 15.442 20.377 19.64 40.758 39.29 61.134 58.93 2.849 2.75 5.697 5.49 8.545 8.24l4.805-24.24c-26.428 11.7-52.857 23.4-79.286 35.09-3.8 1.68-7.598 3.36-11.399 5.05-8.761 3.87-11.81 17.3-4.805 24.23l59.535 58.98 8.477 8.4 4.805-24.24c-25.518 9.65-51.036 19.29-76.557 28.94-3.607 1.36-7.211 2.73-10.818 4.09-4.934 1.86-8.231 7.74-8.622 12.74-.459 5.86 2.351 10.62 6.804 14.13l64.163 50.58c3.023 2.39 6.045 4.77 9.068 7.15 6.423 5.07 17.438 2.64 21.63-4.17 4.692-7.62 2.677-16.23-4.172-21.63h.003ZM1064.83 295.586c8.15 0 15.96-7.167 15.58-15.581-.38-8.443-6.85-15.581-15.58-15.581-8.15 0-15.96 7.167-15.58 15.581.38 8.443 6.85 15.581 15.58 15.581ZM1227.01 433.682c8.15 0 15.95-7.167 15.58-15.581-.38-8.442-6.85-15.58-15.58-15.58-8.15 0-15.96 7.167-15.58 15.58.38 8.443 6.85 15.581 15.58 15.581Z" fill="#fff"/><path d="M703.615 631.993c44.209 22.932 98.52 22.464 142.538-.853 22.26-11.792 42.685-30.112 54.379-52.659 12.988-25.051 15.194-54.563 1.815-80.004-6.172-11.734-16.208-22.755-28.296-28.523-12.4-5.917-25.398-7.684-38.968-5.623-11.884 1.805-24.136 7.845-32.361 16.685-9.923 10.662-15.006 24.802-14.929 39.333.288 53.619 52.984 93.99 103.929 93.744 28.948-.139 55.916-11.185 78.76-28.481 21.123-15.991 36.858-38.138 47.388-62.281 10.48-24.063 15.96-49.912 17.52-76.086 1.73-28.95-1.88-57.915-12.7-84.891-9.77-24.331-27.333-45.925-49.644-59.811-23.845-14.838-56.084-21.485-82.044-8.094-25.305 13.052-33.821 44.033-26.325 70.182 8.351 29.124 32.868 48.238 57.342 63.838 41.103 26.198 92.701 50.667 141.841 32.373 26.89-10.009 49.31-29.107 64.03-53.754 13.6-22.781 20.05-49.598 20.7-75.986.32-13.01-.86-26.094-2.98-38.927-1.41-8.575-11.77-14.657-19.97-12.315-9.15 2.613-13.83 10.797-12.31 19.977.45 2.719.85 5.445 1.19 8.181.07.549.13 1.095.2 1.644.35 2.875-.09-.594-.09-.985.03 1.641.29 3.317.41 4.958.38 5.513.52 11.043.38 16.566a164.34 164.34 0 0 1-1.3 17.028c-.1.726-.21 1.453-.31 2.18-.06.445-.32 2.364 0 .077.36-2.577-.31 1.605-.43 2.232-.55 2.875-1.18 5.733-1.9 8.566a134.633 134.633 0 0 1-5.21 16.159c-.44 1.133-.78 2.548-1.46 3.549 1.88-2.771.88-1.957.36-.878-.33.659-.62 1.33-.94 1.989-1.23 2.533-2.54 5.02-3.95 7.455a113.573 113.573 0 0 1-4.5 7.183c-.74 1.092-1.5 2.171-2.28 3.236-.45.611-.91 1.202-1.35 1.816-1.21 1.686 2.2-2.629.22-.262-3.65 4.335-7.46 8.485-11.66 12.293a108.59 108.59 0 0 1-6.48 5.429c-3.4 2.633 2.05-1.366-.49.362-1.39.946-2.78 1.896-4.2 2.794-2.37 1.492-4.8 2.887-7.28 4.176-2.59 1.344-5.66 2.226-8.12 3.74-.03.016 3.34-1.214 1.54-.594-.7.242-1.4.51-2.1.749a88.79 88.79 0 0 1-16.09 3.886c-.69.1-1.38.174-2.07.278-2.17.319 3.35-.265 1.17-.113-2.59.18-5.16.355-7.75.374-5.36.045-10.63-.442-15.94-1.095-2.15-.265 3.26.578 1.13.181-.51-.093-1.02-.174-1.53-.268-1.36-.249-2.72-.52-4.07-.814a137.63 137.63 0 0 1-8.1-2.018c-5.076-1.428-10.072-3.133-14.984-5.049a186.69 186.69 0 0 1-3.946-1.589c-.491-.203-.982-.416-1.473-.62-2.031-.833 2.952 1.327.953.42-2.603-1.182-5.196-2.368-7.763-3.624-9.788-4.79-19.25-10.223-28.508-15.962-5.012-3.107-9.989-6.279-14.858-9.606a210.17 210.17 0 0 1-7.596-5.419c-.497-.372-.988-.75-1.485-1.124-2.758-2.08.365.39.445.371-.558.123-3.846-3.214-4.259-3.575-4.657-4.08-8.677-8.566-12.707-13.24-1.554-1.802 1.782 2.62.448.65-.458-.675-.933-1.334-1.385-2.016a70.931 70.931 0 0 1-2.27-3.643c-1.337-2.3-2.238-4.809-3.517-7.119.116.21 1.447 4.099.575 1.444-.152-.459-.313-.917-.462-1.376a56.396 56.396 0 0 1-.949-3.256c-.653-2.516-.924-5.074-1.444-7.609.979 4.767.116.869.071-.523a52.796 52.796 0 0 1 .204-6.677c.038-.416.294-1.411.216-1.879.171 1.056-.662 3.649-.1.946.478-2.293 1.172-4.499 1.957-6.702.933-2.626-1.763 3.537 0 .094a37.011 37.011 0 0 1 2.096-3.589c.255-.384.542-.752.794-1.14 1.13-1.75-2.37 2.713-.949 1.176.746-.808 1.456-1.641 2.244-2.41.898-.875 1.873-1.65 2.822-2.467 1.722-1.483-2.857 1.786-.875.701.808-.44 1.563-.982 2.371-1.428 1.133-.627 2.322-1.124 3.474-1.705 2.028-1.024-3.232 1.036-1.049.394.533-.155 1.056-.359 1.589-.52 2.761-.847 6.174-.798 8.793-1.841-2.474.988-2.435.164-.888.129.759-.016 1.515-.081 2.274-.1a62.38 62.38 0 0 1 3.988.026c1.327.048 2.654.135 3.978.264.756.075 1.502.178 2.257.256 3.02.313-2.199-.469-.319-.042 5.38 1.227 10.537 2.622 15.701 4.602 2.725 1.047-3.236-1.528.461.197a89.941 89.941 0 0 1 3.314 1.628 94.172 94.172 0 0 1 7.321 4.225c2.241 1.43 4.35 3.023 6.523 4.547 1.498 1.053-1.315-1.072-1.276-1.036.527.468 1.105.894 1.647 1.346 1.092.911 2.164 1.845 3.217 2.797a109.335 109.335 0 0 1 11.38 12.025c.788.969 1.553 1.958 2.318 2.946 1.851 2.393-.71-.766-.733-.998.033.326 1.127 1.602 1.231 1.75a114.112 114.112 0 0 1 4.576 7.222c2.922 5.016 5.331 10.252 7.614 15.585.449 1.049 1.528 2.312-.29-.798.358.61.6 1.621.823 2.254.468 1.318.917 2.645 1.347 3.979.981 3.049 1.86 6.131 2.641 9.238 1.47 5.843 2.592 11.773 3.412 17.742.19 1.398.36 2.797.53 4.195.38 3.246-.19-.471-.07-.668-.15.232.17 1.973.21 2.412.26 3.22.44 6.447.54 9.674.2 6.049.13 12.105-.17 18.148-.29 5.795-.78 11.576-1.49 17.335-.16 1.289-.33 2.574-.51 3.86-.11.72-.28 1.479-.33 2.202.03-.4.63-3.736.14-.894-.476 2.742-.97 5.478-1.532 8.2-2.283 11.04-5.454 21.905-9.639 32.373-.543 1.357-1.211 2.704-1.693 4.08 0 .006 1.366-3.017.585-1.363-.313.665-.607 1.34-.917 2.005a164.732 164.732 0 0 1-3.933 7.894 152.909 152.909 0 0 1-8.858 14.606c-1.463 2.128-3.004 4.195-4.554 6.259-1.027 1.37-.152 1.399.565-.71-.158.465-1.198 1.453-1.443 1.744a125.41 125.41 0 0 1-2.981 3.417 131.553 131.553 0 0 1-15.707 14.773c-.627.501-3.908 2.952-1.815 1.444 2.248-1.621-1.353.946-1.902 1.321a124.189 124.189 0 0 1-4.263 2.804 122.08 122.08 0 0 1-15.433 8.255c-1.201.533-2.425 1.014-3.626 1.538-1.744.762 1.56-.588 1.531-.579-.704.191-1.418.527-2.112.772a110.82 110.82 0 0 1-8.574 2.649 104.705 104.705 0 0 1-12.075 2.451c-.655.094-1.634.078-2.225.291.811-.291 3.149-.265.93-.1-5.554.417-11.105.488-16.653-.039-1.172-.11-2.335-.258-3.504-.4-2.787-.336.962.064 1.201.203-.381-.223-1.637-.294-1.986-.358a92.369 92.369 0 0 1-7.853-1.87 94.331 94.331 0 0 1-6.724-2.19 121.136 121.136 0 0 1-3.762-1.476c-.459-.188-2.147-.882.09.045 2.516 1.046-.264-.155-.81-.417a93.763 93.763 0 0 1-13.453-7.894c-.959-.675-1.89-1.382-2.832-2.076-2.351-1.732 2.693 2.241-.139-.159a87.453 87.453 0 0 1-5.858-5.432 84.377 84.377 0 0 1-4.996-5.543c-.507-.617-2.806-3.675-1.124-1.34 1.599 2.219.259.342-.132-.22a77.715 77.715 0 0 1-1.386-2.054c-2.748-4.215-4.385-8.889-6.855-13.197 1.915 3.34.959 2.622.552 1.347-.204-.637-.433-1.263-.636-1.9a70.213 70.213 0 0 1-1.005-3.449c-.726-2.752-1.162-5.52-1.63-8.32-.298-1.786.158 1.66.161 1.641.068-.624-.107-1.463-.136-2.116a54.113 54.113 0 0 1-.025-4.225c.042-1.227.129-2.448.261-3.669.055-.51.178-1.046.194-1.56-.123 3.921-.271 1.819.01.598.31-1.357.684-2.697 1.13-4.015.168-.494.355-.982.526-1.473.988-2.81-.236.956-.452 1.005.407-.094 1.269-2.403 1.573-2.91.31-.511.652-1.002.965-1.509 1.434-2.299.013.175-.81.882 1.54-1.318 2.754-3.072 4.314-4.415.365-.314 1.04-.727 1.363-1.121-.123.149-3.707 2.487-1.44 1.079 1.004-.627 1.982-1.282 3.016-1.861a41.854 41.854 0 0 1 3.181-1.602c.403-.184.839-.329 1.23-.533 1.863-.965-3.665 1.208-1.637.646 2.334-.646 4.589-1.392 6.982-1.828 1.036-.187 2.118-.235 3.142-.465-4.741 1.06-1.279.171.258.142 2.335-.042 4.996.672 7.266.417.074-.01-3.562-.733-1.947-.297.581.158 1.191.232 1.779.368a45.77 45.77 0 0 1 3.071.811c1.004.303 2.39 1.146 3.42 1.198.071.003-3.271-1.599-1.812-.798.659.362 1.363.653 2.028 1.008 2.064 1.101 3.856 2.69 5.894 3.785-2.974-1.595-1.96-1.624-.963-.726.511.458 1.031.907 1.534 1.376a50.228 50.228 0 0 1 2.887 2.932c.892.982 1.68 2.261 2.645 3.156-.232-.217-2.39-3.479-.817-1.082.284.433.578.856.859 1.292a58.278 58.278 0 0 1 3.995 7.273c.29.63.539 1.283.839 1.909.805 1.677-.658-1.799-.639-1.721.349 1.337.933 2.645 1.327 3.976a65.147 65.147 0 0 1 1.876 8.197c.104.64.662 4.79.314 2.038-.326-2.561.035 1.279.061 2.064.09 2.8 0 5.607-.271 8.395-.062.613-.3 1.501-.239 2.08-.036-.349.714-3.857.161-1.034a100.628 100.628 0 0 1-.765 3.676 75.162 75.162 0 0 1-2.248 7.7c-.471 1.346-1.007 2.667-1.521 3.995-.461 1.192-1.411 1.786.417-.946-.284.423-.462.994-.685 1.453a88.216 88.216 0 0 1-4.094 7.548 98.226 98.226 0 0 1-4.476 6.738c-.452.623-2.855 3.743-1.286 1.76 1.551-1.961.03-.061-.371.42-.578.694-1.166 1.382-1.763 2.061a115.512 115.512 0 0 1-11.561 11.42c-1.973 1.696-4.021 3.288-6.068 4.89-1.482 1.16 1.676-1.217 1.547-1.137-.562.356-1.101.789-1.647 1.173a128.58 128.58 0 0 1-16.954 9.987 135.206 135.206 0 0 1-6.891 3.142c-.727.307-4.334 1.732-1.673.711 2.532-.972.352-.142-.287.09a138.534 138.534 0 0 1-16.967 4.997c-5.112 1.159-10.269 1.951-15.465 2.606-1.815.23 1.873-.184 1.76-.18-.666.016-1.354.122-2.019.174a139.668 139.668 0 0 1-11.632.439 139.132 139.132 0 0 1-15.646-.933c-1.172-.136-2.338-.31-3.507-.456-2.131-.264 3.31.572 1.195.197-.497-.087-.998-.168-1.495-.255-2.651-.471-5.29-1.02-7.909-1.65a129.596 129.596 0 0 1-14.49-4.386c-1.107-.407-2.205-.83-3.3-1.27-.626-.248-1.243-.52-1.87-.765-1.682-.656 1.654.739 1.567.697-2.413-1.211-4.893-2.273-7.292-3.52-7.692-3.989-18.314-2.51-22.76 5.704-4.063 7.506-2.535 18.491 5.703 22.764l-.01.029ZM471.725 683.622c.197 21.308 6.833 43.4 22.075 58.845 16.279 16.495 40.573 21.879 63.062 20.52 22.596-1.367 45.168-8.815 61.732-24.735 13.301-12.784 23.154-30.667 26.541-48.826 3.559-19.088 1.15-38.29-9.452-54.849-7.821-12.216-18.84-22.777-32.028-29.008-26.426-12.483-56.381-10.891-82.522 1.518-24.643 11.699-44.377 35.548-48.22 62.912-.639 4.547-1.172 9.03-1.185 13.623-.023 8.834 7.782 17.293 16.883 16.886 9.168-.41 16.857-7.419 16.882-16.886.004-1.547.042-3.087.143-4.631.106-1.641 1.104-7.151-.062-.753.527-2.881 1.021-5.736 1.828-8.559.326-1.143.688-2.28 1.079-3.401a70.55 70.55 0 0 1 .729-1.993c.582-1.508 1.89-2.849-.629 1.431 1.404-2.387 2.396-5.023 3.836-7.413a68.026 68.026 0 0 1 2.248-3.478c.93-1.347 3.833-4.147-.188.093 1.89-1.992 3.524-4.208 5.471-6.162 1.866-1.87 3.852-3.589 5.877-5.281 1.108-.924 2.626-1.382-1.518 1.156.578-.355 1.115-.83 1.667-1.224a80.08 80.08 0 0 1 4.014-2.684 80.318 80.318 0 0 1 6.63-3.717c1.033-.517 2.082-.995 3.126-1.486 1.346-.633 3.587-.963-1.489.61.872-.271 1.724-.688 2.58-1.007a83.844 83.844 0 0 1 15.365-4.099c.678-.113 1.376-.178 2.047-.317-5.651 1.163-3.206.394-1.75.265 1.143-.103 2.287-.219 3.433-.294a78.861 78.861 0 0 1 8.574-.08c1.253.058 2.502.145 3.752.264.675.065 1.36.194 2.035.223-5.616-.248-3.294-.481-1.789-.219 2.683.468 5.341 1.017 7.963 1.76 2.403.681 4.683 1.712 7.059 2.432-5.828-1.77-1.295-.536.307.265 1.224.61 2.425 1.26 3.607 1.947 2.199 1.283 4.205 2.791 6.304 4.215-5.096-3.462-.849-.6.358.482a61.237 61.237 0 0 1 5.984 6.169c.472.559.914 1.146 1.389 1.705-3.533-4.157-1.618-2.106-.856-1.04a67.911 67.911 0 0 1 4.831 7.845c.246.469.491.94.727 1.415.71 1.434.904 3.698-.162-.614.443 1.783 1.299 3.515 1.789 5.301a51.759 51.759 0 0 1 1.034 4.544c.31 1.718-.268 3.711-.068-.788-.055 1.211.232 2.526.287 3.743.155 3.524-.345 6.925-.426 10.42.113-4.987.284-2.112.029-.694a77.228 77.228 0 0 1-.568 2.835 75.101 75.101 0 0 1-1.479 5.624c-.569 1.866-1.253 3.682-1.909 5.519-1.208 3.372 1.696-3.691.204-.432-.272.591-.536 1.185-.814 1.77a80.318 80.318 0 0 1-7.379 12.499c-.93 1.292-2.845 2.487.329-.371-1.359 1.224-2.448 2.945-3.707 4.292a68.635 68.635 0 0 1-3.291 3.295 61.13 61.13 0 0 1-2.057 1.844c-.461.397-.93.788-1.401 1.169-1.366 1.085-.943.759 1.269-.978-3.368 1.769-6.368 4.195-9.83 5.897-1.056.52-2.206 1.202-3.333 1.544 4.256-1.295.317-.19-.513.113a85.79 85.79 0 0 1-7.011 2.209 89.943 89.943 0 0 1-8.399 1.829c-.727.122-1.67.364-2.432.377 4.925-.084-.591-.009-1.628.071a99.614 99.614 0 0 1-15.623.026c-.588-.045-3.055.058-3.472-.339 2.564.362 2.91.401 1.034.12a90.242 90.242 0 0 1-2.287-.407 67.164 67.164 0 0 1-6.736-1.667c-1.104-.336-2.176-.749-3.274-1.098-1.718-.669-1.438-.53.836.417a49.083 49.083 0 0 1-2.08-.969c-2.083-1.027-3.972-2.271-5.955-3.463-3.387-2.038 2.749 2.507-.019.052-1.043-.924-2.096-1.819-3.087-2.8a48.806 48.806 0 0 1-2.141-2.265 36.628 36.628 0 0 1-1.011-1.182c-.804-.978-.462-.516 1.03 1.386-.135-.694-1.392-1.938-1.795-2.548a57.541 57.541 0 0 1-2.174-3.56c-.897-1.595-1.556-4.344-2.79-5.642.297.694.598 1.389.895 2.083a68.18 68.18 0 0 1-2.057-6.017 75.91 75.91 0 0 1-1.528-6.211c-.21-1.05-.374-2.103-.568-3.153-.275-1.844-.223-1.408.161 1.315a80.314 80.314 0 0 1-.223-2.122 89.147 89.147 0 0 1-.352-7.416c-.08-8.83-7.708-17.296-16.882-16.886-9.078.407-16.97 7.423-16.883 16.886l-.003.003ZM298.766 1214.98c10.518 14.27 25.76 25.93 43.56 28.91 19.011 3.18 38.016-5.03 52.512-16.91 14.567-11.94 26.151-27.97 29.558-46.77 2.735-15.1.662-31.96-5.903-45.85-6.905-14.61-17.887-26.38-33.104-32.37-11.225-4.42-23.8-6.17-35.729-3.94-23.897 4.47-43.315 20.15-54.889 41.26-10.911 19.9-12.591 45.6-1.844 65.92 1.786 3.37 3.611 6.66 5.842 9.76 4.289 5.96 13.676 7.86 19.612 3.15 5.981-4.75 7.747-13.22 3.152-19.62a61.139 61.139 0 0 1-2.164-3.19c-.73-1.16-2.738-5.35-.407-.47-1.049-2.2-2.109-4.37-2.938-6.66a50.067 50.067 0 0 1-1.412-4.53c-.342-1.29-.113-2.84.272 1.28-.217-2.3-.834-4.56-1.027-6.87-.097-1.15-.155-2.3-.181-3.44-.029-1.37.562-4.67-.081.15.3-2.26.323-4.55.685-6.82.345-2.17.846-4.3 1.388-6.42.297-1.17 1.098-2.22-.458 1.52.216-.52.345-1.1.526-1.64.426-1.27.895-2.53 1.398-3.77a67.756 67.756 0 0 1 2.658-5.74c.446-.85.92-1.68 1.386-2.52.6-1.08 1.95-2.4-.708 1.14.456-.61.827-1.31 1.25-1.94a68.99 68.99 0 0 1 8.361-10.25c.4-.41.839-.8 1.227-1.22-3.242 3.54-1.97 1.83-1.05 1.03.72-.62 1.434-1.26 2.17-1.87a67.23 67.23 0 0 1 5.742-4.23c.872-.57 1.757-1.12 2.658-1.65.484-.28 1.011-.53 1.482-.84-3.907 2.57-2.454 1.28-1.311.72 2.038-.99 4.095-1.92 6.226-2.69 1.951-.71 3.992-1.13 5.945-1.81-4.792 1.65-1.133.28.336.03 1.121-.18 2.251-.33 3.381-.44 2.106-.21 4.195-.17 6.304-.23-5.125.15-.866 0 .478.15 1.175.12 2.347.28 3.51.49 1.185.21 2.361.46 3.526.75.591.15 1.176.33 1.77.47-4.408-1.08-2.118-.63-1.085-.28 2.425.81 4.789 1.8 7.082 2.93.394.19.788.39 1.179.6 1.175.62 2.412 2.05-.407-.34 1.165.99 2.586 1.74 3.788 2.7 1.007.81 1.979 1.67 2.909 2.56 1.047 1.01 1.628 2.63-.429-.49.555.84 1.388 1.59 2.018 2.38 1.821 2.3 3.142 4.83 4.789 7.23-2.354-3.42-.839-1.56-.32-.48.349.72.682 1.45.998 2.19.64 1.48 1.221 2.98 1.744 4.51.527 1.53.953 3.09 1.402 4.65.826 2.86-.656-3.31-.075-.39.107.53.217 1.06.314 1.59a67.337 67.337 0 0 1 1.12 12.03c0 1.32-.707 3.06.042-.41-.319 1.49-.213 3.17-.407 4.7a57.047 57.047 0 0 1-1.101 6.07c-.119.49-.242.98-.374 1.47-.391 1.4-.265.97.377-1.28-1.408 2.84-2.25 5.93-3.752 8.77-.459.87-.901 1.88-1.495 2.67 2.238-2.95.119-.29-.294.32a70.76 70.76 0 0 1-3.649 4.91 75.764 75.764 0 0 1-4.77 5.33c-.429.44-.946 1.06-1.453 1.44 3.278-2.46-.404.28-1.063.84a82.95 82.95 0 0 1-10.517 7.64c-.42.25-2.032 1.53-2.506 1.46 1.905-1 2.157-1.14.755-.42-.575.29-1.156.57-1.74.84a54.448 54.448 0 0 1-5.355 2.16c-.907.31-1.834.56-2.741.86-1.482.38-1.227.34.765-.13-.623.13-1.246.25-1.873.36-1.905.32-3.785.41-5.7.57-3.277.27 3.075.35.01.04-1.153-.11-2.299-.2-3.446-.38-.852-.14-1.701-.3-2.544-.48-.423-.1-.84-.2-1.26-.31-1.02-.27-.562-.12 1.37.43-.43-.4-1.883-.62-2.455-.84-1.082-.4-2.15-.85-3.2-1.34-1.382-.64-3.168-2.17-4.631-2.44.539.32 1.079.64 1.618.97-.494-.32-.985-.64-1.469-.98a56.735 56.735 0 0 1-2.852-2.08 64.61 64.61 0 0 1-4.056-3.44c-.652-.61-1.279-1.24-1.921-1.85-1.085-1.11-.837-.84.749.81-.4-.44-.794-.88-1.185-1.32a76.895 76.895 0 0 1-3.853-4.83c-4.359-5.92-13.624-7.91-19.611-3.15-5.92 4.69-7.825 13.27-3.152 19.61l.003-.01ZM1048.51 616.231c-17.52-2.648-36.54-.113-51.231 10.368-15.695 11.195-23.322 30.445-25.176 49.094-1.86 18.743 1.279 38.268 12.165 53.974 8.741 12.613 22.132 23.071 36.592 28.246 15.21 5.442 31.29 5.998 46.29-.527 11.06-4.812 21.19-12.47 28.05-22.483 13.74-20.061 16.38-44.879 9.64-67.989-6.35-21.788-23.33-41.148-45.29-47.915-3.65-1.124-7.27-2.154-11.04-2.771-7.24-1.185-15.22 4.112-16.09 11.64-.87 7.584 3.87 14.829 11.64 16.098 1.27.207 2.53.443 3.78.727 1.34.303 5.73 1.851.63.048 2.29.811 4.57 1.596 6.78 2.633a52.655 52.655 0 0 1 4.2 2.196c1.16.675 2.09 1.928-1.1-.707 1.78 1.469 3.81 2.632 5.58 4.131.88.742 1.74 1.511 2.57 2.306.98.943 2.9 3.695-.06-.168 1.39 1.815 2.99 3.449 4.34 5.306 1.29 1.78 2.44 3.637 3.56 5.527.61 1.033.79 2.338-.75-1.399.21.52.53 1.024.79 1.531a68.408 68.408 0 0 1 1.67 3.653 69.334 69.334 0 0 1 2.18 5.937c.29.917.54 1.841.81 2.764.34 1.189.31 3.075-.31-1.301.11.752.34 1.508.49 2.254a70.094 70.094 0 0 1 1.34 13.162c0 .572-.04 1.153-.02 1.725-.21-4.797.1-2.688.02-1.473-.07.953-.13 1.905-.22 2.858a64.525 64.525 0 0 1-1.06 7.054 77.817 77.817 0 0 1-.71 3.046c-.15.546-.34 1.092-.46 1.644.95-4.58.83-2.642.42-1.44-.74 2.141-1.54 4.253-2.49 6.308-.88 1.883-2.03 3.62-2.93 5.477 2.22-4.554.61-.994-.26.217-.66.924-1.36 1.828-2.08 2.706-1.34 1.638-2.84 3.088-4.29 4.622 3.52-3.73.6-.617-.44.23-.92.743-1.87 1.456-2.84 2.135-.98.691-1.99 1.346-3.02 1.967-.52.313-1.06.6-1.58.917 3.88-2.355 1.94-1.053.97-.565a55.811 55.811 0 0 1-7.09 2.932c-.41.142-.83.278-1.25.411-1.27.394-3.16.255.52-.052-1.52.126-3.05.601-4.58.772-1.29.142-2.58.223-3.87.249-1.46.029-3.01-.708.65.048-.99-.204-2.1-.142-3.11-.258-2.91-.336-5.64-1.199-8.5-1.725 4.08.752 1.7.513.56.116a61.244 61.244 0 0 1-6.67-2.797c-1.46-.714-2.86-1.515-4.28-2.296-2.61-1.438 2.81 1.879.33.222-.45-.3-.9-.597-1.35-.904a66.742 66.742 0 0 1-9.29-7.71c-.94-.933-1.67-2.664.26.32-.83-1.279-2.09-2.4-3.03-3.611-.8-1.02-1.55-2.067-2.28-3.139-.42-.637-.84-1.279-1.24-1.932-.27-.433-.52-.865-.78-1.305-.71-1.266-.5-.875.64 1.173-1.01-3.001-2.6-5.785-3.55-8.853-.28-.937-.69-1.97-.82-2.943.5 3.666.11.285-.03-.439a73.77 73.77 0 0 1-1.277-13.194c-.004-.614-.081-1.418.009-2.048-.581 4.057.088-.484.155-1.346a83.429 83.429 0 0 1 2.043-12.836c.11-.478.35-2.516.73-2.807-.63 2.058-.71 2.339-.23.834.21-.611.42-1.221.64-1.825a54.145 54.145 0 0 1 2.26-5.313c.42-.863.9-1.69 1.33-2.546.77-1.321.63-1.111-.45.634.34-.537.7-1.063 1.07-1.58 1.11-1.576 2.39-2.962 3.63-4.435 2.11-2.516-2.43 1.929-.04-.022.89-.733 1.77-1.483 2.71-2.164.69-.51 1.41-.995 2.14-1.46.36-.233.73-.459 1.1-.675.91-.533.49-.31-1.27.662.59-.019 1.77-.888 2.33-1.14 1.05-.478 2.12-.917 3.21-1.315 1.43-.526 3.77-.707 5-1.547l-1.83.462a58.79 58.79 0 0 1 5.22-.898c1.76-.219 3.53-.365 5.3-.433.89-.035 1.78-.032 2.66-.051 1.56.016 1.19.003-1.1-.042.59.026 1.19.055 1.78.097a75 75 0 0 1 6.13.688c7.27 1.098 15.23-4.047 16.1-11.641.87-7.509-3.86-14.922-11.64-16.098l-.01-.003ZM1237.62 263.397c-11.01 8.123-20.01 19.896-22.31 33.643-2.46 14.683 3.88 29.359 13.05 40.557 9.22 11.25 21.59 20.196 36.11 22.829 11.66 2.112 24.68.513 35.4-4.561 11.28-5.332 20.37-13.814 24.99-25.567 3.42-8.669 4.77-18.382 3.04-27.596-3.45-18.456-15.55-33.455-31.85-42.392-15.36-8.427-35.2-9.726-50.89-1.425-2.61 1.379-5.14 2.791-7.54 4.512-4.6 3.314-6.07 10.562-2.43 15.145 3.66 4.619 10.2 5.985 15.14 2.436.8-.579 1.62-1.141 2.46-1.67.9-.562 4.14-2.116.37-.314 1.7-.81 3.37-1.627 5.14-2.27.72-.262 1.44-.501 2.18-.72.43-.13.87-.256 1.31-.372 1.01-.265 2.19-.087-.98.21 1.77-.168 3.52-.643 5.3-.791a42.3 42.3 0 0 1 2.66-.139c1.05-.023 3.6.436-.12-.062 1.75.233 3.52.249 5.27.53 1.67.268 3.31.653 4.96 1.072.9.23 1.71.847-1.17-.355.4.168.84.268 1.26.407a52.71 52.71 0 0 1 7.34 3.13c.65.342 1.3.71 1.95 1.069.83.462 1.85 1.505-.88-.546.47.352 1 .64 1.49.966a53.944 53.944 0 0 1 7.92 6.456c.31.31.61.65.93.947-2.73-2.503-1.41-1.522-.79-.811.48.559.97 1.108 1.44 1.676a48.686 48.686 0 0 1 3.27 4.435c.45.675.87 1.356 1.28 2.051.22.375.41.782.65 1.143-1.98-3.02-.99-1.896-.56-1.014.77 1.573 1.48 3.162 2.08 4.809.55 1.509.87 3.082 1.39 4.593-1.27-3.701-.21-.875-.02.259.14.865.26 1.737.34 2.613.16 1.627.13 3.239.18 4.867-.12-3.957-.01-.669-.12.368a35.6 35.6 0 0 1-.38 2.713c-.16.914-.35 1.825-.58 2.726-.11.459-.25.908-.36 1.367.83-3.405.49-1.635.22-.837a43.263 43.263 0 0 1-2.27 5.468c-.15.304-.3.611-.46.911-.48.908-1.58 1.864.26-.317-.76.902-1.34 2-2.08 2.927-.62.778-1.29 1.527-1.98 2.248-.78.807-2.03 1.256.39-.333-.66.43-1.23 1.072-1.84 1.56-1.78 1.408-3.74 2.426-5.59 3.701 2.64-1.818 1.21-.646.37-.245a47.62 47.62 0 0 1-5.17 2.119c-1.18.407-2.39.733-3.59 1.082-2.21.639 2.56-.507.3-.058-.41.08-.81.168-1.22.242a51.974 51.974 0 0 1-9.29.862c-1.02 0-2.36-.546.32.033-1.15-.249-2.45-.165-3.63-.314-.99-.126-1.98-.281-2.95-.471a41.6 41.6 0 0 1-1.74-.378c-.38-.091-.76-.188-1.13-.291-1.08-.303-.75-.207.98.291-2.19-1.085-4.58-1.738-6.76-2.897-.67-.356-1.46-.698-2.06-1.153 2.27 1.728.22.093-.25-.227a54.892 54.892 0 0 1-3.8-2.819 57.938 57.938 0 0 1-4.11-3.685c-.34-.333-.82-.73-1.11-1.124 1.9 2.532-.22-.311-.65-.821a63.406 63.406 0 0 1-5.89-8.123c-.2-.323-1.18-1.57-1.13-1.935.78 1.473.88 1.667.33.582-.23-.446-.44-.892-.65-1.344a41.527 41.527 0 0 1-1.67-4.134c-.24-.701-.43-1.415-.66-2.119-.3-1.147-.27-.95.1.591-.11-.481-.2-.962-.28-1.447-.25-1.469-.32-2.923-.44-4.402-.22-2.532-.27 2.374-.04.01.09-.892.16-1.777.3-2.662.1-.659.23-1.314.37-1.967.07-.326.15-.649.24-.972.2-.788.09-.436-.33 1.056.31-.333.48-1.453.64-1.896.32-.836.66-1.66 1.04-2.471.49-1.069 1.67-2.445 1.88-3.575-.25.417-.49.833-.74 1.25a48.302 48.302 0 0 1 2.35-3.337 48.351 48.351 0 0 1 2.66-3.133c.47-.503.96-.988 1.43-1.482.86-.84.65-.646-.62.581.33-.31.67-.613 1.02-.914a60.92 60.92 0 0 1 3.72-2.974c4.57-3.366 6.1-10.523 2.44-15.145-3.63-4.574-10.25-6.043-15.14-2.436h-.01ZM379.996 680.758c-10.075 6.046-20.151 12.089-30.226 18.135-5.128 3.078-10.26 6.156-15.388 9.231-5.742 3.443-11.748 6.957-15.2 12.936-4.15 7.186-4.163 15.897-.272 23.207 3.039 5.703 8.142 10.099 13.418 13.649 9.617 6.473 19.531 12.542 29.287 18.804 11.302 7.254 22.608 14.506 33.911 21.76.274-9.005.549-18.013.82-27.018-20.509 11.017-41.048 21.982-61.531 33.051-6.31 3.408-11.962 7.897-14.413 14.89-3.358 9.583 1.576 18.643 9.172 24.379 9.061 6.841 19.143 12.622 28.64 18.843l33.424 21.898c6.823 4.471 17.425 2.097 21.433-5.112 4.198-7.549 2.189-16.654-5.112-21.437l-33.424-21.898c-5.389-3.534-10.782-7.064-16.172-10.598-2.874-1.883-5.751-3.766-8.626-5.652-.946-.62-4.805-3.85-1.495-.717-2.567-2.81-1.831-.401 2.206 7.222a8.232 8.232 0 0 1-.849 3.614 6.648 6.648 0 0 1-1.967 3.081c1.25-1.085.775-.797-1.427.869 1.104-.481 2.221-1.321 3.287-1.899 3.032-1.641 6.078-3.265 9.116-4.896 5.697-3.062 11.393-6.121 17.093-9.183 11.774-6.324 23.548-12.648 35.322-18.975 10.547-5.666 10.731-20.659.821-27.018-11.484-7.367-22.967-14.738-34.451-22.105-5.383-3.453-10.766-6.909-16.146-10.362l-8.613-5.526c-1.33-.853-2.677-1.683-3.988-2.568a40.405 40.405 0 0 1-1.524-1.069c-1.318-1.008-1.014-.752.917.762-.036-.242-2.328-2.551-2.606-2.671 1.501 2.219 1.821 2.62.956 1.199-.727-1.528-.543-.999.545 1.582.094 2.681.152 3.204.178 1.576a8.248 8.248 0 0 1-1.175 4.244c-1.689 1.903-1.957 2.255-.805 1.06 1.292-1.092.895-.853-1.198.71 2.287-.875 4.654-2.868 6.772-4.137 2.932-1.757 5.861-3.517 8.794-5.274l35.173-21.104c6.979-4.186 10.844-13.589 6.401-21.085-4.134-6.97-13.596-10.894-21.081-6.402l.003.004ZM1303.42 541.356c-10.28-5.702-20.55-11.406-30.82-17.109-5.23-2.902-10.46-5.807-15.69-8.71-5.85-3.251-11.9-6.696-18.8-6.696-8.3-.001-15.85 4.343-20.24 11.368-3.42 5.484-4.67 12.1-5.11 18.445-.8 11.565-1.1 23.185-1.64 34.765l-1.89 40.248c7.94-4.265 15.87-8.531 23.81-12.799-19.8-12.253-39.56-24.557-59.39-36.762-6.11-3.761-12.82-6.41-20.1-5.037-9.98 1.883-15.36 10.686-16.53 20.132-1.39 11.268-1.36 22.89-2 34.225l-2.25 39.895c-.46 8.145 6.9 16.139 15.14 16.005 8.64-.138 15.52-6.43 16.01-15.145.75-13.298 1.51-26.597 2.26-39.895.36-6.434.72-12.87 1.09-19.304.19-3.431.38-6.864.58-10.296.06-1.13.93-6.087-.13-1.654 1.15-3.628-.57-1.786-5.15 5.522-1.11.631-2.3.988-3.55 1.071-1.22.289-2.43.233-3.65-.162 1.56.539 1.07.272-1.47-.802.97.716 2.25 1.263 3.29 1.897 2.93 1.806 5.86 3.631 8.8 5.447 5.5 3.402 10.99 6.806 16.49 10.212 11.37 7.034 22.73 14.069 34.1 21.102 10.18 6.301 23.26-1.036 23.81-12.799l1.92-40.887c.29-6.389.6-12.779.9-19.164.15-3.407.32-6.815.48-10.222.07-1.579.11-3.16.23-4.738.04-.62.09-1.237.16-1.854.21-1.645.14-1.255-.2 1.175.19-.152 1.04-3.292 1.01-3.593-1.17 2.41-1.36 2.887-.56 1.427.96-1.393.59-.968-1.1 1.264-2.27 1.422-2.7 1.734-1.28.942a8.244 8.244 0 0 1-4.26 1.104c-2.49-.511-2.93-.567-1.32-.166 1.59.572 1.19.348-1.21-.683 1.9 1.543 4.81 2.596 6.97 3.796 2.98 1.661 5.97 3.317 8.96 4.978 11.96 6.638 23.91 13.272 35.86 19.91 7.12 3.95 17.19 2.597 21.46-5 3.97-7.064 2.64-17.221-4.99-21.457v.004ZM1347.41 212.162c8.15 0 15.96-7.167 15.58-15.581-.38-8.443-6.84-15.581-15.58-15.581-8.14 0-15.95 7.167-15.58 15.581.38 8.443 6.85 15.581 15.58 15.581Z" fill="#fff"/><path d="M1155.13 680.073c8.15 0 15.96-7.167 15.58-15.581-.38-8.443-6.85-15.581-15.58-15.581-8.15 0-15.96 7.167-15.58 15.581.38 8.443 6.85 15.581 15.58 15.581ZM826.002 893.919c8.148 0 15.957-7.167 15.579-15.581-.378-8.443-6.846-15.581-15.579-15.581-8.147 0-15.956 7.167-15.578 15.581.378 8.443 6.846 15.581 15.578 15.581ZM606.636 833.253c8.147 0 15.956-7.167 15.578-15.581-.378-8.443-6.846-15.581-15.578-15.581-8.148 0-15.956 7.167-15.579 15.581.378 8.443 6.846 15.581 15.579 15.581ZM236.64 695.653c8.148 0 15.956-7.167 15.579-15.58-.378-8.443-6.847-15.581-15.579-15.581-8.147 0-15.956 7.167-15.578 15.581.378 8.442 6.846 15.58 15.578 15.58ZM617.754 1094.02c8.148 0 15.956-7.16 15.578-15.58-.378-8.44-6.846-15.58-15.578-15.58-8.148 0-15.956 7.17-15.578 15.58.378 8.44 6.846 15.58 15.578 15.58ZM1215.21 1010.1c8.14 0 15.95-7.17 15.57-15.58-.37-8.443-6.84-15.581-15.57-15.581-8.15 0-15.96 7.167-15.58 15.581.38 8.44 6.84 15.58 15.58 15.58Z" fill="#fff"/><path d="m1018.16 1061.21-132.684-32.82c-27.782-6.87-56.257 8.5-65.723 35.51l-45.233 128.94c-14.213 40.55-67.158 50.26-94.866 17.4l-88.043-104.51c-18.439-21.89-50.523-26.16-74.054-9.88l-112.39 77.74c-35.346 24.47-83.891 1.19-86.955-41.66l-9.789-136.283c-2.051-28.541-25.483-50.855-54.106-51.522l-136.638-3.163c-42.983-.988-68.566-48.334-45.85-84.808l72.199-116.018c15.127-24.291 9.294-56.119-13.471-73.466L21.875 583.839c-34.185-26.045-27.066-79.396 12.778-95.557l126.628-51.424c26.521-10.774 40.512-39.933 32.281-67.362l-39.227-130.894c-12.334-41.168 24.792-80.137 66.515-69.808l132.683 32.816c27.782 6.87 56.257-8.501 65.723-35.51l45.233-128.941c14.213-40.551 67.157-50.263 94.866-17.397l88.043 104.503c18.439 21.894 50.522 26.169 74.053 9.884l112.39-77.74c35.346-24.465 83.891-1.187 86.956 41.662l9.788 136.281c2.052 28.541 25.484 50.855 54.107 51.522l136.638 3.163c42.98.989 68.57 48.335 45.85 84.808l-72.2 116.018c-15.13 24.291-9.29 56.119 13.47 73.466l108.68 82.831c34.19 26.046 27.07 79.397-12.77 95.558l-126.63 51.423c-26.52 10.774-40.51 39.933-32.28 67.362l39.22 130.894c12.34 41.173-24.79 80.133-66.51 69.813Z" fill="#26D1E1"/></svg>