<svg width="608" height="222" fill="none" xmlns="http://www.w3.org/2000/svg"><g clip-path="url('#clip0_61_200')" opacity=".9"><path d="M434.031-48.394c3.452-5.978 11.097-8.027 17.075-4.575l47.632 27.5c5.978 3.452 8.027 11.097 4.575 17.075l-13.284 23.01c-3.452 5.978-11.097 8.026-17.075 4.575L449.138 5.44l-15.229-8.793a33.497 33.497 0 0 0-19.436-4.38l-4.109.33 2.383-4.126 21.284-36.866ZM352.589 83.606c3.452-5.978 11.097-8.027 17.075-4.575l47.632 27.5c5.978 3.452 8.027 11.097 4.575 17.075l-13.284 23.009c-3.452 5.979-11.097 8.027-17.075 4.575l-23.816-13.75-15.229-8.792a33.502 33.502 0 0 0-19.436-4.38l-4.109.33 2.383-4.126 21.284-36.866ZM285.031 215.606c3.452-5.978 11.097-8.027 17.075-4.575l47.632 27.5c5.978 3.452 8.027 11.097 4.575 17.075l-13.284 23.009c-3.452 5.979-11.097 8.027-17.075 4.575l-23.816-13.75-15.229-8.792a33.5 33.5 0 0 0-19.436-4.38l-4.109.33 2.383-4.126 21.284-36.866ZM168.589-20.394c3.452-5.978 11.097-8.027 17.075-4.575l47.632 27.5c5.978 3.452 8.027 11.097 4.575 17.075l-13.284 23.01c-3.452 5.978-11.097 8.026-17.075 4.575l-23.816-13.75-15.229-8.793a33.5 33.5 0 0 0-19.436-4.38l-4.109.33 2.383-4.126 21.284-36.866ZM101.031 111.606c3.452-5.978 11.097-8.027 17.075-4.575l47.632 27.5c5.978 3.452 8.027 11.097 4.575 17.075l-13.284 23.009c-3.452 5.979-11.097 8.027-17.075 4.575l-23.816-13.75-15.229-8.792a33.502 33.502 0 0 0-19.436-4.38l-4.109.33 2.383-4.126 21.284-36.866ZM578.543 123.433c3.452-5.979 1.404-13.624-4.575-17.075l-47.631-27.5c-5.979-3.452-13.624-1.404-17.076 4.575l-13.284 23.009c-3.452 5.978-1.403 13.623 4.575 17.075l23.816 13.75 15.229 8.792a33.5 33.5 0 0 1 13.512 14.643l1.767 3.723 2.383-4.127 21.284-36.865ZM394.543 19.433c3.452-5.979 1.404-13.624-4.575-17.075l-47.631-27.5c-5.979-3.452-13.624-1.404-17.076 4.575L311.977 2.442c-3.452 5.978-1.403 13.623 4.575 17.075l23.816 13.75 15.229 8.792a33.502 33.502 0 0 1 13.512 14.643l1.767 3.723 2.383-4.127 21.284-36.865ZM497.101 255.433c3.452-5.979 1.404-13.624-4.575-17.075l-47.631-27.5c-5.979-3.452-13.624-1.404-17.076 4.575l-13.284 23.009c-3.452 5.978-1.403 13.623 4.575 17.075l23.816 13.75 15.229 8.792a33.5 33.5 0 0 1 13.512 14.643l1.767 3.723 2.383-4.127 21.284-36.865ZM313.101 151.433c3.452-5.979 1.404-13.624-4.575-17.075l-47.631-27.5c-5.979-3.452-13.624-1.404-17.076 4.575l-13.284 23.009c-3.452 5.978-1.403 13.623 4.575 17.075l23.816 13.75 15.229 8.792a33.5 33.5 0 0 1 13.512 14.643l1.767 3.723 2.383-4.127 21.284-36.865ZM527.703 4.667C531.155-1.31 538.8-3.36 544.779.092l47.631 27.5c5.979 3.452 8.027 11.096 4.575 17.075l-13.284 23.009c-3.452 5.979-11.097 8.027-17.075 4.575l-23.816-13.75-15.229-8.792a33.498 33.498 0 0 0-19.436-4.38l-4.109.33 2.383-4.127 21.284-36.865ZM446.261 136.667c3.452-5.978 11.097-8.027 17.076-4.575l47.631 27.5c5.979 3.452 8.027 11.097 4.575 17.075l-13.284 23.009c-3.452 5.979-11.097 8.027-17.075 4.575l-23.816-13.75-15.229-8.792a33.493 33.493 0 0 0-19.436-4.38l-4.109.33 2.383-4.127 21.284-36.865ZM262.261 32.667c3.452-5.979 11.097-8.027 17.075-4.575l47.632 27.5c5.978 3.452 8.027 11.097 4.575 17.075l-13.284 23.009c-3.452 5.979-11.097 8.027-17.075 4.575l-23.816-13.75-15.229-8.792a33.498 33.498 0 0 0-19.436-4.38l-4.109.33 2.383-4.127 21.284-36.865ZM194.703 164.667c3.452-5.978 11.097-8.027 17.076-4.575l47.631 27.5c5.979 3.452 8.027 11.097 4.575 17.075l-13.284 23.009c-3.452 5.979-11.097 8.027-17.075 4.575l-23.816-13.75-15.229-8.792a33.493 33.493 0 0 0-19.436-4.38l-4.109.33 2.383-4.127 21.284-36.865ZM485.755 68.84c3.452-5.978 1.404-13.623-4.575-17.075l-47.632-27.5c-5.978-3.451-13.623-1.403-17.075 4.576l-13.284 23.008c-3.452 5.98-1.403 13.624 4.575 17.076l23.816 13.75 15.229 8.792a33.497 33.497 0 0 1 13.511 14.643l1.768 3.723 2.383-4.127 21.284-36.865ZM301.755-35.16c3.452-5.978 1.403-13.623-4.575-17.075l-47.632-27.5c-5.978-3.451-13.623-1.403-17.075 4.576L219.189-52.15c-3.452 5.978-1.403 13.623 4.575 17.075l23.816 13.75 15.229 8.792A33.499 33.499 0 0 1 276.32 2.11l1.768 3.723 2.383-4.127 21.284-36.865ZM404.313 200.841c3.452-5.979 1.403-13.624-4.575-17.076l-47.632-27.5c-5.978-3.451-13.623-1.403-17.075 4.576l-13.284 23.009c-3.452 5.978-1.403 13.623 4.575 17.075l23.816 13.75 15.229 8.792a33.498 33.498 0 0 1 13.511 14.643l1.768 3.723 2.383-4.127 21.284-36.865ZM220.313 96.84c3.452-5.978 1.403-13.623-4.575-17.075l-47.632-27.5c-5.978-3.451-13.623-1.403-17.075 4.576L137.747 79.85c-3.452 5.978-1.403 13.623 4.575 17.075l23.816 13.75 15.229 8.792a33.498 33.498 0 0 1 13.511 14.643l1.768 3.723 2.383-4.127 21.284-36.865ZM78.589-70.394c3.452-5.978 11.097-8.027 17.075-4.575l47.632 27.5c5.978 3.452 8.027 11.097 4.575 17.075l-13.284 23.01C131.135-1.407 123.49.641 117.512-2.81L93.696-16.56l-15.229-8.792a33.5 33.5 0 0 0-19.436-4.38l-4.109.33 2.383-4.126 21.284-36.866ZM130.313 46.84c3.452-5.978 1.403-13.623-4.575-17.075l-47.632-27.5C72.128-1.186 64.483.862 61.031 6.841L47.747 29.849c-3.452 5.98-1.403 13.624 4.575 17.076l23.816 13.75 15.229 8.792a33.495 33.495 0 0 1 13.511 14.643l1.768 3.723 2.383-4.127 21.284-36.865ZM142.313 228.841c3.452-5.979 1.403-13.624-4.575-17.076l-47.632-27.5c-5.978-3.451-13.623-1.403-17.075 4.576L59.747 211.85c-3.452 5.978-1.403 13.623 4.575 17.075l23.816 13.75 15.229 8.792a33.498 33.498 0 0 1 13.511 14.643l1.768 3.723 2.383-4.127 21.284-36.865ZM-4.411 76.606c3.452-5.978 11.097-8.027 17.075-4.575l47.632 27.5c5.978 3.452 8.027 11.097 4.575 17.075l-13.284 23.009c-3.452 5.979-11.097 8.027-17.076 4.575l-23.815-13.75-15.229-8.792a33.503 33.503 0 0 0-19.436-4.38l-4.109.33 2.383-4.126 21.284-36.866ZM47.313 193.841c3.452-5.979 1.404-13.624-4.575-17.076l-47.632-27.5c-5.978-3.451-13.623-1.403-17.075 4.576l-13.284 23.009c-3.452 5.978-1.403 13.623 4.575 17.075l23.816 13.75 15.229 8.792a33.5 33.5 0 0 1 13.511 14.643l1.768 3.723 2.383-4.127 21.284-36.865Z" stroke="#fff" stroke-width="7"/><g clip-path="url('#clip1_61_200')"><path d="m282.247 63.808 11.687-7.182a1.63 1.63 0 0 1 2.242.543l.225.366c.489.797.243 1.84-.549 2.326l-11.64 7.153a1.63 1.63 0 0 1-2.242-.543l-.255-.415a1.633 1.633 0 0 1 .53-2.246l.002-.002Z" fill="#2974A2"/><path d="m286.176 65.408 7.629-4.689a1.661 1.661 0 0 1 2.283.553l.224.366a1.663 1.663 0 0 1-.539 2.288l-7.63 4.688a1.661 1.661 0 0 1-2.283-.553l-.224-.366a1.663 1.663 0 0 1 .54-2.287Z" fill="#2974A2"/><path d="M284.098 56.265c8.681-4.77 11.829-15.716 7.03-24.45-4.798-8.733-15.725-11.947-24.406-7.177s-11.829 15.716-7.031 24.45c4.799 8.733 15.726 11.946 24.407 7.177Z" fill="#FFEE19"/><path d="m276.614 57.885 5.738 4.45 10.546-6.633-1.749-8.773-14.535 10.956Z" fill="#FFEE19"/><path d="M284.395 60.542a89.076 89.076 0 0 1-6.482-6.758c-2.06-2.386-4.066-4.88-5.801-7.513-.746-1.135-1.456-2.694-.688-3.998.662-1.125 2.178-1.419 3.352-1.045 1.293.415 2.36 1.503 3.061 2.64.373.604.649 1.335.418 2.039-.205.626-.791 1.103-1.471.91-1.095-.312-1.624-1.751-1.848-2.74-.292-1.288-.105-2.683.88-3.625.985-.942 2.346-1.233 3.62-.986 1.275.248 2.465 1.022 3.362 1.983.506.54 1.015 1.223.932 2.005-.083.783-.721 1.21-1.462 1.043-.741-.167-1.222-.824-1.556-1.452a5.022 5.022 0 0 1-.555-1.72c-.153-1.17.168-2.423 1.094-3.193.822-.686 2.083-.978 3.065-.448 1.316.709 1.585 2.384 1.737 3.728.167 1.496.335 2.984.607 4.465a48.656 48.656 0 0 0 3.283 10.758c.074.17.326.032.251-.138a48.708 48.708 0 0 1-3.116-9.95c-.338-1.707-.55-3.421-.74-5.15-.157-1.423-.455-3.139-1.811-3.924-1.003-.582-2.289-.383-3.212.253-1.022.703-1.509 1.903-1.479 3.13.031 1.286.591 2.838 1.676 3.609.507.359 1.216.496 1.78.194.564-.302.776-.932.73-1.526-.063-.795-.603-1.464-1.14-2.012a7.398 7.398 0 0 0-1.666-1.29c-1.203-.674-2.627-.945-3.956-.528-1.328.416-2.377 1.42-2.654 2.796-.253 1.256.065 2.706.732 3.796.563.92 1.778 1.802 2.743.852 1.107-1.087.321-2.678-.467-3.688-.861-1.107-2.063-2.117-3.506-2.256-1.246-.119-2.609.454-3.094 1.668-.597 1.495.231 3.05 1.068 4.265a89.043 89.043 0 0 0 12.114 14.01c.135.126.342-.072.207-.2l-.008-.004Z" fill="#36B3FF"/><path d="m293.056 53.055-13.313 8.181a1.663 1.663 0 0 0-.54 2.288l.223.364a1.66 1.66 0 0 0 2.283.553l13.314-8.182a1.663 1.663 0 0 0 .54-2.287l-.224-.364a1.66 1.66 0 0 0-2.283-.553Z" fill="#2974A2"/><path d="m281.566 64.659 10.467-6.368c.991-.602 1.98-1.203 2.97-1.808.156-.096.02-.35-.139-.252l-10.467 6.367c-.991.602-1.98 1.203-2.97 1.808-.157.096-.02.35.139.253ZM285.359 66.57l9.952-6.21c.156-.097.019-.35-.139-.253l-9.952 6.21c-.156.096-.019.35.139.253Z" fill="#36B3FF"/></g></g><defs><clipPath id="clip0_61_200"><rect width="608" height="222" rx="24" fill="#fff"/></clipPath><clipPath id="clip1_61_200"><path fill="#fff" transform="rotate(-28.785 190.33 -472.423)" d="M0 0h35.871v48.859H0z"/></clipPath></defs></svg>