<svg width="319" height="327" fill="none" xmlns="http://www.w3.org/2000/svg"><g clip-path="url('#clip0_168_533')"><path d="m-11.764 468.681 11.39-47.654c2.385-9.979-2.95-20.206-12.325-23.606l-44.757-16.246c-14.075-5.104-17.446-24.12-6.038-34.072l36.273-31.621c7.6-6.623 9.084-18.146 3.431-26.597l-26.984-40.366c-8.491-12.695-.411-30.131 14.462-31.232l47.303-3.515c9.907-.737 17.653-9.153 17.884-19.433l1.098-49.075c.343-15.438 16.777-24.626 29.437-16.468l40.27 25.932c8.432 5.433 19.48 3.338 25.501-4.839l28.751-39.034c9.041-12.278 27.559-9.721 33.169 4.59l17.849 45.479c3.74 9.526 13.861 14.55 23.382 11.594l45.434-14.088c14.29-4.43 27.816 8.904 24.231 23.889l-11.391 47.654c-2.384 9.979 2.951 20.206 12.326 23.606l44.756 16.246c14.075 5.104 17.446 24.12 6.039 34.072l-36.274 31.621c-7.599 6.623-9.083 18.146-3.431 26.597l26.984 40.366c8.492 12.695.412 30.131-14.461 31.232l-47.304 3.515c-9.907.737-17.652 9.153-17.883 19.433l-1.098 49.075c-.343 15.438-16.778 24.626-29.438 16.468l-40.27-25.932c-8.432-5.433-19.479-3.338-25.501 4.839L132.3 540.145c-9.04 12.278-27.559 9.721-33.168-4.59l-17.85-45.479c-3.74-9.526-13.86-14.55-23.381-11.594L12.467 492.57c-14.29 4.43-27.816-8.904-24.231-23.889Z" fill="#fff"/><path opacity=".1" d="M336.135 218.113a34.736 34.736 0 0 1-1.226 8.783l4.089 4.024c.982.957 1.172 2.498.496 3.694l-4.361 7.595c-.685 1.21-2.08 1.752-3.368 1.309l-5.355-1.807a31.96 31.96 0 0 1-6.844 5.311l.155 5.91c.031 1.343-.837 2.551-2.1 2.871l-8.402 2.221c-1.25.329-2.566-.285-3.159-1.491l-2.59-5.267a31.25 31.25 0 0 1-8.464-1.272l-4.245 4.64a2.155 2.155 0 0 1-2.73.395l-8.232-5.072a2.318 2.318 0 0 1-.973-2.677l1.907-6.082a32.963 32.963 0 0 1-5.118-7.102l-5.221.139c-1.578.043-2.992-1.057-3.376-2.646l-1.894-7.735c-.397-1.598.334-3.257 1.74-4.004l4.648-2.463a34.69 34.69 0 0 1 1.225-8.783l-4.341-4.282a2.58 2.58 0 0 1-.412-3.122l4.72-8.228c.582-1.007 1.766-1.474 2.842-1.11l5.699 1.913a31.911 31.911 0 0 1 6.844-5.311l-.153-5.851c-.028-1.38.856-2.615 2.149-2.955l8.294-2.194c1.293-.34 2.636.292 3.248 1.528l2.565 5.214c2.898.038 5.747.467 8.465 1.272l4.307-4.715c.679-.734 1.729-.884 2.566-.366l8.411 5.206c.837.518 1.211 1.564.916 2.525l-1.93 6.183a33.015 33.015 0 0 1 5.118 7.101l5.504-.149c1.408-.036 2.67.947 3.018 2.378l2.048 8.314c.348 1.432-.297 2.916-1.562 3.581l-4.891 2.594-.027-.017Zm-18.137-.92c-.841-10.091-10.813-16.242-19.757-12.183-5.416 2.449-8.807 8.385-8.309 14.496.841 10.09 10.813 16.242 19.757 12.183 5.416-2.45 8.807-8.386 8.309-14.496Z" fill="#39DBEA"/><path d="m80.99 263.106-5.842-10.393a3.277 3.277 0 0 0-5.843.165l-5.287 10.682c-.278.578-.755 1.072-1.272 1.402l-10.017 6.063c-2.265 1.361-2.186 4.826.16 6.063l10.294 5.486c.557.288 1.034.783 1.352 1.32l5.843 10.393a3.277 3.277 0 0 0 5.843-.165l5.287-10.682c.278-.578.755-1.072 1.272-1.402l10.016-6.063c2.266-1.361 2.187-4.826-.159-6.063l-10.295-5.486c-.556-.288-1.033-.783-1.351-1.32Z" fill="#ECFCFD"/><g clip-path="url('#clip1_168_533')"><path d="m79.547 276.808.325-1.899 5.067-17.373 5.79-14.043 16.931-5.523 10.306 6.332c.043-.239-.324 1.009-.708 3.977 0 0-4.583 21.638-8.173 25.082-3.329 3.199-8.867 2.095-10.667 3.957-2.237 2.32-4.377 9.213-4.377 9.213s-13.445-3.234-14.5-9.735l.007.012Z" fill="#1BA0F8"/><path d="m101.966 276.055-2.091.318c-.735.476-2.004 1.124-2.242 1.972-3.562-1.921-5.79-4.894-7.557-8.537 4.031 3.001 7.11 4.705 11.89 6.247Z" fill="#0F486D"/><path d="M95.173 235.166c2.415-3.27 6.849-4.643 10.864-4.045 4.011.608 7.602 2.949 10.431 5.866 2.828 2.918 4.974 6.401 7.105 9.859a7.754 7.754 0 0 1-5.679-1.424 8.099 8.099 0 0 0 3.839 3.72c-4.474.754-9.27-.77-12.488-3.976a4.43 4.43 0 0 0 1.063 2.629c-4.244-.106-8.376-2.407-10.702-5.949a4.794 4.794 0 0 0 1.15 3.194c-2.013-.094-3.91-1.471-4.617-3.364.404 1.367-.69 2.735-1.897 3.518-1.194.776-2.619 1.317-3.477 2.454-1.694 2.238-.473 5.734-2.032 8.072-.259.398-.758.763-1.16.525-.543-.319-.177-1.121-.034-1.734.278-1.239-.807-2.452-2.031-2.78-1.224-.328-2.978.352-4.2.665.007-3.872.996-8.089 2.103-12.101.663-2.394 1.945-4.992 4.13-6.186 2.182-1.184 6.375-1.092 7.609 1.062" fill="#0179C9"/><path d="M90.959 229.729a4.892 4.892 0 0 1 3.205 2.324 4.89 4.89 0 0 1 .375 3.942M94.86 237.872c-.142-2.589.863-5.206 2.68-7.052" stroke="#171714" stroke-width=".05" stroke-linecap="round" stroke-linejoin="round"/><path d="M84.124 263.45c-1.936-.422-3.54-2.045-4.143-3.27-.818-1.684-.928-3.255-.314-5.022.615-1.767 2.114-3.275 3.951-3.619 1.838-.343 3.927.683 4.524 2.46" fill="#1BA0F8"/><path d="M83.628 253.973c1.713.849 2.907 2.667 3.004 4.57-.102-.429-.201-.867-.452-1.228-.25-.36-.688-.629-1.121-.55-.604.11-.913.776-1.05 1.369-.111.415-.172.843-.11 1.261.071.421.296.839.666 1.036" fill="#0F486D"/><path d="M83.628 253.973c1.626 1.011 2.66 2.775 2.74 4.586l.506-.07c-.117-1.345-1.564-2.904-2.693-1.362-.53 1.008-.81 2.702.374 3.301-.493-.348-.632-.961-.552-1.504.205-2.18 1.88-2.806 2.374-.319l.507-.07c-.114-2.006-1.456-3.874-3.256-4.562ZM102.114 261.541c-.014.051.616.209 1.592-.072a4.328 4.328 0 0 0 1.549-.844 4.68 4.68 0 0 0 .727-.771l.161-.239a.548.548 0 0 0 .074-.479c-.213-.416-.535-.35-.697-.393-.748-.081-1.453-.162-2.15-.229l.208.316c.483-1.802.759-3.074.647-3.104-.111-.03-.566 1.183-1.13 2.964-.035.131.026.267.157.302l.041.011c.692.088 1.404.181 2.147.283.094.014.167.023.218.036l.05.014c.006-.021.073-.068.057-.05.02.005-.043-.001-.073-.009l-.017.061-.13.204c-.19.263-.395.501-.622.701a4.735 4.735 0 0 1-1.346.855c-.854.357-1.469.344-1.463.443ZM96.725 264.254c.042-.076-.585-.244-.863-1.067-.133-.394-.125-.912.09-1.43.207-.531.61-1.02 1.115-1.492.23-.21.47-.417.694-.606l-.415-.111c1.003 2.287 2.605 3.389 2.655 3.283.114-.1-1.27-1.328-2.166-3.489a.279.279 0 0 0-.35-.148.3.3 0 0 0-.067.047c-.235.187-.475.394-.72.621-.531.487-.994 1.08-1.215 1.704-.232.622-.205 1.291.018 1.752.21.469.549.744.801.855.26.124.415.111.426.071l-.003.01Z" fill="#0F486D"/><path d="M89.195 289.28c.315.041-2.527 3.24-2.527 3.24l-3.692-1.314.238-4.126 3.015-2.632 2.182 1.041.784 3.791Z" fill="#EEB45B"/><path d="M193.912 295.84c-.294-1.088-1.652-1.484-2.58-.853-2.072 1.419-6.666 4.443-11.219 6.543-6.025 2.781-5.724 7.93-5.724 7.93l5.073 11.213s15.697-1.568 22.991-6.493c5.151-3.482 8.349-5.501 8.124-6.646-.234-1.149-2.399-1.284-2.399-1.284s1.424-1.593.653-3.167c-.771-1.574-3.978.28-3.978.28s1.468-2.526-.734-3.29c-2.202-.764-6.477 3.213-11.816 3.996-5.338.784-4.063-1.631-4.063-1.631s4.084-2.291 5.37-4.703c.399-.761.435-1.381.302-1.895Z" fill="#1BA0F8"/><path d="M179.138 315.247s.336-.323.849-.945c.137-.148.255-.344.441-.511.186-.167.384-.342.588-.537.222-.179.427-.418.691-.596.275-.176.553-.362.856-.563a11.483 11.483 0 0 1 4.723-1.524c1.884-.189 3.986.016 6.117.522.991.265 1.965.559 2.845.914a.263.263 0 0 0 .219-.007 493.579 493.579 0 0 0 8.399-4.033c.966-.489 1.781-.901 2.455-1.23.569-.303.874-.471.862-.507-.015-.026-.349.091-.935.335-.686.294-1.521.657-2.516 1.095-2.13.949-5.106 2.3-8.483 3.859l.218-.007c-.925-.389-1.906-.695-2.93-.959-2.181-.519-4.35-.72-6.3-.483-1.955.214-3.633.893-4.879 1.698-.296.214-.589.418-.859.617-.271.199-.468.45-.682.642-.207.205-.398.392-.579.583-.168.182-.289.389-.408.552-.474.676-.717 1.056-.679 1.077l-.013.008ZM204.843 303.36c-.577.171-10.573 4.417-10.573 4.417l10.573-4.417Z" fill="#0F486D"/><path d="M194.27 307.776c.061.136 2.474-.737 5.381-1.955s5.24-2.318 5.195-2.471c-.039-.141-2.452.732-5.382 1.955-2.929 1.222-5.253 2.325-5.194 2.471Z" fill="#0F486D"/><path d="m16.384 290.791 31.986-12.993a17.261 17.261 0 0 1 7.088-1.443l21.33.192 3.498-2.818 7.466 9.445 10.428-3.066 3.716 5.597 18.191 10.29 20.288 21.844 33.212-13.478 8.552 19.026-42.25 18.522a12.619 12.619 0 0 1-14.312-2.955l-16.56-17.753-7.868 17.914-4.508 23.459c-.301 1.569-1.067 4.587-2.599 4.155l-56.554-14.731c-1.65-.442.059-3.782.67-5.376l10.12-26.275 1.136-14.314-25.075 4.72 7.652 14.172 5.131 7.799-12.554 12.014-5.829-6.25-14.937-23.97c-5.442-10.726 1.525-18.843 12.594-23.735l-.012.008Z" fill="#063453"/><path d="m87.239 292.131-8.968 54.994-10.966 7.502-4.096-11.581 19.902-52.184 4.128 1.269Z" fill="#FFEE19"/><path d="M117.875 303.237s-.26.321-.624.951a71.667 71.667 0 0 0-1.497 2.713c-1.228 2.319-2.823 5.56-4.49 9.194a206.97 206.97 0 0 0-4.078 9.39c-.996 2.425-1.48 3.988-1.379 4.015.04.011.174-.366.472-1.035.349-.774.764-1.716 1.258-2.832 1.137-2.505 2.6-5.738 4.218-9.309a528.08 528.08 0 0 1 4.342-9.244c.532-1.095.977-2.028 1.343-2.787.319-.664.473-1.035.445-1.053l-.01-.003ZM76.502 277.371c-.064.037.361.997 1.116 2.512a225.646 225.646 0 0 0 3.032 5.881c.15.29.303.569.445.846.153.28.308.593.601.834.295.275.788.298 1.098.153.327-.129.556-.296.808-.467.906-.712 1.61-1.435 2.212-2.023 1.191-1.21 1.97-1.892 1.938-1.933-.055-.08-.941.518-2.2 1.657-.638.556-1.379 1.258-2.246 1.905-.44.306-.955.612-1.273.299-.34-.308-.595-.973-.904-1.522a212.27 212.27 0 0 0-3.17-5.809c-.842-1.474-1.383-2.368-1.457-2.333Z" fill="#171714"/><path d="M87.752 283.174c-.072.024.17 1.109.622 2.858.251.925.518 1.951.817 3.062.086.284.147.582.287.913.131.317.448.673.858.762.838.148 1.458-.304 2.067-.553a307.662 307.662 0 0 0 6.345-3.043c1.614-.804 2.592-1.335 2.567-1.406-.034-.075-1.068.343-2.724 1.06a257.696 257.696 0 0 0-6.416 2.904c-.617.28-1.233.636-1.713.529-.477-.085-.62-.72-.794-1.287-.337-1.089-.65-2.106-.924-3.026-.548-1.72-.916-2.774-.987-2.75l-.005-.023Z" fill="#171714"/><path d="M170.873 311.979a1.236 1.236 0 1 1 .64-2.388 1.236 1.236 0 0 1-.64 2.388Z" fill="#000"/><path d="M51.494 283.096s-.106.394-.195 1.13c-.098.853-.212 1.886-.342 3.099-.28 2.746-.639 6.308-1.041 10.237-.378 4.001-.669 7.634-.81 10.266-.07 1.316-.117 2.378-.12 3.115-.012.735-.003 1.15.04 1.15.04.011.105-.395.174-1.136.075-.848.18-1.883.3-3.099l.964-10.236c.378-4.001.699-7.626.88-10.247.091-1.311.15-2.38.173-3.112.025-.742.024-1.144-.019-1.145l-.004-.022Z" fill="#171714"/><path d="M164.234 308.149c-.072.025.28 1.139.933 2.909.656 1.76 1.636 4.172 2.763 6.807 1.095 2.55 2.095 4.848 2.911 6.738.743 1.718 1.215 2.789 1.289 2.754.072-.024-.28-1.138-.933-2.909-.656-1.76-1.637-4.171-2.763-6.806-1.095-2.551-2.095-4.848-2.901-6.735-.743-1.719-1.215-2.789-1.289-2.755l-.01-.003Z" fill="#000"/><path d="M19.386 335.872c.1.114 3.034-2.095 6.56-4.938 3.526-2.842 6.316-5.242 6.22-5.365-.1-.114-3.034 2.095-6.56 4.938-3.527 2.842-6.317 5.242-6.22 5.365ZM90.438 325.632s-.232-.063-.696-.154c-.509-.083-1.17-.205-1.99-.339-1.73-.3-4.239-.734-7.31-1.372a171.987 171.987 0 0 1-10.723-2.591l-3.059-.885c-1.041-.322-2.119-.589-3.057-1.134-.924-.519-1.683-1.449-1.733-2.515a2 2 0 0 1 .532-1.42c.355-.394.845-.685 1.38-.9 1.07-.43 2.255-.568 3.395-.773a66.03 66.03 0 0 1 9.886-.802c2.069-.031 4.035.116 5.892.146 1.856.031 3.614-.095 5.161-.527 3.142-.84 5.011-3.041 5.626-4.689.322-.836.382-1.547.354-2.01 0-.239-.04-.413-.054-.525-.024-.115-.028-.181-.04-.173-.084-.012.216 1.013-.457 2.634-.646 1.563-2.493 3.64-5.527 4.401-1.503.389-3.212.496-5.053.447-1.841-.048-3.815-.208-5.901-.192a65.687 65.687 0 0 0-6.538.321 53.95 53.95 0 0 0-3.437.447c-1.15.202-2.343.327-3.52.793-.573.237-1.147.56-1.583 1.052-.435.491-.697 1.147-.668 1.806.069 1.321.978 2.379 2.005 2.958 1.034.591 2.145.857 3.179 1.166 1.044.312 2.073.599 3.074.867a152.11 152.11 0 0 0 10.773 2.486c3.092.6 5.616.973 7.353 1.21.87.113 1.551.199 2.018.237.464.048.7.057.703.047l.015-.017Z" fill="#171714"/><path d="M25.553 343.852s2.992 3.645 6.591 6.682c1.946 1.639 4.87 1.37 6.572-.529l1.667-1.854s4.218 7.121 7.113 5.747c0 0 1.364-1.327.646-3.017 0 0 2.853 1.329 2.687-2.221 0 0 2.854-.331 2.214-3.65 0 0 2.912-.913 1.912-3.937-1-3.025-5.87-8.28-7.853-9.375-1.71-.947-3.123.161-5.146 1.681-1.464 1.095-3.703 4.109-3.703 4.109l-2.97-2.88-9.73 9.244Z" fill="#1BA0F8"/><path d="m191.031 279.654 3.302.9a.985.985 0 0 1 .401 1.68l-2.532 2.296a1.02 1.02 0 0 0-.288.467l-.902 3.305a.984.984 0 0 1-1.678.402l-2.294-2.533a1.016 1.016 0 0 0-.466-.288l-3.302-.901a.985.985 0 0 1-.401-1.68l2.532-2.296c.137-.122.237-.295.288-.467l.902-3.305a.984.984 0 0 1 1.678-.402l2.294 2.533c.122.138.294.237.466.289Z" fill="#F8D424"/></g><path opacity=".1" d="M316.852 320.728a9.74 9.74 0 0 1-.343 2.462l1.146 1.128c.275.268.329.7.139 1.035l-1.222 2.129a.786.786 0 0 1-.944.367l-1.501-.506a8.935 8.935 0 0 1-1.919 1.488l.044 1.657a.806.806 0 0 1-.589.805l-2.355.622a.77.77 0 0 1-.885-.418l-.726-1.476a8.764 8.764 0 0 1-2.373-.357l-1.19 1.301a.605.605 0 0 1-.765.111l-2.307-1.422a.649.649 0 0 1-.273-.75l.535-1.705a9.262 9.262 0 0 1-1.435-1.991l-1.463.039a.957.957 0 0 1-.947-.741l-.531-2.169a.999.999 0 0 1 .488-1.122l1.303-.69a9.74 9.74 0 0 1 .343-2.462l-1.216-1.2a.724.724 0 0 1-.116-.876l1.323-2.306a.674.674 0 0 1 .797-.311l1.597.536a8.954 8.954 0 0 1 1.918-1.488l-.043-1.64a.832.832 0 0 1 .603-.828l2.325-.615a.79.79 0 0 1 .91.428l.719 1.461a8.764 8.764 0 0 1 2.373.357l1.207-1.322a.564.564 0 0 1 .719-.103l2.358 1.46a.619.619 0 0 1 .256.708l-.541 1.733a9.255 9.255 0 0 1 1.435 1.99l1.543-.042a.86.86 0 0 1 .846.667l.574 2.33a.893.893 0 0 1-.438 1.004l-1.371.727-.008-.005Zm-5.083-.258c-.236-2.828-3.031-4.552-5.538-3.415-1.518.687-2.468 2.351-2.329 4.064.236 2.828 3.031 4.552 5.538 3.414 1.518-.686 2.468-2.35 2.329-4.063Z" fill="#ECFCFD"/><g clip-path="url('#clip2_168_533')"><path d="M329.119 318.665s-3.554-11.435-18.234-9.703l-1.845-10.435-32.289 7.614 4.418 25.232 47.95-12.708Z" fill="#DC429B"/><path d="M318.088 307.378a48.735 48.735 0 0 0-5.863 5.325c-.329.352.205.875.533.524a48.735 48.735 0 0 1 5.863-5.325c.386-.292-.161-.819-.533-.524ZM314.675 307.167l-5.121 5.231c-.333.342.191.871.533.523l5.121-5.231c.333-.342-.191-.871-.533-.523Z" fill="#2C2C2C"/><path d="M269.845 321.64s3.092-11.565-10.243-17.942l4.012-9.81-31.373-10.801-9.733 23.702 47.337 14.851Z" fill="#DC429B"/><path d="M266.629 306.189c-2.66.253-5.307.708-7.897 1.383-.472.122-.276.841.187.724a48.737 48.737 0 0 1 7.701-1.363c.481-.047.485-.8.004-.753l.005.009ZM263.758 304.197c-2.376.564-4.753 1.127-7.124 1.7-.469.109-.277.841.187.723 2.376-.563 4.753-1.127 7.124-1.7.468-.108.277-.841-.187-.723Z" fill="#2C2C2C"/><path d="M260.419 224.753c-7.594 20.308-22.11 42.684-30.606 62.369 9.306 2.918 35.056 15.498 35.056 15.498 8-19.202 16.81-48.503 23.84-70.806 2.338-7.412 1.905-16.342-3.004-22.364-5.334-6.539-15.003-7.446-23.344-6.233-8.346 1.204-20.771 2.523-20.771 2.523l-8.495-9.494-11.245 6.203c-.398.992 2.1 8.718 2.1 8.718l36.478 13.581" fill="#E7A5DD"/><path d="M280.977 225.32c-11.969-9.371-42.233-14.888-56.895-18.905l-7.269-11.969-23.809 18.041c-.054 9.766 3.103 19.894 10.237 26.571 7.501 7.032 17.317 7.334 27.569 8.09 10.251.756 21.604 2.261 31.572 4.785 4.473 16.608 9.471 40.685 13.945 57.293l37.741-6.79c-2.951-11.471-10.526-33.252-13.724-44.65-3.306-11.786-10.048-25.145-19.371-32.452l.004-.014Z" fill="#E7A5DD"/><path d="m214.988 245.405 36.582 4.861c2.755.372 5.914.523 8.266 2.178 2.353 1.656 2.863 4.918 3.699 7.587.484 1.557.976 3.109 1.402 4.687 3.088 11.369 5.789 22.847 8.555 34.298l2.477 10.29c.108.468.841.277.723-.187a3054.091 3054.091 0 0 0-6.618-27.263c-1.391-5.629-2.782-11.258-4.283-16.857-.387-1.451-.774-2.902-1.249-4.325-.772-2.337-1.131-4.959-2.52-7.044-1.388-2.085-3.499-2.921-5.747-3.414-3.146-.689-6.426-.931-9.62-1.362l-10.554-1.401c-7.041-.935-14.081-1.87-21.114-2.809-.474-.062-.478.691-.004.753l.005.008ZM296.498 246.104c-3.763-9.617-10.595-19.991-20.641-23.832-6.301-2.413-12.751-4.844-19.367-6.244-3.512-.743-7.017-1.433-10.512-2.267-3.495-.834-6.892-1.898-10.384-2.365-.537-.071-.534.054-.783-.218-.154-.165-.228-.514-.326-.724l-1.16-2.609-1.785-3.992c-.197-.441-.847-.066-.65.375l1.476 3.316c.57 1.287 1.033 2.81 1.79 4.001.371.582 1.004.518 1.693.651 1.659.335 3.317.706 4.971 1.09 3.389.792 6.778 1.641 10.183 2.377 3.404.737 6.79 1.322 10.127 2.282 3.337.96 6.35 2.038 9.483 3.185 2.836 1.031 5.752 1.922 8.366 3.45 2.614 1.528 4.685 3.334 6.66 5.415 4.423 4.641 7.792 10.317 10.121 16.27.174.442.902.264.723-.187l.015.026Z" fill="#2C2C2C"/><path d="M313.927 301.871c-12.438 2.597-25.026 4.414-37.464 7.011-.473.1-.287.824.187.724 12.438-2.597 25.025-4.415 37.463-7.011.474-.1.287-.824-.186-.724ZM265.158 301.922c-12.038-4.25-23.3-10.357-35.273-14.795-.454-.166-.648.558-.194.724 11.964 4.443 23.23 10.536 35.273 14.795.454.165.643-.567.194-.724Z" fill="#2C2C2C"/><path opacity=".3" d="m245.759 126.742 12.609 22.119 3.316-1.476 3.353-3.933-13.106-23.541s-6.494 3.853-6.167 6.84l-.005-.009Z" fill="#fff"/><path d="m248.869 149.533-6.988 34.316 5.193 1.058 6.988-34.316-5.193-1.058Z" fill="#2C2C2C"/><path d="M244.07 131.135c2.153-8.829 10.499-14.595 17.129-13.931-.422-.172-2.437-.602-2.892-.709-7.038-1.71-14.61 4.555-16.911 13.99-2.301 9.434 1.53 18.469 8.568 20.18.454.107.903.183 1.367.227-6.187-2.456-9.406-10.932-7.253-19.762l-.008.005Z" fill="#2C2C2C"/><path d="M260.989 117.141c-.454-.107-3.645-.494-4.1-.543 6.186 2.456 12.139 11.247 9.986 20.077-2.154 8.83-8.928 14.877-15.544 14.217.422.171.861.311 1.315.418 7.038 1.71 14.61-4.555 16.911-13.99 2.301-9.434-1.53-18.469-8.568-20.179Z" fill="#2C2C2C"/><path d="m230.751 174.586 6.028-8.018s1.989-5.675 4.002-8.188c2.013-2.514 4.045-3.455 5.742-4.216 1.705-.765 6.013-1.624 6.216.787.135 1.654-1.516 1.834-3.713 2.548-2.198.715-4.629 3.343-4.629 3.343s6.904-.141 8.891 2.88c0 0 1.224 1.799-1.577 2.908 0 0 1.817 2.888-1.386 3.941 0 0-3.423-1.349-5.7-1.455l-1.198.126s4.413 2.163 4.784 3.427c.381 1.258.278 2.541-1.039 2.759-1.323.21-2.516-1.677-4.275-1.723 0 0-.265 2.22-.361 3.153-.102.925-6.035 9.408-6.035 9.408s-.594-5.408-1.246-8.138c-.791-3.33-4.512-3.515-4.512-3.515l.008-.027Z" fill="#FFF8F2"/><path d="M247.68 160.689c-2.169-.837-4.7-.381-6.488 1.102-.367.304.166.828.533.524 1.583-1.318 3.844-1.642 5.761-.902.45.179.639-.553.194-.724ZM251.627 166.586c-3.16-2.055-7.121-2.736-10.788-1.866-.468.109-.281.832.187.724a13.255 13.255 0 0 1 10.229 1.796c.405.262.778-.392.372-.654Z" fill="#ED796A"/><path d="M254.905 147.142c4.589-1.91 7.992-6.277 8.704-11.203.075-.47-.654-.673-.724-.194-.695 4.755-3.914 8.9-8.355 10.748-.446.188-.062.832.375.649ZM265.787 119.59c-3.455-4.564-9.905-2.815-13.962-.103-4.36 2.91-7.409 7.568-8.295 12.734-.084.475.64.669.724.194a18.735 18.735 0 0 1 6.919-11.536c3.647-2.844 10.498-5.518 13.973-.919.287.377.941.011.649-.375l-.008.005Z" fill="#fff"/><path d="M151.973 124.078c3.301-2.241 7.43-2.869 11.423-3.073 3.988-.213 8.555 1.677 12.442.749 6.422-1.536 11.834-9.142 17.224-12.946 5.39-3.805 10.265-6.4 16.862-6.075 5.145.251 11.058 3.373 13.952 7.626 2.599 3.822 5.751 18.641-1.754 30.642a28.405 28.405 0 0 1-2.979 3.96l.103-.141c-11.893 14.2-29.03 16.138-38.645 19.425-5.439 1.859-11.201 3.119-16.934 2.63-5.737-.498-11.47-2.927-15.072-7.406-3.616-4.483-4.684-11.153-1.838-16.144.859-1.512 2.08-2.957 2.101-4.701.018-1.488-.855-2.82-1.285-4.246-1.157-3.824 1.075-8.057 4.377-10.298l.023-.002Z" fill="#FFB903"/><path d="M213.913 139.182c.014.384.638 13.326.638 13.326l-15.233.735-1.24-18.487 15.83 4.417.005.009Z" fill="#FFF8F2"/><path d="M215.306 143.354s9.736-1.995 9.221-12.887c-.174-3.722-.397-7.669-1.47-14.566-1.153-7.418-6.895-10.223-14.868-9.672l-.79.052c-8.503 1.052-13.648 5.94-12.351 13.886l1.324 7.653s.106 16.844 18.925 15.539" fill="#FFF8F2"/><path d="M196.243 128.056c4.611 3.527 7.396-7.029 11.135-11.613 2.737-3.359 8.679-7.367 9.317-11.742 0 0-9.768-4.799-17.241 1.017-7.474 5.816-7.468 15.766-7.468 15.766l4.262 6.581-.005-.009Z" fill="#FFB903"/><path d="M194.595 127.102c1.326-.603 2.884-.244 4.146.482l.382 6.881c-1.331.676-2.953.746-4.279.069-1.327-.678-2.304-2.111-2.393-3.665-.089-1.554.778-3.151 2.135-3.762l.009-.005Z" fill="#FFF8F2"/><path d="M197.889 130.328c-.326-1.105-1.541-1.929-2.679-1.86a2.553 2.553 0 0 0-1.131.341c-.416.24-.041.889.375.649.087-.05.165-.095.261-.127-.074.031.057-.022.071-.018.034-.02.088-.028.127-.039.04-.011.093-.019.133-.03.009-.005.151-.018.062-.013.076-.009.147-.004.223-.013a.64.64 0 0 1 .13.005c.009-.005.149.018.059.001.085.009.167.031.249.053.082.021.155.048.237.07.041.011.041.011 0 0 .019.013.033.016.06.024l.097.048c.065.032.134.072.204.113.037.024.07.04.098.07.01.017.122.091.043.033.113.097.226.193.327.308.015.026.039.047.067.076l.03.052-.01-.017c.035.061.079.116.119.186l.105.181c.035.061-.023-.079.01.018.015.026.021.057.028.088.057.198.257.325.455.268.198-.057.325-.257.268-.455l-.018-.012ZM214.064 124.245l.524 2.226c.09.376.174.743.264 1.118.077.313.151.641.448.815.214.131.474.142.72.127.12-.011.557-.114.584.033.019.092-.161.3-.202.37-.107.154-.214.309-.313.458-.235.332-.466.673-.71 1.01-.281.393.373.766.654.373.236-.332.466-.673.71-1.01.203-.29.467-.593.58-.935.216-.668-.357-1.099-.969-1.08-.215.008-.565.141-.694-.062-.08-.138-.101-.415-.138-.578a9.645 9.645 0 0 0-.143-.588c-.197-.821-.394-1.643-.577-2.46-.109-.469-.833-.282-.724.186l-.014-.003Z" fill="#FFB903"/><path d="M210.01 132.163c.124-.245.326-.477.586-.546.317-.091.649.064.948.203 1.081.531 2.49 1.253 3.555 1.897-.49.791-1.288 1.748-2.211 1.911-.922.163-1.922-.149-2.537-.856-.611-.698-.775-1.781-.349-2.604l.008-.005Z" fill="#FCA9FF"/><path d="M205.418 103.129c-8.044.568-13.186 7.74-18.922 12.506-3.333 2.768-7.156 4.906-11.597 4.814-4.682-.091-9.009-2.165-13.383-3.601-4.374-1.435-9.444-2.377-13.879-.278-.435.205-.06.855.375.65 8.661-4.1 17.496 3.362 26.102 3.948 8.605.586 13.802-5.833 19.34-10.901 3.394-3.102 7.2-6.05 11.96-6.385.477-.033.481-.786.004-.753Z" fill="#FFB903"/><path d="M202.011 156.388c-.29-2.523-1.738-4.851-3.973-6.101-2.035-1.146-4.568-1.312-6.748-.469-.442.175-.264.903.187.724 1.952-.758 4.184-.673 6.049.318 2.05 1.091 3.464 3.219 3.732 5.524.056.476.809.48.753.004Z" fill="#2C2C2C"/><path d="M199.447 145.767c.908.573 8.068 1.554 14.999 4.458 5.68 2.378 9.259 17.817 10.352 21.331 2.428 7.825 25.126 18.68 12.834 22.809-16.718 5.623-43.603 32.738-49.862 19.297-6.794-14.588-12.518-49.342-2.229-58.862 6.354-5.874 13.892-9.037 13.892-9.037l.014.004Z" fill="#934974"/><path d="m189.627 193.098-9.823 10.486c1.653 3.203 4.383 5.911 7.756 7.174 3.369 1.276 7.371.986 10.345-1.043 3.515-2.41 5.125-6.723 6.368-10.789a45.29 45.29 0 0 1-14.655-5.823l.009-.005Z" fill="#DC429B"/><path d="M182.814 159.238c-4.295 12.041-2.86 20.785-2.894 31.266-.01 3.724.123 7.573 1.701 10.946 2.553 5.443 8.897 8.731 14.86 7.979 4.727-.593 9.123-2.738 13.447-4.75 16.084-7.461 27.642-18.361 27.642-18.361l-5.227-17.293-29.678 15.356.024-24.159" fill="#934974"/><path d="M182.454 159.134c-2.679 7.62-3.244 15.36-3.05 23.377.097 3.928-.019 7.886.234 11.805.253 3.918 1.186 7.594 3.79 10.525 2.234 2.509 5.365 4.212 8.658 4.816 3.873.708 7.758-.322 11.366-1.713 8.11-3.134 15.858-7.434 22.997-12.388 3.957-2.746 7.881-5.67 11.388-8.976a.377.377 0 0 0 .095-.355c-1.744-5.76-3.483-11.534-5.227-17.294a.375.375 0 0 0-.547-.227l-26.032 13.471c-1.216.633-2.429 1.253-3.646 1.886l.557.325.022-21.144.002-3.015c-.002-.484-.755-.488-.753-.004l-.021 21.143-.002 3.015c-.005.292.309.457.557.325l26.032-13.47c1.216-.633 2.429-1.253 3.646-1.886l-.547-.227c1.376 4.563 2.757 9.135 4.142 13.694l.878 2.922c.051.167.083.483.19.629-.13-.167.327-.315-.054-.153-.637.275-1.335 1.186-1.859 1.639a119.563 119.563 0 0 1-3.626 2.959c-8.593 6.717-18.193 12.49-28.391 16.426-5.031 1.947-10.339 2.852-15.305.211-2.161-1.142-4.045-2.826-5.33-4.913-1.598-2.587-2.109-5.652-2.267-8.645-.157-2.992-.063-5.829-.139-8.741-.07-2.662-.154-5.327-.112-7.995.09-6.103 1.046-12.047 3.071-17.801.165-.453-.567-.642-.724-.194l.007-.027Z" fill="#2C2C2C"/><path d="M182.096 154.814c2.38-3.579 6.429-5.986 10.702-6.363 4.274-.378 8.687 1.266 11.664 4.362 2.628 2.732 4.077 6.422 4.732 10.155.654 3.733.56 7.551.466 11.347-.042 1.849-.72 6.813-1.032 7.074l-6.236 3.058s.07-6.438-.173-11.379c-.223-4.386.593-9.753-.404-12.999-1.291-4.197-5.324-7.642-9.716-7.67-3.406-.019-6.455 1.96-9.271 3.863" fill="#DC429B"/><path d="M146.669 240.012c1.423 3.186 5.156 4.61 8.346 3.196a6.327 6.327 0 0 0 3.195-8.346c-1.415-3.19-5.156-4.61-8.346-3.195-3.185 1.423-4.61 5.155-3.195 8.345Z" stroke="#fff" stroke-miterlimit="10"/><path opacity=".1" d="M300.909 257.031c1.32.016 2.618.204 3.856.558l1.766-1.862a1.316 1.316 0 0 1 1.622-.227l3.333 1.987c.532.312.77.947.575 1.534l-.793 2.439c.904.921 1.69 1.963 2.331 3.117l2.595-.07a1.266 1.266 0 0 1 1.26.956l.975 3.827a1.27 1.27 0 0 1-.655 1.439l-2.312 1.179a14.761 14.761 0 0 1-.558 3.856l2.037 1.933c.34.32.412.844.173 1.244l-2.226 3.749a1 1 0 0 1-1.175.443l-2.67-.869a14.505 14.505 0 0 1-3.118 2.332l.061 2.378a1.544 1.544 0 0 1-1.161 1.537l-3.396.863a1.541 1.541 0 0 1-1.757-.793l-1.082-2.116a14.76 14.76 0 0 1-3.855-.558l-1.88 1.977a1.1 1.1 0 0 1-1.37.187l-3.611-2.149a1.113 1.113 0 0 1-.488-1.295l.84-2.595a14.468 14.468 0 0 1-2.331-3.118l-2.569.07a1.307 1.307 0 0 1-1.297-.979l-.963-3.778c-.149-.589.128-1.2.671-1.479l2.289-1.169c.016-1.319.205-2.617.558-3.855l-2.07-1.962a.942.942 0 0 1-.161-1.169l2.286-3.83a.95.95 0 0 1 1.108-.418l2.714.88a14.524 14.524 0 0 1 3.117-2.332l-.065-2.507a1.383 1.383 0 0 1 1.044-1.374l3.649-.933a1.379 1.379 0 0 1 1.572.711l1.139 2.228-.008.013Zm-.404 8.26a6.41 6.41 0 0 0-5.347 8.999 6.41 6.41 0 1 0 11.71-5.214c-1.075-2.467-3.68-4.011-6.363-3.785Z" fill="#39DBEA"/><path d="m157.525 193.935-1.47-2.52a.839.839 0 0 0-1.47.04l-1.33 2.59c-.07.14-.19.26-.32.34l-2.52 1.47a.839.839 0 0 0 .04 1.47l2.59 1.33c.14.07.26.19.34.32l1.47 2.52c.33.57 1.17.55 1.47-.04l1.33-2.59c.07-.14.19-.26.32-.34l2.52-1.47a.839.839 0 0 0-.04-1.47l-2.59-1.33a.873.873 0 0 1-.34-.32Z" fill="#F8D424"/></g><g clip-path="url('#clip3_168_533')"><path d="m48.888 241.019 8.561-5.261a1.195 1.195 0 0 1 1.642.398l.165.268a1.24 1.24 0 0 1-.402 1.704l-8.527 5.239a1.195 1.195 0 0 1-1.642-.397l-.186-.304a1.197 1.197 0 0 1 .388-1.646l.001-.001Z" fill="#2974A2"/><path d="m51.766 242.191 5.588-3.434c.57-.351 1.32-.17 1.673.405l.164.268a1.218 1.218 0 0 1-.395 1.675l-5.589 3.435c-.57.35-1.32.169-1.672-.406l-.164-.268a1.218 1.218 0 0 1 .395-1.675Z" fill="#2974A2"/><path d="M50.244 235.494c6.359-3.494 8.664-11.512 5.15-17.909-3.515-6.398-11.52-8.751-17.878-5.258-6.359 3.494-8.664 11.512-5.15 17.909 3.515 6.397 11.52 8.751 17.878 5.258Z" fill="#FFEE19"/><path d="m44.762 236.681 4.203 3.26 7.725-4.86-1.281-6.426-10.647 8.026Z" fill="#FFEE19"/><path d="M50.462 238.626a65.013 65.013 0 0 1-4.748-4.949c-1.51-1.748-2.978-3.574-4.25-5.504-.546-.831-1.066-1.973-.504-2.928.485-.824 1.596-1.039 2.456-.765.947.303 1.729 1.101 2.242 1.934.273.442.475.977.306 1.492-.15.459-.58.809-1.077.668-.803-.229-1.19-1.283-1.354-2.007-.214-.944-.077-1.966.644-2.656.722-.69 1.719-.904 2.653-.722.933.181 1.805.748 2.462 1.452.37.396.743.896.682 1.469-.06.574-.527.886-1.07.764-.543-.123-.896-.604-1.14-1.064-.21-.392-.35-.82-.407-1.26-.112-.856.123-1.775.801-2.338.603-.503 1.526-.717 2.245-.329.965.52 1.161 1.747 1.273 2.731.122 1.096.246 2.186.445 3.27a35.649 35.649 0 0 0 2.404 7.881c.055.124.24.023.184-.101a35.66 35.66 0 0 1-2.282-7.288c-.248-1.251-.403-2.507-.542-3.773-.115-1.042-.334-2.299-1.327-2.874-.734-.426-1.676-.281-2.352.185-.749.515-1.106 1.394-1.084 2.293.023.942.433 2.079 1.228 2.643.371.263.89.364 1.304.142.413-.221.568-.682.534-1.117-.046-.583-.442-1.073-.835-1.474a5.38 5.38 0 0 0-1.22-.944c-.881-.494-1.924-.693-2.898-.388-.973.305-1.74 1.04-1.944 2.049-.185.919.048 1.982.536 2.78.413.674 1.302 1.32 2.01.624.81-.796.235-1.962-.342-2.702-.631-.81-1.511-1.55-2.569-1.652-.912-.087-1.91.332-2.266 1.222-.437 1.095.17 2.234.783 3.124a65.155 65.155 0 0 0 8.873 10.262c.098.093.25-.053.151-.147l-.005-.003Z" fill="#36B3FF"/><path d="m56.806 233.142-9.752 5.993a1.218 1.218 0 0 0-.396 1.676l.164.266a1.217 1.217 0 0 0 1.672.406l9.753-5.993c.57-.351.748-1.101.395-1.676l-.164-.267a1.217 1.217 0 0 0-1.672-.405Z" fill="#2974A2"/><path d="m48.39 241.642 7.666-4.664c.726-.441 1.45-.881 2.176-1.324.114-.071.014-.257-.102-.185l-7.667 4.664c-.726.441-1.45.881-2.176 1.324-.114.071-.014.257.102.185ZM51.168 243.042l7.29-4.549c.114-.071.014-.257-.102-.185l-7.29 4.549c-.115.07-.014.257.102.185Z" fill="#36B3FF"/></g><path d="m87.925 194.385-2.51 1.46a.839.839 0 0 0 .04 1.47l2.59 1.33c.14.07.26.19.34.32l1.47 2.52c.33.57 1.17.55 1.47-.04l1.33-2.59c.07-.14.19-.26.32-.34l2.52-1.47a.839.839 0 0 0-.04-1.47l-2.59-1.33a.873.873 0 0 1-.34-.32l-1.48-2.51a.839.839 0 0 0-1.47.04l-1.33 2.59c-.07.14-.19.26-.32.34Z" fill="#F8D424"/></g><defs><clipPath id="clip0_168_533"><rect x="319" width="327" height="319" rx="24" transform="rotate(90 319 0)" fill="#fff"/></clipPath><clipPath id="clip1_168_533"><path fill="#fff" transform="scale(-1 1) rotate(-15 884.841 977.17)" d="M0 0h202.111v137.299H0z"/></clipPath><clipPath id="clip2_168_533"><path fill="#fff" transform="rotate(-30 322.886 -99.483)" d="M0 0h164.23v266.109H0z"/></clipPath><clipPath id="clip3_168_533"><path fill="#fff" transform="rotate(-28.785 439.031 58.666)" d="M0 0h26.276v35.789H0z"/></clipPath></defs></svg>