<svg width="320" height="151" fill="none" xmlns="http://www.w3.org/2000/svg"><g clip-path="url('#clip0_168_1066')" opacity=".9"><path d="M168.589 15.606c3.452-5.978 11.097-8.027 17.075-4.575l47.632 27.5c5.978 3.452 8.027 11.097 4.575 17.075l-13.284 23.01c-3.452 5.978-11.097 8.026-17.075 4.575l-23.816-13.75-15.229-8.793a33.5 33.5 0 0 0-19.436-4.38l-4.109.33 2.383-4.126 21.284-36.866ZM101.031 147.606c3.452-5.978 11.097-8.027 17.075-4.575l47.632 27.5c5.978 3.452 8.027 11.097 4.575 17.075l-13.284 23.009c-3.452 5.979-11.097 8.027-17.075 4.575l-23.816-13.75-15.229-8.792a33.502 33.502 0 0 0-19.436-4.38l-4.109.33 2.383-4.126 21.284-36.866ZM394.543 55.433c3.452-5.979 1.404-13.624-4.575-17.075l-47.631-27.5c-5.979-3.452-13.624-1.404-17.076 4.575l-13.284 23.009c-3.452 5.978-1.403 13.623 4.575 17.075l23.816 13.75 15.229 8.792a33.502 33.502 0 0 1 13.512 14.643l1.767 3.723 2.383-4.127 21.284-36.865ZM313.101 187.433c3.452-5.979 1.404-13.624-4.575-17.075l-47.631-27.5c-5.979-3.452-13.624-1.404-17.076 4.575l-13.284 23.009c-3.452 5.978-1.403 13.623 4.575 17.075l23.816 13.75 15.229 8.792a33.5 33.5 0 0 1 13.512 14.643l1.767 3.723 2.383-4.127 21.284-36.865ZM343.703-63.333c3.452-5.978 11.097-8.027 17.076-4.575l47.631 27.5c5.979 3.452 8.027 11.097 4.575 17.075L399.701-.324c-3.452 5.979-11.097 8.027-17.075 4.575L358.81-9.499l-15.229-8.792a33.498 33.498 0 0 0-19.436-4.38l-4.109.33 2.383-4.127 21.284-36.865ZM262.261 68.667c3.452-5.979 11.097-8.027 17.075-4.575l47.632 27.5c5.978 3.452 8.027 11.097 4.575 17.075l-13.284 23.009c-3.452 5.979-11.097 8.027-17.075 4.575l-23.816-13.75-15.229-8.792a33.493 33.493 0 0 0-19.436-4.38l-4.109.33 2.383-4.127 21.284-36.865ZM301.755.84c3.452-5.978 1.403-13.623-4.575-17.075l-47.632-27.5c-5.978-3.451-13.623-1.403-17.075 4.576l-13.284 23.008c-3.452 5.98-1.403 13.624 4.575 17.076l23.816 13.75 15.229 8.792A33.498 33.498 0 0 1 276.32 38.11l1.768 3.723 2.383-4.127L301.755.841ZM220.313 132.841c3.452-5.979 1.403-13.624-4.575-17.076l-47.632-27.5c-5.978-3.451-13.623-1.403-17.075 4.576l-13.284 23.009c-3.452 5.978-1.403 13.623 4.575 17.075l23.816 13.75 15.229 8.792a33.498 33.498 0 0 1 13.511 14.643l1.768 3.723 2.383-4.127 21.284-36.865ZM78.589-34.394c3.452-5.978 11.097-8.027 17.075-4.575l47.632 27.5c5.978 3.452 8.027 11.097 4.575 17.075l-13.284 23.01c-3.452 5.978-11.097 8.026-17.075 4.575L93.696 19.44l-15.229-8.793a33.5 33.5 0 0 0-19.436-4.38l-4.109.33 2.383-4.126 21.284-36.866ZM130.313 82.84c3.452-5.978 1.403-13.623-4.575-17.075l-47.632-27.5c-5.978-3.451-13.623-1.403-17.075 4.576L47.747 65.85c-3.452 5.978-1.403 13.623 4.575 17.075l23.816 13.75 15.229 8.792a33.495 33.495 0 0 1 13.511 14.643l1.768 3.723 2.383-4.127 21.284-36.865ZM-4.411 112.606c3.452-5.978 11.097-8.027 17.075-4.575l47.632 27.5c5.978 3.452 8.027 11.097 4.575 17.075l-13.284 23.009c-3.452 5.979-11.097 8.027-17.076 4.575l-23.815-13.75-15.229-8.792a33.503 33.503 0 0 0-19.436-4.38l-4.109.33 2.383-4.126 21.284-36.866Z" stroke="#fff" stroke-width="7"/><path fill="url('#paint0_linear_168_1066')" d="M0 0h320v120H0z"/></g><defs><linearGradient id="paint0_linear_168_1066" x1="168" y1="0" x2="168" y2="120" gradientUnits="userSpaceOnUse"><stop stop-color="#FF598C"/><stop offset="1" stop-color="#FF598C" stop-opacity="0"/></linearGradient><clipPath id="clip0_168_1066"><rect width="320" height="151" rx="24" fill="#fff"/></clipPath></defs></svg>