<svg width="108" height="48" fill="none" xmlns="http://www.w3.org/2000/svg"><g clip-path="url('#clip0_97_32')"><path d="M9.385 46.314c-.49 0-.959-.107-1.392-.317a3.431 3.431 0 0 1-1.521-1.493c-.286-.535-.47-1.17-.55-1.886l-.005-.062a.933.933 0 0 1-.009-.086c0-.01-.003-.022-.004-.032a1.657 1.657 0 0 1-.007-.072l-.007-.07-.004-.032-.004-.053a.425.425 0 0 0-.004-.032l-.005-.056a.699.699 0 0 1-.009-.085l-.004-.032a.68.68 0 0 1-.005-.056l-.002-.017-.007-.07-.009-.086a.708.708 0 0 0-.004-.034l-.005-.054a.694.694 0 0 1-.009-.085l-.002-.027-.006-.059-.004-.031a1.545 1.545 0 0 1-.007-.073l-.007-.069a.587.587 0 0 0-.004-.034l-.005-.054a4.047 4.047 0 0 1-.009-.086c0-.01-.003-.021-.004-.032a.695.695 0 0 1-.005-.055l-.003-.031a5.263 5.263 0 0 1-.014-.14l-.004-.033-.005-.056a.7.7 0 0 1-.009-.086c0-.01-.003-.021-.004-.032a.652.652 0 0 1-.005-.055c0-.01-.003-.022-.004-.033l-.007-.068-.006-.071-.004-.035-.005-.053a.743.743 0 0 1-.009-.086 1.161 1.161 0 0 1-.009-.087l-.003-.027-.006-.061-.003-.024-.006-.061-.003-.024-.006-.063-.003-.025a6.572 6.572 0 0 0-.005-.062l-.003-.025-.006-.061-.003-.025-.006-.061-.003-.024a.872.872 0 0 1-.006-.064c0-.008-.002-.015-.003-.023l-.006-.063-.003-.026a6.941 6.941 0 0 0-.006-.061c0-.008-.002-.016-.003-.023a14.515 14.515 0 0 0-.008-.089l-.006-.061-.003-.025a4.371 4.371 0 0 0-.015-.147l-.003-.024a.8.8 0 0 1-.006-.063l-.003-.027-.006-.06-.003-.025-.006-.06a1.954 1.954 0 0 0-.003-.026l-.014-.148-.003-.026-.006-.061c0-.008-.002-.015-.003-.023l-.006-.063-.003-.024-.006-.063-.003-.024a.779.779 0 0 1-.006-.064l-.003-.027a5.973 5.973 0 0 1-.006-.059l-.003-.026a6.83 6.83 0 0 1 .116-2.116l.006-.026a876.526 876.526 0 0 1 2.84-12.41v-.01c-.005-.029-.007-.058-.01-.087l-.008-.087a1.943 1.943 0 0 1-.01-.09 1.665 1.665 0 0 1-.008-.083l-.009-.086a1.243 1.243 0 0 1-.009-.087 1.237 1.237 0 0 1-.009-.087 1.238 1.238 0 0 1-.008-.089l-.01-.085a12.806 12.806 0 0 1-.008-.086l-.009-.087-.009-.087a23.506 23.506 0 0 1-.018-.174l-.008-.086a12.166 12.166 0 0 1-.027-.262 12.166 12.166 0 0 1-.018-.17l-.008-.088-.01-.087a12.166 12.166 0 0 1-.035-.347c-.004-.028-.006-.057-.009-.087a1.247 1.247 0 0 1-.008-.089l-.008-.08c-.093-.736.12-1.487.576-2.025a2.193 2.193 0 0 1 1.67-.784h.059c1.924.05 3.935.1 6.002.147l-.008-.082a1.288 1.288 0 0 1-.008-.087 1.31 1.31 0 0 1-.01-.088 1.253 1.253 0 0 1-.008-.086 1.275 1.275 0 0 1-.009-.087 1.25 1.25 0 0 1-.009-.086 1.288 1.288 0 0 1-.009-.087 1.248 1.248 0 0 1-.009-.088 1.284 1.284 0 0 1-.008-.085 1.245 1.245 0 0 1-.01-.088 1.259 1.259 0 0 1-.008-.086 1.225 1.225 0 0 1-.009-.087 1.31 1.31 0 0 1-.009-.088 1.246 1.246 0 0 1-.009-.086l-.008-.073a2.118 2.118 0 0 1-.011-.115 1.616 1.616 0 0 1-.007-.072 1.248 1.248 0 0 1-.01-.088 1.246 1.246 0 0 1-.008-.086 1.279 1.279 0 0 1-.009-.087 1.259 1.259 0 0 1-.009-.086l-.008-.076a1.964 1.964 0 0 1 .431-1.507 764.796 764.796 0 0 1 1.714-6.235l-.005-.052a1.22 1.22 0 0 1-.009-.087 1.22 1.22 0 0 1-.008-.087 1.247 1.247 0 0 1-.01-.088 1.22 1.22 0 0 1-.008-.087 1.252 1.252 0 0 1-.009-.086 1.22 1.22 0 0 1-.009-.087 1.22 1.22 0 0 1-.009-.087 1.247 1.247 0 0 1-.009-.088 1.253 1.253 0 0 1-.008-.086 1.253 1.253 0 0 1-.01-.086 1.28 1.28 0 0 1-.008-.087 1.252 1.252 0 0 1-.009-.086 1.281 1.281 0 0 1-.009-.087 1.22 1.22 0 0 1-.009-.087 1.252 1.252 0 0 1-.008-.086 1.22 1.22 0 0 1-.01-.087 1.22 1.22 0 0 1-.008-.087 1.31 1.31 0 0 1-.009-.088 1.224 1.224 0 0 1-.009-.085 1.247 1.247 0 0 1-.009-.088 1.252 1.252 0 0 1-.009-.086 1.22 1.22 0 0 1-.008-.087 1.28 1.28 0 0 1-.01-.087 1.28 1.28 0 0 1-.008-.087 1.252 1.252 0 0 1-.009-.086 1.28 1.28 0 0 1-.009-.087 1.252 1.252 0 0 1-.009-.086 1.31 1.31 0 0 1-.009-.088 1.22 1.22 0 0 1-.008-.087 1.253 1.253 0 0 1-.01-.086 1.22 1.22 0 0 1-.008-.087A1.219 1.219 0 0 1 18.148 6a1.247 1.247 0 0 1-.009-.088l-.008-.073a1.956 1.956 0 0 1 .339-1.387 1.872 1.872 0 0 1 1.848-.762c3.673.63 7.41 1.174 11.104 1.612a3.229 3.229 0 0 1 1.886.882 1.927 1.927 0 0 1 1.514-.523c3.651.342 7.365.593 11.029.747.513.02.999.15 1.436.388.17.093.33.199.475.317a2.071 2.071 0 0 1 1.472-.606h.044a210.97 210.97 0 0 0 11.118-.104l.075-.001c.333 0 .66.08.95.23.29-.19.629-.301.989-.32 1.8-.094 3.631-.212 5.44-.35a1.955 1.955 0 0 1 1.771.852 1.992 1.992 0 0 1 1.62-1.15c1.097-.108 2.215-.227 3.32-.35a1.94 1.94 0 0 1 .925.122 1.9 1.9 0 0 1 .86-.333 218.05 218.05 0 0 0 11.097-1.71c.183-.034.372-.052.556-.052.407 0 .796.084 1.155.249.52.239.95.628 1.248 1.128a3.53 3.53 0 0 1 .474 1.464v.002l.008.086.01.087v.008l.007.08v.007l.008.08.009.084.009.087.008.088v.008l.008.08v.007l.008.08.01.084.008.086v.003l.009.087v.007l.008.079v.008l.007.079V7.4l.01.085.008.085a1.537 1.537 0 0 1 .01.098l.008.077v.008l.008.08.009.084.008.087.01.087.008.085a1.632 1.632 0 0 1 .009.088c.004.028.006.057.009.085v.003c.004.027.007.056.009.085l.009.087v.008l.007.079v.008l.008.079v.008l.008.08.009.084a2.404 2.404 0 0 1 .01.097l.008.078a1.318 1.318 0 0 1 .01.094l.007.08.01.083v.004l.008.086v.006a.95.95 0 0 1 .009.08v.007l.008.08v.007l.008.08v.001c.004.028.007.057.008.085.005.031.007.06.01.087v.008l.007.08v.007l.008.08c.004.028.007.057.009.085l.009.087.009.087v.008c.003.025.006.052.007.08v.007c.004.025.007.052.008.08v.007l.008.08c.061.497.022 1.01-.115 1.535a799.1 799.1 0 0 1-1.633 6.41c3.023-.069 6.057-.147 9.047-.23H98.654a1.93 1.93 0 0 1 1.377.578c.344.346.556.82.598 1.321.004.029.006.058.008.088.004.029.007.057.009.086l.009.087c.004.029.007.057.009.086.004.029.007.057.009.086.004.03.007.058.009.088a2.39 2.39 0 0 1 .017.174 1.3 1.3 0 0 1 .009.085c.004.029.007.057.009.087l.009.087c.004.029.007.057.009.086.004.028.007.058.009.087.004.028.006.057.008.085.004.028.007.057.009.087.004.028.007.058.009.087.004.028.007.057.009.086.004.028.007.058.009.087.004.028.007.058.009.087.004.028.006.056.009.085.004.03.006.058.008.088.004.028.007.057.009.086.004.028.007.058.009.087.004.028.007.058.009.087.004.028.007.057.009.085l.009.088.009.087.008.087.009.085.009.087.009.088.009.086.009.088a.831.831 0 0 1 .008.086l.009.087.009.087.009.086.009.087.009.086.009.086c.004.03.006.059.008.088l.009.086c.004.029.007.058.009.088l.009.086.009.086c.004.03.007.058.009.088.004.029.007.057.009.086l.008.088a20.12 20.12 0 0 1 .018.167c.033.257.021.514-.037.767a760.664 760.664 0 0 1-4.587 18.944c-.226.88-1.002 1.495-1.887 1.495-.138 0-.275-.014-.41-.044-1.425-.306-2.87-.606-4.293-.888l-.13-.025c-.91-.177-1.576-.959-1.647-1.899a2.013 2.013 0 0 1-.008-.077 1.22 1.22 0 0 1-.009-.087 1.342 1.342 0 0 1-.009-.087 1.217 1.217 0 0 1-.009-.087 1.325 1.325 0 0 1-.008-.086 1.22 1.22 0 0 1-.01-.087 1.318 1.318 0 0 1-.008-.086 1.304 1.304 0 0 1-.01-.088 1.278 1.278 0 0 1-.008-.087 1.26 1.26 0 0 1-.009-.086 1.318 1.318 0 0 1-.009-.086 1.22 1.22 0 0 1-.008-.087 1.307 1.307 0 0 1-.01-.088 1.225 1.225 0 0 1-.008-.087 1.252 1.252 0 0 1-.009-.086 1.253 1.253 0 0 1-.009-.086 1.281 1.281 0 0 1-.009-.087 1.279 1.279 0 0 1-.009-.087 1.225 1.225 0 0 1-.008-.087 1.253 1.253 0 0 1-.01-.086 1.281 1.281 0 0 1-.008-.087l-.006-.048c-.394.654-.79 1.305-1.189 1.95a1.939 1.939 0 0 1-1.977.902c-1.254-.21-2.53-.41-3.791-.595a2.04 2.04 0 0 1-1.726-1.852l-.002-.025-.007-.067-.002-.022a1.402 1.402 0 0 1-.007-.065l-.008-.07-.004-.038-.006-.05-.003-.037-.008-.086a9.721 9.721 0 0 1-.006-.057l-.003-.031a1.317 1.317 0 0 1-.007-.063l-.027-.252-.003-.03-.007-.066-.001-.022c-.004-.021-.005-.042-.007-.062l-.011-.11-.01-.086-.005-.05-.003-.036a10.797 10.797 0 0 1-.006-.058l-.003-.031a1.402 1.402 0 0 1-.007-.064l-.002-.022-.005-.054-.012-.117-.006-.056-.003-.031a.451.451 0 0 1-.004-.037l-.004-.021-.01-.117-.006-.054-.003-.032-.009-.086a7.373 7.373 0 0 1-.006-.067l-.006-.053-.005-.022-.01-.118a97.18 97.18 0 0 1-.005-.055l-.003-.032-.006-.055-.003-.03-.006-.056-.003-.03a9.721 9.721 0 0 0-.006-.057l-.003-.032-.006-.064-.017-.164-.003-.03-.009-.088-.006-.057-.003-.03a1.397 1.397 0 0 1-.007-.064l-.025-.25-.003-.03a10.778 10.778 0 0 0-.006-.056l-.003-.033-.007-.063-.01-.11-.007-.055-.003-.03-.005-.056-.003-.03a.413.413 0 0 1-.004-.036l-.005-.023-.01-.115c-.001-.014-.02-.21-.023-.228l-.003-.03-.006-.057-.178-1.95a791.911 791.911 0 0 1-1.901 6.033 1.962 1.962 0 0 1-2.09 1.362c-1.47-.16-2.967-.311-4.445-.447a2.004 2.004 0 0 1-1.525-.952 2.239 2.239 0 0 1-1.785.688 208.052 208.052 0 0 0-13.955-.471h-.282a4.07 4.07 0 0 1-1.822-.412 3.663 3.663 0 0 1-1.413-1.208 3.961 3.961 0 0 1-.68-1.917 12.003 12.003 0 0 0-.013-.13l-.766 2.351a2.128 2.128 0 0 1-1.93 1.466c-2.513.109-5.066.262-7.583.457a2.048 2.048 0 0 1-1.647-.62 2.122 2.122 0 0 1-.585-1.303l-.01-.085a1.288 1.288 0 0 1-.008-.087 1.252 1.252 0 0 1-.009-.087 1.282 1.282 0 0 1-.009-.087 1.246 1.246 0 0 1-.008-.086 1.213 1.213 0 0 1-.01-.087 1.278 1.278 0 0 1-.008-.086 1.23 1.23 0 0 1-.01-.085 1.41 1.41 0 0 1-.008-.09 1.281 1.281 0 0 1-.009-.084 1.342 1.342 0 0 1-.009-.087 1.346 1.346 0 0 1-.008-.087 1.326 1.326 0 0 1-.01-.086 1.38 1.38 0 0 1-.008-.088 1.312 1.312 0 0 1-.01-.086 1.346 1.346 0 0 1-.008-.087 1.356 1.356 0 0 1-.009-.087 1.325 1.325 0 0 1-.009-.086 1.31 1.31 0 0 1-.009-.088 1.311 1.311 0 0 1-.008-.086 1.277 1.277 0 0 1-.01-.087 1.356 1.356 0 0 1-.008-.087 1.319 1.319 0 0 1-.009-.086 1.31 1.31 0 0 1-.009-.088 1.312 1.312 0 0 1-.009-.086 1.278 1.278 0 0 1-.008-.087 1.35 1.35 0 0 1-.01-.087 1.318 1.318 0 0 1-.008-.086 1.31 1.31 0 0 1-.009-.088 1.311 1.311 0 0 1-.009-.086 1.377 1.377 0 0 1-.009-.088c-.004-.029-.006-.057-.008-.085a1.28 1.28 0 0 1-.01-.087 1.372 1.372 0 0 1-.008-.088 1.316 1.316 0 0 1-.01-.086 1.287 1.287 0 0 1-.008-.087 1.35 1.35 0 0 1-.009-.087 1.318 1.318 0 0 1-.009-.086 1.377 1.377 0 0 1-.009-.088 1.325 1.325 0 0 1-.008-.086 1.326 1.326 0 0 1-.01-.086 1.38 1.38 0 0 1-.008-.088 1.319 1.319 0 0 1-.009-.086 1.376 1.376 0 0 1-.009-.088 1.326 1.326 0 0 1-.009-.086 1.349 1.349 0 0 1-.008-.087 1.35 1.35 0 0 1-.01-.087l-.008-.085a1.377 1.377 0 0 1-.009-.087 1.371 1.371 0 0 1-.009-.09c0-.008-.002-.016-.003-.023l-.119-.513a854.859 854.859 0 0 0-1.747 5.866 2.153 2.153 0 0 1-1.816 1.547 188.98 188.98 0 0 0-3.842.479 2.027 2.027 0 0 1-2.02-.959c-.313.805-1.011 1.39-1.842 1.52a213.196 213.196 0 0 0-14.127 2.745c-.27.063-.547.096-.816.096h.007Zm32.647-22.92.526 2.25.396-1.218a1.764 1.764 0 0 1-.007-.073 1.225 1.225 0 0 1-.009-.087 1.38 1.38 0 0 1-.009-.088c-.004-.028-.006-.056-.009-.085a1.217 1.217 0 0 1-.009-.087 1.225 1.225 0 0 1-.008-.087 1.22 1.22 0 0 1-.01-.087 1.304 1.304 0 0 1-.008-.088c-.004-.027-.006-.056-.009-.084a1.217 1.217 0 0 1-.009-.087c0-.012-.003-.023-.004-.035l-.127-.002a1.931 1.931 0 0 1-.703-.144v.002Zm43.694.717.274-.527-.007-.072a1.281 1.281 0 0 1-.009-.087 1.22 1.22 0 0 1-.009-.087c-.004-.028-.006-.057-.008-.085a1.275 1.275 0 0 1-.01-.087 1.315 1.315 0 0 1-.008-.086 1.225 1.225 0 0 1-.01-.087 1.38 1.38 0 0 1-.008-.088 1.218 1.218 0 0 1-.009-.085v-.002l-.326.016.005.057c.004.028.007.056.008.085l.01.087.008.088.01.085.008.087.009.087c.004.028.007.057.009.087.004.03.007.058.008.087l.01.086.008.087.009.086.009.087.009.088.009.086v.01-.003Z" fill="#272D4A"/><path d="M9.385 44.975c-.49 0-.959-.107-1.392-.318a3.431 3.431 0 0 1-1.521-1.492c-.286-.536-.47-1.17-.55-1.886l-.005-.062a.933.933 0 0 1-.009-.086c0-.011-.003-.022-.004-.033a1.657 1.657 0 0 1-.007-.07l-.007-.071a.5.5 0 0 0-.004-.033l-.004-.052a.425.425 0 0 0-.004-.033l-.005-.055a.696.696 0 0 1-.009-.085l-.004-.033a.684.684 0 0 1-.005-.055l-.002-.017-.007-.07-.009-.086-.004-.035-.005-.053a.687.687 0 0 1-.012-.113l-.005-.058-.004-.032a1.571 1.571 0 0 1-.007-.072l-.007-.069-.004-.035-.005-.053-.003-.029a11.997 11.997 0 0 1-.006-.057c0-.01-.003-.022-.004-.032a.7.7 0 0 1-.005-.055l-.003-.031a5.272 5.272 0 0 1-.014-.14l-.004-.033-.005-.056a.696.696 0 0 1-.009-.086c0-.01-.003-.022-.004-.032a.656.656 0 0 1-.005-.055c0-.01-.003-.022-.004-.033l-.007-.069-.006-.07-.004-.035-.005-.054a.745.745 0 0 1-.009-.086 1.161 1.161 0 0 1-.009-.087l-.003-.026-.006-.062c0-.008-.002-.015-.003-.023l-.006-.062c0-.008-.002-.015-.003-.023l-.006-.064-.003-.024a6.572 6.572 0 0 0-.005-.063l-.003-.024-.006-.061-.003-.025-.006-.062-.003-.023a.87.87 0 0 1-.006-.064c0-.008-.002-.015-.003-.023l-.006-.063-.003-.026a6.594 6.594 0 0 0-.006-.061c0-.008-.002-.016-.003-.023a14.515 14.515 0 0 0-.008-.09l-.006-.06-.003-.025a4.544 4.544 0 0 0-.015-.147l-.003-.024a.797.797 0 0 1-.006-.063c0-.01-.002-.018-.003-.027l-.006-.06-.003-.025-.006-.06a1.954 1.954 0 0 0-.003-.026l-.014-.148-.003-.026-.006-.061c0-.008-.002-.015-.003-.023l-.006-.063-.003-.024-.006-.063-.003-.024a.781.781 0 0 1-.006-.064c0-.01-.002-.018-.003-.027a5.43 5.43 0 0 1-.006-.06l-.003-.025a6.83 6.83 0 0 1 .116-2.116l.006-.027a876.539 876.539 0 0 1 2.84-12.41v-.01c-.005-.028-.007-.057-.01-.086l-.008-.087a1.957 1.957 0 0 1-.01-.09 1.668 1.668 0 0 1-.008-.083l-.009-.086a1.25 1.25 0 0 1-.009-.087 1.243 1.243 0 0 1-.009-.087 1.244 1.244 0 0 1-.008-.09l-.01-.084a12.806 12.806 0 0 1-.008-.086l-.009-.087-.009-.087a1.238 1.238 0 0 1-.009-.09l-.009-.084-.008-.086a12.806 12.806 0 0 1-.01-.086l-.008-.087a12.806 12.806 0 0 1-.035-.347l-.01-.087a12.806 12.806 0 0 1-.035-.347l-.009-.087a1.238 1.238 0 0 1-.008-.089l-.008-.08c-.093-.736.12-1.487.576-2.025a2.193 2.193 0 0 1 1.67-.784h.059c1.924.05 3.935.099 6.002.146l-.008-.082a1.275 1.275 0 0 1-.008-.087 1.308 1.308 0 0 1-.01-.087 1.253 1.253 0 0 1-.008-.087 1.281 1.281 0 0 1-.009-.087 1.246 1.246 0 0 1-.009-.085 1.278 1.278 0 0 1-.009-.087 1.254 1.254 0 0 1-.009-.088 1.29 1.29 0 0 1-.008-.085 1.248 1.248 0 0 1-.01-.088 1.246 1.246 0 0 1-.008-.086 1.217 1.217 0 0 1-.009-.087A1.317 1.317 0 0 1 16.37 16a1.253 1.253 0 0 1-.009-.086l-.008-.073a2.122 2.122 0 0 1-.011-.115 1.597 1.597 0 0 1-.007-.072 1.248 1.248 0 0 1-.01-.088 1.252 1.252 0 0 1-.008-.086 1.275 1.275 0 0 1-.009-.087 1.246 1.246 0 0 1-.009-.086 1.942 1.942 0 0 1-.008-.076 1.964 1.964 0 0 1 .431-1.507 765.135 765.135 0 0 1 1.714-6.235l-.005-.053a1.219 1.219 0 0 1-.009-.086 1.22 1.22 0 0 1-.008-.087 1.248 1.248 0 0 1-.01-.088 1.22 1.22 0 0 1-.008-.087 1.253 1.253 0 0 1-.009-.086 1.22 1.22 0 0 1-.009-.087 1.22 1.22 0 0 1-.009-.087 1.248 1.248 0 0 1-.009-.088 1.252 1.252 0 0 1-.008-.086 1.252 1.252 0 0 1-.01-.086 1.281 1.281 0 0 1-.008-.087 1.252 1.252 0 0 1-.009-.086 1.28 1.28 0 0 1-.009-.087 1.22 1.22 0 0 1-.009-.087 1.252 1.252 0 0 1-.008-.086 1.22 1.22 0 0 1-.01-.087 1.22 1.22 0 0 1-.008-.087 1.31 1.31 0 0 1-.009-.088 1.225 1.225 0 0 1-.009-.085 1.248 1.248 0 0 1-.009-.088 1.252 1.252 0 0 1-.009-.086 1.22 1.22 0 0 1-.008-.087 1.281 1.281 0 0 1-.01-.087 1.28 1.28 0 0 1-.008-.087 1.252 1.252 0 0 1-.009-.086 1.282 1.282 0 0 1-.009-.087 1.252 1.252 0 0 1-.009-.086 1.31 1.31 0 0 1-.009-.088 1.22 1.22 0 0 1-.008-.087 1.252 1.252 0 0 1-.01-.086 1.22 1.22 0 0 1-.008-.087 1.22 1.22 0 0 1-.009-.087 1.247 1.247 0 0 1-.009-.088l-.008-.073a1.956 1.956 0 0 1 .339-1.388 1.872 1.872 0 0 1 1.848-.762c3.673.631 7.41 1.175 11.104 1.612a3.229 3.229 0 0 1 1.886.883 1.927 1.927 0 0 1 1.514-.523c3.651.342 7.365.593 11.029.746.513.02.999.15 1.436.389.17.093.33.198.475.317a2.071 2.071 0 0 1 1.472-.606h.044a210.863 210.863 0 0 0 11.118-.105h.075c.333 0 .66.08.95.23.29-.19.629-.302.989-.32 1.8-.094 3.631-.212 5.44-.35a1.955 1.955 0 0 1 1.771.852 1.992 1.992 0 0 1 1.62-1.15 308.44 308.44 0 0 0 3.32-.35 1.94 1.94 0 0 1 .925.122 1.9 1.9 0 0 1 .86-.333 218.05 218.05 0 0 0 11.097-1.711A3.1 3.1 0 0 1 88 2c.407 0 .796.084 1.155.25.52.239.95.628 1.248 1.127a3.53 3.53 0 0 1 .474 1.465v.002l.008.086.01.087v.008l.007.079v.008l.008.079.009.085.009.087.008.088v.008l.008.079v.008l.008.08.01.084.008.086v.003c.004.028.007.058.009.087v.007l.008.079v.008l.007.079v.002l.01.085.008.085a1.536 1.536 0 0 1 .01.098l.008.077v.008l.008.08.009.084.008.087.01.087.008.085a1.63 1.63 0 0 1 .009.088c.004.028.006.057.009.085v.002c.004.028.007.057.009.085l.009.087v.008l.007.08v.007l.008.08v.007l.008.08.009.084a2.402 2.402 0 0 1 .01.098l.008.077a1.318 1.318 0 0 1 .01.095l.007.08.01.082v.004l.008.087v.006a.95.95 0 0 1 .009.08v.007l.008.08v.007l.008.08v.001c.004.028.007.057.008.085.005.03.007.06.01.087v.008l.007.08v.007l.008.08c.004.028.007.056.009.085l.009.087.009.087v.008c.003.025.006.051.007.079v.008c.004.025.007.051.008.079v.008l.008.08c.061.497.022 1.01-.115 1.535a797.995 797.995 0 0 1-1.633 6.41c3.023-.069 6.057-.147 9.047-.23H98.654a1.93 1.93 0 0 1 1.377.577c.344.347.556.82.598 1.322.004.029.006.058.008.088.004.028.007.057.009.086.004.028.007.058.009.087.004.028.007.057.009.086.004.028.007.057.009.086.004.03.007.058.009.088a2.416 2.416 0 0 1 .017.174c.004.028.007.057.009.085.004.028.007.057.009.087.004.028.007.058.009.087.004.028.007.057.009.086.004.028.007.058.009.087.004.028.006.057.008.085.004.028.007.057.009.087.004.028.007.058.009.087.004.028.007.057.009.085l.009.087.009.087.009.085c.004.03.006.059.008.088l.009.086.009.087.009.087.009.086c.004.029.007.059.009.088l.009.086.008.088a1.3 1.3 0 0 1 .009.085l.009.087c.004.029.007.059.009.088l.009.086c.004.029.007.058.009.088a.833.833 0 0 1 .008.086c.004.029.007.057.009.087l.009.087c.004.029.007.057.009.086l.009.087c.004.029.007.057.009.086.004.029.007.057.009.086.004.03.006.058.008.088.004.029.007.057.009.086.004.029.007.058.009.088.004.029.007.057.009.086.004.029.007.057.009.086.004.03.007.058.009.088.004.028.007.057.009.086l.008.088c.004.028.007.057.009.086l.009.08c.033.258.021.515-.037.768a760.557 760.557 0 0 1-4.587 18.944c-.226.88-1.002 1.495-1.887 1.495-.138 0-.275-.015-.41-.044-1.425-.307-2.87-.606-4.293-.888l-.13-.026c-.91-.176-1.576-.958-1.647-1.898a2.013 2.013 0 0 1-.008-.077 1.225 1.225 0 0 1-.009-.087 1.349 1.349 0 0 1-.009-.087 1.22 1.22 0 0 1-.009-.087 1.311 1.311 0 0 1-.008-.086 1.217 1.217 0 0 1-.01-.087 1.325 1.325 0 0 1-.008-.086 1.31 1.31 0 0 1-.01-.088 1.274 1.274 0 0 1-.008-.087 1.25 1.25 0 0 1-.009-.086 1.325 1.325 0 0 1-.009-.086 1.225 1.225 0 0 1-.008-.087 1.31 1.31 0 0 1-.01-.088 1.213 1.213 0 0 1-.008-.087 1.25 1.25 0 0 1-.009-.086 1.26 1.26 0 0 1-.009-.086 1.281 1.281 0 0 1-.009-.087 1.282 1.282 0 0 1-.009-.087 1.214 1.214 0 0 1-.008-.087 1.25 1.25 0 0 1-.01-.086 1.288 1.288 0 0 1-.008-.087l-.006-.048c-.394.654-.79 1.304-1.189 1.95a1.939 1.939 0 0 1-1.977.902c-1.254-.21-2.53-.41-3.791-.595a2.04 2.04 0 0 1-1.726-1.852l-.002-.026-.007-.066-.002-.023-.007-.064-.008-.071-.004-.038-.006-.05-.003-.037-.008-.086a11.997 11.997 0 0 1-.006-.056l-.003-.032a1.313 1.313 0 0 1-.007-.062l-.027-.252-.003-.03-.007-.066-.001-.023c-.004-.02-.005-.041-.007-.06l-.011-.111-.01-.086-.005-.05-.003-.036-.006-.058-.003-.031a1.397 1.397 0 0 1-.007-.065l-.002-.021-.005-.055-.012-.116-.006-.057-.003-.03a.451.451 0 0 1-.004-.037l-.004-.022-.01-.116a10.003 10.003 0 0 0-.006-.055L78.998 38l-.009-.086a7.303 7.303 0 0 1-.006-.068l-.006-.052-.005-.023-.01-.117a97.18 97.18 0 0 0-.005-.056l-.003-.031-.006-.056-.003-.03-.006-.056-.003-.03-.006-.056-.003-.032-.006-.064-.017-.164-.003-.03-.009-.088-.006-.057-.003-.03a1.397 1.397 0 0 1-.007-.064l-.025-.25-.003-.03a11.997 11.997 0 0 0-.006-.056l-.003-.033a1.226 1.226 0 0 1-.007-.063l-.01-.11a97.18 97.18 0 0 1-.007-.055l-.003-.03-.005-.056-.003-.03a.41.41 0 0 1-.004-.036l-.005-.023-.01-.115c-.001-.015-.02-.21-.023-.228l-.003-.03-.006-.057-.178-1.95a791.887 791.887 0 0 1-1.901 6.033 1.962 1.962 0 0 1-2.09 1.362c-1.47-.16-2.967-.311-4.445-.447a2.005 2.005 0 0 1-1.525-.952 2.239 2.239 0 0 1-1.785.688 208.052 208.052 0 0 0-13.955-.471h-.282a4.07 4.07 0 0 1-1.822-.412 3.663 3.663 0 0 1-1.413-1.208 3.962 3.962 0 0 1-.68-1.918 12.003 12.003 0 0 0-.013-.13l-.766 2.352a2.128 2.128 0 0 1-1.93 1.466c-2.513.109-5.066.262-7.583.457a2.049 2.049 0 0 1-1.647-.62 2.122 2.122 0 0 1-.585-1.304l-.01-.085a1.275 1.275 0 0 1-.008-.087 1.25 1.25 0 0 1-.009-.086 1.288 1.288 0 0 1-.009-.087 1.252 1.252 0 0 1-.008-.086 1.22 1.22 0 0 1-.01-.087 1.275 1.275 0 0 1-.008-.087 1.218 1.218 0 0 1-.01-.085 1.408 1.408 0 0 1-.008-.089 1.288 1.288 0 0 1-.009-.085 1.35 1.35 0 0 1-.009-.087 1.349 1.349 0 0 1-.008-.087 1.312 1.312 0 0 1-.01-.086 1.376 1.376 0 0 1-.008-.087 1.319 1.319 0 0 1-.01-.087 1.349 1.349 0 0 1-.008-.087 1.342 1.342 0 0 1-.009-.086 1.315 1.315 0 0 1-.009-.086 1.317 1.317 0 0 1-.009-.088 1.318 1.318 0 0 1-.008-.086 1.28 1.28 0 0 1-.01-.087 1.346 1.346 0 0 1-.008-.087 1.326 1.326 0 0 1-.009-.086 1.317 1.317 0 0 1-.009-.088 1.319 1.319 0 0 1-.009-.086 1.274 1.274 0 0 1-.008-.087 1.346 1.346 0 0 1-.01-.087 1.325 1.325 0 0 1-.008-.086 1.31 1.31 0 0 1-.009-.088 1.318 1.318 0 0 1-.009-.086 1.377 1.377 0 0 1-.009-.088c-.004-.029-.006-.057-.008-.085a1.287 1.287 0 0 1-.01-.087 1.38 1.38 0 0 1-.008-.088 1.312 1.312 0 0 1-.01-.086 1.274 1.274 0 0 1-.008-.087 1.346 1.346 0 0 1-.009-.087 1.325 1.325 0 0 1-.009-.086 1.38 1.38 0 0 1-.009-.088 1.311 1.311 0 0 1-.008-.086 1.312 1.312 0 0 1-.01-.086 1.376 1.376 0 0 1-.008-.088 1.319 1.319 0 0 1-.009-.086 1.38 1.38 0 0 1-.009-.088 1.312 1.312 0 0 1-.009-.086 1.346 1.346 0 0 1-.008-.087 1.35 1.35 0 0 1-.01-.087l-.008-.085a1.38 1.38 0 0 1-.009-.088 1.368 1.368 0 0 1-.009-.09c0-.008-.002-.016-.003-.022l-.119-.513a856.514 856.514 0 0 0-1.747 5.866 2.153 2.153 0 0 1-1.816 1.546c-1.278.147-2.571.308-3.842.48a2.053 2.053 0 0 1-1.727-.583 2.089 2.089 0 0 1-.294-.376c-.312.805-1.01 1.39-1.841 1.52a213.196 213.196 0 0 0-14.127 2.745c-.27.063-.547.096-.816.096h.007Z" fill="#59628A"/><path d="M99.323 23.314a.42.42 0 0 0-.01-.087.42.42 0 0 0-.008-.087.42.42 0 0 0-.009-.087c0-.03-.003-.06-.009-.087a.42.42 0 0 0-.009-.087.42.42 0 0 0-.008-.087.42.42 0 0 0-.01-.087.42.42 0 0 0-.008-.087c0-.03-.003-.06-.009-.087a.42.42 0 0 0-.009-.087.42.42 0 0 0-.009-.087.42.42 0 0 0-.008-.087c0-.03-.003-.06-.01-.087a.42.42 0 0 0-.008-.087.42.42 0 0 0-.009-.087.42.42 0 0 0-.009-.087c0-.03-.003-.06-.009-.087a.42.42 0 0 0-.009-.087.42.42 0 0 0-.008-.087.42.42 0 0 0-.01-.087c0-.03-.002-.06-.008-.087a.42.42 0 0 0-.009-.087.42.42 0 0 0-.009-.087.42.42 0 0 0-.009-.087c0-.03-.003-.06-.008-.087a.42.42 0 0 0-.01-.087.42.42 0 0 0-.008-.087.42.42 0 0 0-.01-.087.42.42 0 0 0-.008-.087c0-.03-.003-.059-.009-.087a.42.42 0 0 0-.009-.087.42.42 0 0 0-.008-.087.42.42 0 0 0-.01-.087c0-.03-.002-.059-.008-.087a.42.42 0 0 0-.009-.087.42.42 0 0 0-.009-.086.42.42 0 0 0-.009-.087c0-.03-.003-.06-.009-.087a.42.42 0 0 0-.008-.087.42.42 0 0 0-.01-.087.42.42 0 0 0-.008-.087c0-.03-.003-.06-.009-.087a.42.42 0 0 0-.009-.087.42.42 0 0 0-.009-.087.42.42 0 0 0-.009-.087c0-.03-.003-.06-.008-.087a.42.42 0 0 0-.01-.087.42.42 0 0 0-.008-.087.42.42 0 0 0-.009-.087.42.42 0 0 0-.009-.087c0-.165-.092-.308-.217-.304-3.657.103-7.313.195-10.97.275-.163.004-.25.195-.21.352 0 .03.002.058.009.087 0 .03.002.058.009.087 0 .03.002.058.008.087 0 .03.002.058.01.087 0 .03.001.058.008.087 0 .03.002.058.009.087 0 .03.002.058.009.087 0 .03.002.058.009.087 0 .03.002.058.009.087 0 .03.001.058.008.087 0 .03.002.058.01.087 0 .03.001.058.008.087 0 .03.002.058.009.087 0 .03.002.058.009.087 0 .03.002.058.009.087 0 .03.002.058.008.087 0 .03.002.058.01.087 0 .03.001.058.008.087 0 .03.002.058.01.087 0 .03.001.058.008.087 0 .03.002.058.009.087 0 .03.002.058.009.087 0 .03.002.058.008.086 0 .03.002.059.01.087 0 .03.001.059.008.087 0 .03.002.059.009.087 0 .03.002.059.009.087 0 .03.002.059.009.087 0 .03.002.059.009.087 0 .03.002.059.008.087 0 .03.002.059.01.087 0 .03.001.059.008.087 0 .03.002.059.009.087 0 .03.002.058.009.087 0 .03.002.058.009.087 0 .03.002.058.008.087 0 .03.002.058.01.087 0 .027.001.055.007.08a264.578 264.578 0 0 1-3.401 6.377.198.198 0 0 1-.136.104c-.08-1.791-.158-3.582-.239-5.373a.229.229 0 0 0-.008-.052c0-.011 0-.023-.002-.034a.234.234 0 0 0-.008-.052.379.379 0 0 0-.01-.086.379.379 0 0 0-.01-.086l-.001-.034a.234.234 0 0 0-.008-.052.379.379 0 0 0-.002-.034c0-.019-.004-.035-.008-.052a.38.38 0 0 0-.01-.086c0-.011 0-.023-.002-.034 0-.018-.004-.035-.008-.052a.376.376 0 0 0-.01-.086.376.376 0 0 0-.01-.086l-.001-.034a.234.234 0 0 0-.008-.052.379.379 0 0 0-.01-.086.379.379 0 0 0-.01-.086c0-.011 0-.023-.002-.034a.234.234 0 0 0-.008-.052.38.38 0 0 0-.01-.086.38.38 0 0 0-.01-.086l-.001-.034a.234.234 0 0 0-.008-.052l-.002-.034c0-.018-.004-.035-.008-.052a.376.376 0 0 0-.01-.086c0-.01 0-.023-.002-.034 0-.018-.004-.035-.008-.052a.379.379 0 0 0-.01-.086.379.379 0 0 0-.01-.086l-.001-.034a.234.234 0 0 0-.008-.052.38.38 0 0 0-.01-.086.38.38 0 0 0-.01-.086.376.376 0 0 0-.01-.086.376.376 0 0 0-.01-.086.378.378 0 0 0-.01-.086l-.001-.034a.234.234 0 0 0-.008-.052.379.379 0 0 0-.002-.034c0-.018-.004-.035-.008-.052a.38.38 0 0 0-.002-.034c0-.018-.004-.035-.008-.052 0-.01 0-.023-.002-.034a.235.235 0 0 0-.008-.052l-.002-.034a.229.229 0 0 0-.008-.052.376.376 0 0 0-.01-.086.376.376 0 0 0-.01-.086.379.379 0 0 0-.009-.086.378.378 0 0 0-.01-.086.379.379 0 0 0-.01-.086l-.002-.033a.229.229 0 0 0-.008-.053.38.38 0 0 0-.01-.086.38.38 0 0 0-.01-.086l-.001-.033a.22.22 0 0 0-.008-.053.376.376 0 0 0-.01-.086.379.379 0 0 0-.01-.086.379.379 0 0 0-.01-.086.378.378 0 0 0-.01-.086.379.379 0 0 0-.01-.086.38.38 0 0 0-.009-.086.38.38 0 0 0-.01-.086.376.376 0 0 0-.01-.086.376.376 0 0 0-.01-.086l-.001-.033c-.006-.137-.103-.241-.22-.24-1.715.032-3.43.06-5.146.088l.298-1.028a.153.153 0 0 0-.007-.105.162.162 0 0 0-.008-.087.162.162 0 0 0-.01-.087.162.162 0 0 0-.008-.087.162.162 0 0 0-.009-.087.162.162 0 0 0-.009-.087.162.162 0 0 0-.009-.087.162.162 0 0 0-.009-.087.162.162 0 0 0-.008-.087.162.162 0 0 0-.01-.087.162.162 0 0 0-.008-.087v-.003c1.709-.113 3.418-.235 5.126-.367l-.008.005.138-.007c-.04.03-.08.059-.129.093l.138-.006-.129.092.138-.006c-.04.028-.08.058-.13.092l.138-.006-.128.092.137-.006-.128.092.137-.007c-.04.03-.08.059-.129.093l.138-.007c-.04.03-.08.059-.129.093l.138-.007c-.04.03-.08.059-.129.093l.138-.007c-.04.03-.08.059-.129.093l.138-.007c-.04.03-.081.059-.13.093l.138-.007c-.039.03-.08.059-.128.093l.137-.007-.128.093.137-.007c-.04.029-.08.059-.129.093l.138-.007c-.04.029-.08.059-.129.093l.138-.007c-.04.029-.08.059-.129.093l.138-.007c-.04.029-.08.059-.13.093l.139-.007-.13.093.138-.007-.128.093.137-.007c-.039.029-.08.059-.129.093l.138-.007c-.04.029-.08.059-.129.093l.138-.007c-.04.029-.08.059-.129.093l.138-.007c-.04.029-.08.059-.129.093l.138-.007c-.04.029-.08.059-.13.093l.139-.007-.13.093.138-.007-.128.093.137-.007c-.04.029-.08.059-.129.093l.138-.007-.129.093.138-.007c-.04.029-.08.059-.129.093l.138-.007-.129.093.138-.007-.13.093.139-.007-.13.093.138-.007-.129.093.138-.007-.129.093.138-.007-.129.093.138-.007-.129.093.443-.02c1.074-.051 1.611-.078 2.686-.133.057-.003.107-.05.125-.117.81-3.077 1.6-6.16 2.374-9.249.08-.308.106-.6.073-.87l-.005-.027-.004-.06-.005-.027-.004-.06-.005-.027-.004-.06c0-.01-.004-.018-.005-.027l-.004-.06c0-.01-.004-.017-.005-.027l-.004-.06c0-.01-.004-.018-.005-.027l-.003-.06-.005-.027-.004-.06-.005-.027-.004-.06-.005-.027-.004-.06c0-.01-.004-.018-.005-.027l-.004-.06c0-.01-.004-.018-.005-.027l-.004-.06c0-.01-.004-.018-.005-.027-.001-.02-.001-.04-.004-.06 0-.01-.003-.018-.004-.027l-.004-.06-.005-.027-.004-.06-.005-.027-.004-.06-.005-.027-.004-.06c0-.01-.004-.018-.005-.027l-.004-.06c0-.01-.004-.018-.005-.027l-.004-.06c0-.01-.003-.018-.004-.027-.002-.02-.002-.04-.005-.06 0-.01-.003-.018-.004-.027l-.004-.06-.005-.027-.004-.06-.005-.027-.004-.06-.005-.027-.004-.06c0-.01-.004-.018-.005-.027l-.004-.06c0-.009-.004-.018-.005-.027l-.004-.06c0-.009-.004-.018-.004-.027l-.004-.06-.005-.027-.004-.06-.005-.027-.004-.06-.005-.027-.004-.059c0-.01-.004-.019-.005-.028l-.004-.059c0-.01-.004-.019-.005-.028l-.004-.059c0-.01-.004-.019-.005-.028l-.004-.059c0-.01-.003-.019-.004-.028l-.004-.059-.005-.028-.004-.059-.005-.028-.004-.059-.005-.028-.004-.059c0-.01-.004-.019-.005-.028l-.004-.059c0-.01-.004-.018-.005-.028l-.004-.059c0-.01-.004-.019-.005-.027l-.004-.06c0-.01-.003-.019-.004-.027l-.004-.06-.005-.027-.004-.06-.005-.027-.004-.06-.005-.027-.004-.06c0-.01-.004-.018-.005-.027l-.004-.06c0-.01-.004-.018-.005-.027l-.004-.06c0-.01-.004-.018-.005-.027l-.003-.06-.005-.027-.004-.06-.005-.027-.004-.06-.005-.027-.004-.06c0-.01-.004-.018-.005-.027l-.004-.06c0-.01-.004-.018-.005-.027l-.004-.06a1.778 1.778 0 0 0-.228-.687 1.044 1.044 0 0 0-.464-.423 1.084 1.084 0 0 0-.662-.065 217.563 217.563 0 0 1-11.194 1.726c-.104.013-.155.135-.119.217a.146.146 0 0 0 .01.087.146.146 0 0 0 .008.087.146.146 0 0 0 .009.087.146.146 0 0 0 .009.087.146.146 0 0 0 .009.087.146.146 0 0 0 .009.087.146.146 0 0 0 .008.087.146.146 0 0 0 .01.087.146.146 0 0 0 .008.087.146.146 0 0 0 .009.087.146.146 0 0 0 .009.087.146.146 0 0 0 .009.087.146.146 0 0 0 .008.087.146.146 0 0 0 .01.087.146.146 0 0 0 .008.087.146.146 0 0 0 .01.087.146.146 0 0 0 .008.087.146.146 0 0 0 .009.087.146.146 0 0 0 .009.087.146.146 0 0 0 .008.087.146.146 0 0 0 .01.087.146.146 0 0 0 .008.087.146.146 0 0 0 .01.087.146.146 0 0 0 .008.087.146.146 0 0 0 .009.087.146.146 0 0 0 .009.087.146.146 0 0 0 .008.087.146.146 0 0 0 .01.087.146.146 0 0 0 .008.087.146.146 0 0 0 .009.087.146.146 0 0 0 .009.087.146.146 0 0 0 .009.087.146.146 0 0 0 .009.087.146.146 0 0 0 .008.087.163.163 0 0 0 .007.084 901.424 901.424 0 0 1-1.906 6.51.15.15 0 0 1-.06.081l-.133.088a.148.148 0 0 0-.053.182.155.155 0 0 0 .008.087.155.155 0 0 0 .01.087.154.154 0 0 0 .008.087.155.155 0 0 0 .01.087.155.155 0 0 0 .008.087.155.155 0 0 0 .009.087.154.154 0 0 0 .009.087.155.155 0 0 0 .009.087.155.155 0 0 0 .008.087.155.155 0 0 0 .01.087.154.154 0 0 0 .008.087.155.155 0 0 0 .009.087.155.155 0 0 0 .009.087.155.155 0 0 0 .009.087.154.154 0 0 0 .008.087.155.155 0 0 0 .01.087.155.155 0 0 0 .008.087.155.155 0 0 0 .009.087.154.154 0 0 0 .009.086.155.155 0 0 0 .009.087.155.155 0 0 0 .008.087.155.155 0 0 0 .01.087.155.155 0 0 0 .008.087.154.154 0 0 0 .01.087.155.155 0 0 0 .008.087.155.155 0 0 0 .009.087.155.155 0 0 0 .009.087.154.154 0 0 0 .008.087.154.154 0 0 0 .01.087.154.154 0 0 0 .008.087.154.154 0 0 0 .01.087.154.154 0 0 0 .008.087.155.155 0 0 0 .009.087.155.155 0 0 0 .009.087.155.155 0 0 0 .008.087.154.154 0 0 0 .01.087.155.155 0 0 0 .008.087.155.155 0 0 0 .009.087.155.155 0 0 0 .009.087.155.155 0 0 0 .009.087.156.156 0 0 0 0 .06l-2 .029a.217.217 0 0 0-.198.132 898.034 898.034 0 0 0 2.652-8.887.247.247 0 0 0 0-.136c.003-.031 0-.06-.009-.087.003-.031 0-.06-.009-.087.003-.031 0-.06-.008-.087.002-.031 0-.06-.01-.087.004-.031 0-.06-.008-.087.003-.031 0-.06-.01-.087.004-.03 0-.06-.008-.087.003-.03 0-.06-.009-.087.003-.03 0-.06-.009-.087.003-.03 0-.06-.009-.087.003-.03 0-.06-.008-.087.003-.03 0-.06-.01-.087.004-.03 0-.06-.008-.087.003-.03 0-.06-.009-.087.003-.03 0-.06-.009-.087.003-.03 0-.06-.009-.087.003-.03 0-.06-.008-.087.002-.03 0-.06-.01-.087.004-.03 0-.06-.008-.087.003-.03 0-.06-.009-.087.003-.03 0-.06-.009-.087.003-.03 0-.06-.009-.087.003-.03 0-.06-.008-.087.002-.03 0-.06-.01-.087.004-.03 0-.06-.008-.087.003-.03 0-.06-.01-.087.004-.03 0-.06-.008-.087.003-.03 0-.06-.009-.087.003-.03 0-.06-.009-.087.003-.03 0-.06-.008-.087.002-.03 0-.059-.01-.087.004-.03 0-.059-.008-.087.003-.03 0-.059-.009-.087.003-.03 0-.059-.009-.087.003-.03 0-.059-.009-.087.003-.03 0-.059-.009-.087.003-.03 0-.059-.008-.087.002-.03 0-.059-.01-.087.004-.03 0-.059-.008-.087.003-.03 0-.059-.009-.086.003-.031 0-.06-.009-.087.003-.031 0-.06-.009-.087.003-.031 0-.06-.008-.087.002-.031 0-.06-.01-.087.004-.031 0-.06-.008-.087.003-.031 0-.06-.01-.087.004-.031 0-.06-.008-.087.003-.031 0-.06-.009-.087.003-.03 0-.06-.009-.087.003-.03 0-.06-.009-.087.012-.132-.082-.24-.21-.226-1.115.125-2.23.243-3.345.354-.159.016-.241.182-.202.309-.003.03 0 .059.009.087-.003.03 0 .059.009.087-.003.03 0 .059.009.087-.003.03 0 .059.008.087-.002.03 0 .059.01.086-.004.03 0 .06.008.087-.003.03 0 .06.009.087-.003.03 0 .06.009.087-.003.03 0 .06.009.087-.003.03 0 .06.008.087-.002.03 0 .06.01.087-.004.03 0 .06.008.087-.003.03 0 .06.01.087-.004.03 0 .06.008.087-.003.03 0 .06.009.087-.003.03 0 .06.009.087-.003.03 0 .06.008.087-.003.03 0 .06.01.087-.004.03 0 .06.008.087-.003.03 0 .06.009.087-.003.03 0 .06.009.087-.003.03 0 .06.009.087-.003.03 0 .06.009.087-.003.03 0 .06.008.087-.002.03 0 .06.01.087-.004.03 0 .06.008.087-.002.02 0 .04.002.06-.44 1.46-.882 2.917-1.328 4.375-.066.214-.36.214-.409 0a1798.29 1798.29 0 0 0-1.516-6.545.195.195 0 0 0-.206-.151 242.28 242.28 0 0 1-5.485.351.223.223 0 0 0-.202.287c-.003.03 0 .058.009.087-.003.03 0 .058.008.087-.003.03 0 .058.01.087-.004.03 0 .058.008.087-.003.03 0 .058.009.087-.003.03 0 .058.009.087-.003.03 0 .058.009.087-.003.03 0 .058.009.087-.003.03 0 .058.008.087-.002.03 0 .058.01.087-.004.03 0 .058.008.087-.003.03 0 .058.009.087-.003.03 0 .058.009.087-.003.03 0 .058.009.087-.003.03 0 .058.008.087-.002.03 0 .058.01.087-.004.03 0 .058.008.087-.003.03 0 .058.01.087-.004.03 0 .058.008.087-.003.03 0 .058.009.087-.003.03 0 .058.009.087-.003.03 0 .058.008.087-.003.03 0 .058.01.087-.004.03 0 .058.008.087-.003.03 0 .058.009.087-.001.011-.002.022-.001.034-.676 2.1-1.355 4.198-2.038 6.294a.215.215 0 0 1-.095.118.206.206 0 0 0-.094.245c-.003.03 0 .058.008.087-.002.03 0 .058.01.087-.004.03 0 .058.008.087-.003.03 0 .058.01.087-.004.03 0 .058.008.087-.003.03 0 .058.009.087-.003.03 0 .058.009.087-.003.03 0 .058.008.087-.003.03 0 .058.01.087-.004.03 0 .058.008.087-.003.03 0 .058.009.087-.003.03 0 .058.009.087-.003.03 0 .058.009.086-.003.03 0 .059.009.087-.003.03 0 .059.008.087-.002.03 0 .059.01.087-.004.03 0 .059.008.087-.003.03 0 .059.009.087-.003.03 0 .059.009.087-.003.03 0 .059.009.087-.003.03 0 .059.008.087-.002.03 0 .059.01.087-.004.03 0 .058.008.087-.003.03 0 .058.01.087-.004.03 0 .058.008.087-.003.03 0 .058.009.087-.003.03 0 .058.009.087-.003.03 0 .058.008.087-.003.03 0 .058.01.087-.004.03 0 .058.008.087-.003.03 0 .058.009.087-.003.03 0 .058.009.087-.003.03 0 .058.009.087-.003.03 0 .058.009.087-.003.03 0 .058.008.087-.002.03 0 .058.01.087-.004.03 0 .058.008.087-.003.03 0 .058.009.087-.003.03 0 .058.009.087l-.001.02-1.909.008.175-.538a.31.31 0 0 0 .006-.17.29.29 0 0 0-.009-.086.287.287 0 0 0-.009-.087.289.289 0 0 0-.008-.087.286.286 0 0 0-.01-.087.29.29 0 0 0-.008-.087.287.287 0 0 0-.009-.087.289.289 0 0 0-.009-.087.286.286 0 0 0-.009-.087.29.29 0 0 0-.009-.087.287.287 0 0 0-.008-.087.289.289 0 0 0-.01-.087.286.286 0 0 0-.008-.087.29.29 0 0 0-.009-.087.287.287 0 0 0-.009-.087.289.289 0 0 0-.009-.087.286.286 0 0 0-.008-.087.29.29 0 0 0-.01-.087.287.287 0 0 0-.008-.087.289.289 0 0 0-.01-.087.286.286 0 0 0-.008-.087.29.29 0 0 0-.009-.087.286.286 0 0 0-.009-.087.302.302 0 0 0-.007-.079l.42-1.287a.313.313 0 0 0 .005-.17.287.287 0 0 0-.009-.087.286.286 0 0 0-.008-.086.29.29 0 0 0-.01-.088.29.29 0 0 0-.008-.087.29.29 0 0 0-.009-.087.29.29 0 0 0-.009-.087.289.289 0 0 0-.009-.086.29.29 0 0 0-.009-.087.29.29 0 0 0-.008-.087.29.29 0 0 0-.01-.087.286.286 0 0 0-.008-.087.286.286 0 0 0-.009-.087.286.286 0 0 0-.009-.087.287.287 0 0 0-.009-.087.286.286 0 0 0-.008-.087.286.286 0 0 0-.01-.087.286.286 0 0 0-.008-.087.287.287 0 0 0-.009-.087.286.286 0 0 0-.009-.087c0-.018 0-.035-.003-.052.487-.01.975-.022 1.462-.035a.339.339 0 0 0 .31-.232l.495-1.516c.02-.06.02-.12.006-.172a.322.322 0 0 0-.01-.088.322.322 0 0 0-.008-.086.321.321 0 0 0-.009-.087.321.321 0 0 0-.009-.087.322.322 0 0 0-.009-.087.322.322 0 0 0-.008-.087.321.321 0 0 0-.01-.087.321.321 0 0 0-.008-.087.322.322 0 0 0-.009-.087.326.326 0 0 0-.009-.087.326.326 0 0 0-.009-.087.325.325 0 0 0-.008-.087.326.326 0 0 0-.01-.087.326.326 0 0 0-.008-.087.326.326 0 0 0-.009-.087.325.325 0 0 0-.009-.087.326.326 0 0 0-.009-.087.325.325 0 0 0-.008-.087.326.326 0 0 0-.01-.087.326.326 0 0 0-.008-.087.326.326 0 0 0-.01-.087.326.326 0 0 0-.008-.087.322.322 0 0 0-.009-.087.326.326 0 0 0-.009-.087.322.322 0 0 0-.009-.087.326.326 0 0 0-.008-.087.326.326 0 0 0-.01-.087.326.326 0 0 0-.008-.087.326.326 0 0 0-.009-.087.326.326 0 0 0-.009-.087.326.326 0 0 0-.009-.087.326.326 0 0 0-.008-.087.326.326 0 0 0-.01-.087.326.326 0 0 0-.008-.087.326.326 0 0 0-.009-.087.326.326 0 0 0-.009-.087.326.326 0 0 0-.009-.087.326.326 0 0 0-.008-.087.326.326 0 0 0-.01-.087.326.326 0 0 0-.008-.087.326.326 0 0 0-.01-.087.326.326 0 0 0-.008-.087.326.326 0 0 0-.009-.086.326.326 0 0 0-.009-.087.326.326 0 0 0-.008-.087.326.326 0 0 0-.01-.087.326.326 0 0 0-.008-.087.326.326 0 0 0-.009-.087.326.326 0 0 0-.009-.087.326.326 0 0 0-.009-.087.31.31 0 0 0-.325-.325c-3.739.134-7.476.17-11.216.106a.314.314 0 0 0-.316.393.326.326 0 0 0 .009.087.326.326 0 0 0 .008.087.326.326 0 0 0 .01.087.326.326 0 0 0 .008.087.326.326 0 0 0 .009.087.326.326 0 0 0 .009.086.326.326 0 0 0 .009.087.326.326 0 0 0 .009.087.33.33 0 0 0 .008.087.33.33 0 0 0 .01.087.33.33 0 0 0 .008.087.33.33 0 0 0 .009.087.33.33 0 0 0 .009.087.33.33 0 0 0 .009.087.33.33 0 0 0 .008.087.33.33 0 0 0 .01.087v.03c-.607 1.822-1.214 3.643-1.819 5.466a1.526 1.526 0 0 0-.056.693c.003.027.003.054.008.08 0 .002 0 .004.002.006.003.027.003.054.008.08 0 .002 0 .004.002.006.003.027.003.054.008.08 0 .002 0 .004.002.006.003.027.003.054.007.08l.002.006c.003.027.003.054.008.08l.002.006c.003.027.003.054.008.08l.002.006c.003.027.003.054.008.08 0 .002 0 .004.002.006.003.027.003.054.008.08 0 .002 0 .004.002.006.003.027.003.054.008.08 0 .002 0 .004.002.006.002.027.002.054.007.08l.002.006c.003.027.003.054.008.08l.002.006c.003.027.003.054.008.08l.002.006c.003.027.003.054.008.08 0 .002 0 .004.002.006.003.027.003.054.008.08 0 .002 0 .004.002.006.003.027.003.054.008.08 0 .002 0 .004.002.006.002.027.002.054.007.08l.002.006c.003.027.003.054.008.08l.002.006c.003.027.003.054.008.08l.002.006c.003.027.003.053.008.08 0 .002 0 .004.002.006.003.027.003.053.008.08 0 .002 0 .004.002.006.003.027.003.053.008.08 0 .002 0 .004.002.006.003.027.003.053.007.08l.002.006c.003.027.003.053.008.08l.002.006c.003.027.003.053.008.08l.002.006c.003.027.003.054.008.08 0 .002 0 .004.002.006.003.027.003.053.008.08 0 .002 0 .004.002.006.003.027.003.053.008.08 0 .002 0 .004.002.006.002.027.002.053.007.08l.002.006c.003.027.003.053.008.08l.002.006c.003.027.003.053.008.08l.002.006c.003.027.003.053.008.08 0 .002 0 .004.002.006.003.027.003.053.008.08 0 .002 0 .004.002.006.003.027.003.053.008.08 0 .002 0 .004.002.006.003.027.003.053.007.08l.002.006c.003.027.003.053.008.08l.002.006c.003.027.003.053.008.079l.002.007c.003.027.003.053.008.079 0 .003 0 .005.002.007.003.027.003.053.008.079 0 .003 0 .005.002.007.003.027.003.053.008.079 0 .003 0 .005.002.007.002.027.002.053.007.079l.002.007c.003.027.003.053.008.079l.002.007c.003.027.003.053.008.079l.002.007c.003.027.003.053.008.079 0 .003 0 .005.002.007.003.027.003.053.008.079 0 .003 0 .005.002.007.003.026.003.053.008.079 0 .003 0 .005.002.007.002.027.002.053.007.079l.002.007c.003.026.003.053.008.079l.002.007c.003.026.003.053.008.079l.002.007c.003.027.003.053.008.079 0 .003 0 .005.002.007.003.026.003.053.008.079 0 .003 0 .005.002.007l.005.053-2.08-.007a.097.097 0 0 0-.004-.022c0-.003-.002-.005-.003-.008a.168.168 0 0 0-.007-.08l-.003-.007a.169.169 0 0 0-.007-.08l-.003-.007a.18.18 0 0 0-.006-.08l-.003-.007a.168.168 0 0 0-.007-.08l-.002-.007a.17.17 0 0 0-.007-.08l-.003-.007a.166.166 0 0 0-.007-.08l-.003-.007a.168.168 0 0 0-.007-.08l-.003-.007a.183.183 0 0 0-.006-.08l-.003-.007a.168.168 0 0 0-.007-.08l-.003-.007a.17.17 0 0 0-.007-.08l-.002-.007a.168.168 0 0 0-.007-.08l-.003-.007a.168.168 0 0 0-.007-.08l-.003-.007a.183.183 0 0 0-.006-.08l-.003-.007a.167.167 0 0 0-.007-.08l-.003-.007a.168.168 0 0 0-.007-.08l-.003-.007a.17.17 0 0 0-.007-.08l-.002-.007a.167.167 0 0 0-.007-.08l-.003-.007a.181.181 0 0 0-.006-.08l-.003-.007v-.019c.112-.05.221-.111.326-.187.313-.225.53-.515.645-.873L47.51 13.1c.075-.234.092-.462.059-.682l-.001-.007c-.003-.027-.003-.053-.008-.08l-.001-.007c-.003-.027-.003-.053-.008-.08a.019.019 0 0 0-.002-.007c-.003-.027-.003-.053-.008-.08 0-.001 0-.004-.002-.006-.003-.027-.003-.053-.008-.08v-.007c-.004-.027-.004-.053-.008-.08l-.001-.007c-.003-.027-.003-.053-.008-.079l-.001-.007c-.003-.027-.003-.053-.008-.079a.018.018 0 0 0-.002-.007c-.003-.027-.003-.053-.008-.079a.02.02 0 0 0-.002-.007c-.003-.027-.003-.053-.008-.079v-.007c-.004-.027-.004-.053-.009-.08v-.007c-.004-.026-.004-.053-.008-.079l-.002-.007c-.002-.027-.002-.053-.007-.079l-.002-.007c-.003-.027-.003-.053-.008-.08a.018.018 0 0 0-.002-.007c-.003-.027-.003-.053-.008-.08l-.001-.007c-.003-.026-.003-.053-.008-.079v-.007c-.004-.027-.004-.053-.009-.08v-.007c-.004-.026-.004-.053-.009-.08a.02.02 0 0 0-.002-.007c-.002-.026-.002-.053-.007-.079a.018.018 0 0 0-.002-.007c-.003-.026-.003-.053-.008-.079l-.001-.007c-.003-.026-.003-.053-.008-.079l-.001-.007c-.003-.026-.003-.053-.008-.08v-.007c-.004-.026-.004-.053-.009-.079a.018.018 0 0 0-.002-.007c-.003-.026-.003-.053-.008-.079a.018.018 0 0 0-.002-.007c-.003-.026-.003-.053-.008-.079v-.007c-.003-.026-.003-.053-.008-.08l-.001-.007c-.003-.026-.003-.053-.008-.08l-.001-.007c-.003-.026-.003-.053-.008-.08a.019.019 0 0 0-.002-.007c-.003-.026-.003-.053-.008-.08 0-.002 0-.005-.002-.007-.003-.026-.003-.053-.008-.08v-.007c-.004-.026-.004-.053-.008-.079l-.002-.006c-.003-.027-.003-.054-.007-.08l-.001-.006c-.003-.027-.003-.054-.008-.08a.018.018 0 0 0-.002-.007c-.003-.027-.003-.054-.008-.08a.02.02 0 0 0-.002-.006c-.003-.027-.003-.054-.008-.08v-.006c-.004-.027-.004-.054-.009-.08v-.006c-.004-.027-.004-.054-.009-.08a.018.018 0 0 0-.002-.006c-.002-.027-.002-.054-.007-.08l-.001-.007c-.003-.027-.003-.054-.008-.08a.018.018 0 0 0-.002-.007c-.003-.027-.003-.054-.008-.08l-.001-.006c-.003-.027-.003-.054-.008-.08l-.001-.007c-.003-.027-.003-.054-.008-.08a.018.018 0 0 0-.002-.007c-.003-.027-.003-.054-.008-.08V8.78c-.004-.027-.004-.054-.009-.08a.018.018 0 0 0-.002-.007c-.002-.027-.002-.054-.007-.08l-.001-.006c-.003-.027-.003-.054-.008-.08l-.001-.006c-.003-.027-.003-.054-.008-.08a.018.018 0 0 0-.002-.006c-.003-.027-.003-.054-.008-.08a.02.02 0 0 0-.002-.006c-.003-.027-.003-.054-.008-.08v-.006c-.004-.027-.004-.054-.009-.08v-.007c-.003-.027-.003-.054-.008-.08l-.001-.007c-.003-.027-.003-.054-.008-.08a1.439 1.439 0 0 0-.226-.585 1.304 1.304 0 0 0-.468-.422 1.487 1.487 0 0 0-.666-.175c-3.715-.155-7.42-.406-11.126-.753-.134-.013-.204.118-.165.23a.202.202 0 0 0 .009.088.22.22 0 0 0 .008.087.22.22 0 0 0 .01.087.204.204 0 0 0 .008.087.202.202 0 0 0 .009.087.204.204 0 0 0 .009.087.22.22 0 0 0 .009.087.204.204 0 0 0 .008.087.202.202 0 0 0 .01.087.204.204 0 0 0 .008.087.22.22 0 0 0 .009.087.22.22 0 0 0 .009.087.202.202 0 0 0 .009.087.204.204 0 0 0 .008.087.202.202 0 0 0 .01.086.204.204 0 0 0 .008.087.22.22 0 0 0 .01.087.204.204 0 0 0 .008.087.202.202 0 0 0 .009.087.204.204 0 0 0 .009.087.22.22 0 0 0 .009.087.22.22 0 0 0 .008.087.202.202 0 0 0 .01.087.204.204 0 0 0 .008.087.202.202 0 0 0 .009.087.22.22 0 0 0 .009.087.22.22 0 0 0 .009.087.204.204 0 0 0 .008.087.202.202 0 0 0 .01.087.204.204 0 0 0 .008.087.16.16 0 0 0 0 .043c-.667 2.104-1.33 4.21-1.983 6.32a.177.177 0 0 1-.079.1l-.043.026c-.082.047-.102.141-.077.22a.219.219 0 0 0 .009.086.22.22 0 0 0 .009.087.22.22 0 0 0 .009.087.22.22 0 0 0 .008.087.22.22 0 0 0 .01.087.219.219 0 0 0 .008.087.22.22 0 0 0 .009.087.22.22 0 0 0 .009.087.22.22 0 0 0 .009.087.219.219 0 0 0 .008.087.22.22 0 0 0 .01.087.22.22 0 0 0 .008.087.22.22 0 0 0 .01.087.219.219 0 0 0 .008.087.22.22 0 0 0 .009.087.22.22 0 0 0 .009.087.22.22 0 0 0 .008.087.219.219 0 0 0 .01.087.22.22 0 0 0 .008.087.22.22 0 0 0 .009.087.22.22 0 0 0 .009.087.219.219 0 0 0 .009.087.22.22 0 0 0 .009.087.218.218 0 0 0 .009.087.22.22 0 0 0 .008.087.22.22 0 0 0 .01.087.219.219 0 0 0 .008.087.22.22 0 0 0 .009.087.22.22 0 0 0 .009.087.22.22 0 0 0 .009.087.217.217 0 0 0 .008.086.22.22 0 0 0 .01.087.22.22 0 0 0 .008.087.22.22 0 0 0 .009.087.219.219 0 0 0 .009.087.22.22 0 0 0 .009.087.22.22 0 0 0 .008.087.22.22 0 0 0 .01.087.219.219 0 0 0 .008.087.22.22 0 0 0 .01.087.22.22 0 0 0 .008.087l-2.11-.025c.702-2.306 1.41-4.61 2.129-6.907a1.59 1.59 0 0 0 .072-.729c0-.006-.003-.011-.004-.017-.002-.023-.002-.047-.005-.07 0-.005-.003-.011-.003-.017-.002-.023-.002-.047-.006-.07 0-.005-.003-.011-.004-.017-.002-.023-.002-.047-.006-.07 0-.005-.003-.011-.003-.017-.002-.023-.002-.047-.006-.07 0-.005-.003-.011-.004-.017-.002-.023-.002-.047-.006-.07 0-.005-.003-.011-.004-.017-.002-.023-.002-.047-.006-.07 0-.005-.003-.011-.003-.017-.002-.023-.002-.047-.006-.07 0-.005-.003-.011-.004-.017-.001-.023-.001-.047-.005-.07 0-.005-.003-.011-.003-.017-.002-.023-.002-.047-.006-.07 0-.005-.003-.011-.004-.017-.002-.023-.002-.047-.006-.07 0-.005-.003-.011-.004-.017-.002-.023-.002-.047-.006-.07 0-.005-.003-.011-.004-.017-.002-.023-.002-.047-.006-.07 0-.005-.003-.011-.003-.017-.002-.023-.002-.047-.006-.07l-.002-.017c-.002-.023-.002-.047-.006-.07 0-.005-.003-.011-.004-.017-.002-.023-.002-.046-.006-.07 0-.005-.003-.011-.004-.017-.002-.023-.002-.046-.006-.07 0-.005-.003-.011-.004-.017-.002-.023-.002-.046-.006-.07 0-.005-.003-.011-.003-.017-.002-.023-.002-.046-.006-.07 0-.005-.003-.011-.003-.017-.002-.023-.002-.046-.006-.07 0-.005-.003-.011-.004-.017-.002-.023-.002-.046-.005-.07 0-.005-.003-.011-.004-.017-.002-.023-.002-.046-.006-.07 0-.005-.003-.011-.004-.017-.002-.023-.002-.046-.006-.07 0-.005-.003-.011-.003-.017-.002-.023-.002-.046-.006-.07 0-.005-.003-.01-.003-.017-.002-.023-.002-.046-.006-.07 0-.005-.003-.01-.004-.017-.002-.023-.002-.046-.006-.069 0-.006-.003-.012-.004-.018-.002-.023-.002-.046-.006-.069l-.003-.018c-.002-.023-.002-.046-.006-.069l-.003-.018c-.002-.023-.002-.046-.006-.069l-.003-.018c-.002-.022-.002-.046-.006-.069 0-.006-.003-.012-.004-.018-.002-.022-.002-.046-.006-.069 0-.006-.003-.012-.004-.018-.002-.022-.002-.046-.006-.069 0-.006-.003-.012-.004-.018-.002-.022-.002-.046-.005-.069l-.003-.018c-.002-.022-.002-.046-.006-.069 0-.006-.003-.012-.004-.018-.002-.022-.002-.046-.006-.069l-.003-.018c-.002-.022-.002-.046-.006-.069 0-.006-.003-.012-.004-.018-.002-.022-.002-.046-.006-.069 0-.006-.003-.012-.004-.018-.002-.022-.002-.046-.006-.069l-.003-.018c-.002-.022-.002-.046-.006-.069 0-.006-.003-.012-.004-.018-.002-.022-.002-.046-.005-.069l-.003-.018c-.002-.022-.002-.046-.006-.069 0-.006-.003-.012-.004-.017-.002-.023-.002-.047-.006-.07 0-.006-.003-.012-.004-.017-.002-.023-.002-.047-.006-.07 0-.006-.003-.011-.003-.017-.002-.023-.002-.047-.006-.07 0-.006-.003-.011-.004-.017-.002-.023-.002-.047-.006-.07 0-.006-.003-.011-.004-.017-.002-.023-.002-.047-.005-.07 0-.005-.003-.011-.003-.017-.002-.023-.002-.047-.006-.07 0-.005-.003-.011-.004-.017-.002-.023-.002-.047-.006-.07 0-.005-.003-.011-.003-.017-.002-.023-.002-.047-.006-.07 0-.005-.003-.011-.004-.017-.002-.023-.002-.047-.006-.07 0-.005-.003-.011-.004-.017-.002-.023-.002-.047-.006-.07 0-.005-.003-.011-.003-.017-.002-.023-.002-.047-.005-.07a1.77 1.77 0 0 0-.23-.649 1.49 1.49 0 0 0-1.13-.727 218.244 218.244 0 0 1-11.2-1.626c-.102-.018-.154.1-.12.2a.205.205 0 0 0 .01.088.205.205 0 0 0 .009.087.205.205 0 0 0 .008.086.206.206 0 0 0 .01.087.205.205 0 0 0 .008.087.206.206 0 0 0 .009.087.205.205 0 0 0 .009.087.205.205 0 0 0 .009.087.205.205 0 0 0 .009.087.205.205 0 0 0 .008.087.205.205 0 0 0 .01.087.206.206 0 0 0 .008.087.205.205 0 0 0 .009.087.206.206 0 0 0 .009.087.205.205 0 0 0 .009.087.205.205 0 0 0 .009.087.205.205 0 0 0 .008.087.205.205 0 0 0 .01.087.205.205 0 0 0 .008.087.206.206 0 0 0 .009.087.205.205 0 0 0 .009.087.206.206 0 0 0 .009.087.205.205 0 0 0 .008.087.205.205 0 0 0 .01.087.205.205 0 0 0 .008.087.205.205 0 0 0 .009.087.205.205 0 0 0 .009.087.206.206 0 0 0 .009.087.205.205 0 0 0 .008.087.206.206 0 0 0 .01.087.205.205 0 0 0 .008.087.205.205 0 0 0 .01.087.205.205 0 0 0 .008.087.205.205 0 0 0 .009.087.205.205 0 0 0 .009.087.207.207 0 0 0 .009.087.205.205 0 0 0 .008.087.207.207 0 0 0 .01.087.166.166 0 0 0 0 .044 767.558 767.558 0 0 0-1.93 7.02.145.145 0 0 1-.06.086l-.133.088c-.064.042-.077.127-.054.197-.003.03 0 .059.009.087-.003.03 0 .058.009.087-.003.03 0 .058.008.087-.002.03 0 .058.01.087-.004.03 0 .058.008.087-.003.03 0 .058.01.087-.004.03 0 .058.008.087-.003.03 0 .058.009.087-.003.03 0 .058.009.087-.003.03 0 .058.009.087-.003.03 0 .058.008.087-.003.03 0 .058.01.087-.004.03 0 .058.008.087-.003.03 0 .058.009.087-.003.03 0 .058.009.087-.003.03 0 .058.009.087-.003.03 0 .058.008.087-.002.03 0 .058.01.087-.004.03 0 .058.008.087-.003.03 0 .058.009.087-.003.03 0 .058.009.087-.003.03 0 .058.009.087-.003.03 0 .058.008.087-.002.03 0 .058.01.087-.004.03 0 .058.008.087-.003.03 0 .058.01.087-.004.03 0 .058.008.086-.003.03 0 .059.009.087-.003.03 0 .059.009.087-.003.03 0 .059.009.087-.003.03 0 .059.008.087-.003.03 0 .059.01.087-.004.03 0 .059.008.087-.003.03 0 .059.009.087-.003.03 0 .059.009.087-.003.03 0 .059.009.087-.003.03 0 .059.008.087-.002.03 0 .059.01.087-.004.03 0 .058.008.087-.003.03 0 .058.009.087-.003.03 0 .058.009.087-.003.03 0 .058.009.087-.003.03 0 .058.008.087-.002.03 0 .058.01.087-.004.03 0 .058.008.087v.009c-2.674-.057-5.346-.12-8.018-.19-.362-.01-.562.441-.499.837.002.029.004.059.01.087.001.029.003.059.008.087.002.029.004.059.009.087.002.029.004.059.009.087.002.029.004.059.008.087.002.029.004.058.01.087.001.029.003.058.008.087.002.029.004.058.01.087.001.029.003.059.008.087.002.029.004.058.009.087.002.029.004.058.009.087.002.029.004.058.008.087.002.029.004.058.01.087.001.029.003.058.008.087.002.029.004.058.009.087.002.029.004.058.009.087.002.029.004.058.009.087.002.029.004.058.009.087a.854.854 0 0 0 .008.087c.002.029.004.058.01.087a.853.853 0 0 0 .008.087c.002.029.004.058.009.087a.854.854 0 0 0 .009.087c.002.029.004.058.009.087a.853.853 0 0 0 .008.087c.002.028.004.058.01.087a.854.854 0 0 0 .008.087c.002.028.004.058.01.087a.857.857 0 0 0 .008.087c.002.028.004.058.009.087a.854.854 0 0 0 .009.087c.002.028.004.058.009.087 0 .018.001.037.004.055A872.813 872.813 0 0 0 7.25 35.116a5.037 5.037 0 0 0-.09 1.56c0 .011.003.021.004.032l.005.054c0 .011.003.021.004.032l.005.054c0 .011.003.021.004.032l.005.054c0 .011.002.021.003.032l.005.054.004.032.005.054.004.032.005.055.004.032.005.054c0 .011.003.021.004.032l.005.054c0 .011.003.021.004.032l.005.054c0 .011.003.021.004.032l.004.054.004.032.005.054.004.032.005.054.004.032.005.054.004.032.005.054c0 .011.003.02.004.032l.005.054c0 .011.003.02.004.032l.005.054c0 .011.003.02.004.032l.004.054.004.032.005.054.004.032.005.054.004.032.005.054.004.032.005.054c0 .01.003.02.004.032l.005.054c0 .01.003.02.004.032l.005.054.003.032.005.054.004.032.005.054.004.032.005.054.004.032.005.054c0 .01.003.02.004.032l.005.055c0 .01.003.02.004.032l.005.054c0 .01.003.02.004.032l.004.054.004.032.005.054.004.032.005.054.004.032.005.054.004.032.005.055c0 .01.003.02.004.032l.005.054c0 .01.003.02.004.032l.005.054c0 .01.003.02.004.032l.004.054.004.032.005.054.004.031.005.056.004.031.005.055.004.031.005.055c0 .01.003.02.004.031l.005.055c0 .01.003.02.004.031l.005.055.003.031.005.055.004.031.005.056.004.031.005.055.004.031.005.055c0 .01.003.02.004.031l.005.055c0 .01.003.02.004.031l.005.055c0 .01.003.02.004.031l.004.055.004.031.005.055c.054.486.17.903.35 1.242.18.338.424.581.731.73.308.15.654.18 1.043.09a213.554 213.554 0 0 1 14.25-2.77c.224-.035.421-.231.49-.485.304-1.142.456-1.707.761-2.831.028-.1.03-.2.015-.29a.624.624 0 0 0-.009-.087.625.625 0 0 0-.009-.087.625.625 0 0 0-.009-.087.627.627 0 0 0-.008-.087.624.624 0 0 0-.01-.087.625.625 0 0 0-.008-.087.625.625 0 0 0-.009-.087.627.627 0 0 0-.009-.087.624.624 0 0 0-.009-.087.624.624 0 0 0-.008-.087.625.625 0 0 0-.01-.087.627.627 0 0 0-.008-.087.624.624 0 0 0-.009-.087.624.624 0 0 0-.009-.087.625.625 0 0 0-.009-.087.627.627 0 0 0-.008-.087.624.624 0 0 0-.01-.087.624.624 0 0 0-.008-.087.625.625 0 0 0-.01-.087.625.625 0 0 0-.008-.087.627.627 0 0 0-.009-.087.624.624 0 0 0-.009-.087.625.625 0 0 0-.009-.087.625.625 0 0 0-.008-.087.627.627 0 0 0-.01-.087.624.624 0 0 0-.008-.087.625.625 0 0 0-.009-.087.625.625 0 0 0-.009-.087.643.643 0 0 0-.009-.087.624.624 0 0 0-.008-.087.64.64 0 0 0-.01-.087.641.641 0 0 0-.008-.087.643.643 0 0 0-.009-.087.64.64 0 0 0-.009-.087.64.64 0 0 0-.009-.087.641.641 0 0 0-.008-.087.643.643 0 0 0-.01-.087.64.64 0 0 0-.008-.087.64.64 0 0 0-.01-.087.641.641 0 0 0-.008-.087c0-.01 0-.02-.002-.03.276-1.007.415-1.509.692-2.502a.659.659 0 0 0 .015-.288.641.641 0 0 0-.009-.087.64.64 0 0 0-.009-.087.64.64 0 0 0-.008-.087.641.641 0 0 0-.01-.087.641.641 0 0 0-.008-.087.643.643 0 0 0-.009-.087.64.64 0 0 0-.009-.087.641.641 0 0 0-.009-.087.641.641 0 0 0-.008-.087.643.643 0 0 0-.01-.087.64.64 0 0 0-.008-.087.64.64 0 0 0-.009-.087.641.641 0 0 0-.009-.087.643.643 0 0 0-.009-.087.64.64 0 0 0-.009-.087.64.64 0 0 0-.008-.087.641.641 0 0 0-.01-.087.643.643 0 0 0-.008-.087.64.64 0 0 0-.009-.087.624.624 0 0 0-.009-.087.625.625 0 0 0-.009-.087.627.627 0 0 0-.009-.087.624.624 0 0 0-.008-.087.624.624 0 0 0-.01-.087.625.625 0 0 0-.008-.087.625.625 0 0 0-.009-.087.627.627 0 0 0-.009-.087.624.624 0 0 0-.009-.087.625.625 0 0 0-.008-.087.625.625 0 0 0-.01-.087.627.627 0 0 0-.008-.087.624.624 0 0 0-.01-.087.625.625 0 0 0-.008-.087.625.625 0 0 0-.009-.087.627.627 0 0 0-.009-.087c0-.021-.003-.042-.005-.063l2.338-.05c.222-.004.419-.167.488-.403.311-1.063.467-1.59.778-2.638a.609.609 0 0 0 .015-.281.503.503 0 0 0-.009-.087.513.513 0 0 0-.008-.087.504.504 0 0 0-.01-.087.512.512 0 0 0-.008-.087.503.503 0 0 0-.009-.087.513.513 0 0 0-.009-.087.504.504 0 0 0-.009-.087.512.512 0 0 0-.009-.087.503.503 0 0 0-.008-.087.513.513 0 0 0-.01-.087.504.504 0 0 0-.008-.087.512.512 0 0 0-.009-.087.502.502 0 0 0-.009-.087.513.513 0 0 0-.009-.087.504.504 0 0 0-.009-.087.512.512 0 0 0-.008-.087.502.502 0 0 0-.01-.087.513.513 0 0 0-.008-.087.504.504 0 0 0-.009-.087.512.512 0 0 0-.009-.087.502.502 0 0 0-.009-.087.513.513 0 0 0-.008-.087.503.503 0 0 0-.01-.087.514.514 0 0 0-.008-.087.502.502 0 0 0-.009-.087.513.513 0 0 0-.009-.086.503.503 0 0 0-.009-.087.514.514 0 0 0-.009-.087.502.502 0 0 0-.008-.087.513.513 0 0 0-.01-.087.503.503 0 0 0-.008-.087.514.514 0 0 0-.009-.087.502.502 0 0 0-.009-.087.512.512 0 0 0-.009-.087.513.513 0 0 0-.009-.087.514.514 0 0 0-.008-.087.512.512 0 0 0-.01-.087.512.512 0 0 0-.008-.087.513.513 0 0 0-.009-.087.514.514 0 0 0-.009-.087.514.514 0 0 0-.009-.087.512.512 0 0 0-.008-.087.513.513 0 0 0-.01-.087.513.513 0 0 0-.008-.087.514.514 0 0 0-.009-.087.512.512 0 0 0-.009-.087c.595.023 1.08.04 1.817.067a.222.222 0 0 0 .005.036c0 .028.003.058.01.087 0 .028.002.058.008.087 0 .028.003.058.009.087 0 .028.003.058.009.087 0 .028.003.058.009.087 0 .028.003.058.009.087 0 .028.002.058.008.087 0 .028.003.058.01.087 0 .028.002.058.008.087 0 .028.003.058.009.087 0 .028.003.058.009.087 0 .028.003.058.009.087 0 .028.002.058.008.087 0 .028.003.058.01.086 0 .03.002.059.008.087 0 .03.003.059.009.087 0 .029.003.059.009.087 0 .029.003.059.009.087 0 .029.003.059.008.087 0 .029.003.059.01.087 0 .029.002.059.008.087 0 .029.003.059.01.087 0 .029.002.059.008.087 0 .029.003.059.009.087 0 .029.003.059.009.087 0 .029.003.059.009.087 0 .029.002.059.008.087 0 .029.003.058.01.087 0 .029.002.058.008.087 0 .029.003.058.009.087 0 .029.003.058.009.087 0 .029.003.058.009.087 0 .029.003.058.008.087 0 .029.003.058.01.087 0 .029.002.058.008.087 0 .029.003.058.009.087 0 .029.003.058.009.087v.013a814.794 814.794 0 0 0-3.236 11.147.44.44 0 0 1-.149.226.423.423 0 0 0-.156.423c0 .03.003.058.009.087 0 .03.002.058.008.087 0 .03.003.058.01.087 0 .03.002.058.008.087 0 .03.003.058.009.087 0 .03.003.058.009.087 0 .03.003.058.009.087 0 .03.003.058.008.087 0 .03.003.058.01.087 0 .03.002.058.008.087 0 .03.003.058.01.087 0 .03.002.058.008.087 0 .03.003.058.009.087 0 .03.003.058.009.087 0 .03.003.058.009.087 0 .03.002.058.008.087 0 .03.003.058.01.087 0 .03.002.058.008.086 0 .03.003.059.009.087 0 .03.003.059.009.087 0 .03.003.059.009.087 0 .03.003.059.008.087 0 .03.003.059.01.087 0 .03.002.059.008.087 0 .03.003.059.009.087 0 .03.003.059.009.087 0 .03.003.059.009.087 0 .03.003.058.008.087 0 .03.003.059.01.087 0 .03.002.058.008.087 0 .03.003.059.01.087 0 .03.002.058.008.087 0 .03.003.058.009.087 0 .03.003.058.009.087 0 .03.003.058.009.087 0 .03.002.058.008.087 0 .03.003.058.01.087 0 .03.002.058.008.087 0 .03.003.058.009.087 0 .03.003.058.009.087 0 .03.003.058.009.087 0 .03.003.058.008.087 0 .03.003.058.01.087 0 .03.002.058.008.087 0 .03.003.058.009.087 0 .03.003.058.009.087 0 .03.003.058.009.087 0 .03.003.058.008.087 0 .03.003.058.01.087 0 .03.002.058.008.087 0 .19.125.36.334.332 1.29-.174 2.584-.336 3.878-.483a.39.39 0 0 0 .318-.284 915.148 915.148 0 0 1 3.273-10.871.58.58 0 0 1-.031-.019c0-.004.003-.009.004-.013.008-.022.012-.032.018-.055a.52.52 0 0 1-.031-.019l.004-.013a.923.923 0 0 0 .019-.055.475.475 0 0 1-.032-.019l.004-.013.019-.055a.518.518 0 0 1-.032-.019l.004-.013a.896.896 0 0 0 .019-.055.58.58 0 0 1-.032-.019l.004-.013.019-.055a.52.52 0 0 1-.031-.019c0-.004.003-.009.004-.013a.923.923 0 0 0 .018-.055.475.475 0 0 1-.031-.019c0-.004.003-.009.004-.013.008-.021.011-.032.018-.055a.518.518 0 0 1-.031-.019c0-.004.003-.009.004-.013a.896.896 0 0 0 .018-.055.58.58 0 0 1-.031-.019l.004-.013.019-.055a.52.52 0 0 1-.032-.019l.004-.013a.923.923 0 0 0 .019-.055.522.522 0 0 1-.032-.019l.004-.013.019-.055a.518.518 0 0 1-.032-.019l.004-.013a.896.896 0 0 0 .02-.055.58.58 0 0 1-.032-.019c0-.004.003-.009.004-.013l.018-.055a.578.578 0 0 1-.031-.019c0-.004.003-.009.004-.012a.923.923 0 0 0 .018-.056.522.522 0 0 1-.031-.019c0-.004.003-.009.004-.013l.019-.055a.473.473 0 0 1-.032-.019l.004-.013.002-.004.313-.003a.332.332 0 0 1 .325.264c.518 2.282 1.043 4.562 1.57 6.841a.345.345 0 0 0 .008.1c0 .03.002.06.008.088 0 .03.003.058.01.087 0 .03.002.058.008.087 0 .03.003.058.009.087 0 .03.003.058.009.087 0 .03.003.058.009.087 0 .03.003.058.008.087 0 .03.003.058.01.087 0 .03.002.058.008.087 0 .03.003.058.009.087 0 .03.003.058.009.087 0 .03.003.058.009.087 0 .03.003.058.009.087 0 .03.002.058.008.086 0 .03.003.059.01.087 0 .03.002.059.008.087 0 .03.003.059.009.087 0 .03.003.059.009.087 0 .03.003.059.009.087 0 .03.003.059.008.087 0 .03.003.059.01.087 0 .03.002.059.008.087 0 .03.003.059.01.087 0 .03.002.059.008.087 0 .03.003.059.009.087 0 .03.003.059.009.087 0 .03.003.059.009.087 0 .03.002.058.008.087 0 .03.003.058.01.087 0 .03.002.058.008.087 0 .03.003.058.009.087 0 .03.003.058.009.087 0 .03.003.058.009.087 0 .03.002.058.008.087 0 .03.003.058.01.087 0 .03.002.058.008.087 0 .03.003.058.009.087 0 .03.003.058.009.087 0 .03.003.058.009.087 0 .03.003.058.008.087 0 .03.003.058.01.087 0 .03.002.058.008.087 0 .03.003.058.01.087 0 .03.002.058.008.087 0 .03.003.058.009.087 0 .03.003.058.009.087 0 .03.003.058.009.087 0 .03.002.058.008.087 0 .03.003.058.01.087 0 .03.002.058.008.087-.005.177.123.346.334.329 2.548-.197 5.096-.35 7.65-.46a.352.352 0 0 0 .318-.241c1.501-4.618 3.022-9.227 4.549-13.833a.32.32 0 0 0 .007-.174.32.32 0 0 0-.01-.087.321.321 0 0 0-.008-.087.322.322 0 0 0-.009-.087.322.322 0 0 0-.009-.087.322.322 0 0 0-.009-.087.321.321 0 0 0-.008-.087.322.322 0 0 0-.01-.087.322.322 0 0 0-.008-.087.322.322 0 0 0-.009-.087.321.321 0 0 0-.009-.087.322.322 0 0 0-.009-.087.322.322 0 0 0-.009-.087.322.322 0 0 0-.008-.087.321.321 0 0 0-.01-.087.321.321 0 0 0-.008-.087.322.322 0 0 0-.009-.087.322.322 0 0 0-.009-.087.321.321 0 0 0-.009-.087.321.321 0 0 0-.009-.087.322.322 0 0 0-.008-.087.322.322 0 0 0-.01-.087.321.321 0 0 0-.008-.087.321.321 0 0 0-.009-.087.322.322 0 0 0-.009-.087.322.322 0 0 0-.009-.087.322.322 0 0 0-.008-.087.32.32 0 0 0-.01-.087.322.322 0 0 0-.008-.087.322.322 0 0 0-.009-.087.322.322 0 0 0-.009-.087.32.32 0 0 0-.009-.086.321.321 0 0 0-.009-.087.322.322 0 0 0-.008-.087.322.322 0 0 0-.01-.087.32.32 0 0 0-.008-.087.321.321 0 0 0-.009-.087.322.322 0 0 0-.009-.087.322.322 0 0 0-.009-.087.32.32 0 0 0-.009-.087.321.321 0 0 0-.008-.087l-.002-.029c.792.003 1.584.005 2.377.006l.003.03c0 .03.003.059.01.088 0 .028.002.058.008.087 0 .028.003.058.009.087 0 .028.003.058.009.087 0 .028.003.058.009.087 0 .028.003.058.008.087 0 .028.004.058.01.087 0 .028.002.058.008.087 0 .028.003.058.01.086 0 .03.002.059.008.087 0 .03.003.059.009.087 0 .03.003.059.009.087 0 .03.003.059.008.087 0 .029.003.059.01.087 0 .029.002.059.008.087 0 .029.003.059.009.087 0 .029.003.059.009.087 0 .029.003.059.009.087 0 .026.003.053.008.078-.958 2.881-1.915 5.762-2.868 8.645-.105.343-.14.678-.1 1.004l.009.087.008.087c.002.028.006.058.01.087.001.028.005.058.008.087l.009.087.009.087.009.087.009.087.008.087c.002.028.006.058.01.086.001.03.005.058.008.087.002.03.006.059.009.088l.009.087.009.086c.002.03.006.058.009.087l.008.087c.002.029.006.058.01.087.001.029.005.058.008.087l.009.087.009.087.009.087.008.087c.002.029.006.058.01.087.001.029.005.057.008.087l.009.087.009.087.009.087.009.087.008.087c.002.029.006.057.01.087.001.029.005.058.008.087l.009.087.009.087.009.087.009.087.008.087c.002.029.006.058.01.087.001.029.005.057.008.087l.009.087.009.087.009.087.008.087c.002.028.006.057.01.087.001.028.005.057.008.087l.009.087.009.087.009.087.009.087.008.087c.002.028.006.057.01.087a2.181 2.181 0 0 0 .373 1.082c.18.264.428.471.738.624.311.155.66.232 1.054.23 4.788-.005 9.568.153 14.35.476a.472.472 0 0 0 .489-.328c.306-.95.459-1.427.765-2.384a.524.524 0 0 0 .015-.258.502.502 0 0 0-.01-.087.513.513 0 0 0-.008-.087.503.503 0 0 0-.009-.087.514.514 0 0 0-.009-.087.502.502 0 0 0-.009-.087.512.512 0 0 0-.008-.087.503.503 0 0 0-.01-.087.514.514 0 0 0-.008-.087.502.502 0 0 0-.01-.087.512.512 0 0 0-.008-.087.503.503 0 0 0-.009-.087.514.514 0 0 0-.009-.087.502.502 0 0 0-.009-.087.512.512 0 0 0-.008-.087.503.503 0 0 0-.01-.087.513.513 0 0 0-.008-.087.504.504 0 0 0-.009-.087.512.512 0 0 0-.009-.086.503.503 0 0 0-.009-.087.513.513 0 0 0-.008-.087.504.504 0 0 0-.01-.087.512.512 0 0 0-.008-.087.502.502 0 0 0-.009-.087.513.513 0 0 0-.009-.087.504.504 0 0 0-.009-.087.512.512 0 0 0-.008-.087.502.502 0 0 0-.01-.087.513.513 0 0 0-.008-.087.504.504 0 0 0-.01-.087.512.512 0 0 0-.008-.087.512.512 0 0 0-.009-.087.513.513 0 0 0-.009-.087.514.514 0 0 0-.008-.087.514.514 0 0 0-.01-.087.512.512 0 0 0-.008-.087.513.513 0 0 0-.009-.087.513.513 0 0 0-.009-.087.496.496 0 0 0-.004-.055l.669-2.1a.533.533 0 0 0 .016-.26.512.512 0 0 0-.01-.087.513.513 0 0 0-.008-.087.513.513 0 0 0-.009-.087.514.514 0 0 0-.009-.087.512.512 0 0 0-.009-.086.512.512 0 0 0-.008-.087.513.513 0 0 0-.01-.087.514.514 0 0 0-.008-.087.512.512 0 0 0-.009-.087.512.512 0 0 0-.009-.087.513.513 0 0 0-.009-.087.514.514 0 0 0-.009-.087.512.512 0 0 0-.008-.087.512.512 0 0 0-.01-.087.513.513 0 0 0-.008-.087.514.514 0 0 0-.009-.087.514.514 0 0 0-.009-.087.512.512 0 0 0-.009-.087.513.513 0 0 0-.008-.087.513.513 0 0 0-.01-.087.514.514 0 0 0-.008-.087.512.512 0 0 0-.01-.087.513.513 0 0 0-.008-.087.513.513 0 0 0-.009-.087.514.514 0 0 0-.009-.087.512.512 0 0 0-.009-.087.512.512 0 0 0-.008-.087.513.513 0 0 0-.01-.087.514.514 0 0 0-.008-.087.512.512 0 0 0-.009-.087.512.512 0 0 0-.009-.087.513.513 0 0 0-.009-.087c0-.01 0-.021-.002-.031.771.008 1.542.015 2.313.025a.508.508 0 0 0 .49-.363c.31-.99.467-1.489.779-2.491a.551.551 0 0 0 .016-.267.514.514 0 0 0-.01-.087.512.512 0 0 0-.008-.087.512.512 0 0 0-.009-.087.513.513 0 0 0-.009-.087.514.514 0 0 0-.009-.087.512.512 0 0 0-.008-.087.512.512 0 0 0-.01-.087.513.513 0 0 0-.008-.087.514.514 0 0 0-.009-.087.512.512 0 0 0-.009-.087.512.512 0 0 0-.009-.087.513.513 0 0 0-.009-.087.513.513 0 0 0-.008-.087.514.514 0 0 0-.01-.087.512.512 0 0 0-.008-.087.513.513 0 0 0-.009-.087.513.513 0 0 0-.009-.087.514.514 0 0 0-.009-.087.512.512 0 0 0-.008-.087.513.513 0 0 0-.01-.087.513.513 0 0 0-.008-.087.514.514 0 0 0-.01-.087.512.512 0 0 0-.008-.086.512.512 0 0 0-.009-.087.513.513 0 0 0-.009-.087.514.514 0 0 0-.008-.087.512.512 0 0 0-.01-.087.512.512 0 0 0-.008-.087.513.513 0 0 0-.009-.087.514.514 0 0 0-.009-.087.512.512 0 0 0-.009-.087.512.512 0 0 0-.009-.087.513.513 0 0 0-.008-.087.513.513 0 0 0-.01-.087.514.514 0 0 0-.008-.087.512.512 0 0 0-.009-.087.513.513 0 0 0-.009-.087.513.513 0 0 0-.009-.087.514.514 0 0 0-.008-.087.512.512 0 0 0-.01-.087.513.513 0 0 0-.008-.087.513.513 0 0 0-.01-.087.514.514 0 0 0-.008-.087.512.512 0 0 0-.009-.087v-.004c.274-.008.548-.014.821-.023a.222.222 0 0 0 .202-.16l.206-.68a.244.244 0 0 0 .006.11.239.239 0 0 0 .01.087.239.239 0 0 0 .008.087.24.24 0 0 0 .009.087.24.24 0 0 0 .009.087.24.24 0 0 0 .009.087.239.239 0 0 0 .008.087.24.24 0 0 0 .01.087.24.24 0 0 0 .008.087.24.24 0 0 0 .009.087.239.239 0 0 0 .009.087.24.24 0 0 0 .009.087.24.24 0 0 0 .008.087.24.24 0 0 0 .01.087.239.239 0 0 0 .008.087.24.24 0 0 0 .01.087.24.24 0 0 0 .008.087.24.24 0 0 0 .009.087.239.239 0 0 0 .009.087.24.24 0 0 0 .009.087.24.24 0 0 0 .008.087.24.24 0 0 0 .01.086.239.239 0 0 0 .008.087.24.24 0 0 0 .009.087.24.24 0 0 0 .009.087.24.24 0 0 0 .009.087.24.24 0 0 0 .008.087.239.239 0 0 0 .01.087.24.24 0 0 0 .008.087.24.24 0 0 0 .009.087.24.24 0 0 0 .009.087.239.239 0 0 0 .009.087.24.24 0 0 0 .008.087.24.24 0 0 0 .01.087.24.24 0 0 0 .008.087.239.239 0 0 0 .01.087.239.239 0 0 0 .008.087.24.24 0 0 0 .009.087.24.24 0 0 0 .009.087.239.239 0 0 0 .008.087.239.239 0 0 0 .01.087.24.24 0 0 0 .008.087.24.24 0 0 0 .009.087.239.239 0 0 0 .009.087.239.239 0 0 0 .009.087.24.24 0 0 0 .009.087.24.24 0 0 0 .008.087.24.24 0 0 0 .01.087.239.239 0 0 0 .008.087.24.24 0 0 0 .009.087.24.24 0 0 0 .009.087.228.228 0 0 0 .063.179 940.702 940.702 0 0 1-3.037 9.655.201.201 0 0 1-.1.119l-.363.187c-.1.052-.127.159-.1.254a.241.241 0 0 0 .008.087.24.24 0 0 0 .01.087.242.242 0 0 0 .008.087.237.237 0 0 0 .01.087.24.24 0 0 0 .008.087.237.237 0 0 0 .009.087.237.237 0 0 0 .009.087.237.237 0 0 0 .008.087.237.237 0 0 0 .01.087.237.237 0 0 0 .008.087.24.24 0 0 0 .009.087.237.237 0 0 0 .009.087.239.239 0 0 0 .009.087.237.237 0 0 0 .009.087.24.24 0 0 0 .008.087.237.237 0 0 0 .01.087.239.239 0 0 0 .008.087.237.237 0 0 0 .009.087.24.24 0 0 0 .009.087.237.237 0 0 0 .009.087.239.239 0 0 0 .008.087.237.237 0 0 0 .01.087.24.24 0 0 0 .008.087.237.237 0 0 0 .01.087.239.239 0 0 0 .008.087.237.237 0 0 0 .009.087.24.24 0 0 0 .009.087.237.237 0 0 0 .009.087.239.239 0 0 0 .008.087.237.237 0 0 0 .01.087.24.24 0 0 0 .008.087.237.237 0 0 0 .009.087.239.239 0 0 0 .009.087.237.237 0 0 0 .009.087.24.24 0 0 0 .008.087.237.237 0 0 0 .01.087.239.239 0 0 0 .008.086.237.237 0 0 0 .009.087.24.24 0 0 0 .009.087.237.237 0 0 0 .009.087.24.24 0 0 0 .008.088.237.237 0 0 0 .01.086.24.24 0 0 0 .008.087.237.237 0 0 0 .01.087.24.24 0 0 0 .008.087.239.239 0 0 0 .009.087.24.24 0 0 0 .009.087.24.24 0 0 0 .008.087.24.24 0 0 0 .01.087.239.239 0 0 0 .008.087c-.009.12.075.254.22.267 1.494.138 2.987.288 4.479.45a.192.192 0 0 0 .208-.138 813.577 813.577 0 0 0 3.361-10.776.257.257 0 0 0 0-.146.26.26 0 0 0-.008-.087.26.26 0 0 0-.01-.087.26.26 0 0 0-.008-.087.26.26 0 0 0-.009-.087.26.26 0 0 0-.009-.087.26.26 0 0 0-.009-.087.26.26 0 0 0-.009-.087.26.26 0 0 0-.008-.087.26.26 0 0 0-.01-.087.26.26 0 0 0-.008-.087.26.26 0 0 0-.009-.087.26.26 0 0 0-.009-.087.26.26 0 0 0-.009-.087.26.26 0 0 0-.008-.087.26.26 0 0 0-.01-.087.26.26 0 0 0-.008-.087.355.355 0 0 0-.002-.056l1.363.02c.064 0 .12.032.161.082.264 2.852.527 5.705.788 8.558l.002.012.007.075.002.012.006.075.002.012.007.075.002.012.007.075.002.012.007.075.002.012.007.075.002.012.007.075.002.012.007.075.001.012.007.075.002.012.007.075.002.012.007.075.002.012.007.075.002.012.007.075.002.012.007.075.002.012.007.075.001.012.007.075.002.012.007.075.002.012.007.075.002.012.007.075.002.011.007.076.002.012.007.075.001.011.007.076.002.011.007.075.002.012.007.075.002.012.007.075.002.012.007.075.002.012.007.076.002.011.007.075.002.012.006.075.002.012.007.075.002.012.007.075.002.012.007.075.002.012.007.075.002.012.007.075.002.012.006.075.002.012.007.075.002.012.007.075.002.012.007.075.002.012.007.075.002.012.007.075.002.012.007.075.002.012.006.075.002.012.007.075.002.012.007.075.002.012.007.075.002.012.007.075.002.012.007.075.002.012.007.075.001.012.007.075.002.012.007.075.002.012.007.075c.012.128.106.238.218.255 1.278.187 2.553.387 3.828.6a.178.178 0 0 0 .183-.085 224.466 224.466 0 0 0 6.59-11.43 759.35 759.35 0 0 1-1.803 7.13.218.218 0 0 1-.1.139l-.384.208c-.099.054-.126.178-.1.294 0 .029.002.058.008.087 0 .029.003.058.01.087 0 .029.002.058.008.087 0 .029.003.058.009.087 0 .029.003.058.009.087 0 .028.003.058.009.087 0 .028.003.058.008.087 0 .028.003.058.01.087 0 .028.002.058.008.087 0 .028.003.058.009.087 0 .028.003.058.009.087 0 .028.003.058.009.087 0 .028.003.058.009.087 0 .028.002.058.008.087 0 .028.003.058.01.087 0 .028.002.058.008.087 0 .028.003.058.009.087 0 .028.003.058.009.087 0 .028.003.058.009.086 0 .03.003.059.008.087 0 .03.003.059.01.087 0 .03.002.059.008.087 0 .029.003.059.01.087 0 .029.002.059.008.087 0 .029.003.059.009.087 0 .029.003.059.009.087 0 .029.003.059.009.087 0 .029.002.059.008.087 0 .029.003.059.01.087 0 .029.002.059.008.087 0 .029.003.059.009.087 0 .029.003.059.009.087 0 .029.003.058.009.087 0 .029.002.058.008.087 0 .029.003.058.01.087 0 .029.002.058.008.087 0 .029.003.058.009.087 0 .029.003.058.009.087 0 .029.003.058.009.087 0 .029.003.058.008.087 0 .029.004.058.01.087 0 .029.002.058.008.087 0 .029.003.058.01.087 0 .029.002.058.008.087 0 .029.003.058.009.087 0 .029.003.058.009.087 0 .029.003.058.008.087 0 .028.003.058.01.087 0 .028.002.058.008.087 0 .028.003.058.009.087-.002.141.08.298.22.325l.136.027c1.444.286 2.885.584 4.326.894.094.02.179-.041.208-.155a761.8 761.8 0 0 0 4.575-18.898.415.415 0 0 0 0-.18l.076-.018ZM65.647 13.78c.004-.012.008-.024.01-.036l.013-.033a.455.455 0 0 0-.033-.017.554.554 0 0 0 .011-.036l.012-.033-.033-.017a.483.483 0 0 0 .011-.036l.012-.033-.032-.017c.004-.012.008-.024.01-.036l.012-.033-.032-.017c.004-.012.008-.024.01-.036l.012-.033a.528.528 0 0 0-.032-.017.47.47 0 0 0 .01-.036l.013-.033-.033-.017c.004-.012.008-.024.01-.036l.013-.033a.556.556 0 0 0-.033-.017.533.533 0 0 0 .011-.036l.012-.033a.436.436 0 0 0-.033-.017.499.499 0 0 0 .011-.036l.012-.033a.48.48 0 0 0-.032-.017l.005-.016.204-.01a.2.2 0 0 1 .207.152c.334 1.416.666 2.832.998 4.25 0 .021.004.043.01.064-.003.03 0 .059.008.087-.003.03 0 .059.01.087-.004.03 0 .059.008.087-.003.03 0 .058.009.087-.003.03 0 .059.009.087-.003.03 0 .059.009.087-.003.03 0 .059.008.087-.002.03 0 .059.01.087-.004.03 0 .059.008.087-.003.03 0 .059.009.087-.003.03 0 .059.009.086-.003.03 0 .06.009.087-.003.03 0 .06.009.087-.003.03 0 .06.008.087-.002.03 0 .06.01.087-.004.03 0 .059.008.087-.003.03 0 .06.009.087-.003.03 0 .06.009.087-.003.03 0 .06.009.087-.003.03 0 .06.008.087-.002.03 0 .06.01.087v.002c-1.085.01-2.17.017-3.255.024a1249.6 1249.6 0 0 0 1.745-5.453l.012-.034-.033-.016.01-.015Zm-29.22 4.594.016-.052.004-.016-.03-.02.017-.05.004-.017-.03-.02.017-.05.004-.017-.03-.02c.007-.016.011-.033.017-.05l.004-.017-.03-.02c.007-.016.012-.033.017-.05l.004-.017-.03-.02c.007-.016.012-.033.018-.05l.004-.017-.03-.02c.006-.016.01-.033.017-.05l.004-.017-.03-.02.017-.05.004-.017-.03-.019.017-.051.004-.017-.03-.019a.853.853 0 0 1 .013-.04c.358.016.67.03 1.134.049a512.4 512.4 0 0 0 4.449.159.183.183 0 0 1 .167.127l.352 1.09.007.022a.187.187 0 0 0 .009.087.187.187 0 0 0 .009.087.187.187 0 0 0 .009.087.186.186 0 0 0 .008.087.187.187 0 0 0 .01.087.187.187 0 0 0 .008.087.187.187 0 0 0 .009.087.186.186 0 0 0 .009.087.187.187 0 0 0 .009.087.187.187 0 0 0 .008.087.187.187 0 0 0 .01.087.186.186 0 0 0 .008.087.187.187 0 0 0 .01.087.187.187 0 0 0 .008.087.177.177 0 0 0 .172.205c.692.012 1.165.018 1.697.025.001.016.004.031.008.046 0 .028.002.058.009.087 0 .029.002.058.009.087 0 .029.002.058.009.087 0 .028.002.058.009.087 0 .028.002.058.008.087 0 .028.002.058.01.087 0 .028.001.058.008.087 0 .028.002.058.009.087 0 .028.002.058.009.087 0 .028.002.058.009.087 0 .028.002.058.008.087 0 .028.002.058.01.087 0 .028.001.058.008.086 0 .03.002.059.01.087 0 .03.001.059.008.088 0 .028.002.058.009.087 0 .028.002.058.009.086 0 .03.002.059.009.087 0 .03.001.059.008.087 0 .03.002.059.01.087 0 .029.001.059.008.087 0 .029.002.059.009.087 0 .029.002.059.009.087 0 .029.002.059.009.087 0 .029.002.059.008.087 0 .029.002.059.01.087 0 .029.001.058.008.087 0 .029.002.058.009.087 0 .029.002.058.009.087 0 .029.002.059.009.087 0 .029.002.058.008.087 0 .029.002.058.01.087v.013c-.7 2.156-1.398 4.312-2.09 6.47-.103.327-.566.326-.643-.001-.806-3.404-1.604-6.811-2.395-10.22a.338.338 0 0 0-.325-.264c-1.038-.009-2.075-.02-3.112-.031l.263-.824.004-.017-.03-.018.001-.01Zm-14.46-.688a.181.181 0 0 0-.005-.112.187.187 0 0 0-.01-.087c.005-.03.002-.06-.008-.087a.186.186 0 0 0-.009-.087c.004-.03.001-.059-.009-.087a.187.187 0 0 0-.008-.087c.003-.03 0-.059-.01-.087a.186.186 0 0 0-.008-.087c.004-.03 0-.059-.01-.087a.187.187 0 0 0-.008-.087c.004-.03.001-.059-.009-.087a.18.18 0 0 0-.005-.076c1.715.14 3.431.27 5.148.39l-.017.01.142.007-.133.08.143.007-.133.08.143.006c-.04.025-.084.05-.133.082l.143.006-.133.08.142.006-.132.081.142.006-.132.081.142.006-.133.081.143.006-.133.081.143.006-.133.081.143.006-.133.081.142.006-.132.081.142.006-.132.081.142.006-.133.081.143.006-.133.081.143.006-.133.081.143.006-.133.081.143.006-.133.081.142.006-.132.081.142.006-.133.081.143.006-.133.081.143.006-.133.081.143.006-.133.081.143.006-.133.081.142.006-.132.081.142.006-.002.001c-1.918-.032-3.837-.066-5.756-.104l.372-1.33-.023-.003ZM92 28.386a.506.506 0 0 0-.007-.04.428.428 0 0 0-.01-.087.429.429 0 0 0-.008-.087.427.427 0 0 0-.009-.087.428.428 0 0 0-.009-.087.428.428 0 0 0-.009-.087.429.429 0 0 0-.008-.087.427.427 0 0 0-.01-.086.427.427 0 0 0-.008-.087.428.428 0 0 0-.009-.087.429.429 0 0 0-.009-.087.427.427 0 0 0-.009-.087.427.427 0 0 0-.008-.087.428.428 0 0 0-.01-.087.4.4 0 0 0-.007-.084l.436.01c-.1.414-.203.827-.305 1.24l-.001.004Z" fill="#272D4A"/><path d="M60.448 6.85c-3.739.134-7.476.17-11.215.106a.316.316 0 0 0-.165.592l.103.06a.322.322 0 0 1 .146.378c-.693 2.08-1.386 4.162-2.077 6.244a1.528 1.528 0 0 0-.058.687c.035.223.11.42.224.591.116.171.272.307.469.409.197.101.419.154.667.156 3.033.018 6.065.018 9.097 0a.329.329 0 0 0 .311-.225l.485-1.494a.318.318 0 0 0-.31-.414c-2.171.024-6.435.013-7.61.01a.222.222 0 0 1-.208-.293l.327-.983a.221.221 0 0 1 .21-.152c.852 0 4.914 0 7.062-.027a.332.332 0 0 0 .31-.227l.441-1.356a.315.315 0 0 0-.31-.412c-1.897.034-5.774.036-6.821.036a.206.206 0 0 1-.198-.259l.263-.995a.205.205 0 0 1 .196-.153c.928-.008 5.752-.052 8.166-.12a.339.339 0 0 0 .311-.231l.495-1.517a.31.31 0 0 0-.311-.409V6.85Z" fill="#fff"/><path d="M28.014 19.13c-5.863-.093-11.724-.217-17.585-.37-.521-.014-.707.925-.256 1.285l.16.127c.207.165.302.5.229.81a860.788 860.788 0 0 0-3.244 14.12 5.036 5.036 0 0 0-.09 1.561c.054.487.169.904.35 1.243.18.338.424.581.73.73.308.15.655.18 1.044.09a213.49 213.49 0 0 1 14.25-2.77c.223-.035.42-.232.489-.486.305-1.141.457-1.706.762-2.83.106-.39-.142-.746-.489-.708-3.323.382-9.697 1.223-11.707 1.49a.432.432 0 0 1-.475-.532l.51-2.122a.43.43 0 0 1 .371-.33c1.434-.158 7.648-.841 10.958-1.134.223-.02.42-.2.488-.449.277-1.008.416-1.509.692-2.503.106-.382-.14-.753-.489-.738-2.889.142-8.8.482-10.672.59a.433.433 0 0 1-.444-.536l.514-2.118a.433.433 0 0 1 .409-.331c1.649-.042 9.07-.23 12.717-.303.223-.004.42-.167.488-.402.312-1.063.467-1.59.778-2.639.108-.364-.14-.741-.488-.746ZM70.934 19.225c-5.896.063-11.79.096-17.686.099-.526 0-.714.679-.259.937l.161.09c.21.12.306.364.232.59a6451.133 6451.133 0 0 0-3.278 9.876c-.114.37-.146.73-.092 1.08.054.348.172.656.354.92s.43.471.739.624c.312.155.66.232 1.054.23 4.788-.006 9.568.152 14.35.475a.472.472 0 0 0 .49-.328c.305-.95.459-1.427.764-2.384a.554.554 0 0 0-.49-.712c-3.38-.178-9.96-.339-11.9-.383a.391.391 0 0 1-.354-.53l.557-1.481a.388.388 0 0 1 .372-.253c1.423.025 8.014.148 10.981.265a.49.49 0 0 0 .49-.343l.695-2.182a.538.538 0 0 0-.49-.699c-2.94-.069-8.967-.139-10.76-.159a.391.391 0 0 1-.37-.502l.44-1.501a.39.39 0 0 1 .375-.282c1.559.01 8.952.056 12.846.105a.508.508 0 0 0 .489-.363c.311-.991.468-1.49.78-2.491.108-.348-.14-.702-.49-.698Z" fill="#FFE000"/><path d="M60.48 16.046c.986-.01 1.48-.018 2.465-.032a.216.216 0 0 0 .202-.15 869.57 869.57 0 0 1 2.287-6.874c.027-.082.144-.077.164.007.238 1.012 1.04 4.422 1.47 6.272a.223.223 0 0 1-.1.24l-.05.03c-.186.115-.11.403.108.398 1.615-.034 3.23-.075 4.844-.122a.222.222 0 0 0 .201-.16 909.623 909.623 0 0 0 2.878-9.63c.044-.152-.058-.29-.202-.274-1.115.125-2.23.242-3.345.354-.216.02-.294.326-.106.423l.545.28c.087.045.126.15.096.252-.605 2.016-1.216 4.03-1.831 6.04-.066.215-.36.215-.408 0-.502-2.182-1.007-4.364-1.517-6.544a.195.195 0 0 0-.206-.151c-1.827.138-3.655.255-5.484.351-.217.011-.294.299-.107.399.214.113.32.17.535.282a.202.202 0 0 1 .096.244c-.841 2.622-1.689 5.24-2.542 7.856a.215.215 0 0 1-.095.118c-.187.11-.109.391.107.388l-.005.003Z" fill="#fff"/><path d="M27.498 35.39c1.291-.173 2.584-.336 3.879-.483a.39.39 0 0 0 .317-.283c1.063-3.615 3.427-12.21 3.427-12.21s.29.107.326.263c.798 3.517 1.608 7.03 2.426 10.54a.37.37 0 0 1-.158.385l-.08.053c-.294.199-.172.652.169.624 2.548-.196 5.096-.35 7.649-.459a.352.352 0 0 0 .318-.241c1.502-4.618 3.022-9.228 4.55-13.833a.329.329 0 0 0-.32-.428c-1.761-.004-3.525-.01-5.287-.02-.342-.001-.464.447-.168.618l.861.497a.33.33 0 0 1 .15.387c-.972 2.98-1.936 5.961-2.892 8.947-.105.326-.567.325-.644-.002-.806-3.404-1.604-6.81-2.395-10.22a.338.338 0 0 0-.325-.264c-2.882-.025-5.763-.057-8.645-.096-.341-.005-.463.482-.168.67.336.214.504.32.841.531a.37.37 0 0 1 .15.42 826.002 826.002 0 0 0-4 13.709.44.44 0 0 1-.15.225c-.294.23-.172.715.168.669l.001.002Z" fill="#FFE000"/><path d="M32.334 6.466a1.49 1.49 0 0 0-1.13-.727 218.235 218.235 0 0 1-11.2-1.626c-.134-.024-.181.181-.065.282.347.302.52.451.868.747a.188.188 0 0 1 .06.192l-.226.828c-.798 2.831-1.58 5.667-2.346 8.51a.146.146 0 0 1-.06.085l-.133.087c-.116.076-.069.298.066.305 1.074.059 1.61.087 2.684.14.058.003.108-.038.125-.102l.727-2.613a.415.415 0 0 1 .432-.304c1.027.079 4.129.314 5.828.428.09.005.154.106.125.198l-.68 2.277a.139.139 0 0 1-.058.08l-.505.305.444.018c1.076.043 1.614.064 2.692.102a.129.129 0 0 0 .126-.094 895.547 895.547 0 0 1 2.383-7.741c.081-.245.106-.49.072-.729a1.77 1.77 0 0 0-.229-.65v.002Zm-2.852 1.828c-.24.787-.36 1.182-.598 1.977a.12.12 0 0 1-.126.09 349.09 349.09 0 0 1-6.082-.58c-.09-.009-.153-.117-.125-.214.122-.426.436-1.567.587-2.116a.361.361 0 0 1 .392-.264c.976.121 4.025.497 5.691.676.098.01.173.059.226.146a.345.345 0 0 1 .035.284v.001ZM88.872 4.3a1.044 1.044 0 0 0-.464-.424 1.084 1.084 0 0 0-.662-.064 217.563 217.563 0 0 1-11.193 1.726c-.135.017-.183.216-.066.276l.87.445c.052.028.077.094.06.161-.091.33-.137.495-.226.824a861.354 861.354 0 0 1-2.354 8.052.15.15 0 0 1-.06.081l-.133.088c-.117.076-.069.266.066.26 1.078-.035 1.617-.053 2.693-.094a.138.138 0 0 0 .125-.105c.167-.572.656-1.982.866-2.58a.439.439 0 0 1 .384-.294c.956-.068 4.054-.29 5.739-.425.09-.007.153.091.125.193a700.74 700.74 0 0 1-.678 2.5.166.166 0 0 1-.059.09c-.056.04-.104.075-.15.11-.104.075-.045.242.084.236h.004c1.075-.05 1.612-.077 2.687-.132.057-.003.107-.05.125-.117.81-3.077 1.6-6.16 2.374-9.249.08-.308.106-.6.073-.87a1.78 1.78 0 0 0-.229-.688ZM86.03 7.155c-.239.924-.358 1.384-.596 2.296-.017.067-.067.116-.124.122-2.025.225-4.052.43-6.08.62-.09.008-.153-.083-.124-.18.126-.447.453-1.682.594-2.22a.392.392 0 0 1 .329-.29c.92-.116 4.05-.512 5.742-.753a.211.211 0 0 1 .225.1.38.38 0 0 1 .034.305ZM46.901 7.453a1.305 1.305 0 0 0-.469-.422 1.487 1.487 0 0 0-.666-.175c-3.714-.155-7.42-.405-11.126-.753-.179-.018-.242.225-.088.333.277.195.416.292.693.484.072.049.104.141.079.22a994.017 994.017 0 0 0-2.566 8.156.176.176 0 0 1-.079.1c-.017.01-.025.016-.043.025-.162.095-.1.345.089.35 1.02.032 1.53.047 2.553.075a.17.17 0 0 0 .167-.121c.177-.559.579-1.875.732-2.376a.266.266 0 0 1 .268-.19l.592.025c1.483.06 2.966.113 4.449.159a.183.183 0 0 1 .167.127c.258.801.387 1.201.646 1.998a.173.173 0 0 1-.079.205c-.154.088-.09.325.089.328 1.086.017 1.63.025 2.717.04a.173.173 0 0 0 .167-.226l-.506-1.553a.182.182 0 0 0-.08-.1c-.288-.17-.433-.257-.722-.43-.155-.092-.091-.327.089-.323l.265.006c.37.006.712-.103 1.022-.327.313-.225.53-.516.645-.874.386-1.165.774-2.33 1.161-3.494.075-.234.093-.461.06-.682a1.442 1.442 0 0 0-.226-.586v.001ZM44.04 9.305l-.546 1.685a.34.34 0 0 1-.133.168.334.334 0 0 1-.203.058c-1.986-.072-3.97-.16-5.955-.266a.19.19 0 0 1-.167-.245c.15-.47.728-2.108.728-2.108l.738.048v.003c1.763.109 3.527.2 5.29.277a.26.26 0 0 1 .22.12.296.296 0 0 1 .028.259Z" fill="#fff"/><path d="M74.544 34.725c1.023-3.203 3.315-10.56 3.788-12.079a.386.386 0 0 1 .375-.272l.416.006c.112.002.207.098.219.223.398 4.278.793 8.556 1.183 12.836.012.128.107.238.219.255 1.277.187 2.553.387 3.827.6a.178.178 0 0 0 .183-.085c2.131-3.455 6.676-11.573 7.577-13.185a.532.532 0 0 1 .478-.273l.235.006h.023c.149 0 .257.192.212.378a791.799 791.799 0 0 1-3.284 13.193.218.218 0 0 1-.099.139l-.384.208c-.194.105-.115.49.11.533l.136.027c1.444.286 2.886.584 4.326.894.095.021.18-.041.209-.155a761.684 761.684 0 0 0 4.574-18.897c.046-.201-.059-.403-.207-.398-3.657.103-7.313.195-10.97.275-.225.005-.305.368-.11.502.462.32.693.483 1.156.813.107.076.141.248.075.378a265.106 265.106 0 0 1-4.395 8.321c-.114.205-.395.094-.405-.158l-.424-9.53c-.006-.136-.103-.241-.22-.24-3.473.065-6.946.119-10.42.163-.225.003-.305.317-.11.435.528.32.792.48 1.32.805.09.056.131.17.1.276a927.948 927.948 0 0 1-4.048 12.957.202.202 0 0 1-.1.118l-.363.188c-.195.1-.114.414.11.434 1.496.137 2.988.288 4.481.45a.192.192 0 0 0 .209-.138l-.002-.003ZM107.439 8.682l-1.556.967a.337.337 0 0 0-.057.527l2.072 2.02a.336.336 0 0 1-.285.573l-2.815-.44a.335.335 0 0 0-.379.4l.445 2.21a.334.334 0 0 1-.518.342l-1.872-1.306a.333.333 0 0 0-.507.168l-.729 2.17a.333.333 0 0 1-.618.037l-.969-2.064a.334.334 0 0 0-.528-.105l-1.969 1.813a.334.334 0 0 1-.555-.302l.406-2.5a.335.335 0 0 0-.42-.378l-2.692.748c-.314.087-.554-.281-.349-.535l1.784-2.204a.336.336 0 0 0-.152-.53l-2.124-.72a.336.336 0 0 1-.036-.622l2.061-.978a.337.337 0 0 0 .109-.526L93.68 5.73a.336.336 0 0 1 .278-.556l2.243.19c.23.02.41-.195.352-.42l-.705-2.714c-.081-.315.285-.55.534-.345l2.131 1.747c.181.148.454.07.528-.153l.717-2.135a.333.333 0 0 1 .619-.035l.971 2.071a.334.334 0 0 0 .524.109l2.367-2.097c.248-.22.629.017.543.34l-.734 2.727a.335.335 0 0 0 .388.418l2.14-.434a.335.335 0 0 1 .34.52l-1.318 1.91a.336.336 0 0 0 .142.5l1.654.714c.249.107.275.45.044.594l.001.002Z" fill="#FFE000"/><path d="M86.055 13.525a1.088 1.088 0 0 1 .218-1.207l2.03-2.039c.203-.205.473-.317.761-.317.288 0 .559.112.761.317l2.425 2.438 7.351-7.388c.204-.204.474-.317.762-.317.288 0 .559.113.762.317l2.028 2.04c.107.107.186.231.238.364l.967 1.99c.176.399.105.881-.22 1.207l-10.14 10.192a1.068 1.068 0 0 1-.762.318c-.288 0-.559-.113-.761-.318l-5.216-5.241a1.066 1.066 0 0 1-.238-.365l-.967-1.99.001-.001Z" fill="#272D4A"/><path d="M92.251 19.409c-.288 0-.558-.113-.76-.318l-5.217-5.241a1.088 1.088 0 0 1 0-1.53l2.029-2.04c.204-.204.474-.317.762-.317.288 0 .559.113.761.317l2.425 2.438 7.35-7.388c.204-.204.475-.317.763-.317.288 0 .559.113.762.317l2.028 2.04c.42.421.42 1.108 0 1.53l-10.14 10.192a1.068 1.068 0 0 1-.763.318v-.001Z" fill="#59628A"/><path d="m102.875 7.648-2.028-2.039a.68.68 0 0 0-.966 0l-7.63 7.669-2.704-2.718a.68.68 0 0 0-.966 0l-2.028 2.039a.69.69 0 0 0 0 .97l5.216 5.243a.68.68 0 0 0 .966 0l1.352-1.36 8.789-8.832a.69.69 0 0 0 0-.971l-.001-.001Z" fill="#FF598C"/><path d="M.033 35.184h1.195a1.499 1.499 0 0 1 1.4.98l.567 1.53c.014.038.07.024.065-.016l-.172-1.435c-.085-.7.328-1.366.991-1.599l.685-.241c.036-.013.027-.065-.01-.065l-.87-.017a1.496 1.496 0 0 1-1.405-1.07c-.073-.243-.43-.19-.429.063v.026a1.502 1.502 0 0 1-1.007 1.424l-1.02.354c-.036.012-.027.065.01.065ZM32.608 43.332h1.195a1.499 1.499 0 0 1 1.4.98l.566 1.53c.014.038.07.024.065-.015l-.172-1.435c-.084-.701.329-1.367.991-1.6l.686-.24c.035-.014.026-.066-.011-.066l-.87-.017a1.496 1.496 0 0 1-1.405-1.07c-.072-.243-.43-.19-.428.063v.026a1.502 1.502 0 0 1-1.007 1.424l-1.021.354c-.035.013-.027.065.01.065ZM15.702.96l.8.239c.417.124.713.497.744.934l.077 1.137c.002.028.043.03.046.002l.169-.995c.081-.485.488-.849.978-.873l.506-.024c.027-.001.03-.038.006-.046l-.579-.185a1.049 1.049 0 0 1-.729-.996c0-.177-.25-.212-.3-.042l-.004.016c-.126.43-.51.733-.956.753l-.754.033c-.026.001-.03.039-.005.047ZM2.637 30.769h.542c.284 0 .537.178.636.445l.257.694c.006.017.032.011.03-.007l-.079-.65a.681.681 0 0 1 .45-.726l.31-.11c.016-.006.012-.03-.005-.03l-.394-.008a.679.679 0 0 1-.637-.486c-.033-.11-.195-.086-.195.029v.012a.682.682 0 0 1-.457.646l-.463.161c-.017.006-.012.03.004.03h.001ZM94.165 1.078l-.712.166a.912.912 0 0 1-.97-.387l-.55-.833c-.013-.021-.044-.005-.036.018l.302.832a.921.921 0 0 1-.37 1.09l-.374.24c-.02.012-.007.043.016.038l.52-.112a.914.914 0 0 1 .986.442c.077.134.282.053.247-.098l-.004-.015a.921.921 0 0 1 .403-.99l.56-.353c.02-.013.006-.043-.016-.038h-.002ZM70.859 1.661l-.885.207a1.134 1.134 0 0 1-1.205-.481L68.086.352c-.017-.026-.055-.006-.045.023l.374 1.032a1.145 1.145 0 0 1-.459 1.356l-.466.298c-.024.016-.009.052.019.046l.647-.139c.482-.104.977.119 1.223.549.095.167.351.066.307-.122l-.004-.019c-.111-.475.09-.97.501-1.23l.695-.44c.024-.015.008-.052-.02-.046l.001.001ZM90.158 46.045l-1.193-.071a1.496 1.496 0 0 1-1.34-1.06l-.477-1.561c-.011-.039-.067-.028-.065.012l.088 1.443a1.502 1.502 0 0 1-1.083 1.538l-.698.2c-.036.009-.03.062.007.065l.867.069c.648.05 1.19.516 1.34 1.152.058.247.418.215.431-.039v-.025a1.503 1.503 0 0 1 1.091-1.362l1.04-.294c.036-.01.03-.064-.007-.066l-.001-.001ZM105.458 19.71l-.85.199a1.171 1.171 0 0 1-1.245-.498l-.662-1.004c-.017-.024-.055-.006-.046.023l.36.992a1.183 1.183 0 0 1-.475 1.403l-.432.276c-.024.015-.009.052.018.046l.611-.131c.5-.108 1.012.122 1.266.568l.463.811c.015.026.053.01.046-.018l-.218-.93a1.185 1.185 0 0 1 .518-1.273l.664-.42c.024-.014.009-.053-.02-.046l.002.002Z" fill="#fff"/></g><defs><clipPath id="clip0_97_32"><path fill="#fff" d="M0 0h108v48H0z"/></clipPath></defs></svg>