<svg width="305" height="222" fill="none" xmlns="http://www.w3.org/2000/svg"><g clip-path="url('#clip0_73_205')"><path d="M262.876 36.49c-.744 4.941 1.253 9.317 4.484 9.805 3.212.488 6.423-3.125 7.168-8.067.744-4.942-1.273-9.318-4.485-9.806-3.211-.489-6.423 3.125-7.167 8.067Z" fill="#432708"/><path d="M165.786 106.889s-10.457-8.36-12.494-9.064c-2.017-.703-6.58-5.333-8.264-2.305-1.684 3.028 5.914 11.388 5.914 11.388s-14.001-1.777-17.879-2.481c-3.877-.703-11.142-5.157-13.492-2.676-2.35 2.481 2.193 6.583 2.193 6.583s-6.403-1.68-5.914 1.563c.509 3.242 4.054 6.446 4.054 6.446s-5.953-2.129-4.073 2.305c1.88 4.454 10.829 11.017 22.637 13.517 11.808 2.481 27.337-1.074 27.337-1.074v-24.183l-.019-.019Z" fill="#fff"/><path d="M135.08 121.949c.235 0 .47-.117.607-.332l7.5-11.954c.216-.332.098-.762-.235-.977a.693.693 0 0 0-.979.234l-7.265 11.564c-2.076-.273-10.966-1.64-14.354-4.707a.71.71 0 0 0-.998.058.708.708 0 0 0 .058.997c4.171 3.75 15.118 5.059 15.588 5.117h.078Z" fill="#5A361E"/><path d="M140.27 113.706a.71.71 0 0 0 .705-.684.732.732 0 0 0-.686-.742c-10.868-.488-18.114-4.571-18.192-4.61-.333-.195-.764-.078-.979.254-.196.332-.078.762.255.977.313.175 7.598 4.297 18.818 4.805h.079ZM162.672 118.863c.607 0 1.214-.039 1.86-.098a.706.706 0 0 0 .627-.781c-.039-.391-.372-.645-.783-.625-3.329.371-6.09-.313-8.244-2.032-3.839-3.067-4.465-8.458-4.465-8.497-.039-.391-.372-.664-.784-.625a.706.706 0 0 0-.626.781c.019.235.685 6.017 4.993 9.455 2.037 1.621 4.524 2.441 7.442 2.441l-.02-.019Z" fill="#5A361E"/><path d="M280.167 78.174s75.08 21.39 68.422 107.065c-6.11 78.682-71.242 99.036-123.135 82.178-51.914-16.857-39.792-63.816-39.792-63.816l94.505-125.427Z" fill="#E2E1EF"/><path d="M258.255 236.906c-23.437 0-42.436-4.268-42.436-9.533 0-5.264 18.999-9.532 42.436-9.532 23.436 0 42.435 4.268 42.435 9.532 0 5.265-18.999 9.533-42.435 9.533Z" fill="#BEBDD1"/><path d="M272.726 56.453s-22.246-1.016-31.352 6.055c-9.106 7.071-30.215 39.966-30.215 39.966l-45.354-4.297-5.228 39.38 48.095 12.951s-15.177 44.439-14.002 46.119c1.175 1.68 9.948 3.204 9.948 3.204l23.793-39.556s34.915-77.08 44.335-103.842l-.02.02Z" fill="#2896C7"/><path d="M77.469 246.653s56.946-67.45 91.352-78.096c34.407-10.646 131.81-7.345 131.81-7.345s10.673 56.629-10.242 66.161c-28.492 12.99-81.62 7.462-90.921 12.189-9.302 4.727-66.248 60.36-66.248 60.36l-55.751-53.25v-.019Z" fill="#2482BA"/><path d="M293.111 186.567a19.92 19.92 0 0 0 3.604-.351c.391-.078.646-.45.568-.821a.72.72 0 0 0-.823-.566c-11.456 2.188-15.979-6.993-16.175-7.404a.718.718 0 0 0-.94-.332c-.353.176-.509.586-.333.938.039.098 4.191 8.536 14.119 8.536h-.02Z" fill="#fff"/><path d="M268.633 165.041s-10.104 2.305-25.907 0c-15.823-2.305-18.721-3.79-18.721-3.79l32.977-73.623 15.724-31.195 20.64 4.2-24.732 104.388.019.02Z" fill="#126BB2"/><path d="m291.897 48.15-1.253 15.1s-3.094 4.122-12.004 4.102c-6.639 0-8.832-1.7-8.832-1.7l1.567-7.578 1.527-7.384 16.293-2.188 2.741-.37-.039.019Z" fill="#fff"/><path d="M289.175 48.522c-.078.41-.274.879-.568 1.426-4.014 7.267-13.414 8.126-17.252 8.145l1.528-7.383 16.292-2.188Z" fill="#2C90CC"/><path d="M272.08 15.705s-9.772 18.733-7.461 29.79c2.311 11.055 12.337 10.02 18.407 8.32 6.071-1.699 9.067-5.137 9.067-5.137s5.405 2.246 9.459-2.637c4.053-4.883 2.173-10.939-.901-12.502-3.075-1.562-6.991.45-6.991.45l3.329-5.411S286.532-.782 272.06 15.705h.02Z" fill="#fff"/><path d="M293.679 33.989s-7.519-1.954-9.83-8.36c-2.311-6.408-.157-10.198-.157-10.198s-2.78-2.187-7.206-.976c-4.426 1.23-6.619 5.918-6.619 5.918s-10.203-9.16-6.149-15.92c4.054-6.758 11.691-.175 11.691-.175s-1.195-5.9 9.85-3.907c11.044 1.992 13.316 16.33 13.316 16.33s2.742-5.567 6.09 3.77c3.349 9.337-2.781 13.986-2.781 13.986s-2.78-1.738-8.224-.508l.019.04Z" fill="#126BB2"/><path d="M293.601 42.408a.62.62 0 0 0 .313-.078l7.403-4.434a.61.61 0 0 0 .215-.84.611.611 0 0 0-.842-.215l-7.402 4.434a.608.608 0 0 0 .313 1.133Z" fill="#D9BE3D"/><path d="M299.985 42.838a.63.63 0 0 0 .587-.41c.118-.313-.058-.665-.372-.782l-4.504-1.563a.619.619 0 0 0-.783.372.617.617 0 0 0 .372.78l4.504 1.564s.137.039.196.039Z" fill="#D9BE3D"/><path d="M271.766 37.368h.079a.342.342 0 0 0 .254-.41c-.568-2.715 1.273-4.317 1.352-4.376.137-.117.156-.332.039-.488a.339.339 0 0 0-.47-.039c-.098.078-2.233 1.934-1.586 5.04a.353.353 0 0 0 .332.273ZM274.018 45.377c1.626 0 2.957-1.387 3.545-2.325a.722.722 0 0 0-.235-.976.726.726 0 0 0-.979.234c-.059.098-1.547 2.403-3.212 1.387a.727.727 0 0 0-.979.234.722.722 0 0 0 .235.977c.568.332 1.097.489 1.625.489v-.02Z" fill="#2C90CC"/><path d="M264.756 161.798s-3.31 49.147 2.428 51.491c5.738 2.344 45.393.176 47.233-1.523 1.861-1.68 0-49.987 0-49.987h-49.661v.019Z" fill="#2896C7"/><path d="M222.458 112.515s-8.284.312-8.284 3.438c0 3.125 9.224 3.711 9.224 3.711l1.605-1.953-1.547-3.966-.998-1.23Z" fill="#fff"/><path d="M291.486 39.478c-.744 4.942 1.273 9.317 4.484 9.806 3.212.488 6.424-3.126 7.168-8.068.744-4.942-1.254-9.317-4.485-9.806-3.231-.488-6.423 3.126-7.167 8.068Z" fill="#432708"/><path d="M293.66 39.79c-.744 4.942 1.253 9.318 4.484 9.806 3.212.489 6.423-3.125 7.167-8.067.745-4.942-1.253-9.318-4.484-9.806-3.231-.488-6.423 3.125-7.167 8.067Z" fill="#1F7BB4"/><path d="M301.904 34.497s2.389-14.123-.901-19.632c-3.29-5.489-5.013-5.665-5.013-5.665s4.171 13.4 1.312 25.297c-2.879 11.896 4.602 0 4.602 0Z" fill="#1F7BB4"/><path d="M188.306 141.6h23.46a3.489 3.489 0 0 0 3.485-3.477v-36.216H184.82v36.216a3.49 3.49 0 0 0 3.486 3.477Z" fill="#510B37"/><path d="M215.251 101.907c0 .958-6.814 1.739-15.215 1.739s-15.216-.781-15.216-1.739c0-.957 6.815-1.738 15.216-1.738s15.215.781 15.215 1.738Z" fill="#fff"/><path d="M226.629 123.863c0-8.087-5.111-14.65-11.378-14.65-6.266 0-11.377 6.583-11.377 14.65 0 8.068 5.111 14.651 11.377 14.651 6.267 0 11.378-6.583 11.378-14.651Zm-2.683 0c0 6.603-3.897 11.974-8.675 11.974-4.778 0-8.695-5.371-8.695-11.974 0-6.602 3.897-11.974 8.695-11.974s8.675 5.372 8.675 11.974Z" fill="#510B37"/><path d="M249.971 123.18s-12.356-9.65-15.94-10.724c-3.584-1.074-11.593.059-11.593.059l1.41 1.718 1.292 2.364.588 1.66s-10.477 1.114-9.772 4.513c.725 3.399 2.291 6.68 2.291 6.68s-1.605 13.752 4.113 16.799c5.737 3.028 25.437.899 25.437.899l2.155-23.929.019-.039Z" fill="#fff"/><path d="M291.545 55.574s35.581 11.74 39.126 41.02c3.544 29.282 7.402 66.708-25.497 70.752-32.898 4.043-63.78-11.603-63.78-11.603l9.106-39.38 19.328 3.027 21.717-63.816Z" fill="#2896C7"/><path d="m224.005 119.43 6.775-.665a.705.705 0 0 0 .627-.781c-.039-.391-.353-.684-.783-.625l-6.698.664a.706.706 0 0 0-.626.782.717.717 0 0 0 .705.644v-.019ZM220.95 131.384a.71.71 0 0 0 .646-.41.716.716 0 0 0-.352-.938l-2.683-1.23a.718.718 0 0 0-.94.351.716.716 0 0 0 .352.938l2.683 1.231s.196.058.294.058Z" fill="#D9BE3D"/><path d="M278.464 67.958c2.447 0 5.404-.273 8.851-1.055a.682.682 0 0 0 .529-.84.676.676 0 0 0-.842-.527c-11.143 2.52-16.802-.45-16.861-.469-.333-.195-.764-.059-.959.293-.177.352-.059.781.274.957.176.098 3.152 1.68 9.008 1.68v-.039ZM305.977 124.567a.711.711 0 0 0 .686-.508c.117-.371-.098-.762-.49-.879-19.426-5.684-36.247-4.512-36.404-4.493a.692.692 0 0 0-.646.762c.019.391.333.703.764.645.156 0 16.743-1.172 35.894 4.434.059 0 .137.019.196.019v.02Z" fill="#E7D4E1"/><path d="M298.947 122.496c3.329 0 9.263-.293 10.731-2.227.392-.527.49-1.133.274-1.777a2.105 2.105 0 0 0-1.312-1.328c-3.172-1.173-11.142 3.457-12.023 3.984a.708.708 0 0 0-.333.782.688.688 0 0 0 .666.527c.391 0 1.096.039 1.997.039Zm8.44-4.121c.294 0 .568.039.764.117.235.097.391.234.45.449a.467.467 0 0 1-.059.469c-.822 1.113-5.052 1.582-8.851 1.66 2.683-1.367 5.875-2.695 7.676-2.695h.02ZM287.256 207.468c7.833 0 17.096-.41 18.467-2.188 2.075-2.695 1.175-20.08.959-23.538a.707.707 0 0 0-.705-.664h-30.881a.713.713 0 0 0-.51.215.71.71 0 0 0-.215.508c.137 25.042.979 25.257 1.606 25.413.098.02 5.267.254 11.26.254h.019Zm18.055-24.964c.431 7.853.607 20.218-.705 21.917-1.527 1.973-24.302 1.836-27.963 1.465-.51-2.207-.784-14.982-.823-23.362h29.511l-.02-.02ZM292.465 168.928c11.436 0 20.875-2.129 20.993-2.149a.682.682 0 0 0 .528-.839.698.698 0 0 0-.842-.528c-.195.039-19.249 4.337-35.855.586-.392-.078-.764.156-.842.528a.702.702 0 0 0 .528.84c5.131 1.152 10.497 1.562 15.49 1.562ZM168.018 140.292a.7.7 0 0 0 .705-.625l5.248-40.69a.706.706 0 0 0-.607-.8.711.711 0 0 0-.803.605l-5.248 40.689a.706.706 0 0 0 .607.801h.098v.02ZM246.858 158.887a.71.71 0 0 0 .685-.527l10.144-40.513a.713.713 0 0 0-.509-.859.706.706 0 0 0-.862.507l-10.144 40.513a.714.714 0 0 0 .509.86c.059 0 .118.019.177.019Z" fill="#E7D4E1"/><g clip-path="url('#clip1_73_205')"><path d="m235.833 289.254 5.462-1.798-55.039-167.998-5.462 1.798 55.039 167.998ZM188.491 118.246l2.031 4.54 3.781-1.698-2.031-4.54-3.781 1.698Z" fill="#F8D424"/><path d="M192.528 119.175a4.984 4.984 0 0 1 2.507-6.578l10.587-4.753 4.062 9.079-10.588 4.754a4.966 4.966 0 0 1-6.568-2.502Z" fill="#3E1212"/><path d="M197.019 113.964a2.91 2.91 0 0 1 3.844 1.458 2.92 2.92 0 0 1-1.461 3.849c-1.462.655-3.191.005-3.843-1.458-.653-1.463-.002-3.194 1.46-3.849Z" fill="silver"/><path d="M180.879 120.082a5.582 5.582 0 0 1 7.191-3.228c2.87 1.091 4.309 4.321 3.216 7.195-1.092 2.874-4.32 4.317-7.19 3.227-2.87-1.091-4.309-4.32-3.217-7.194Z" fill="#3E1212"/><path d="M183.631 121.113c.526-1.362 2.052-2.053 3.412-1.528a2.643 2.643 0 0 1 1.523 3.413c-.526 1.362-2.051 2.054-3.411 1.529a2.645 2.645 0 0 1-1.524-3.414Z" fill="silver"/><path d="M213.06 94.128c-7.009 3.147-10.148 11.383-7.011 18.396 3.137 7.012 11.361 10.146 18.37 6.998l12.242-5.496c7.009-3.147 10.148-11.383 7.011-18.396-3.136-7.012-11.361-10.146-18.37-6.999l-12.242 5.497Z" fill="#AFAC79"/><path d="m222.596 110.534 3.652 8.169-3.627 1.632-3.652-8.169a1.985 1.985 0 0 1 1.001-2.631 1.976 1.976 0 0 1 2.626.999ZM218.539 101.478l-3.652-8.17-3.627 1.632 3.652 8.17a1.977 1.977 0 0 0 2.627.998 1.983 1.983 0 0 0 1-2.63ZM229.844 107.295l3.652 8.169-3.627 1.632-3.652-8.169a1.983 1.983 0 0 1 1-2.63 1.977 1.977 0 0 1 2.627.998ZM225.793 98.214l-3.652-8.17-3.627 1.633 3.652 8.169a1.976 1.976 0 0 0 2.627.998 1.983 1.983 0 0 0 1-2.63Z" fill="#3E1212"/><path d="m222.596 110.534 3.652 8.169-3.627 1.632-3.652-8.169a1.985 1.985 0 0 1 1.001-2.631 1.976 1.976 0 0 1 2.626.999ZM218.539 101.478l-3.652-8.17-3.627 1.632 3.652 8.17a1.977 1.977 0 0 0 2.627.998 1.983 1.983 0 0 0 1-2.63ZM229.844 107.295l3.652 8.169-3.627 1.632-3.652-8.169a1.983 1.983 0 0 1 1-2.63 1.977 1.977 0 0 1 2.627.998ZM225.793 98.214l-3.652-8.17-3.627 1.633 3.652 8.169a1.976 1.976 0 0 0 2.627.998 1.983 1.983 0 0 0 1-2.63ZM236.642 104.231l3.652 8.17-3.627 1.631-3.652-8.169a1.983 1.983 0 0 1 1-2.63 1.977 1.977 0 0 1 2.627.998ZM232.591 95.15l-3.652-8.17-3.627 1.633 3.652 8.17a1.978 1.978 0 0 0 2.627.998 1.983 1.983 0 0 0 1-2.63Z" fill="#3E1212"/></g></g><defs><clipPath id="clip0_73_205"><path fill="#fff" transform="matrix(-1 0 0 1 349 0)" d="M0 0h349v424H0z"/></clipPath><clipPath id="clip1_73_205"><path fill="#fff" transform="rotate(-165.012 135.593 158.077) skewX(-.024)" d="M0 0h101.786v251.492H0z"/></clipPath></defs></svg>