<svg width="320" height="248" fill="none" xmlns="http://www.w3.org/2000/svg"><path d="m305.334 368.402-50.867-11.392c-10.651-2.385-21.568 2.951-25.197 12.327L211.929 414.1c-5.449 14.078-25.747 17.449-36.369 6.039l-33.754-36.278c-7.069-7.601-19.369-9.085-28.39-3.431l-43.087 26.988c-13.55 8.492-32.162.411-33.337-14.464l-3.752-47.31c-.787-9.909-9.77-17.655-20.743-17.887l-52.384-1.098c-16.478-.343-26.286-16.779-17.578-29.441l27.68-40.276c5.8-8.433 3.563-19.482-5.165-25.504l-41.666-28.756c-13.105-9.041-10.376-27.562 4.9-33.173l48.545-17.852c10.168-3.74 15.531-13.862 12.376-23.385l-15.039-45.44c-4.728-14.292 9.505-27.82 25.5-24.234L50.533 69.99c10.651 2.385 21.568-2.951 25.197-12.327L93.071 12.9C98.52-1.178 118.818-4.55 129.44 6.86l33.754 36.28c7.069 7.6 19.369 9.084 28.39 3.43l43.087-26.988c13.551-8.492 32.162-.411 33.337 14.464l3.752 47.31c.787 9.909 9.77 17.655 20.743 17.887l52.384 1.098c16.478.343 26.286 16.779 17.578 29.441l-27.68 40.276c-5.799 8.433-3.563 19.482 5.165 25.504l41.666 28.756c13.105 9.041 10.376 27.562-4.9 33.173l-48.545 17.852c-10.168 3.74-15.531 13.862-12.376 23.385l15.039 45.44c4.728 14.292-9.505 27.82-25.5 24.234Z" fill="#fff"/></svg>