<svg width="360" height="383" fill="none" xmlns="http://www.w3.org/2000/svg"><path d="m415.146 543.544-68.083-16.808c-14.256-3.518-28.867 4.354-33.725 18.188l-23.21 66.044c-7.293 20.769-34.461 25.743-48.678 8.91l-45.178-53.526c-9.462-11.214-25.924-13.403-37.999-5.063l-57.67 39.819c-18.137 12.53-43.047.607-44.62-21.34l-5.022-69.802c-1.053-14.619-13.077-26.048-27.764-26.39l-70.113-1.62c-22.056-.506-35.183-24.756-23.527-43.438l37.047-59.424c7.763-12.441 4.77-28.743-6.912-37.629l-55.768-42.425c-17.541-13.341-13.888-40.667 6.557-48.944l64.976-26.339c13.61-5.519 20.788-20.454 16.565-34.503l-20.129-67.043c-6.328-21.086 12.722-41.046 34.13-35.755l68.084 16.808c14.256 3.518 28.867-4.354 33.725-18.188l23.21-66.043c7.293-20.77 34.461-25.745 48.678-8.91l45.178 53.525c9.462 11.214 25.924 13.404 37.999 5.063l57.67-39.819c18.137-12.53 43.047-.607 44.62 21.34l5.022 69.802c1.053 14.619 13.077 26.048 27.764 26.39l70.113 1.62c22.056.506 35.183 24.756 23.527 43.438l-37.048 59.424c-7.762 12.441-4.768 28.743 6.913 37.629l55.768 42.425c17.541 13.341 13.888 40.667-6.557 48.944l-64.976 26.339c-13.61 5.519-20.788 20.454-16.565 34.503l20.128 67.043c6.329 21.086-12.721 41.046-34.13 35.755Z" fill="#fff"/></svg>