<svg width="359" height="383" fill="none" xmlns="http://www.w3.org/2000/svg"><path d="m413.993 543.544-67.894-16.808c-14.217-3.518-28.787 4.354-33.631 18.188l-23.146 66.044c-7.273 20.769-34.365 25.743-48.543 8.91l-45.052-53.526c-9.436-11.214-25.853-13.403-37.894-5.063l-57.51 39.819c-18.086 12.53-42.927.607-44.495-21.34l-5.01-69.802c-1.049-14.619-13.04-26.048-27.685-26.39l-69.919-1.62c-21.994-.506-35.085-24.756-23.462-43.438l36.945-59.424c7.74-12.441 4.756-28.743-6.893-37.629l-55.613-42.425c-17.492-13.341-13.85-40.667 6.539-48.944l64.796-26.339c13.57-5.519 20.73-20.454 16.518-34.503l-20.073-67.043c-6.31-21.086 12.686-41.046 34.036-35.755l67.894 16.808c14.217 3.518 28.787-4.354 33.631-18.188l23.146-66.043c7.273-20.77 34.365-25.745 48.543-8.91l45.052 53.525c9.436 11.214 25.853 13.404 37.894 5.063l57.51-39.819c18.086-12.53 42.927-.607 44.495 21.34l5.009 69.802c1.05 14.619 13.04 26.048 27.686 26.39l69.918 1.62c21.995.506 35.086 24.756 23.462 43.438l-36.944 59.424c-7.741 12.441-4.756 28.743 6.893 37.629l55.613 42.425c17.492 13.341 13.85 40.667-6.539 48.944l-64.796 26.339c-13.571 5.519-20.73 20.454-16.518 34.503l20.073 67.043c6.311 21.086-12.686 41.046-34.036 35.755Z" fill="#fff"/></svg>