<svg width="155" height="155" fill="none" xmlns="http://www.w3.org/2000/svg"><g filter="url('#filter0_d_107_341')"><path d="M151 73.504c0 11.714-2.74 22.777-7.623 32.606a7.627 7.627 0 0 1-.181.377c-9.758 19.409-27.855 33.879-49.586 38.731-.094.023-.18.039-.275.063A73.125 73.125 0 0 1 77.5 147C36.903 147.008 4 114.095 4 73.504c0-10.74 2.308-20.947 6.446-30.141a71.024 71.024 0 0 1 2.747-5.465 73.604 73.604 0 0 1 9.257-13.08c.157-.18.314-.353.486-.534a73.473 73.473 0 0 1 13.465-11.722c.306-.204.612-.408.926-.612C48.876 4.389 62.67 0 77.492 0c18.465 0 35.329 6.807 48.236 18.05a66.995 66.995 0 0 1 4.137 3.902 73.42 73.42 0 0 1 8.024 9.68 73.297 73.297 0 0 1 3.25 5.096c6.265 10.82 9.853 23.382 9.853 36.784l.008-.008Z" fill="#fff"/></g><path d="M144 73.5c0 10.598-2.479 20.606-6.897 29.5-.05.113-.107.227-.164.34-8.829 17.56-25.202 30.651-44.863 35.04-.085.022-.164.036-.249.057a66.123 66.123 0 0 1-14.327 1.556C40.77 140 11 110.223 11 73.5a66.292 66.292 0 0 1 5.832-27.27 64.29 64.29 0 0 1 2.486-4.943 66.592 66.592 0 0 1 8.374-11.834c.142-.163.285-.32.44-.483a66.47 66.47 0 0 1 12.183-10.605c.277-.185.554-.37.838-.554C51.602 10.971 64.083 7 77.493 7c16.707 0 31.964 6.159 43.642 16.33a60.55 60.55 0 0 1 3.743 3.53 66.478 66.478 0 0 1 7.26 8.759 66.5 66.5 0 0 1 2.94 4.61c5.669 9.788 8.915 21.153 8.915 33.278L144 73.5Z" fill="#47A4FB"/><path d="M118.272 29.66c.32-1.478.689-2.97 1.4-4.313.61-1.157 2.045-3.182 3.601-2.848.575.12 1.001.625 1.243 1.165 1.193 2.642-.291 6.059-1.414 8.46-.603 1.279-5.469 10.712-6.371 10.406-.781-.263 1.25-11.493 1.541-12.87ZM128.359 37.792c1.229-.873 2.514-1.726 3.942-2.237 1.229-.448 3.658-.966 4.582.334.341.483.312 1.136.127 1.697-.902 2.756-4.304 4.27-6.755 5.285-1.307.54-11.265 4.212-11.727 3.381-.398-.724 8.68-7.636 9.824-8.453l.007-.007ZM133.423 50.713c1.499.192 3.019.433 4.419 1.023 1.207.504 3.345 1.768 3.146 3.345-.071.583-.54 1.052-1.051 1.336-2.536 1.413-6.059.227-8.552-.682-1.329-.49-11.145-4.532-10.918-5.456.199-.802 11.557.256 12.956.434ZM33.02 105.202c-.753 1.307-1.57 2.614-2.65 3.679-.937.916-2.919 2.401-4.304 1.605-.512-.291-.76-.902-.824-1.491-.327-2.884 2.13-5.676 3.935-7.622.966-1.037 8.488-8.524 9.248-7.956.661.49-4.702 10.563-5.412 11.778l.007.007ZM25.902 94.376c-1.441.455-2.919.874-4.439.924-1.307.042-3.772-.2-4.262-1.72-.178-.56.05-1.178.398-1.654 1.705-2.351 5.405-2.75 8.048-2.962 1.413-.114 12.018-.561 12.196.37.156.809-10.598 4.616-11.94 5.035v.007ZM25.036 80.518c-1.364-.64-2.742-1.335-3.893-2.323-.994-.852-2.642-2.706-1.974-4.148.248-.533.838-.831 1.413-.952 2.841-.575 5.839 1.634 7.927 3.268 1.116.873 9.22 7.72 8.723 8.53-.433.704-10.925-3.778-12.203-4.375h.007Z" fill="#9ECFFD"/><path d="M82.089 10.75 65.936 26.044l9.483-1.464-9.242 14.676 17.226-18.774-7.963.668 6.649-10.4ZM97.765 130.318l-19.207-11.23 4.063 8.694-16.67-4.766 22.836 11.287-2.87-7.465 11.848 3.48Z" fill="#FBF300"/><path d="m121.05 70.616 3.828-1.392a4.034 4.034 0 0 0 2.657-3.758l.042-5.398c0-.12.178-.142.206-.021l1.101 4.759a4.022 4.022 0 0 0 3.978 3.118l2.692-.028c.114 0 .149.156.036.199l-2.891 1.108a4.034 4.034 0 0 0-2.579 3.992l.249 4.333c0 .12-.163.156-.199.042l-1.492-4.148a4.027 4.027 0 0 0-3.857-2.664l-3.729.057c-.113 0-.149-.163-.035-.199h-.007ZM115.182 90.079l2.295-1.904a2.942 2.942 0 0 0 .895-3.239l-1.307-3.729c-.029-.085.085-.142.135-.064l1.939 3.005a2.95 2.95 0 0 0 3.509 1.165l1.847-.69c.078-.028.142.072.078.128l-1.712 1.478a2.946 2.946 0 0 0-.789 3.388l1.244 2.92c.035.078-.071.142-.128.078l-2.053-2.486a2.947 2.947 0 0 0-3.317-.881l-2.557.966c-.079.028-.143-.071-.079-.128v-.007ZM129.858 90.079l2.294-1.904a2.94 2.94 0 0 0 .895-3.239l-1.307-3.729c-.029-.085.085-.142.135-.064l1.939 3.005a2.95 2.95 0 0 0 3.509 1.165l1.847-.69c.078-.028.142.072.078.128l-1.712 1.478a2.944 2.944 0 0 0-.788 3.388l1.243 2.92c.035.078-.071.142-.128.078l-2.053-2.486a2.947 2.947 0 0 0-3.317-.881l-2.557.966c-.078.028-.142-.071-.078-.128v-.007ZM44.506 26.03l3.352-1.222a3.527 3.527 0 0 0 2.323-3.29l.043-4.73c0-.106.156-.12.177-.021l.966 4.17a3.537 3.537 0 0 0 3.481 2.734l2.358-.028c.1 0 .128.142.036.177l-2.529.974a3.53 3.53 0 0 0-2.259 3.494l.213 3.793c0 .107-.142.135-.177.036l-1.307-3.637a3.537 3.537 0 0 0-3.381-2.337l-3.268.05c-.1 0-.128-.142-.035-.178l.007.014ZM39.363 43.077l2.01-1.67a2.586 2.586 0 0 0 .789-2.84l-1.144-3.268c-.028-.071.078-.12.12-.057l1.699 2.635a2.59 2.59 0 0 0 3.075 1.023l1.62-.603c.07-.029.12.063.064.113l-1.5 1.293a2.58 2.58 0 0 0-.688 2.97l1.087 2.556c.028.071-.064.128-.114.071l-1.797-2.18a2.582 2.582 0 0 0-2.905-.775l-2.238.846c-.07.028-.12-.064-.064-.114h-.014ZM52.22 43.077l2.01-1.67a2.586 2.586 0 0 0 .788-2.84l-1.143-3.268c-.029-.071.078-.12.12-.057l1.698 2.635A2.591 2.591 0 0 0 58.77 38.9l1.62-.603c.07-.029.12.063.063.113l-1.498 1.293a2.58 2.58 0 0 0-.69 2.97l1.087 2.556c.029.071-.064.128-.113.071l-1.797-2.18a2.582 2.582 0 0 0-2.906-.775l-2.237.846c-.071.028-.12-.064-.064-.114h-.014Z" fill="#FEF6CF"/><path d="M108.025 103.196c2.295-2.835 1.869-7.005-.952-9.312l-11.922-9.749-8.317 10.268 11.922 9.748a6.569 6.569 0 0 0 9.269-.955Z" fill="#F8D424"/><path d="M104.063 94.957c-1.647-1.345-4.083-1.104-5.42.551-1.339 1.655-1.099 4.103.548 5.447 1.647 1.344 4.083 1.103 5.421-.552 1.339-1.654 1.098-4.102-.549-5.447Z" fill="#47A4FB"/><path d="M91.596 62.403c8.75 7.154 10.068 20.077 2.95 28.864-7.117 8.787-19.98 10.115-28.729 2.961L52.032 82.956c-8.749-7.154-10.067-20.077-2.95-28.864 7.118-8.786 19.98-10.115 28.729-2.96l13.785 11.271Z" fill="#F8D424" stroke="#47A4FB" stroke-width="4"/><path d="m72.496 81.753-7.48 9.24 4.084 3.343 7.48-9.239a2.644 2.644 0 0 0-.378-3.723 2.615 2.615 0 0 0-3.706.38ZM80.8 71.515l7.48-9.24 4.083 3.345-7.48 9.239a2.615 2.615 0 0 1-3.706.379 2.644 2.644 0 0 1-.377-3.723ZM64.33 75.1l-7.48 9.239 4.083 3.344 7.48-9.24a2.644 2.644 0 0 0-.377-3.722 2.615 2.615 0 0 0-3.706.379ZM72.634 64.826l7.48-9.238 4.083 3.343-7.48 9.24a2.615 2.615 0 0 1-3.706.379 2.644 2.644 0 0 1-.377-3.724Z" fill="#47A4FB"/><path d="m72.496 81.753-7.48 9.24 4.084 3.343 7.48-9.239a2.644 2.644 0 0 0-.378-3.723 2.615 2.615 0 0 0-3.706.38ZM80.8 71.515l7.48-9.24 4.083 3.345-7.48 9.239a2.615 2.615 0 0 1-3.706.379 2.644 2.644 0 0 1-.377-3.723ZM64.33 75.1l-7.48 9.239 4.083 3.344 7.48-9.24a2.644 2.644 0 0 0-.377-3.722 2.615 2.615 0 0 0-3.706.379ZM72.634 64.826l7.48-9.238 4.083 3.343-7.48 9.24a2.615 2.615 0 0 1-3.706.379 2.644 2.644 0 0 1-.377-3.724ZM56.678 68.825l-7.48 9.24 4.084 3.343 7.48-9.239a2.644 2.644 0 0 0-.378-3.723 2.615 2.615 0 0 0-3.706.38ZM64.982 58.552l7.48-9.239 4.083 3.344-7.48 9.239a2.615 2.615 0 0 1-3.706.38 2.644 2.644 0 0 1-.377-3.724Z" fill="#47A4FB"/><defs><filter id="filter0_d_107_341" x="0" y="0" width="155" height="155" filterUnits="userSpaceOnUse" color-interpolation-filters="sRGB"><feFlood flood-opacity="0" result="BackgroundImageFix"/><feColorMatrix in="SourceAlpha" values="0 0 0 0 0 0 0 0 0 0 0 0 0 0 0 0 0 0 127 0" result="hardAlpha"/><feOffset dy="4"/><feGaussianBlur stdDeviation="2"/><feComposite in2="hardAlpha" operator="out"/><feColorMatrix values="0 0 0 0 0 0 0 0 0 0 0 0 0 0 0 0 0 0 0.25 0"/><feBlend in2="BackgroundImageFix" result="effect1_dropShadow_107_341"/><feBlend in="SourceGraphic" in2="effect1_dropShadow_107_341" result="shape"/></filter></defs></svg>