<svg width="315" height="306" fill="none" xmlns="http://www.w3.org/2000/svg"><path d="m229.224 181.864-33.315 5.585s-5.631-30.934-8.755-43.443c-3.643-14.544-14.338-19.891-17.651-21.232h-.032l-15.017-4.496-28.062.474s-29.467 1.814-36.281 16.531c-5.316 11.499-18.93 36.344-25.065 54.169-3.47 10.095-.237 23.835 5.568 25.412h23.409l.142 7.115 68.334.504 9.985-29.435c3.045 11.5 14.134 19.261 26.233 17.841l36.644-4.322-6.105-24.718-.032.015Z" fill="#E7A5DD"/><path d="m131.392 203.791 12.367-4.906c8.85 3.281 14.513-2.288 14.513-2.288s3.817 3.976 5.41 4.78c1.846.915 3.912-1.893 3.912-1.893s1.814 1.42 3.25 1.499c1.435.079 1.908-1.041 1.908-1.041s1.53.741 2.824.504c1.23-.22 1.309-1.451 1.309-1.451s1.451 1.199 2.887.395c1.435-.789.931-2.619.931-2.619s-11.295-8.597-14.797-10.837c-3.502-2.224-23.645-.016-23.645-.016l-11.957.679 1.072 17.194h.016Z" fill="#934974"/><path d="M93.392 213.87s.252-.047.741-.063c.553-.015 1.262-.047 2.13-.078 1.94-.048 4.638-.095 7.982-.174 6.925-.079 16.547-.205 27.762-.347l-.378.41c-.394-6.073-.82-12.714-1.278-19.639-.173-2.666-.331-5.284-.489-7.824l.41.379c-12.177.031-23.141.047-31.69.079-.048 0-.095 0-.142-.032a18.287 18.287 0 0 0-7.398-1.956 19.06 19.06 0 0 0-5.79.584c-3.123.836-4.621 1.908-4.669 1.814 0 0 1.42-1.183 4.575-2.146a19.213 19.213 0 0 1 5.9-.741c2.318.063 5 .599 7.65 1.893l-.142-.032c8.55-.079 19.513-.173 31.691-.284.22 0 .394.174.41.379.157 2.54.331 5.158.504 7.824.426 6.925.852 13.566 1.231 19.639 0 .205-.142.394-.363.41h-.032c-11.215.016-20.853.032-27.762.047-3.344-.015-6.042-.047-7.982-.063-.868-.015-1.578-.031-2.13-.047-.489-.016-.741-.031-.741-.063v.031Z" fill="#171714"/><path d="M98.582 186.329c-.095-.032.394-1.893 1.482-4.827 1.073-2.918 2.745-6.894 4.67-11.216 1.924-4.338 3.675-8.25 4.89-11.105 1.214-2.855 1.908-4.637 2.019-4.606.094.032-.395 1.893-1.483 4.827-1.073 2.918-2.745 6.893-4.669 11.231-1.925 4.338-3.676 8.25-4.89 11.105-1.215 2.856-1.909 4.638-2.02 4.607v-.016Z" fill="#171714"/><path d="m110.05 158.866-5.979 27.463h-5.49l11.469-27.463ZM156.631 189.957c0-.095.836-.268 2.256-.095.71.095 1.577.41 2.319 1.025.757.6 1.403 1.404 2.034 2.225 2.524 3.328 4.417 6.136 4.244 6.262-.19.142-2.366-2.445-4.89-5.758-.631-.836-1.231-1.593-1.877-2.145a4.57 4.57 0 0 0-1.956-1.041c-1.278-.3-2.146-.347-2.146-.473h.016ZM162.278 187.038c-.031-.094 1.073-.299 2.508.584 1.467.836 2.666 2.792 3.897 4.764 2.524 4.006 4.432 7.351 4.243 7.461-.189.126-2.398-3.029-4.937-7.035-1.262-2.019-2.303-3.865-3.534-4.717-1.183-.915-2.192-.931-2.177-1.057Z" fill="#171714"/><path d="M170.418 191.787c.189-.142 1.546 1.451 3.281 3.344 1.719 1.893 3.186 3.391 3.029 3.581-.142.173-1.878-1.089-3.644-3.013-1.767-1.941-2.855-3.77-2.666-3.897v-.015Z" fill="#000"/><path d="M173.194 188.711c-.126-.048.584-2.098 1.404-5.474a67.53 67.53 0 0 0 1.814-13.424 67.947 67.947 0 0 0-1.009-13.518c-.616-3.423-1.199-5.506-1.073-5.553.047-.016.252.489.568 1.42.315.93.694 2.303 1.072 4.006.773 3.423 1.42 8.282 1.262 13.661-.173 5.379-1.088 10.174-2.066 13.55-.489 1.688-.947 3.029-1.309 3.944-.363.915-.584 1.404-.647 1.388h-.016ZM113.425 148.596c-.142-.047.6-1.735.947-4.606.142-1.435.205-3.17-.142-5.016-.331-1.846-1.089-3.865-2.445-5.505-1.404-1.625-3.25-2.729-4.953-3.518-1.736-.789-3.408-1.199-4.827-1.356-2.887-.363-4.543.631-4.59.473-.016-.032.346-.331 1.135-.615.773-.316 2.003-.505 3.502-.426 1.499.094 3.265.457 5.079 1.23 1.799.789 3.739 1.909 5.285 3.675 1.498 1.815 2.255 3.944 2.571 5.9.331 1.972.205 3.77-.032 5.237-.252 1.467-.631 2.619-.946 3.376-.316.773-.552 1.167-.584 1.151ZM178.037 132.475c.205.095-.6 2.114-1.783 4.48-1.183 2.382-2.303 4.227-2.508 4.117-.205-.095.599-2.114 1.783-4.48 1.183-2.382 2.303-4.227 2.508-4.117Z" fill="#171714"/><path d="m264.638 154.433-14.576 51.724H149.974a7.175 7.175 0 0 1 7.036-7.177l24.403-.521 12.24-48.095c.679-2.698 3.139-4.559 5.916-4.528l59.406.963c3.943.063 6.751 3.833 5.678 7.634h-.015Z" fill="#DC429B"/><path d="m121.391 91.052-11.799-18.14c-1.956-3.85-6.436-6.263-10.742-5.774-4.306.49-8.124 3.834-9.18 8.03-1.058 4.195.74 8.96 4.306 11.404-3.944-1.703-8.865 1.546-9.623 5.774-.757 4.227 1.972 8.565 5.758 10.584 3.029 1.609 7.335 1.657 9.354-1.104 1.325 3.723 5.3 6.168 9.244 6.12 3.943-.047 7.682-2.366 9.906-5.615 2.224-3.25 3.045-7.335 2.761-11.279h.015Z" fill="#171714"/><path d="M176.286 68.369c.158-3.834-3.597-7.54-7.335-6.752 1.83-1.467 3.707-2.965 5.016-4.906 1.309-1.94 2.019-4.448 1.293-6.672-.883-2.73-3.628-4.417-6.357-5.3-4.685-1.53-9.89-1.388-14.48.41.11-1.846-1.389-3.486-3.108-4.149-1.719-.662-4.101-1.214-5.947-1.12-3.644.221-4.89.063-8.344 1.278-3.439 1.215-5.695 3.092-7.162 6.436-13.203 2.492-19.828 15.27-21.421 23.55l52.875 14.94c2.208.141 4.48.188 6.562-.537 2.082-.726 3.975-2.382 4.401-4.543.426-2.177-1.088-4.7-3.281-4.859 3.77-.694 7.146-3.927 7.304-7.76l-.016-.016Z" fill="#171714"/><path d="M163.682 58.557c-3.423-5.616-9.843-9.291-16.421-9.37l-4.038 3.297c6.041-.284 11.846 3.17 15.459 8.029 3.612 4.843 5.237 10.916 5.789 16.941 2.95-5.883 2.65-13.266-.773-18.897h-.016Z" fill="#171714"/><path d="m166.506 69.851-.032-.142a21.482 21.482 0 0 0-16.878-16.2l-3.597-.694-21.406 17.225-.678 23.41 1.325 24.812.111.568c9.259 10.774 17.872 13.03 23.077 10.68 3.928-1.767 6.184-5.9 5.663-10.175-.284-2.319-.299-5.032.6-7.13 1.577-3.675 8.108-4.085 10.837-13.266 2.192-7.367.993-29.104.993-29.104l-.015.016Z" fill="#934974"/><path d="m159.234 108.136-3.912 3.076c-.805 1.088-1.104 1.341-.994 2.681-6.199-.82-11.231-1.467-15.79-5.757 7.461 2.113 12.509 2.934 20.696 0Z" fill="#734F3C"/><path d="M150.589 89.254c-.047-.127.836-.458 1.893-1.436a7.276 7.276 0 0 0 1.499-1.987c.205-.41.394-.884.52-1.373.079-.236.095-.584.111-.426.11.048-.126-.016-.395.095-1.135.268-2.224.52-3.281.773a.366.366 0 0 1-.441-.268v-.063c-.174-2.903-.174-4.922 0-4.922.173 0 .457 1.987.757 4.874l-.458-.331c1.057-.268 2.13-.552 3.266-.852.252-.016.678-.3 1.214.19.221.268.174.567.142.725l-.11.426a7.301 7.301 0 0 1-.631 1.514 6.776 6.776 0 0 1-1.783 2.082c-1.261.963-2.255 1.089-2.271.994l-.032-.016ZM125.524 84.742c12.667-7.997 19.907-21.532 22.037-35.445-18.866-6.293-34.183 5.837-38.947 20.16-4.764 14.339 3.455 29.388 16.673 36.691" fill="#171714"/><path d="M129.846 98.876c-3.028.457-7.177-1.104-8.707-2.54-2.114-1.971-3.123-4.18-3.202-7.067-.079-2.886 1.262-5.883 3.723-7.382 2.46-1.499 6.041-1.151 7.871 1.073" fill="#934974"/><path d="M127.89 94.207s-.315.11-.804-.126c-.489-.221-1.073-.852-1.341-1.767a6.873 6.873 0 0 1-.284-1.499c-.031-.552-.031-1.183.3-1.83.315-.662 1.215-1.088 1.972-.915.773.11 1.419.647 1.861 1.2.237.283.426.583.599.851l-.709.395c-.963-2.177-2.745-3.566-4.117-4.212-1.389-.679-2.367-.773-2.351-.9 0-.078 1.026-.189 2.571.395 1.515.552 3.55 1.972 4.638 4.385a.404.404 0 0 1-.205.537.436.436 0 0 1-.505-.142 8.953 8.953 0 0 0-.568-.79c-.71-1.025-2.098-1.293-2.539-.425-.458.836-.253 2.003-.111 2.792.174.82.584 1.372.962 1.64.363.284.647.332.631.395v.016ZM150.785 101.426s-1.324 1.122-3.965 1.003c-2.54-.064-6.426-2.124-6.418-6.245.057-.512.297-1.119.757-1.541.454-.447 1.049-.664 1.55-.781 1.064-.222 1.913-.105 2.706-.106 1.424.062 2.82.13 4.271.185 2.44.14 3.927.344 3.912.532-.015.187-1.532.357-3.981.429-1.462.026-2.863.064-4.297.083-1.647-.01-3.438-.012-3.46 1.279-.106 1.31.794 2.78 1.756 3.631 1.007.92 2.262 1.389 3.363 1.578 2.252.341 3.726-.265 3.8-.072l.006.025Z" fill="#171714"/><path d="M117.306 97.283c-.032.079-1.483-.347-3.471-1.735-1.971-1.373-4.401-3.85-5.883-7.272-1.468-3.423-1.594-6.91-1.231-9.275.363-2.398 1.041-3.739 1.12-3.708.142.048-.347 1.436-.552 3.77-.205 2.32 0 5.616 1.404 8.882 1.404 3.265 3.66 5.694 5.474 7.13 1.829 1.466 3.17 2.082 3.107 2.208h.032Z" fill="#DC429B"/><path d="m223.935 173.385-2.52 1.47a.839.839 0 0 0 .04 1.47l2.59 1.33c.14.07.26.19.34.32l1.47 2.52c.33.57 1.17.55 1.47-.04l1.33-2.59c.07-.14.19-.26.32-.34l2.52-1.47a.839.839 0 0 0-.04-1.47l-2.59-1.33a.873.873 0 0 1-.34-.32l-1.47-2.52a.839.839 0 0 0-1.47.04l-1.33 2.59c-.07.14-.19.26-.32.34Z" fill="#934974"/></svg>