<svg width="269" height="230" fill="none" xmlns="http://www.w3.org/2000/svg"><g clip-path="url('#clip0_73_319')"><path d="M211.529 59.749s2.829-6.34 10.191-9.43c7.361-3.09 17.251-2.888 16.408 0-.842 2.887-7.061 6.017-7.061 6.017s15.266 1.494 21.203 1.454c5.938-.04 14.704.525 14.985 3.372.281 2.847-3.952 4.806-3.952 4.806s7.362.04 5.376 3.735c-1.986 3.696-7.061 4.564-7.061 4.564s6.499 0 .843 4.563c-5.657 4.564-19.98 6.22-28.565 6.26-8.586.06-18.375-2.847-18.375-2.847l-3.952-22.494h-.04Z" fill="#fff"/><path d="M216.343 71.016c2.869 0 5.216-.929 7.021-2.767 3.13-3.21 3.551-8.218 3.611-9.894l4.293-1.312a.728.728 0 0 0 .481-.909.713.713 0 0 0-.902-.484l-4.815 1.453a.732.732 0 0 0-.521.707c0 .06.08 6.038-3.21 9.41-1.504 1.555-3.51 2.322-5.978 2.322a.722.722 0 0 0-.722.727c0 .404.321.727.722.727l.02.02ZM246.874 76.71c.1 0 .221-.02.321-.08a.738.738 0 0 0 .321-.99l-7.923-15.972a.73.73 0 0 0-.983-.323.738.738 0 0 0-.321.99l7.923 15.971a.702.702 0 0 0 .642.404h.02Z" fill="#4D1600"/><path d="M246.032 75.014h15.566a.722.722 0 0 0 .722-.727.721.721 0 0 0-.722-.727h-15.546a.721.721 0 0 0-.722.727c0 .404.321.727.722.727h-.02ZM248.639 67.341c6.64 0 14.283-.586 14.704-.626a.724.724 0 0 0 .662-.788c-.04-.403-.341-.706-.782-.666-.141 0-13.601 1.05-20.24.404-.442-.04-.763.262-.783.666a.743.743 0 0 0 .662.808c1.645.162 3.671.222 5.777.222v-.02Z" fill="#4D1600"/><path d="M70.51 66.029S-6.4 88.139.42 176.702c6.259 81.334 72.977 102.374 126.135 84.949 53.179-17.426 40.762-65.968 40.762-65.968L70.49 66.029h.02Z" fill="#E2E1EF"/><path d="M20.541 217.692c.18 0 .341-.061.482-.182a.736.736 0 0 0 .06-1.03C8.686 202.427 8.485 177.247 8.485 177.005a.722.722 0 1 0-1.444 0c0 1.05.2 26.007 12.959 40.445.14.161.34.242.541.242Z" fill="#fff"/><path d="M54.663 168.948s-2.889 47.876 9.388 54.358c12.296 6.502 86.958 17.991 91.451 21.888C159.996 249.111 186.374 353 186.374 353l74.863-15.346s-19.177-125.272-38.715-138.761c-14.684-10.136-98.413-43.312-98.413-43.312l-69.466 13.387.02-.02Z" fill="#FF81AE"/><path d="M126.296 192.209c8.485 0 10.591-7.834 11.073-10.661 2.106.828 7.381 2.504 10.451.04 5.356-4.281 3.029-12.822 2.928-13.185a.716.716 0 0 0-.902-.505c-.382.101-.602.505-.502.909.02.08 2.167 7.976-2.427 11.65-3.109 2.504-9.769-.565-9.829-.605a.743.743 0 0 0-.682.04.765.765 0 0 0-.361.586c-.02.424-.823 10.278-9.729 10.278-2.026 0-3.711-.687-5.075-2.06-3.832-3.857-3.852-11.813-3.852-11.893a.718.718 0 0 0-.401-.646.74.74 0 0 0-.762.06c-.121.081-12.096 8.602-16.85 3.514-.843-.909-1.184-1.878-1.003-2.969.561-3.513 6.358-7.35 8.545-8.541a.742.742 0 0 0 .301-.989c-.181-.364-.642-.485-.983-.303-.341.181-8.485 4.644-9.288 9.591-.24 1.535.221 2.948 1.384 4.2 4.714 5.068 14.363-.464 17.653-2.585.18 2.585.943 8.279 4.212 11.591 1.645 1.655 3.691 2.483 6.099 2.483ZM183.064 237.177c8.807 0 12.437-8.097 13.501-11.146 2.347 2.019 9.046 6.866 15.345 2.989 1.906-1.171 2.969-2.726 3.13-4.564.32-3.836-3.371-7.814-4.694-9.086 1.263-2.201 5.556-10.581.501-15.851-4.854-5.068-12.156-2.262-14.302-1.272-1.224-1.818-5.376-7.269-10.672-6.805-1.364.121-2.488.747-3.33 1.817-2.126 2.726-1.846 7.774-1.645 9.571-2.487.727-11.434 3.817-12.056 10.46-.521 5.714 5.416 8.602 9.308 9.531-.943 2.221-3.129 8.137-.983 11.691 1.063 1.737 2.949 2.645 5.657 2.706h.24v-.041Zm13.139-13.185s-.12 0-.2.02a.803.803 0 0 0-.522.525c-.1.464-2.828 11.328-12.657 11.166-2.167-.04-3.651-.706-4.433-1.999-2.207-3.634 1.404-11.045 1.424-11.126.1-.202.1-.444 0-.666a.735.735 0 0 0-.522-.384c-.1 0-9.608-1.777-9.027-8.137.602-6.542 11.474-9.329 11.575-9.349a.737.737 0 0 0 .541-.828c0-.061-.902-6.3 1.284-9.086.602-.768 1.364-1.172 2.327-1.273 5.356-.464 9.609 6.583 9.649 6.664.2.343.622.444.983.262.08-.04 8.224-4.442 13.159.707 4.935 5.149-.923 14.478-.983 14.579a.724.724 0 0 0 .14.949c.04.04 4.975 4.462 4.654 8.299-.12 1.373-.923 2.504-2.427 3.453-6.78 4.159-14.343-3.473-14.423-3.554a.726.726 0 0 0-.521-.222h-.021ZM170.928 298.966s.121 0 .181-.02a.738.738 0 0 0 .521-.889c-.501-1.999-12.457-49.208-15.546-53.287-2.949-3.897-28.404-6.966-34.121-7.613.581-2.463 1.885-9.793-1.164-15.669-3.229-6.219-12.056-3.352-15.085-2.14-.16-2.928-1.283-10.783-8.585-14.296-8.064-3.877-15.045 6.966-16.87 10.116-1.625-1.393-5.537-4.462-8.165-3.857-.922.202-1.624.828-2.026 1.818-1.925 4.725 1.445 11.186 1.585 11.469.18.363.622.484.983.303.361-.182.482-.626.3-.99-.04-.06-3.189-6.118-1.524-10.217.281-.707.703-.888 1.003-.949 1.866-.444 5.617 2.302 7.563 4.119.16.162.401.222.622.182a.73.73 0 0 0 .521-.384c.08-.141 7.422-14.094 15.406-10.278 8.144 3.898 7.783 13.933 7.783 14.034 0 .263.121.505.321.646a.729.729 0 0 0 .702.061c.121-.061 10.993-5.089 14.182 1.07 3.37 6.502.863 15.346.843 15.427a.73.73 0 0 0 .1.606.738.738 0 0 0 .522.323c12.497 1.353 31.855 4.361 33.941 7.128 2.407 3.19 11.855 39.172 15.285 52.782.08.323.381.545.702.545l.02-.04Z" fill="#fff"/><path d="M105.915 35.579c0 5.088 2.507 9.207 5.617 9.207 3.109 0 5.616-4.119 5.616-9.207 0-5.089-2.507-9.208-5.616-9.208-3.11 0-5.617 4.12-5.617 9.208Z" fill="#1C1C1C"/><path d="M78.554 12.216S63.729.444 52.295 14.58C40.861 28.693 41.122 91.168 41.122 91.168l35.004-7.31v-51.49l2.428-20.131v-.02Z" fill="#F8D424"/><path d="m209.664 53.61 15.847 34.145s-21.805 36.084-50.631 36.589c-28.826.525-40.781-9.41-40.781-9.41l-14.283-59.991s15.326 4.321 23.109 8.239c7.783 3.917 22.066 9.934 25.977 9.934 3.912 0 40.782-19.506 40.782-19.506h-.02Z" fill="#FF598C"/><path d="M119.816 54.943s-16.529-2.928-37.491 3.574c-20.942 6.502-22.487 8.077-22.487 8.077l-5.175 102.354 89.345-9.51-8.084-54.943-16.108-49.532v-.02Z" fill="#FF598C"/><path d="m83.207 43.857-1.444 16.68s1.324 3.614 10.953 5.25c7.161 1.23 10.952-2.868 10.952-2.868l-.14-4.422-.281-8.32-17.171-5.41-2.889-.91h.02Z" fill="#fff"/><path d="M86.076 44.786c0 .465.12 1.01.341 1.656 2.989 8.663 12.959 11.348 17.091 12.075l-.281-8.32-17.171-5.41h.02Z" fill="#4D1600"/><path d="M110.228 12.5s6.88 21.665 2.447 32.993c-4.433 11.308-14.784 8.38-20.862 5.472-6.078-2.908-8.606-7.108-8.606-7.108s-6.098 1.394-9.468-4.523c-3.37-5.916-.3-12.014 3.21-13.104 3.51-1.09 7.261 1.756 7.261 1.756l-2.527-6.36s16.328-29.259 28.565-9.127h-.02Z" fill="#fff"/><path d="M106.657 38.81a.72.72 0 0 0 .642-.425c1.846-4.3-.762-9.167-.883-9.369a.69.69 0 0 0-.942-.282.7.7 0 0 0-.281.948c.02.04 2.387 4.483.822 8.138-.16.364 0 .767.361.929.081.04.181.06.281.06ZM82.345 37.658c.14 0 .3-.04.421-.141a.73.73 0 0 0 .14-.99l-4.934-6.582a.719.719 0 0 0-.983-.141.73.73 0 0 0-.14.989l4.934 6.583c.14.181.341.282.562.282Z" fill="#4D1600"/><path d="m76.588 35.397 3.972-.162c.38 0 .682-.343.662-.727-.02-.383-.321-.706-.723-.666l-3.931.162c-.381 0-.682.343-.662.727 0 .383.32.666.702.666h-.02ZM99.837 44.483c1.926 0 3.571-1.332 3.671-1.413.18-.162.281-.384.241-.626a.67.67 0 0 0-.402-.545l-7.763-3.574a.713.713 0 0 0-.722.08.72.72 0 0 0-.26.667c.02.121.581 3.15 3.088 4.786a3.753 3.753 0 0 0 2.127.626h.02Zm1.765-1.857c-.842.404-2.066.747-3.13.06-1.002-.646-1.624-1.615-1.985-2.423l5.115 2.363Z" fill="#4D1600"/><path d="M84.27 31.237s6.42-2.887 9.228-7.49c2.808-4.605 2.467-9.209 2.467-9.209s3.651 2.969 9.248 2.625c5.597-.343 9.167-5.734 8.465-10.156-.341-2.201-4.333-1.717-4.333-1.717S105.714-.323 98.653.02c-7.06.344-9.187 4.342-9.187 4.342s-5.617-.566-10.07 2.16c-4.453 2.706-4.995 9.087-4.995 9.087s-3.47 1.474-3.851 4.846c-.381 3.352 2.407 10.015 2.407 10.015s5.416-6.643 11.314.788v-.02Z" fill="#F8D424"/><path d="M72.937 35.579c0 5.088 2.507 9.207 5.617 9.207 3.109 0 5.616-4.119 5.616-9.207 0-5.089-2.507-9.208-5.616-9.208-3.11 0-5.617 4.12-5.617 9.208Z" fill="#1C1C1C"/><path d="M70.51 35.579c0 5.088 2.507 9.207 5.616 9.207 3.11 0 5.617-4.119 5.617-9.207 0-5.089-2.507-9.208-5.617-9.208-3.109 0-5.616 4.12-5.616 9.208Z" fill="#36B3FF"/><path d="M87.12 4.341s-4.895-.666-7.724 2.181C76.568 9.35 72.957 30.47 72.957 30.47h5.617s2.106-20.394 8.565-26.108l-.02-.02Z" fill="#36B3FF"/><path d="M111.532 132.198s-.261-.262 0-1.312c.26-1.05 9.067-10.197 14.262-11.772 5.196-1.575 10.391-1.838 10.652 0 .261 1.837-7.021 7.834-7.021 7.834s7.923 1.454 9.608 2.867c1.686 1.434 6.5 2.363 8.566 2.363 2.066 0 11.695-3.392 15.326-2.867 3.63.525 2.347 4.442 2.347 4.442s7.02-.263 3.37 4.442c-3.631 4.705-37.392 17.769-57.11 13.59-13.12-2.787 0-19.607 0-19.607v.02Z" fill="#fff"/><path d="M114.18 125.394v37.113s-68.625 8.884-83.168-19.607C16.47 114.409 44.813 70.491 59.858 66.574c15.045-3.917 16.289 56.72 16.289 56.72l38.033 2.1Z" fill="#FF598C"/><path d="M137.83 115.843h.16a.742.742 0 0 0 .542-.889l-3.651-15.952c.622-1.211 2.748-6.179-.1-13.347-3.17-7.996-12.136-13.206-12.517-13.428a.703.703 0 0 0-.983.283.728.728 0 0 0 .26.99c.081.06 8.907 5.21 11.896 12.7 2.929 7.37.08 12.257.06 12.318a.742.742 0 0 0-.08.545l3.731 16.234c.08.344.381.566.702.566l-.02-.02ZM99.175 125.313a.737.737 0 0 0 .722-.646.728.728 0 0 0-.642-.808l-26.92-3.09a.726.726 0 0 0-.802.647c-.04.403.24.767.642.807l26.92 3.09h.08Z" fill="#861F40"/><path d="M77.39 122.203c.281 0 .542-.161.662-.424a.71.71 0 0 0-.18-.848c-1.605-1.413-9.83-8.42-13.08-7.451-.48.142-1.103.505-1.363 1.454-.201.727-.08 1.494.36 2.161 2.207 3.392 12.358 4.947 13.5 5.129h.101v-.021Zm-11.835-7.39c1.785 0 5.897 2.746 9.267 5.452-3.59-.747-8.605-2.14-9.809-3.998-.22-.343-.28-.646-.18-.969.08-.303.22-.404.36-.445.101-.04.222-.04.362-.04ZM94.702 66.816c5.797 0 9.388-3.291 9.448-3.352a.736.736 0 0 0 .04-1.03.724.724 0 0 0-1.023-.04c-.361.323-8.786 7.956-20.942-2.423a.726.726 0 0 0-1.023.08.737.737 0 0 0 .08 1.03c5.135 4.382 9.729 5.715 13.42 5.715v.02Z" fill="#861F40"/><path d="M160.277 135.166c3.49 0 5.135-.686 5.275-.747.361-.161.522-.565.361-.929a.688.688 0 0 0-.922-.363c-.101.04-5.336 2.14-17.171-1.595a.685.685 0 0 0-.863.464c-.12.364.08.768.461.869 5.697 1.797 9.93 2.281 12.879 2.281l-.02.02Z" fill="#4D1600"/><path d="M167.699 87.452c.561 0 1.063-.222 1.464-.666 2.267-2.524.642-12.64.441-13.771a.747.747 0 0 0-.641-.606c-.362-.02-.642.162-.743.465-.662 1.797-3.911 10.944-2.166 13.69.341.545.862.848 1.484.888h.161Zm.902-11.166c.422 3.857.542 8.34-.501 9.51-.14.142-.261.203-.441.203a.398.398 0 0 1-.361-.222c-.823-1.293.16-5.735 1.324-9.49h-.021Z" fill="#861F40"/><g clip-path="url('#clip1_73_319')"><path d="m115.615 285.599-4.798-3.152 96.437-148.178 4.798 3.152-96.437 148.178ZM205.414 132.519l-3.13 3.863-3.204-2.62 3.129-3.863 3.205 2.62Z" fill="#393939"/><path d="M201.284 132.372a4.999 4.999 0 0 0-.716-7.008l-8.972-7.337-6.259 7.727 8.972 7.337a4.943 4.943 0 0 0 6.975-.719Z" fill="#656565"/><path d="M198.303 126.171a2.896 2.896 0 0 0-4.08.416c-1.007 1.245-.826 3.087.413 4.099a2.896 2.896 0 0 0 4.08-.415c1.007-1.246.827-3.088-.413-4.1Z" fill="#9DAF7C"/><path d="M212.273 136.264c-.31-3.062-3.047-5.293-6.094-4.982-3.047.312-5.268 3.062-4.958 6.123.31 3.062 3.047 5.293 6.094 4.982 3.047-.312 5.268-3.062 4.958-6.123Z" fill="#656565"/><path d="M209.355 136.549c-.155-1.453-1.446-2.517-2.892-2.361a2.646 2.646 0 0 0-2.35 2.906c.155 1.453 1.446 2.516 2.892 2.361a2.646 2.646 0 0 0 2.35-2.906ZM187.973 102.842c5.94 4.857 6.836 13.632 2.002 19.6-4.834 5.968-13.568 6.868-19.508 2.011l-10.374-8.483c-5.94-4.856-6.837-13.632-2.002-19.6 4.834-5.967 13.568-6.868 19.508-2.011l10.374 8.483Z" fill="#9DAF7C"/><path d="m174.546 116.234-5.629 6.954 3.073 2.516 5.629-6.953a1.99 1.99 0 0 0-.284-2.802 1.969 1.969 0 0 0-2.789.285ZM180.795 108.529l5.63-6.953 3.073 2.516-5.63 6.953a1.968 1.968 0 0 1-2.789.286 1.99 1.99 0 0 1-.284-2.802ZM168.401 111.228l-5.63 6.953 3.073 2.516 5.629-6.953a1.988 1.988 0 0 0-.284-2.802 1.967 1.967 0 0 0-2.788.286ZM174.65 103.496l5.629-6.953 3.073 2.517-5.63 6.953a1.967 1.967 0 0 1-2.788.285 1.99 1.99 0 0 1-.284-2.802Z" fill="#656565"/><path d="m174.546 116.234-5.629 6.954 3.073 2.516 5.629-6.953a1.99 1.99 0 0 0-.284-2.802 1.969 1.969 0 0 0-2.789.285ZM180.795 108.529l5.63-6.953 3.073 2.516-5.63 6.953a1.968 1.968 0 0 1-2.789.286 1.99 1.99 0 0 1-.284-2.802ZM168.401 111.228l-5.63 6.953 3.073 2.516 5.629-6.953a1.988 1.988 0 0 0-.284-2.802 1.967 1.967 0 0 0-2.788.286ZM174.65 103.496l5.629-6.953 3.073 2.517-5.63 6.953a1.967 1.967 0 0 1-2.788.285 1.99 1.99 0 0 1-.284-2.802ZM162.642 106.505l-5.629 6.954 3.073 2.516 5.629-6.953a1.99 1.99 0 0 0-.284-2.802 1.969 1.969 0 0 0-2.789.285ZM168.891 98.774l5.629-6.953 3.073 2.517-5.629 6.953a1.969 1.969 0 0 1-2.789.285 1.99 1.99 0 0 1-.284-2.802Z" fill="#656565"/></g></g><defs><clipPath id="clip0_73_319"><path fill="#fff" transform="matrix(-1 0 0 1 269 0)" d="M0 0h269v353H0z"/></clipPath><clipPath id="clip1_73_319"><path fill="#fff" transform="matrix(1 0 0 -1 110.765 281.607)" d="M0 0h101.534v190.382H0z"/></clipPath></defs></svg>