<svg width="47" height="47" fill="none" xmlns="http://www.w3.org/2000/svg"><g filter="url('#filter0_d_168_817')"><path d="M42.842 19.501a19.224 19.224 0 0 1-2.053 8.68c-2.569 5.107-7.33 8.915-13.05 10.192-.024.006-.047.01-.072.017-1.34.297-2.737.452-4.167.452-10.683.002-19.342-8.659-19.342-19.34 0-2.827.607-5.513 1.696-7.933a19.37 19.37 0 0 1 3.287-5.02 19.334 19.334 0 0 1 3.787-3.246A19.228 19.228 0 0 1 23.498.158 19.257 19.257 0 0 1 37.28 5.935a19.331 19.331 0 0 1 2.112 2.547 19.255 19.255 0 0 1 3.448 11.02h.002Z" fill="#fff"/></g><path d="M41 19.5c0 2.789-.652 5.423-1.815 7.763-.013.03-.028.06-.043.09a17.516 17.516 0 0 1-11.806 9.22l-.066.016c-1.213.269-2.476.41-3.77.41C13.834 37 6 29.163 6 19.5a17.446 17.446 0 0 1 2.189-8.477 17.523 17.523 0 0 1 2.32-3.241 17.49 17.49 0 0 1 3.205-2.791l.221-.146A17.398 17.398 0 0 1 23.498 2a17.423 17.423 0 0 1 12.47 5.226c.7.713 1.34 1.483 1.91 2.305a17.419 17.419 0 0 1 3.12 9.97L41 19.5Z" fill="#47A4FB"/><path d="M34.23 7.963c.084-.389.18-.781.368-1.135.16-.304.538-.837.947-.75.152.033.264.165.328.307.314.696-.077 1.595-.372 2.227-.16.336-1.44 2.818-1.677 2.738-.206-.07.329-3.024.406-3.387ZM36.884 10.103c.323-.23.662-.454 1.037-.589.324-.117.963-.254 1.206.088.09.127.082.3.034.447-.238.725-1.133 1.123-1.778 1.39-.344.143-2.965 1.11-3.086.89-.105-.19 2.284-2.009 2.585-2.224l.002-.002ZM38.217 13.504c.394.05.794.114 1.162.269.318.132.88.465.829.88-.02.153-.143.277-.277.351-.667.373-1.595.06-2.25-.179-.35-.129-2.934-1.192-2.874-1.435.052-.212 3.041.067 3.41.114ZM11.795 27.843c-.198.343-.413.688-.697.968-.247.241-.769.632-1.133.422-.135-.076-.2-.237-.217-.392-.086-.76.56-1.494 1.035-2.006.255-.273 2.234-2.243 2.434-2.094.174.13-1.237 2.78-1.424 3.1l.002.002ZM9.922 24.994c-.38.12-.769.23-1.169.243-.344.011-.992-.052-1.121-.452-.047-.148.013-.31.105-.436.448-.619 1.422-.723 2.117-.78.372-.03 3.163-.147 3.21.098.041.213-2.789 1.215-3.142 1.325v.002ZM9.694 21.347c-.36-.168-.722-.352-1.025-.611-.261-.225-.695-.713-.52-1.092.066-.14.221-.219.373-.25.747-.152 1.536.43 2.086.86.293.23 2.426 2.031 2.295 2.244-.114.185-2.875-.994-3.211-1.151h.002Z" fill="#9ECFFD"/><path d="m24.707 2.987-4.25 4.025 2.495-.385-2.432 3.861 4.533-4.94-2.095.176 1.75-2.737ZM28.833 34.452l-5.054-2.955 1.069 2.288-4.387-1.254 6.01 2.97-.756-1.965 3.118.916Z" fill="#F8D424"/><path d="m34.96 18.74 1.008-.365c.417-.152.695-.546.7-.99l.01-1.42c0-.032.047-.037.055-.006l.29 1.253c.111.486.547.828 1.046.82l.709-.007c.03 0 .039.041.009.052l-.761.292c-.43.164-.705.59-.679 1.05l.066 1.14c0 .032-.043.042-.052.012l-.393-1.092a1.06 1.06 0 0 0-1.015-.7l-.981.014c-.03 0-.04-.043-.01-.052h-.002ZM33.416 23.863l.604-.501a.774.774 0 0 0 .236-.853l-.344-.98c-.008-.023.022-.038.035-.018l.51.79c.199.308.582.435.924.308l.486-.182c.02-.007.037.019.02.034l-.45.389a.775.775 0 0 0-.207.891l.327.768c.01.021-.019.038-.034.021l-.54-.654a.776.776 0 0 0-.873-.232l-.673.254c-.02.008-.037-.018-.02-.033v-.002ZM37.278 23.863l.604-.501a.774.774 0 0 0 .236-.853l-.344-.98c-.008-.023.022-.038.035-.018l.51.79c.199.308.582.435.924.308l.486-.182c.02-.007.037.019.02.034l-.45.389a.775.775 0 0 0-.207.891l.327.768c.009.021-.02.038-.034.021l-.54-.654a.776.776 0 0 0-.873-.232l-.673.254c-.02.008-.038-.018-.02-.033v-.002ZM14.817 7.008l.883-.322a.928.928 0 0 0 .61-.865l.012-1.245c0-.028.041-.032.047-.006l.254 1.097c.1.425.48.726.916.72l.62-.007c.027 0 .034.037.01.046l-.666.256a.929.929 0 0 0-.594.92l.056.998c0 .028-.037.036-.047.01l-.344-.957a.93.93 0 0 0-.89-.615l-.86.013c-.025 0-.033-.038-.009-.047l.002.004ZM13.464 11.494l.529-.44a.68.68 0 0 0 .207-.747l-.3-.86c-.008-.019.02-.032.031-.015l.447.694c.174.269.51.379.81.269l.426-.16c.018-.007.031.018.016.03l-.394.341a.679.679 0 0 0-.181.781l.286.673c.007.019-.017.034-.03.019l-.473-.574a.68.68 0 0 0-.765-.204l-.588.223c-.02.007-.032-.017-.017-.03h-.004ZM16.847 11.494l.53-.44a.68.68 0 0 0 .207-.747l-.301-.86c-.008-.019.02-.032.032-.015l.446.694c.174.269.51.379.81.269l.426-.16c.019-.007.032.018.017.03l-.395.341a.679.679 0 0 0-.181.781l.286.673c.008.019-.017.034-.03.019l-.473-.574a.68.68 0 0 0-.764-.204l-.59.223c-.018.007-.03-.017-.016-.03h-.004Z" fill="#FEF6CF"/><path d="M25.374 8.597a1.698 1.698 0 0 1 2.04 1.07l.042.139 1.42 5.299.129.483.483-.13 1.592-.426a1.148 1.148 0 0 1 1.369.696l.04.127 2.13 7.949a2.796 2.796 0 0 1-1.813 3.376l-.171.05-13.791 3.696a1.698 1.698 0 0 1-2.04-1.07l-.041-.139-4.264-15.912a1.698 1.698 0 0 1 1.07-2.04l.138-.042 11.667-3.126Zm6.098 8.087-.13-.483-.483.13-1.061.284-.483.13.13.482 2.274 8.491.13.483.483-.13a1.599 1.599 0 0 0 1.13-1.957l-1.99-7.43Zm-8.79 2.976-.015.003-.014.004-3.184.853h-.001a1.599 1.599 0 0 0 .644 3.127l.015-.002.014-.003.126-.026.015-.003.014-.004 3.184-.853a1.6 1.6 0 0 0-.643-3.127l-.015.002-.014.003-.126.026Zm.671-5.869-5.306 1.422a1.599 1.599 0 1 0 .827 3.09l5.307-1.423a1.6 1.6 0 0 0-.828-3.088Z" fill="#F8D424" stroke="#1689E2"/><defs><filter id="filter0_d_168_817" x=".158" y=".158" width="46.684" height="46.684" filterUnits="userSpaceOnUse" color-interpolation-filters="sRGB"><feFlood flood-opacity="0" result="BackgroundImageFix"/><feColorMatrix in="SourceAlpha" values="0 0 0 0 0 0 0 0 0 0 0 0 0 0 0 0 0 0 127 0" result="hardAlpha"/><feOffset dy="4"/><feGaussianBlur stdDeviation="2"/><feComposite in2="hardAlpha" operator="out"/><feColorMatrix values="0 0 0 0 0 0 0 0 0 0 0 0 0 0 0 0 0 0 0.25 0"/><feBlend in2="BackgroundImageFix" result="effect1_dropShadow_168_817"/><feBlend in="SourceGraphic" in2="effect1_dropShadow_168_817" result="shape"/></filter></defs></svg>