<svg width="359" height="14" fill="none" xmlns="http://www.w3.org/2000/svg"><path opacity=".3" d="M0 2c11.964 0 11.964 10 23.929 10C35.893 12 35.9 2 47.865 2S59.83 12 71.794 12C83.758 12 83.758 2 95.73 2s11.965 10 23.937 10c11.972 0 11.964-10 23.928-10 11.965 0 11.965 10 23.929 10 11.964 0 11.964-10 23.929-10 11.964 0 11.964 10 23.928 10 11.965 0 11.972-10 23.937-10 11.964 0 11.964 10 23.936 10s11.972-10 23.937-10c11.964 0 11.964 10 23.936 10s11.972-10 23.937-10C347.028 2 347.036 12 359 12" stroke="#353535" stroke-width="3" stroke-miterlimit="10"/></svg>