<svg width="550" height="232" fill="none" xmlns="http://www.w3.org/2000/svg"><path opacity=".7" d="m0 0 32.85 21.939c58.6 39.136 133.187 45.452 197.533 16.727a305.69 305.69 0 0 1 93.219-24.934l3.899-.402A489.712 489.712 0 0 1 502.057 26.77L550 39.35V208c0 13.255-10.745 24-24 24H24c-13.255 0-24-10.745-24-24V0Z" fill="#555FC7"/><path opacity=".7" d="m0 39.102 49.987 14.115a317.804 317.804 0 0 0 169.288.948 645.512 645.512 0 0 1 113.239-20l33.645-2.887a568.013 568.013 0 0 1 99.663.222L550 39.102V208c0 13.255-10.745 24-24 24H24c-13.255 0-24-10.745-24-24V39.102Z" fill="#757FE9"/></svg>