<svg width="265" height="190" fill="none" xmlns="http://www.w3.org/2000/svg"><path opacity=".7" d="m0 0 18.576 21.087c24.023 27.27 65.022 31.374 93.973 9.406l.809-.614a99.184 99.184 0 0 1 42.808-18.676 147.08 147.08 0 0 1 85.32 10.537L265 32.226V166c0 13.255-10.745 24-24 24H24c-13.255 0-24-10.745-24-24V0Z" fill="#555FC7"/><path opacity=".7" d="m0 32.859 23.415 11.178a98.175 98.175 0 0 0 83.104.695 199.418 199.418 0 0 1 54.25-15.976l7.383-1.071a219.081 219.081 0 0 1 64.533.24L265 32.858V166c0 13.255-10.745 24-24 24H24c-13.255 0-24-10.745-24-24V32.859Z" fill="#757FE9"/></svg>