<svg width="550" height="144" fill="none" xmlns="http://www.w3.org/2000/svg"><path opacity=".7" d="m0 0 45.248 18.756a256.998 256.998 0 0 0 167.036 10.259l24.506-6.79a383.016 383.016 0 0 1 77.778-13.123l37.275-2.388a568 568 0 0 1 127.609 6.222L550 24.424V120c0 13.255-10.745 24-24 24H24c-13.255 0-24-10.745-24-24V0Z" fill="#800D50"/><path opacity=".7" d="m0 24.497 80.37 14.06a320.996 320.996 0 0 0 108.327.392L275 24.497 416 17l134 7.497V120c0 13.255-10.745 24-24 24H24c-13.255 0-24-10.745-24-24V24.497Z" fill="#DC429B"/></svg>