<svg width="91" height="111" fill="none" xmlns="http://www.w3.org/2000/svg"><g filter="url('#filter0_d_168_663')"><path fill-rule="evenodd" clip-rule="evenodd" d="M20.96 23.26 9.693 27.09a7 7 0 0 0-4.376 8.88l21.08 62.057a7 7 0 0 0 8.88 4.377l46.562-15.817a7 7 0 0 0 4.376-8.88l-21.08-62.058a7 7 0 0 0-8.88-4.376l-11.666 3.963a8.12 8.12 0 0 0-7.199-1.854 6.316 6.316 0 0 0-11.848 4.025 8.12 8.12 0 0 0-4.58 5.855Zm11.91-9.342a1.804 1.804 0 1 1-3.417 1.16 1.804 1.804 0 0 1 3.416-1.16Z" fill="#fff"/></g><rect x=".625" y="-1.268" width="58.582" height="74.276" rx="6" transform="scale(1 -1) rotate(18.762 317.875 37.038)" fill="#36B3FF" stroke="#27668C" stroke-width="2"/><rect x=".313" y="-.634" width="50.904" height="63.88" rx="6.5" transform="scale(1 -1) rotate(18.762 301.705 46.647)" fill="#EFF9FE" stroke="#27668C"/><mask id="path-4-inside-1_168_663" fill="#fff"><path fill-rule="evenodd" clip-rule="evenodd" d="M46.658 20.105a7.787 7.787 0 0 0-9.096-5.088 6.057 6.057 0 0 0-11.362 3.86 7.786 7.786 0 0 0-4.115 9.576l24.573-8.348Zm-14.512-2.379a1.73 1.73 0 1 0-1.113-3.276 1.73 1.73 0 0 0 1.113 3.276Z"/></mask><path fill-rule="evenodd" clip-rule="evenodd" d="M46.658 20.105a7.787 7.787 0 0 0-9.096-5.088 6.057 6.057 0 0 0-11.362 3.86 7.786 7.786 0 0 0-4.115 9.576l24.573-8.348Zm-14.512-2.379a1.73 1.73 0 1 0-1.113-3.276 1.73 1.73 0 0 0 1.113 3.276Z" fill="#8F9EB6"/><path d="m37.562 15.017-.895.446.35.704.767-.176-.222-.974Zm9.096 5.088.322.947.947-.322-.322-.946-.947.321ZM26.2 18.876l.417.91.714-.329-.15-.772-.981.191Zm-4.115 9.576-.947.322.322.947.947-.322-.322-.947Zm15.7-12.46a6.787 6.787 0 0 1 7.926 4.435l1.894-.643a8.787 8.787 0 0 0-10.266-5.742l.445 1.95Zm-7.265-3.053a5.057 5.057 0 0 1 6.147 2.524l1.79-.893a7.057 7.057 0 0 0-8.58-3.524l.643 1.893Zm-3.339 5.746a5.057 5.057 0 0 1 3.338-5.746l-.643-1.893a7.057 7.057 0 0 0-4.658 8.021l1.963-.382Zm-4.15 9.446a6.787 6.787 0 0 1 3.586-8.346l-.835-1.817a8.787 8.787 0 0 0-4.644 10.806l1.894-.643Zm23.305-8.973-24.573 8.348.644 1.893 24.573-8.347-.644-1.894ZM32.28 15.853a.73.73 0 0 1-.456.926l.643 1.894a2.73 2.73 0 0 0 1.707-3.463l-1.894.643Zm-.926-.456a.73.73 0 0 1 .926.456l1.894-.643a2.73 2.73 0 0 0-3.463-1.707l.643 1.894Zm-.456.926a.73.73 0 0 1 .456-.926l-.643-1.894a2.73 2.73 0 0 0-1.707 3.463l1.894-.643Zm.926.456a.73.73 0 0 1-.926-.456l-1.894.643a2.73 2.73 0 0 0 3.463 1.707l-.643-1.894Z" fill="#27668C" mask="url('#path-4-inside-1_168_663')"/><path stroke="#27668C" d="m22.837 44.114 28.668-9.738M25.62 52.305l28.668-9.738M28.402 60.496l18.839-6.4M31.184 68.687l23.754-8.069M33.967 76.878l28.668-9.739"/><defs><filter id="filter0_d_168_663" x=".942" y="9.89" width="89.647" height="100.886" filterUnits="userSpaceOnUse" color-interpolation-filters="sRGB"><feFlood flood-opacity="0" result="BackgroundImageFix"/><feColorMatrix in="SourceAlpha" values="0 0 0 0 0 0 0 0 0 0 0 0 0 0 0 0 0 0 127 0" result="hardAlpha"/><feOffset dy="4"/><feGaussianBlur stdDeviation="2"/><feComposite in2="hardAlpha" operator="out"/><feColorMatrix values="0 0 0 0 0 0 0 0 0 0 0 0 0 0 0 0 0 0 0.25 0"/><feBlend in2="BackgroundImageFix" result="effect1_dropShadow_168_663"/><feBlend in="SourceGraphic" in2="effect1_dropShadow_168_663" result="shape"/></filter></defs></svg>