<svg width="131" height="155" fill="none" xmlns="http://www.w3.org/2000/svg"><rect x=".625" y="-1.268" width="90.808" height="114.85" rx="6" transform="scale(1 -1) rotate(18.762 480.639 52.187)" fill="#36B3FF" stroke="#27668C" stroke-width="2"/><rect x=".313" y="-.634" width="78.514" height="98.392" rx="6.5" transform="scale(1 -1) rotate(18.762 453.99 66.908)" fill="#EFF9FE" stroke="#27668C"/><mask id="path-3-inside-1_41_983" fill="#fff"><path fill-rule="evenodd" clip-rule="evenodd" d="M69.477 27.8c-1.984-5.84-8.05-9.14-13.934-7.795-2.04-4.088-6.836-6.143-11.282-4.633-4.445 1.51-6.998 6.061-6.125 10.545-5.486 2.519-8.287 8.83-6.303 14.67L69.477 27.8Zm-22.232-3.645a2.65 2.65 0 1 0-1.705-5.019 2.65 2.65 0 0 0 1.705 5.02Z"/></mask><path fill-rule="evenodd" clip-rule="evenodd" d="M69.477 27.8c-1.984-5.84-8.05-9.14-13.934-7.795-2.04-4.088-6.836-6.143-11.282-4.633-4.445 1.51-6.998 6.061-6.125 10.545-5.486 2.519-8.287 8.83-6.303 14.67L69.477 27.8Zm-22.232-3.645a2.65 2.65 0 1 0-1.705-5.019 2.65 2.65 0 0 0 1.705 5.02Z" fill="#8F9EB6"/><path d="m55.543 20.005-.895.446.35.704.767-.175-.222-.975ZM69.477 27.8l.322.947.947-.322-.322-.947-.947.322Zm-31.34-1.883.417.91.714-.329-.15-.772-.982.191Zm-6.304 14.67-.947.322.322.947.947-.322-.322-.946ZM55.765 20.98c5.39-1.23 10.948 1.793 12.766 7.143l1.893-.643c-2.15-6.331-8.725-9.906-15.104-8.45l.445 1.95Zm-11.182-4.66a8.278 8.278 0 0 1 10.065 4.132l1.79-.893c-2.26-4.53-7.572-6.806-12.498-5.133l.643 1.894Zm-5.465 9.407c-.779-4 1.5-8.06 5.465-9.407l-.643-1.894c-4.926 1.673-7.753 6.715-6.785 11.683l1.963-.382Zm-6.338 14.54c-1.818-5.35.749-11.133 5.774-13.44l-.835-1.817c-5.947 2.73-8.983 9.57-6.833 15.9l1.894-.643Zm36.376-13.413L31.51 39.641l.644 1.894 37.644-12.788-.643-1.894Zm-21.2-5.738a1.65 1.65 0 0 1-1.032 2.094l.643 1.893a3.65 3.65 0 0 0 2.282-4.63l-1.893.643Zm-2.094-1.032a1.65 1.65 0 0 1 2.093 1.032l1.894-.643a3.65 3.65 0 0 0-4.63-2.283l.643 1.894Zm-1.032 2.094a1.65 1.65 0 0 1 1.032-2.094l-.643-1.894a3.65 3.65 0 0 0-2.283 4.631l1.894-.643Zm2.094 1.032a1.65 1.65 0 0 1-2.094-1.032l-1.894.643a3.65 3.65 0 0 0 4.63 2.282l-.642-1.893Z" fill="#27668C" mask="url('#path-3-inside-1_41_983')"/><path stroke="#27668C" d="m33.071 64.832 43.918-14.919M37.333 77.38l43.918-14.919M41.596 89.928l28.86-9.804M45.858 102.476l36.39-12.361M50.121 115.024l43.918-14.918"/></svg>