<svg width="123" height="200" fill="none" xmlns="http://www.w3.org/2000/svg"><path d="m72.282 44.591 2.113-42.498a1.243 1.243 0 0 1 1.22-1.18L88.406.716c.53-.01 1.009.316 1.188.82l32.772 89.653a1.244 1.244 0 0 1-.715 1.585l-9.728 3.815c-.273.11-.577.123-.854.019L72.391 83.414a1.244 1.244 0 0 0-1.632 1.36l16.61 110.263a1.25 1.25 0 0 1-.95 1.399l-13.833 3.261a1.257 1.257 0 0 1-1.434-.727L.1 29.736a1.24 1.24 0 0 1 1.064-1.72l13.827-.948c.16-.014.33.011.483.06l55.166 18.58a1.248 1.248 0 0 0 1.643-1.117Z" fill="#B89D1B"/><path d="m88.576 6.254-.189 47.772a.168.168 0 0 1-.221.16L16.46 30.456c-.142-.042-.266.097-.207.228l67.66 159.283c.08.177.351.109.32-.089L66.673 73.018c-.027-.127.105-.226.227-.18l52.788 18.505c.132.043.268-.088.209-.219L88.576 6.254Z" fill="#F8D424"/><path d="m85.655 3.35-8.236.122a.638.638 0 0 0-.627.604L74.307 46.94c-.018.3.172.567.456.65l10.012 2.974a.64.64 0 0 0 .821-.605L86.305 4a.636.636 0 0 0-.65-.65ZM13.114 30.495l-8.351.587a.642.642 0 0 0-.548.883l69.092 163.927a.64.64 0 0 0 .705.381l8.57-1.625a.639.639 0 0 0 .467-.877l-69.3-162.89a.638.638 0 0 0-.635-.386ZM115.869 92.27 70.454 76.69a.631.631 0 0 0-.832.7l.397 2.532c.04.237.194.43.425.503l41.25 14.373a.655.655 0 0 0 .42.003l3.776-1.328c.57-.204.571-1.012-.002-1.206l-.019.004Z" fill="#F8D424"/></svg>