<svg width="112" height="77" fill="none" xmlns="http://www.w3.org/2000/svg"><path d="m26.54 34.836-23.55 5.54a.707.707 0 0 1-.837-.482L.032 32.937a.7.7 0 0 1 .26-.777L44.109.136a.707.707 0 0 1 .979.14l3.616 4.714a.671.671 0 0 1 .145.464L47.73 28.662a.707.707 0 0 0 1 .677L106.353 2.9a.71.71 0 0 1 .913.298l3.961 7.044a.715.715 0 0 1-.172.898l-81.261 65.47a.705.705 0 0 1-1.107-.31l-2.696-7.405a.72.72 0 0 1-.043-.273l1.462-33.064a.71.71 0 0 0-.87-.721Z" fill="#B89D1B"/><path d="m3.03 31.973 26.127-7.421c.06-.02.126.03.122.096l-1.67 42.91c0 .084.095.13.157.077l76.36-62.05c.084-.07.004-.209-.099-.16L42.953 33.422c-.066.035-.14-.021-.135-.095l1.795-31.753c.003-.079-.09-.132-.152-.08L3.03 31.974Z" fill="#F8D424"/><path d="m1.903 34.026 1.364 4.48c.059.181.24.29.43.247l23.807-5.393a.36.36 0 0 0 .283-.352l.048-5.938a.364.364 0 0 0-.46-.353l-25.22 6.852a.362.362 0 0 0-.252.457ZM28.158 69.38l1.636 4.47a.365.365 0 0 0 .569.16l78.671-63.564a.365.365 0 0 0 .097-.445l-2.238-4.426a.363.363 0 0 0-.552-.117L28.269 68.972a.362.362 0 0 0-.111.407ZM45.722 3.515 44.363 30.78a.359.359 0 0 0 .513.344l1.321-.616a.354.354 0 0 0 .208-.31l1.355-24.8a.373.373 0 0 0-.065-.23l-1.32-1.853c-.2-.28-.642-.153-.658.191l.005.01Z" fill="#F8D424"/></svg>