<svg width="67" height="108" fill="none" xmlns="http://www.w3.org/2000/svg"><path d="M27.545 23.878 26.532.846a.674.674 0 0 0-.658-.643l-6.93-.145a.668.668 0 0 0-.645.44L.266 48.971a.674.674 0 0 0 .383.86l5.259 2.097a.64.64 0 0 0 .463.013l20.996-7.03a.674.674 0 0 1 .88.743l-9.34 59.688a.677.677 0 0 0 .51.76l7.486 1.81a.68.68 0 0 0 .779-.39l39.017-91.47a.672.672 0 0 0-.571-.935l-7.489-.557a.685.685 0 0 0-.262.031l-29.945 9.897a.676.676 0 0 1-.887-.61Z" fill="#B89D1B"/><path d="m18.835 3.057-.044 25.883a.09.09 0 0 0 .12.087l38.922-12.636c.077-.022.143.054.111.125l-37.149 86.089c-.043.096-.19.058-.172-.049l9.873-63.26c.015-.068-.056-.122-.123-.098L1.716 49.06c-.071.023-.144-.048-.112-.119L18.835 3.057Z" fill="#F8D424"/><path d="m20.427 1.492 4.462.092a.346.346 0 0 1 .338.33l1.214 23.23a.343.343 0 0 1-.249.35l-5.433 1.581a.347.347 0 0 1-.444-.33l-.242-24.903a.345.345 0 0 1 .354-.35ZM59.645 16.423l4.523.344a.348.348 0 0 1 .294.48l-37.938 88.601a.346.346 0 0 1-.384.204l-4.638-.906a.347.347 0 0 1-.25-.477L59.3 16.63a.345.345 0 0 1 .345-.207ZM3.783 49.576l24.654-8.302a.342.342 0 0 1 .448.382l-.223 1.37a.337.337 0 0 1-.231.272l-22.394 7.66a.355.355 0 0 1-.227 0l-2.042-.73c-.308-.113-.306-.55.005-.654l.01.002Z" fill="#F8D424"/></svg>