<svg width="118" height="193" fill="none" xmlns="http://www.w3.org/2000/svg"><path d="m69.622 42.822 2.035-40.934A1.197 1.197 0 0 1 72.833.751l12.32-.188c.51-.01.971.305 1.144.79l31.566 86.354a1.197 1.197 0 0 1-.688 1.526l-9.37 3.675a1.139 1.139 0 0 1-.824.018l-37.254-12.71a1.198 1.198 0 0 0-1.572 1.312l15.999 106.204a1.205 1.205 0 0 1-.914 1.348l-13.325 3.14a1.209 1.209 0 0 1-1.381-.7L.095 28.514c-.32-.76.2-1.6 1.025-1.657l13.319-.913c.154-.014.317.01.465.058L68.04 43.899a1.202 1.202 0 0 0 1.582-1.077Z" fill="#0091FF"/><path d="m85.317 5.896-.182 46.014a.161.161 0 0 1-.214.154L15.854 29.207c-.136-.04-.255.094-.2.22l65.172 153.422c.076.171.338.105.307-.086L64.22 70.203c-.026-.122.1-.218.218-.174l50.846 17.825c.127.041.257-.085.201-.21L85.316 5.895Z" fill="#00ADFF"/><path d="m82.503 3.098-7.933.118a.615.615 0 0 0-.604.583l-2.393 41.286a.61.61 0 0 0 .439.625l9.643 2.866a.616.616 0 0 0 .792-.583l.682-44.27a.613.613 0 0 0-.626-.625ZM12.632 29.245l-8.044.565a.618.618 0 0 0-.528.851l66.55 157.895c.116.27.394.418.679.367l8.254-1.565a.616.616 0 0 0 .45-.845L13.243 29.617a.614.614 0 0 0-.611-.372ZM111.605 88.748 67.862 73.74a.608.608 0 0 0-.802.674l.383 2.44a.6.6 0 0 0 .409.484l39.732 13.844c.127.042.277.05.405.002l3.637-1.278c.549-.197.55-.975-.002-1.162l-.019.004Z" fill="#00A8FF"/></svg>