<svg width="108" height="75" fill="none" xmlns="http://www.w3.org/2000/svg"><path d="M26.082 34.049 3.4 39.384a.68.68 0 0 1-.806-.463L.55 32.22a.675.675 0 0 1 .251-.75L43.004.626c.3-.216.716-.159.943.136l3.483 4.54c.099.127.152.285.14.447l-1.076 22.354a.681.681 0 0 0 .964.652l55.499-25.467a.686.686 0 0 1 .881.287l3.814 6.785a.688.688 0 0 1-.165.864L29.216 74.284a.679.679 0 0 1-1.067-.299l-2.596-7.131a.691.691 0 0 1-.042-.264l1.409-31.847a.683.683 0 0 0-.838-.694Z" fill="#0091FF"/><path d="m3.437 31.29 25.166-7.147a.092.092 0 0 1 .118.092l-1.609 41.331c0 .081.092.125.152.075l73.549-59.767c.082-.068.005-.2-.094-.154L41.891 32.687c-.063.033-.135-.021-.13-.092l1.73-30.584c.003-.076-.087-.128-.147-.077L3.437 31.291Z" fill="#00ADFF"/><path d="m2.352 33.268 1.314 4.315a.35.35 0 0 0 .413.239l22.932-5.195a.347.347 0 0 0 .272-.339l.047-5.72a.35.35 0 0 0-.443-.34l-24.292 6.6a.349.349 0 0 0-.243.44ZM27.64 67.32l1.576 4.306a.352.352 0 0 0 .549.154l75.776-61.224a.35.35 0 0 0 .093-.429l-2.155-4.262a.35.35 0 0 0-.532-.113l-75.2 61.176a.349.349 0 0 0-.106.393ZM44.559 3.88l-1.31 26.26a.346.346 0 0 0 .495.333l1.272-.594a.34.34 0 0 0 .2-.3l1.306-23.886a.358.358 0 0 0-.063-.22l-1.271-1.786c-.194-.27-.619-.148-.634.184l.005.01Z" fill="#00A8FF"/></svg>