<svg width="153" height="181" fill="none" xmlns="http://www.w3.org/2000/svg"><path d="m110.198 62.093 31.382-28.735a1.243 1.243 0 0 1 1.698.018l9.233 8.855c.384.364.494.933.268 1.418l-39.728 86.795a1.244 1.244 0 0 1-1.622.624l-9.6-4.126a1.181 1.181 0 0 1-.621-.588L82.98 89.778a1.244 1.244 0 0 0-2.117-.18l-65.711 90.087a1.25 1.25 0 0 1-1.659.328l-12.13-7.408a1.256 1.256 0 0 1-.508-1.524L69.312.78a1.24 1.24 0 0 1 1.966-.475l10.499 9.047c.124.103.226.24.301.383l26.166 51.998a1.247 1.247 0 0 0 1.954.36Z" fill="#B89D1B"/><path d="m148.739 46.287-33.722 33.84a.168.168 0 0 1-.27-.043L80.44 12.794c-.071-.129-.257-.117-.307.017L16.26 173.651c-.069.181.172.324.288.161l69.676-95.446c.07-.11.234-.087.289.03l24.527 50.274c.063.124.252.126.302-.008l37.397-82.375Z" fill="#F8D424"/><path d="m148.704 42.168-5.943-5.703a.638.638 0 0 0-.871-.012l-31.903 28.735a.634.634 0 0 0-.133.782l5.028 9.154a.64.64 0 0 0 1.01.148l32.818-32.186a.637.637 0 0 0-.006-.918ZM78.034 10.47l-6.352-5.454a.642.642 0 0 0-1.01.243L4.551 170.407a.64.64 0 0 0 .233.767l7.236 4.869c.346.221.8.085.95-.295L78.212 11.191a.638.638 0 0 0-.18-.72ZM107.671 126.644l-21.34-43.01a.631.631 0 0 0-1.084-.087l-1.498 2.08a.622.622 0 0 0-.052.656l19.228 39.223a.657.657 0 0 0 .297.297l3.619 1.711c.548.256 1.117-.318.847-.859l-.017-.011Z" fill="#F8D424"/></svg>