<svg width="148" height="174" fill="none" xmlns="http://www.w3.org/2000/svg"><path d="M106.193 59.809 136.42 32.13a1.198 1.198 0 0 1 1.636.018l8.893 8.528c.37.352.477.9.258 1.366l-38.266 83.602c-.275.59-.962.86-1.562.601l-9.247-3.974a1.143 1.143 0 0 1-.598-.566l-17.557-35.23a1.198 1.198 0 0 0-2.04-.174l-63.292 86.772c-.37.507-1.06.637-1.598.316l-11.683-7.135a1.211 1.211 0 0 1-.49-1.469L66.81.751a1.194 1.194 0 0 1 1.894-.457l10.113 8.714c.12.1.218.23.29.368l25.203 50.086c.358.709 1.288.881 1.882.347Z" fill="#0091FF"/><path d="m143.316 44.584-32.481 32.594a.161.161 0 0 1-.26-.04L77.531 12.323c-.07-.125-.248-.113-.297.016L15.712 167.26c-.066.175.166.312.278.155L83.1 75.483c.068-.106.226-.085.278.029l23.625 48.423c.061.119.243.121.292-.008l36.02-79.343Z" fill="#00ADFF"/><path d="m143.282 40.617-5.724-5.494a.615.615 0 0 0-.839-.011L105.99 62.789a.61.61 0 0 0-.128.753l4.843 8.818a.617.617 0 0 0 .973.142l31.61-31.001a.613.613 0 0 0-.006-.884ZM75.212 10.085l-6.117-5.254a.618.618 0 0 0-.974.235L4.434 164.137a.615.615 0 0 0 .225.738l6.97 4.69a.615.615 0 0 0 .914-.284L75.386 10.779a.614.614 0 0 0-.174-.694ZM103.759 121.984 83.204 80.557a.608.608 0 0 0-1.044-.085l-1.443 2.005a.6.6 0 0 0-.05.631l18.521 37.78c.061.119.162.23.286.286l3.486 1.648c.528.246 1.076-.306.815-.828l-.016-.01Z" fill="#00A8FF"/></svg>