<svg width="193" height="121" fill="none" xmlns="http://www.w3.org/2000/svg"><path d="m149.797 50.276 40.98-.646a1.197 1.197 0 0 0 1.176-1.136l.606-12.307a1.186 1.186 0 0 0-.75-1.17L106.575.54a1.198 1.198 0 0 0-1.548.637l-3.991 9.24a1.14 1.14 0 0 0-.046.822l11.438 37.664c.262.86-.48 1.687-1.363 1.526L5.464 30.837a1.205 1.205 0 0 0-1.378.868l-3.59 13.21a1.21 1.21 0 0 0 .652 1.404l160.591 73.93a1.194 1.194 0 0 0 1.69-.969L164.794 106a1.21 1.21 0 0 0-.043-.467l-16.083-53.712a1.2 1.2 0 0 1 1.129-1.545Z" fill="#0091FF"/><path d="m187.235 35.843-45.994-1.38a.161.161 0 0 0-.161.209l20.501 69.802c.035.138-.103.253-.227.192L10.232 34.328c-.169-.082-.094-.341.095-.304l111.921 20.72c.122.031.222-.093.182-.212l-16.089-51.42c-.038-.129.093-.255.217-.195l80.677 32.926Z" fill="#00ADFF"/><path d="m189.935 38.75-.387 7.924a.615.615 0 0 1-.602.584l-41.344.991a.61.61 0 0 1-.61-.46l-2.537-9.735a.617.617 0 0 1 .61-.771l44.267.82a.612.612 0 0 1 .603.646ZM161.433 107.694l-.837 8.02a.619.619 0 0 1-.869.498L4.181 44.344a.616.616 0 0 1-.344-.69l1.845-8.197a.615.615 0 0 1 .86-.421l154.54 72.034c.241.11.377.362.351.624ZM105.323 6.759l13.514 44.227a.608.608 0 0 1-.7.779l-2.425-.466a.599.599 0 0 1-.47-.425l-12.489-40.18a.629.629 0 0 1 .012-.404l1.401-3.591c.215-.542.993-.517 1.161.041l-.004.019Z" fill="#00A8FF"/></svg>