<svg width="157" height="154" fill="none" xmlns="http://www.w3.org/2000/svg"><g filter="url('#filter0_d_120_73')"><circle cx="78" cy="73" r="73" fill="#fff"/></g><path d="M145 73.5c0 10.598-2.479 20.606-6.897 29.5-.05.113-.107.227-.164.34-8.829 17.56-25.202 30.651-44.863 35.04-.085.022-.164.036-.249.057a66.123 66.123 0 0 1-14.327 1.556C41.77 140 12 110.223 12 73.5a66.292 66.292 0 0 1 5.832-27.27 64.29 64.29 0 0 1 2.486-4.943 66.592 66.592 0 0 1 8.374-11.834c.142-.163.285-.32.44-.483a66.47 66.47 0 0 1 12.183-10.605c.277-.185.554-.37.838-.554C52.602 10.971 65.083 7 78.493 7c16.707 0 31.964 6.159 43.642 16.33a60.55 60.55 0 0 1 3.743 3.53 66.478 66.478 0 0 1 7.26 8.759 66.5 66.5 0 0 1 2.94 4.61c5.669 9.788 8.915 21.153 8.915 33.278L145 73.5Z" fill="#47A4FB"/><path d="M138.096 103c-.05.113-.107.227-.164.341-8.829 17.559-25.202 30.65-44.863 35.04l-5.285-11.295-2.06-4.396-4.51-9.639s-22.951 3.864-27.54-5.072c-4.908-9.568-7.664-20.713-10.931-30.913-3.09-9.646-6.294-19.655-9.036-29.564-1.456-5.242-2.805-10.527-3.97-15.84-.192-.88-.42-1.79-.604-2.706-.575-2.92-.668-5.853 2.358-7.622 2.714-1.584 6.492-3.438 9.83-2.983a7.045 7.045 0 0 1 1.564.412 4.39 4.39 0 0 1 2.102 1.761c.597.938 1.414 2.65 2.344 4.83.121.264.235.526.348.803 1.904 4.51 4.227 10.726 6.265 16.31.05.141.1.276.142.411 2.5 6.862 4.504 12.687 4.66 13.127a6.453 6.453 0 0 1-.05-1.534v-.029c.157-1.982 1.158-5.391 5.853-7.835 1.364-.703 2.557-1.207 3.602-1.555l.014-.007c4.333-1.464 6.052-.37 6.052-.37s.966-5.313 7.487-7.735a19.58 19.58 0 0 1 3.388-.93c.05 0 .106-.022.156-.036 3.651-.625 6.194.078 7.032.37l.014.006c.064.015.121.043.185.071.036 0 .064.022.1.036-2.004-5.27-7.395-13.66-3.992-19.186 1.74-2.82 8.161-6.25 10.76-2.798 1.507 2.003 13.461 29.456 24.628 55.44.12.284.241.575.369.86 2.713 6.307 5.363 12.515 7.813 18.233.086.213.178.42.27.632 2.103 4.916 4.028 9.455 5.69 13.354l-.021.008Z" fill="#FCDD42"/><path d="m49.867 91.862 5.313-12.715a7.808 7.808 0 0 1 1.954-2.763L70.65 64.166a6.18 6.18 0 0 1 8.169-.106l5.142 4.404a6.182 6.182 0 0 1 .682 8.701l-8.687 11.252M81.029 82.06a54.247 54.247 0 0 1 25.578 2.102M62.369 71.206l-3.623-16.31s-1.271-5.795 7.608-9.24c0 0 3.38-1.57 7.849-.966" stroke="#0081F9" stroke-miterlimit="10"/><path d="M80.006 64.983c-1.492-3.09-2.841-6.052-3.907-9.312-1.96-6.023-3.8-12.68 2.43-16.764 3.991-2.62 9.418-4.375 14.035-2.429M85.078 77.059s.603 3.26 5.796 1.328c5.192-1.932 12.444-4.83 11.72-8.211-.725-3.381-7.245-24.883-7.245-24.883M62.944 71.092c4.631 2.237 10.406 1.797 14.42-1.413a105.73 105.73 0 0 0-5.996-5.974" stroke="#0081F9" stroke-linecap="round" stroke-linejoin="round"/><path d="M83.145 67.64c.2-2.564 1.62-4.49 3.957-5.576 2.337-1.087 5.25-.803 7.33.703 2.266 1.634 3.389 4.397 4.213 7.068L85.923 75.73" stroke="#0081F9" stroke-linecap="round" stroke-linejoin="round"/><path d="M119.272 29.66c.32-1.478.689-2.97 1.4-4.313.61-1.157 2.045-3.182 3.601-2.848.575.12 1.001.625 1.243 1.165 1.193 2.642-.291 6.059-1.414 8.46-.603 1.279-5.469 10.712-6.371 10.406-.781-.263 1.25-11.493 1.541-12.87ZM129.359 37.792c1.229-.873 2.514-1.726 3.942-2.237 1.229-.448 3.658-.966 4.582.334.341.483.312 1.136.127 1.697-.902 2.756-4.304 4.27-6.755 5.285-1.307.54-11.265 4.212-11.727 3.381-.398-.724 8.68-7.636 9.824-8.453l.007-.007ZM134.423 50.713c1.499.192 3.019.433 4.419 1.023 1.207.504 3.345 1.769 3.146 3.345-.071.583-.54 1.052-1.051 1.336-2.536 1.413-6.059.227-8.552-.682-1.329-.49-11.145-4.532-10.918-5.455.199-.803 11.557.255 12.956.433ZM34.02 105.202c-.753 1.306-1.57 2.613-2.65 3.679-.937.916-2.919 2.401-4.304 1.605-.512-.291-.76-.902-.824-1.491-.327-2.884 2.13-5.676 3.935-7.622.966-1.037 8.488-8.524 9.248-7.956.661.49-4.702 10.563-5.412 11.777l.007.008ZM26.902 94.376c-1.441.455-2.919.874-4.439.924-1.307.042-3.772-.2-4.262-1.72-.178-.56.05-1.178.398-1.654 1.705-2.352 5.405-2.75 8.048-2.962 1.413-.114 12.018-.561 12.196.369.156.81-10.598 4.617-11.94 5.036v.007ZM26.036 80.518c-1.364-.64-2.742-1.335-3.893-2.323-.994-.852-2.642-2.706-1.974-4.148.248-.533.838-.831 1.413-.952 2.841-.575 5.839 1.634 7.927 3.268 1.116.873 9.22 7.72 8.723 8.53-.433.704-10.925-3.778-12.203-4.375h.007Z" fill="#9ECFFD"/><path d="M83.089 10.75 66.936 26.044l9.483-1.464-9.242 14.676 17.226-18.774-7.963.668 6.649-10.4ZM98.765 130.318l-19.207-11.23 4.063 8.695-16.67-4.767 22.836 11.287-2.87-7.465 11.848 3.48Z" fill="#FBF300"/><path d="m122.05 70.616 3.828-1.392a4.034 4.034 0 0 0 2.657-3.758l.042-5.398c0-.12.178-.142.206-.021l1.101 4.759a4.022 4.022 0 0 0 3.978 3.118l2.692-.028c.114 0 .149.156.036.198l-2.891 1.109a4.034 4.034 0 0 0-2.579 3.992l.249 4.333c0 .12-.163.156-.199.042l-1.492-4.148a4.027 4.027 0 0 0-3.857-2.664l-3.729.057c-.113 0-.149-.163-.035-.199h-.007ZM116.182 90.079l2.295-1.904a2.942 2.942 0 0 0 .895-3.239l-1.307-3.729c-.029-.085.085-.142.135-.064l1.939 3.005a2.95 2.95 0 0 0 3.509 1.165l1.847-.69c.078-.028.142.072.078.128l-1.712 1.478a2.946 2.946 0 0 0-.789 3.388l1.244 2.92c.035.078-.071.142-.128.078l-2.053-2.486a2.947 2.947 0 0 0-3.317-.881l-2.557.966c-.079.028-.143-.071-.079-.128v-.007ZM130.858 90.079l2.294-1.904a2.94 2.94 0 0 0 .895-3.239l-1.307-3.729c-.029-.085.085-.142.135-.064l1.939 3.005a2.95 2.95 0 0 0 3.509 1.165l1.847-.69c.078-.028.142.072.078.128l-1.712 1.478a2.944 2.944 0 0 0-.788 3.388l1.243 2.92c.035.078-.071.142-.128.078l-2.053-2.486a2.947 2.947 0 0 0-3.317-.881l-2.557.966c-.078.028-.142-.071-.078-.128v-.007ZM45.506 26.03l3.352-1.222a3.527 3.527 0 0 0 2.323-3.29l.043-4.73c0-.106.156-.12.177-.021l.966 4.17a3.537 3.537 0 0 0 3.481 2.734l2.358-.028c.1 0 .128.142.036.177l-2.529.974a3.53 3.53 0 0 0-2.259 3.494l.213 3.793c0 .107-.142.135-.177.036l-1.307-3.637a3.537 3.537 0 0 0-3.381-2.337l-3.268.05c-.1 0-.128-.142-.035-.178l.007.014ZM40.363 43.077l2.01-1.67a2.586 2.586 0 0 0 .789-2.84l-1.144-3.268c-.028-.07.078-.12.12-.057l1.699 2.636a2.59 2.59 0 0 0 3.075 1.022l1.62-.603c.07-.029.12.064.064.113l-1.5 1.293a2.58 2.58 0 0 0-.688 2.97l1.087 2.556c.028.071-.064.128-.114.071l-1.797-2.18a2.583 2.583 0 0 0-2.905-.775l-2.238.846c-.07.028-.12-.064-.064-.114h-.014ZM53.22 43.077l2.01-1.67a2.586 2.586 0 0 0 .788-2.84l-1.143-3.268c-.029-.07.078-.12.12-.057l1.698 2.636A2.591 2.591 0 0 0 59.77 38.9l1.62-.603c.07-.029.12.064.063.113l-1.498 1.293a2.58 2.58 0 0 0-.69 2.97l1.087 2.556c.029.071-.064.128-.113.071l-1.797-2.18a2.583 2.583 0 0 0-2.906-.775l-2.237.846c-.071.028-.12-.064-.064-.114h-.014Z" fill="#FEF6CF"/><defs><filter id="filter0_d_120_73" x="1" y="0" width="154" height="154" filterUnits="userSpaceOnUse" color-interpolation-filters="sRGB"><feFlood flood-opacity="0" result="BackgroundImageFix"/><feColorMatrix in="SourceAlpha" values="0 0 0 0 0 0 0 0 0 0 0 0 0 0 0 0 0 0 127 0" result="hardAlpha"/><feOffset dy="4"/><feGaussianBlur stdDeviation="2"/><feComposite in2="hardAlpha" operator="out"/><feColorMatrix values="0 0 0 0 0 0 0 0 0 0 0 0 0 0 0 0 0 0 0.25 0"/><feBlend in2="BackgroundImageFix" result="effect1_dropShadow_120_73"/><feBlend in="SourceGraphic" in2="effect1_dropShadow_120_73" result="shape"/></filter></defs></svg>