<svg width="155" height="155" fill="none" xmlns="http://www.w3.org/2000/svg"><g filter="url('#filter0_d_107_104')"><path d="M151 73.504c0 11.714-2.74 22.777-7.623 32.606a7.627 7.627 0 0 1-.181.377c-9.758 19.409-27.855 33.879-49.586 38.731-.094.023-.18.039-.275.063A73.125 73.125 0 0 1 77.5 147C36.903 147.008 4 114.095 4 73.504c0-10.74 2.308-20.947 6.446-30.141a71.024 71.024 0 0 1 2.747-5.465 73.604 73.604 0 0 1 9.257-13.08c.157-.18.314-.353.486-.534a73.473 73.473 0 0 1 13.465-11.722c.306-.204.612-.408.926-.612C48.876 4.389 62.67 0 77.492 0c18.465 0 35.329 6.807 48.236 18.05a66.995 66.995 0 0 1 4.137 3.902 73.42 73.42 0 0 1 8.024 9.68 73.297 73.297 0 0 1 3.25 5.096c6.265 10.82 9.853 23.382 9.853 36.784l.008-.008Z" fill="#fff"/></g><path d="M144 73.5c0 10.598-2.479 20.606-6.897 29.5-.05.113-.107.227-.164.34-8.829 17.56-25.202 30.651-44.863 35.04-.085.022-.164.036-.249.057a66.123 66.123 0 0 1-14.327 1.556C40.77 140 11 110.223 11 73.5a66.292 66.292 0 0 1 5.832-27.27 64.29 64.29 0 0 1 2.486-4.943 66.592 66.592 0 0 1 8.374-11.834c.142-.163.285-.32.44-.483a66.47 66.47 0 0 1 12.183-10.605c.277-.185.554-.37.838-.554C51.602 10.971 64.083 7 77.493 7c16.707 0 31.964 6.159 43.642 16.33a60.55 60.55 0 0 1 3.743 3.53 66.478 66.478 0 0 1 7.26 8.759 66.5 66.5 0 0 1 2.94 4.61c5.669 9.788 8.915 21.153 8.915 33.278L144 73.5Z" fill="#47A4FB"/><path d="M118.272 29.66c.32-1.478.689-2.97 1.4-4.313.61-1.157 2.045-3.182 3.601-2.848.575.12 1.001.625 1.243 1.165 1.193 2.642-.291 6.059-1.414 8.46-.603 1.279-5.469 10.712-6.371 10.406-.781-.263 1.25-11.493 1.541-12.87ZM128.359 37.792c1.229-.874 2.514-1.726 3.942-2.237 1.229-.448 3.658-.966 4.582.333.341.483.312 1.137.127 1.698-.902 2.756-4.304 4.27-6.755 5.285-1.307.54-11.265 4.212-11.727 3.381-.398-.724 8.68-7.636 9.824-8.453l.007-.007ZM133.423 50.713c1.499.192 3.019.433 4.419 1.023 1.207.504 3.345 1.768 3.146 3.345-.071.583-.54 1.052-1.051 1.336-2.536 1.413-6.059.227-8.552-.682-1.329-.49-11.145-4.532-10.918-5.456.199-.802 11.557.256 12.956.434ZM33.02 105.202c-.753 1.307-1.57 2.614-2.65 3.679-.937.916-2.919 2.401-4.304 1.605-.512-.291-.76-.902-.824-1.491-.327-2.884 2.13-5.676 3.935-7.622.966-1.037 8.488-8.524 9.248-7.956.661.49-4.702 10.563-5.412 11.778l.007.007ZM25.902 94.376c-1.442.455-2.919.874-4.439.924-1.307.042-3.772-.2-4.262-1.72-.178-.56.05-1.178.398-1.654 1.705-2.351 5.405-2.75 8.048-2.962 1.413-.114 12.018-.561 12.196.37.156.809-10.598 4.616-11.94 5.035v.007ZM25.036 80.518c-1.364-.64-2.742-1.335-3.893-2.323-.994-.852-2.642-2.706-1.974-4.148.248-.533.838-.831 1.413-.952 2.841-.575 5.839 1.634 7.927 3.268 1.116.873 9.22 7.72 8.723 8.53-.433.704-10.925-3.778-12.203-4.375h.007Z" fill="#9ECFFD"/><path d="M82.089 10.75 65.936 26.044l9.483-1.464-9.242 14.676 17.226-18.774-7.963.668 6.649-10.4ZM97.765 130.319l-19.207-11.231 4.063 8.695-16.67-4.767 22.836 11.287-2.87-7.465 11.848 3.481Z" fill="#FBF300"/><path d="m121.05 70.616 3.828-1.392a4.034 4.034 0 0 0 2.657-3.758l.042-5.398c0-.121.178-.142.206-.022l1.101 4.76a4.022 4.022 0 0 0 3.978 3.118l2.692-.029c.114 0 .149.157.036.2l-2.891 1.107a4.034 4.034 0 0 0-2.579 3.992l.249 4.333c0 .121-.163.157-.199.043l-1.492-4.148a4.027 4.027 0 0 0-3.857-2.664l-3.729.057c-.113 0-.149-.163-.035-.199h-.007ZM115.182 90.079l2.295-1.904a2.942 2.942 0 0 0 .895-3.239l-1.307-3.729c-.029-.085.085-.142.135-.064l1.939 3.005a2.95 2.95 0 0 0 3.509 1.165l1.847-.69c.078-.028.142.072.078.128l-1.712 1.478a2.946 2.946 0 0 0-.789 3.388l1.244 2.92c.035.078-.071.142-.128.078l-2.053-2.486a2.947 2.947 0 0 0-3.317-.881l-2.557.966c-.079.028-.143-.071-.079-.128v-.007ZM129.858 90.079l2.294-1.904a2.94 2.94 0 0 0 .895-3.239l-1.307-3.729c-.029-.085.085-.142.135-.064l1.939 3.005a2.95 2.95 0 0 0 3.509 1.165l1.847-.69c.078-.028.142.072.078.128l-1.712 1.478a2.944 2.944 0 0 0-.788 3.388l1.243 2.92c.035.078-.071.142-.128.078l-2.053-2.486a2.947 2.947 0 0 0-3.317-.881l-2.557.966c-.078.028-.142-.071-.078-.128v-.007ZM44.506 26.03l3.352-1.222a3.527 3.527 0 0 0 2.323-3.29l.043-4.73c0-.106.156-.12.177-.021l.966 4.17a3.537 3.537 0 0 0 3.48 2.734l2.36-.028c.099 0 .127.142.035.177l-2.529.974a3.53 3.53 0 0 0-2.259 3.494l.213 3.793c0 .107-.142.135-.177.036l-1.307-3.637a3.537 3.537 0 0 0-3.381-2.337l-3.268.05c-.1 0-.128-.142-.035-.178l.007.014ZM39.363 43.077l2.01-1.67a2.586 2.586 0 0 0 .789-2.84l-1.144-3.268c-.028-.07.078-.12.12-.057l1.699 2.636c.66 1.023 1.939 1.442 3.075 1.023l1.62-.604c.07-.029.12.064.064.113l-1.5 1.293a2.58 2.58 0 0 0-.688 2.97l1.087 2.556c.028.072-.064.128-.114.072l-1.797-2.181a2.582 2.582 0 0 0-2.905-.774l-2.238.845c-.07.028-.12-.064-.064-.114h-.014ZM52.22 43.077l2.01-1.67a2.586 2.586 0 0 0 .788-2.84l-1.143-3.268c-.029-.07.078-.12.12-.057l1.698 2.636A2.591 2.591 0 0 0 58.77 38.9l1.62-.604c.07-.029.12.064.063.113l-1.498 1.293a2.58 2.58 0 0 0-.69 2.97l1.087 2.556c.029.072-.064.128-.113.072L57.44 43.12a2.582 2.582 0 0 0-2.906-.774l-2.237.845c-.071.028-.12-.064-.064-.114h-.014Z" fill="#FEF6CF"/><mask id="path-17-inside-1_107_104" fill="#fff"><path fill-rule="evenodd" clip-rule="evenodd" d="M35.497 58.203a5 5 0 0 0-3.535 6.124l10.87 40.569a5.001 5.001 0 0 0 6.124 3.536l69.547-18.635a5 5 0 0 0 3.535-6.124l-10.87-40.569a5 5 0 0 0-6.124-3.535L35.497 58.203ZM72.928 85.85l14.697-14.697-20.076-5.38 5.38 20.077Z"/></mask><path fill-rule="evenodd" clip-rule="evenodd" d="M35.497 58.203a5 5 0 0 0-3.535 6.124l10.87 40.569a5.001 5.001 0 0 0 6.124 3.536l69.547-18.635a5 5 0 0 0 3.535-6.124l-10.87-40.569a5 5 0 0 0-6.124-3.535L35.497 58.203ZM72.928 85.85l14.697-14.697-20.076-5.38 5.38 20.077Z" fill="#FCDD42"/><path d="m87.625 71.153.707.707 1.225-1.225-1.673-.448-.259.966ZM72.928 85.85l-.966.259.449 1.673 1.224-1.225-.707-.707Zm-5.38-20.076.26-.966-1.673-.449.448 1.673.966-.258Zm-34.62-1.706a4 4 0 0 1 2.828-4.899l-.517-1.931a6 6 0 0 0-4.243 7.348l1.932-.518Zm10.87 40.569-10.87-40.569-1.932.518 10.87 40.569 1.932-.518Zm4.9 2.829a4 4 0 0 1-4.9-2.829l-1.932.518a6 6 0 0 0 7.349 4.243l-.518-1.932Zm69.546-18.635-69.547 18.635.518 1.932 69.546-18.635-.517-1.932Zm2.828-4.9a4 4 0 0 1-2.828 4.9l.517 1.932a6 6 0 0 0 4.243-7.349l-1.932.518Zm-10.87-40.568 10.87 40.569 1.932-.518-10.87-40.569-1.932.518Zm-4.899-2.829a4 4 0 0 1 4.899 2.829l1.932-.518a6 6 0 0 0-7.349-4.242l.518 1.931ZM35.756 59.17l69.547-18.635-.518-1.931-69.546 18.634.517 1.932Zm51.162 11.277L72.221 85.143l1.414 1.414L88.332 71.86l-1.414-1.414ZM67.29 66.74l20.076 5.379.518-1.932-20.076-5.38-.518 1.933Zm6.604 18.851-5.38-20.076-1.931.517 5.38 20.077 1.931-.518Z" fill="#0081F9" mask="url('#path-17-inside-1_107_104')"/><defs><filter id="filter0_d_107_104" x="0" y="0" width="155" height="155" filterUnits="userSpaceOnUse" color-interpolation-filters="sRGB"><feFlood flood-opacity="0" result="BackgroundImageFix"/><feColorMatrix in="SourceAlpha" values="0 0 0 0 0 0 0 0 0 0 0 0 0 0 0 0 0 0 127 0" result="hardAlpha"/><feOffset dy="4"/><feGaussianBlur stdDeviation="2"/><feComposite in2="hardAlpha" operator="out"/><feColorMatrix values="0 0 0 0 0 0 0 0 0 0 0 0 0 0 0 0 0 0 0.25 0"/><feBlend in2="BackgroundImageFix" result="effect1_dropShadow_107_104"/><feBlend in="SourceGraphic" in2="effect1_dropShadow_107_104" result="shape"/></filter></defs></svg>