<svg width="276" height="313" fill="none" xmlns="http://www.w3.org/2000/svg"><g clip-path="url('#clip0_31_211')"><path d="M236.119 252.665s-3.554-11.435-18.234-9.703l-1.845-10.435-32.289 7.614 4.418 25.232 47.95-12.708Z" fill="#DC429B"/><path d="M225.088 241.378a48.735 48.735 0 0 0-5.863 5.325c-.329.352.205.875.533.524a48.735 48.735 0 0 1 5.863-5.325c.386-.292-.161-.819-.533-.524ZM221.675 241.167l-5.121 5.231c-.333.342.191.871.533.523l5.121-5.231c.333-.342-.191-.871-.533-.523Z" fill="#2C2C2C"/><path d="M176.845 255.64s3.092-11.565-10.243-17.942l4.012-9.81-31.373-10.801-9.733 23.702 47.337 14.851Z" fill="#DC429B"/><path d="M173.629 240.189c-2.66.253-5.307.708-7.897 1.383-.472.122-.276.841.187.724a48.737 48.737 0 0 1 7.701-1.363c.481-.047.485-.8.004-.753l.005.009ZM170.758 238.197c-2.376.564-4.753 1.127-7.124 1.7-.469.109-.277.841.187.723 2.376-.563 4.753-1.127 7.124-1.7.468-.108.277-.841-.187-.723Z" fill="#2C2C2C"/><path d="M167.419 158.753c-7.594 20.308-22.11 42.684-30.606 62.369 9.306 2.918 35.056 15.498 35.056 15.498 8-19.202 16.81-48.503 23.84-70.806 2.338-7.412 1.905-16.342-3.004-22.364-5.334-6.539-15.003-7.446-23.344-6.233-8.346 1.204-20.771 2.523-20.771 2.523l-8.495-9.494-11.245 6.203c-.398.992 2.1 8.718 2.1 8.718l36.478 13.581" fill="#E7A5DD"/><path d="M187.977 159.32c-11.969-9.371-42.233-14.888-56.895-18.905l-7.269-11.969-23.809 18.041c-.054 9.766 3.103 19.894 10.237 26.571 7.501 7.032 17.317 7.334 27.569 8.09 10.251.756 21.604 2.261 31.572 4.785 4.473 16.608 9.471 40.685 13.945 57.293l37.741-6.79c-2.951-11.471-10.526-33.252-13.724-44.65-3.306-11.786-10.048-25.145-19.371-32.452l.004-.014Z" fill="#E7A5DD"/><path d="m121.988 179.405 36.582 4.861c2.755.372 5.914.523 8.266 2.178 2.353 1.656 2.863 4.918 3.7 7.587.483 1.557.975 3.109 1.401 4.687 3.088 11.369 5.789 22.847 8.555 34.298l2.477 10.29c.109.468.841.277.723-.187a3054.091 3054.091 0 0 0-6.618-27.263c-1.391-5.629-2.782-11.258-4.282-16.857-.388-1.451-.775-2.902-1.25-4.325-.772-2.337-1.131-4.959-2.52-7.044-1.388-2.085-3.499-2.921-5.747-3.414-3.146-.689-6.426-.931-9.62-1.362l-10.554-1.401c-7.041-.935-14.081-1.87-21.113-2.809-.475-.062-.479.691-.005.753l.005.008ZM203.498 180.104c-3.763-9.617-10.595-19.991-20.641-23.832-6.301-2.413-12.751-4.844-19.367-6.244-3.512-.743-7.017-1.433-10.512-2.267-3.495-.834-6.892-1.898-10.384-2.365-.537-.071-.534.054-.783-.218-.153-.165-.228-.514-.326-.724l-1.16-2.609-1.785-3.992c-.197-.441-.847-.066-.65.375l1.476 3.316c.57 1.287 1.033 2.81 1.79 4.001.371.582 1.004.518 1.693.651 1.659.335 3.317.706 4.971 1.09 3.39.792 6.778 1.641 10.183 2.377 3.404.737 6.79 1.322 10.127 2.282 3.337.96 6.35 2.038 9.483 3.185 2.836 1.031 5.752 1.922 8.366 3.45 2.614 1.528 4.685 3.334 6.66 5.415 4.423 4.641 7.792 10.317 10.121 16.27.174.442.902.264.723-.187l.015.026Z" fill="#2C2C2C"/><path d="M220.927 235.871c-12.438 2.597-25.026 4.414-37.464 7.011-.473.1-.287.824.187.724 12.438-2.597 25.025-4.415 37.463-7.011.474-.1.287-.824-.186-.724ZM172.158 235.922c-12.038-4.25-23.3-10.357-35.273-14.795-.454-.166-.648.558-.194.724 11.964 4.443 23.23 10.536 35.273 14.795.454.165.643-.567.194-.724Z" fill="#2C2C2C"/><path opacity=".3" d="m152.759 60.742 12.609 22.119 3.316-1.476 3.353-3.933-13.106-23.541s-6.494 3.853-6.167 6.84l-.005-.01Z" fill="#fff"/><path d="m155.869 83.533-6.988 34.316 5.193 1.058 6.988-34.316-5.193-1.058Z" fill="#2C2C2C"/><path d="M151.07 65.135c2.153-8.83 10.499-14.595 17.129-13.93-.422-.173-2.438-.603-2.892-.71-7.038-1.71-14.61 4.555-16.911 13.99-2.301 9.434 1.53 18.47 8.568 20.18.454.107.903.183 1.367.227-6.187-2.456-9.406-10.932-7.253-19.762l-.008.005Z" fill="#2C2C2C"/><path d="M167.989 51.14c-.454-.107-3.645-.493-4.1-.542 6.186 2.456 12.139 11.247 9.986 20.077-2.154 8.83-8.928 14.877-15.544 14.217.422.171.861.31 1.315.418 7.038 1.71 14.61-4.555 16.911-13.99 2.301-9.434-1.53-18.47-8.568-20.18Z" fill="#2C2C2C"/><path d="m137.751 108.586 6.028-8.018s1.989-5.675 4.002-8.189c2.013-2.513 4.045-3.455 5.742-4.215 1.705-.765 6.013-1.624 6.216.787.135 1.654-1.516 1.834-3.713 2.548-2.198.715-4.629 3.343-4.629 3.343s6.904-.141 8.891 2.88c0 0 1.224 1.8-1.577 2.908 0 0 1.817 2.888-1.386 3.941 0 0-3.423-1.349-5.7-1.455l-1.198.126s4.413 2.163 4.784 3.427c.381 1.258.278 2.541-1.039 2.759-1.323.21-2.516-1.677-4.275-1.723 0 0-.265 2.22-.361 3.153-.102.925-6.035 9.408-6.035 9.408s-.594-5.408-1.246-8.138c-.791-3.33-4.512-3.515-4.512-3.515l.008-.027Z" fill="#FFF8F2"/><path d="M154.68 94.69c-2.169-.838-4.7-.382-6.488 1.101-.367.305.166.828.533.524 1.583-1.318 3.844-1.642 5.761-.902.45.18.639-.553.194-.724ZM158.627 100.586c-3.16-2.055-7.121-2.736-10.788-1.866-.468.109-.281.832.187.724a13.253 13.253 0 0 1 10.229 1.796c.405.262.778-.392.372-.654Z" fill="#ED796A"/><path d="M161.905 81.142c4.589-1.91 7.992-6.277 8.704-11.203.075-.47-.654-.673-.724-.194-.695 4.755-3.914 8.9-8.355 10.748-.446.188-.062.832.375.65ZM172.787 53.59c-3.455-4.564-9.905-2.815-13.962-.103-4.36 2.91-7.409 7.568-8.295 12.733-.084.476.64.67.724.195a18.732 18.732 0 0 1 6.919-11.536c3.647-2.844 10.498-5.518 13.973-.919.287.377.941.01.649-.375l-.008.005Z" fill="#fff"/><path d="M58.972 58.078c3.302-2.24 7.431-2.87 11.424-3.073 3.988-.213 8.555 1.677 12.442.75 6.422-1.538 11.834-9.143 17.224-12.947 5.39-3.805 10.265-6.4 16.862-6.075 5.145.251 11.058 3.373 13.952 7.626C133.475 48.18 136.627 63 129.122 75a28.376 28.376 0 0 1-2.979 3.96l.103-.14c-11.893 14.199-29.03 16.137-38.644 19.424-5.44 1.859-11.202 3.119-16.935 2.63-5.737-.498-11.47-2.927-15.072-7.406-3.616-4.483-4.684-11.153-1.838-16.144.859-1.512 2.08-2.957 2.101-4.7.018-1.49-.854-2.821-1.285-4.247-1.157-3.824 1.075-8.057 4.377-10.298l.022-.002Z" fill="#FFB903"/><path d="M120.913 73.182c.014.384.638 13.326.638 13.326l-15.233.735-1.24-18.487 15.83 4.417.005.009Z" fill="#FFF8F2"/><path d="M122.306 77.354s9.736-1.995 9.221-12.887c-.174-3.722-.397-7.669-1.47-14.566-1.153-7.418-6.895-10.223-14.868-9.672l-.79.052c-8.503 1.052-13.648 5.94-12.351 13.886l1.324 7.653s.106 16.844 18.925 15.54" fill="#FFF8F2"/><path d="M103.243 62.056c4.611 3.527 7.396-7.03 11.135-11.613 2.737-3.359 8.679-7.367 9.317-11.742 0 0-9.768-4.799-17.241 1.017-7.474 5.816-7.468 15.766-7.468 15.766l4.262 6.581-.005-.009Z" fill="#FFB903"/><path d="M101.595 61.102c1.326-.603 2.884-.244 4.146.482l.382 6.88c-1.331.677-2.953.747-4.279.07-1.327-.678-2.304-2.111-2.393-3.665-.089-1.554.778-3.151 2.135-3.762l.009-.005Z" fill="#FFF8F2"/><path d="M104.889 64.328c-.326-1.105-1.541-1.928-2.679-1.86a2.555 2.555 0 0 0-1.131.341c-.416.24-.041.89.375.65.087-.05.165-.096.261-.128-.074.031.057-.022.071-.018.034-.02.088-.028.127-.039.04-.011.093-.019.133-.03.009-.005.151-.018.062-.013.076-.009.147-.004.223-.013a.664.664 0 0 1 .13.005c.009-.005.149.018.059.001.085.009.167.03.249.053.082.021.155.048.237.07.041.011.041.011 0 0 .019.013.033.016.06.024l.097.048c.065.032.134.072.204.113.037.025.07.04.098.07.01.017.122.091.043.033.113.097.226.193.327.308.015.026.039.047.067.076l.03.052-.01-.017c.035.06.079.116.119.186l.105.181c.035.061-.023-.079.01.018.015.026.021.057.028.088.057.198.257.325.455.268.198-.057.325-.257.268-.455l-.018-.012ZM121.064 58.245l.524 2.226c.09.376.174.743.264 1.118.077.314.151.64.448.815.214.13.474.142.72.127.12-.011.557-.114.584.033.019.093-.161.3-.202.37-.107.154-.214.309-.313.458-.235.332-.466.673-.71 1.01-.281.394.373.766.654.373.236-.332.466-.673.71-1.01.203-.29.467-.593.58-.935.216-.667-.357-1.1-.969-1.08-.215.008-.565.141-.694-.062-.08-.138-.101-.415-.138-.578-.043-.195-.086-.39-.143-.588-.197-.821-.394-1.643-.577-2.46-.109-.469-.833-.282-.724.186l-.014-.003Z" fill="#FFB903"/><path d="M117.01 66.163c.124-.245.326-.477.586-.546.317-.09.649.064.948.203 1.081.53 2.49 1.253 3.555 1.897-.49.79-1.288 1.748-2.211 1.91-.922.164-1.922-.148-2.537-.855-.611-.698-.775-1.781-.349-2.604l.008-.005Z" fill="#FCA9FF"/><path d="M112.418 37.129c-8.044.568-13.186 7.74-18.922 12.506-3.333 2.768-7.156 4.906-11.597 4.814-4.682-.091-9.01-2.166-13.383-3.6-4.374-1.436-9.444-2.378-13.878-.279-.436.205-.061.855.375.65 8.66-4.1 17.495 3.362 26.1 3.948 8.606.586 13.803-5.833 19.341-10.9 3.394-3.103 7.2-6.051 11.96-6.386.477-.033.482-.786.004-.753Z" fill="#FFB903"/><path d="M109.011 90.388c-.29-2.523-1.738-4.851-3.973-6.101-2.035-1.146-4.568-1.312-6.748-.469-.442.175-.264.903.187.724 1.952-.758 4.184-.673 6.049.318 2.05 1.09 3.464 3.22 3.732 5.524.056.476.809.48.753.004Z" fill="#2C2C2C"/><path d="M106.447 79.767c.908.573 8.068 1.554 14.999 4.458 5.68 2.378 9.259 17.817 10.352 21.331 2.428 7.825 25.126 18.68 12.834 22.809-16.718 5.623-43.603 32.738-49.862 19.297-6.794-14.588-12.518-49.342-2.23-58.862 6.355-5.874 13.893-9.037 13.893-9.037l.014.004Z" fill="#934974"/><path d="m96.627 127.098-9.823 10.486c1.653 3.203 4.383 5.911 7.756 7.174 3.37 1.276 7.371.986 10.345-1.043 3.515-2.41 5.125-6.723 6.368-10.789a45.285 45.285 0 0 1-14.655-5.823l.01-.005Z" fill="#DC429B"/><path d="M89.814 93.238c-4.295 12.041-2.86 20.785-2.894 31.266-.01 3.724.123 7.573 1.7 10.946 2.554 5.443 8.898 8.731 14.861 7.979 4.727-.593 9.123-2.738 13.447-4.75 16.084-7.461 27.642-18.361 27.642-18.361l-5.227-17.293-29.678 15.356.024-24.159" fill="#934974"/><path d="M89.454 93.134c-2.678 7.62-3.244 15.36-3.05 23.377.097 3.928-.02 7.886.234 11.805.253 3.918 1.186 7.594 3.79 10.525 2.234 2.509 5.365 4.212 8.658 4.816 3.873.708 7.758-.322 11.367-1.713 8.109-3.134 15.857-7.434 22.996-12.388 3.957-2.746 7.881-5.67 11.388-8.976a.377.377 0 0 0 .095-.355c-1.743-5.76-3.483-11.534-5.227-17.294a.375.375 0 0 0-.547-.227l-26.032 13.471c-1.216.633-2.429 1.253-3.646 1.886l.558.325.021-21.144.002-3.015c-.002-.484-.755-.488-.752-.004l-.022 21.143-.002 3.015c-.005.292.309.457.557.325l26.032-13.47c1.216-.633 2.429-1.253 3.646-1.886l-.547-.227c1.376 4.563 2.757 9.135 4.142 13.694l.878 2.922c.051.167.083.483.191.629-.131-.167.326-.315-.054-.153-.638.275-1.336 1.186-1.86 1.639a119.563 119.563 0 0 1-3.626 2.959c-8.593 6.717-18.193 12.49-28.391 16.426-5.031 1.947-10.339 2.852-15.305.211-2.16-1.142-4.045-2.826-5.33-4.913-1.598-2.587-2.11-5.652-2.266-8.645-.158-2.992-.064-5.829-.14-8.741-.07-2.662-.154-5.327-.112-7.995.09-6.103 1.046-12.047 3.07-17.8.166-.454-.566-.643-.723-.194l.007-.028Z" fill="#2C2C2C"/><path d="M89.096 88.814c2.38-3.579 6.428-5.986 10.702-6.363 4.274-.378 8.687 1.266 11.664 4.362 2.628 2.732 4.077 6.422 4.732 10.155.654 3.733.56 7.551.466 11.347-.042 1.849-.72 6.813-1.032 7.074l-6.236 3.058s.07-6.438-.173-11.379c-.223-4.386.593-9.753-.404-13-1.291-4.196-5.324-7.64-9.716-7.668-3.406-.02-6.455 1.96-9.27 3.862" fill="#DC429B"/><path d="M53.669 174.012c1.423 3.186 5.156 4.61 8.346 3.196a6.327 6.327 0 0 0 3.195-8.346c-1.415-3.19-5.156-4.61-8.346-3.195-3.185 1.423-4.61 5.155-3.195 8.345Z" stroke="#fff" stroke-miterlimit="10"/><path opacity=".1" d="M207.909 191.031c1.32.016 2.618.204 3.856.558l1.766-1.862a1.316 1.316 0 0 1 1.622-.227l3.333 1.987c.532.312.77.947.575 1.534l-.793 2.439c.904.921 1.69 1.963 2.331 3.117l2.595-.07a1.266 1.266 0 0 1 1.26.956l.975 3.827a1.27 1.27 0 0 1-.655 1.439l-2.312 1.179a14.761 14.761 0 0 1-.558 3.856l2.037 1.933c.34.32.412.844.173 1.244l-2.226 3.749a1 1 0 0 1-1.175.443l-2.67-.869a14.505 14.505 0 0 1-3.118 2.332l.061 2.378a1.544 1.544 0 0 1-1.161 1.537l-3.396.863a1.541 1.541 0 0 1-1.757-.793l-1.082-2.116a14.76 14.76 0 0 1-3.855-.558l-1.88 1.977a1.1 1.1 0 0 1-1.37.187l-3.611-2.149a1.113 1.113 0 0 1-.488-1.295l.84-2.595a14.468 14.468 0 0 1-2.331-3.118l-2.569.07a1.307 1.307 0 0 1-1.297-.979l-.963-3.778c-.149-.589.128-1.2.671-1.479l2.289-1.169c.016-1.319.205-2.617.558-3.855l-2.07-1.962a.942.942 0 0 1-.161-1.169l2.286-3.83a.95.95 0 0 1 1.108-.418l2.714.88a14.524 14.524 0 0 1 3.117-2.332l-.065-2.507a1.383 1.383 0 0 1 1.044-1.374l3.649-.933a1.379 1.379 0 0 1 1.572.711l1.139 2.228-.008.013Zm-.404 8.26a6.41 6.41 0 0 0-5.347 8.999 6.41 6.41 0 1 0 11.71-5.214c-1.075-2.467-3.68-4.011-6.363-3.785Z" fill="#39DBEA"/></g><defs><clipPath id="clip0_31_211"><path fill="#fff" transform="rotate(-30 153.229 41.057)" d="M0 0h164.23v266.109H0z"/></clipPath></defs></svg>