<svg width="27" height="19" fill="none" xmlns="http://www.w3.org/2000/svg"><path d="m10.65 13.424 6.91-4.027-6.91-4.027v8.054Zm15.39-10.51c.172.63.292 1.476.372 2.55.093 1.074.133 2 .133 2.805l.08 1.128c0 2.94-.213 5.101-.586 6.484-.333 1.208-1.105 1.987-2.303 2.322-.626.175-1.77.296-3.528.376-1.73.094-3.314.135-4.779.135l-2.117.08c-5.577 0-9.052-.215-10.423-.59C1.69 17.867.919 17.088.586 15.88c-.173-.63-.293-1.477-.373-2.55a32.57 32.57 0 0 1-.133-2.806L0 9.397c0-2.94.213-5.101.586-6.484C.919 1.705 1.69.926 2.889.591 3.515.416 4.659.295 6.417.215A87.99 87.99 0 0 1 11.196.08L13.313 0c5.577 0 9.052.215 10.423.59 1.198.336 1.97 1.115 2.303 2.323Z" fill="red"/></svg>